<?xml version="1.0" encoding="us-ascii" standalone="no"?><svg xmlns="http://www.w3.org/2000/svg" xmlns:xlink="http://www.w3.org/1999/xlink" contentStyleType="text/css" height="439px" preserveAspectRatio="none" style="width:494px;height:439px;" version="1.1" viewBox="0 0 494 439" width="494px" zoomAndPan="magnify"><defs><filter height="300%" id="f1tjg02f544aor" width="300%" x="-1" y="-1"><feGaussianBlur result="blurOut" stdDeviation="2.0"/><feColorMatrix in="blurOut" result="blurOut2" type="matrix" values="0 0 0 0 0 0 0 0 0 0 0 0 0 0 0 0 0 0 .4 0"/><feOffset dx="4.0" dy="4.0" in="blurOut2" result="blurOut3"/><feBlend in="SourceGraphic" in2="blurOut3" mode="normal"/></filter></defs><g><!--class ABICacheInterface--><g id="elem_ABICacheInterface"><rect codeLine="10" fill="#FCF2CC" filter="url(#f1tjg02f544aor)" height="113.9531" id="ABICacheInterface" style="stroke:#5A0000;stroke-width:2.0;" width="452" x="18.5" y="123.49"/><ellipse cx="175.75" cy="139.49" fill="#B4A7E5" rx="11" ry="11" style="stroke:#181818;stroke-width:1.0;"/><path d="M172.1777,135.7551 L172.1777,133.5969 L179.5571,133.5969 L179.5571,135.7551 L177.0918,135.7551 L177.0918,143.8318 L179.5571,143.8318 L179.5571,145.99 L172.1777,145.99 L172.1777,143.8318 L174.6431,143.8318 L174.6431,135.7551 Z " fill="#000000"/><text fill="#000000" font-family="sans-serif" font-size="14" font-style="italic" font-weight="bold" lengthAdjust="spacing" textLength="129" x="196.25" y="144.781">ABICacheInterface</text><line style="stroke:#5A0000;stroke-width:2.0;" x1="19.5" x2="469.5" y1="155.49" y2="155.49"/><ellipse cx="29.5" cy="169.2341" fill="none" rx="3" ry="3" style="stroke:#038048;stroke-width:1.0;"/><text fill="#000000" font-family="sans-serif" font-size="14" font-weight="bold" lengthAdjust="spacing" textLength="39" x="38.5" y="173.0252">cache</text><text fill="#000000" font-family="sans-serif" font-size="14" lengthAdjust="spacing" textLength="129" x="81.5" y="173.0252">: Map&lt;string, ABI&gt;</text><ellipse cx="29.5" cy="185.7224" fill="none" rx="3" ry="3" style="stroke:#038048;stroke-width:1.0;"/><text fill="#000000" font-family="sans-serif" font-size="14" font-weight="bold" lengthAdjust="spacing" textLength="58" x="38.5" y="189.5134">pending</text><text fill="#000000" font-family="sans-serif" font-size="14" lengthAdjust="spacing" textLength="324" x="100.5" y="189.5134">: Map&lt;string, Promise&lt;GetRawAbiResponse&gt;&gt;</text><line style="stroke:#5A0000;stroke-width:2.0;" x1="19.5" x2="469.5" y1="196.4666" y2="196.4666"/><ellipse cx="29.5" cy="210.2107" fill="#84BE84" rx="3" ry="3" style="stroke:#038048;stroke-width:1.0;"/><text fill="#000000" font-family="sans-serif" font-size="14" lengthAdjust="spacing" textLength="300" x="38.5" y="214.0017">getAbi(account: NameType) : Promise&lt;ABI&gt;</text><ellipse cx="29.5" cy="226.699" fill="#84BE84" rx="3" ry="3" style="stroke:#038048;stroke-width:1.0;"/><text fill="#000000" font-family="sans-serif" font-size="14" lengthAdjust="spacing" textLength="426" x="38.5" y="230.49">setAbi(account: NameType, abi: ABIDef, merge: boolean) : void</text></g><!--class AbiProvider--><g id="elem_AbiProvider"><rect codeLine="16" fill="#FCF2CC" filter="url(#f1tjg02f544aor)" height="56.4883" id="AbiProvider" style="stroke:#5A0000;stroke-width:2.0;" width="145" x="172" y="7"/><ellipse cx="200.05" cy="23" fill="#B4A7E5" rx="11" ry="11" style="stroke:#181818;stroke-width:1.0;"/><path d="M196.4777,19.2651 L196.4777,17.1069 L203.8571,17.1069 L203.8571,19.2651 L201.3918,19.2651 L201.3918,27.3418 L203.8571,27.3418 L203.8571,29.5 L196.4777,29.5 L196.4777,27.3418 L198.9431,27.3418 L198.9431,19.2651 Z " fill="#000000"/><text fill="#000000" font-family="sans-serif" font-size="14" font-style="italic" font-weight="bold" lengthAdjust="spacing" textLength="84" x="216.95" y="28.291">AbiProvider</text><line style="stroke:#5A0000;stroke-width:2.0;" x1="173" x2="316" y1="39" y2="39"/><ellipse cx="183" cy="52.7441" fill="none" rx="3" ry="3" style="stroke:#038048;stroke-width:1.0;"/><text fill="#000000" font-family="sans-serif" font-size="14" font-weight="bold" lengthAdjust="spacing" textLength="47" x="192" y="56.5352">getAbi</text><text fill="#000000" font-family="sans-serif" font-size="14" lengthAdjust="spacing" textLength="68" x="243" y="56.5352">: Function</text></g><!--class ABICache--><g id="elem_ABICache"><rect codeLine="20" fill="#FCF2CC" filter="url(#f1tjg02f544aor)" height="130.4414" id="ABICache" style="stroke:#5A0000;stroke-width:2.0;" width="475" x="7" y="297.44"/><ellipse cx="207.25" cy="313.44" fill="#ADD1B2" rx="11" ry="11" style="stroke:#181818;stroke-width:1.0;"/><path d="M209.7231,319.5831 Q209.1421,319.8819 208.5029,320.0313 Q207.8638,320.1807 207.1582,320.1807 Q204.6514,320.1807 203.3315,318.5289 Q202.0117,316.877 202.0117,313.7559 Q202.0117,310.6265 203.3315,308.9747 Q204.6514,307.3228 207.1582,307.3228 Q207.8638,307.3228 208.5112,307.4722 Q209.1587,307.6216 209.7231,307.9205 L209.7231,310.6431 Q209.0923,310.0621 208.4988,309.7923 Q207.9053,309.5225 207.2744,309.5225 Q205.9297,309.5225 205.2449,310.5892 Q204.5601,311.6558 204.5601,313.7559 Q204.5601,315.8477 205.2449,316.9144 Q205.9297,317.981 207.2744,317.981 Q207.9053,317.981 208.4988,317.7112 Q209.0923,317.4415 209.7231,316.8604 Z " fill="#000000"/><text fill="#000000" font-family="sans-serif" font-size="14" font-weight="bold" lengthAdjust="spacing" textLength="66" x="227.75" y="318.731">ABICache</text><line style="stroke:#5A0000;stroke-width:2.0;" x1="8" x2="481" y1="329.44" y2="329.44"/><ellipse cx="18" cy="343.1841" fill="none" rx="3" ry="3" style="stroke:#038048;stroke-width:1.0;"/><text fill="#000000" font-family="sans-serif" font-size="14" font-weight="bold" lengthAdjust="spacing" textLength="39" x="27" y="346.9752">cache</text><text fill="#000000" font-family="sans-serif" font-size="14" lengthAdjust="spacing" textLength="129" x="70" y="346.9752">: Map&lt;string, ABI&gt;</text><ellipse cx="18" cy="359.6724" fill="none" rx="3" ry="3" style="stroke:#038048;stroke-width:1.0;"/><text fill="#000000" font-family="sans-serif" font-size="14" font-weight="bold" lengthAdjust="spacing" textLength="40" x="27" y="363.4634">client</text><text fill="#000000" font-family="sans-serif" font-size="14" lengthAdjust="spacing" textLength="70" x="71" y="363.4634">: APIClient</text><ellipse cx="18" cy="376.1607" fill="none" rx="3" ry="3" style="stroke:#038048;stroke-width:1.0;"/><text fill="#000000" font-family="sans-serif" font-size="14" font-weight="bold" lengthAdjust="spacing" textLength="58" x="27" y="379.9517">pending</text><text fill="#000000" font-family="sans-serif" font-size="14" lengthAdjust="spacing" textLength="324" x="89" y="379.9517">: Map&lt;string, Promise&lt;GetRawAbiResponse&gt;&gt;</text><line style="stroke:#5A0000;stroke-width:2.0;" x1="8" x2="481" y1="386.9048" y2="386.9048"/><ellipse cx="18" cy="400.649" fill="#84BE84" rx="3" ry="3" style="stroke:#038048;stroke-width:1.0;"/><text fill="#000000" font-family="sans-serif" font-size="14" lengthAdjust="spacing" textLength="300" x="27" y="404.44">getAbi(account: NameType) : Promise&lt;ABI&gt;</text><ellipse cx="18" cy="417.1373" fill="#84BE84" rx="3" ry="3" style="stroke:#038048;stroke-width:1.0;"/><text fill="#000000" font-family="sans-serif" font-size="14" lengthAdjust="spacing" textLength="449" x="27" y="420.9283">setAbi(account: NameType, abiDef: ABIDef, merge: boolean) : void</text></g><!--reverse link AbiProvider to ABICacheInterface--><g id="link_AbiProvider_ABICacheInterface"><path codeLine="19" d="M244.5,81.86 C244.5,98.68 244.5,102.8 244.5,123.18 " fill="none" id="AbiProvider-backto-ABICacheInterface" style="stroke:#181818;stroke-width:1.0;"/><polygon fill="none" points="244.5,63.86,238.5,81.86,250.5,81.86,244.5,63.86" style="stroke:#181818;stroke-width:1.0;"/></g><!--reverse link ABICacheInterface to ABICache--><g id="link_ABICacheInterface_ABICache"><path codeLine="27" d="M244.5,255.49 C244.5,274.4 244.5,277.65 244.5,297.16 " fill="none" id="ABICacheInterface-backto-ABICache" style="stroke:#181818;stroke-width:1.0;stroke-dasharray:7.0,7.0;"/><polygon fill="none" points="244.5,237.49,238.5,255.49,250.5,255.49,244.5,237.49" style="stroke:#181818;stroke-width:1.0;"/></g><!--SRC=[pLBDRi8m3BxtAInEcmOC8Us2gahGYOd39WIyW9kuRKIRL4a0eR5tdpjWbAsJjjjoo_VZs9_ZrafNQB64k43dfaRxfTyN18afPE2ksGcATMRDHilO5CP2AjAX4DzKnagoHyK33lWq58kZssgoC6Xthd8brfgSWs6GAqb0PUNta2egf6iY9VdSC7IfiinHcftI6NYxeGRnjNDlKJkcIFj0QKysHK7G6KzcCOgSPcUe0wy1yBaBaqZKJ7YVH322Pwn2vos_r0KsHP-YYhHaj4KsjwPKZi8dyWlSZHEr85SPxIWwkJFoZDwW4Dod7y4BbhJQLtJBXSxcorlk1tKNC56Zkgb7IhkSaSrenDiq1Q6kIssDai7RrTI9ulfR3jOsvptsSvfakj72AwFPUQqF3xrUMt21g3TwOVwSf2WKR-Ua6izdySVzdmND6VyYwxP_5Hxw_KOwxm00]--></g></svg>