<?xml version="1.0" encoding="us-ascii" standalone="no"?><svg xmlns="http://www.w3.org/2000/svg" xmlns:xlink="http://www.w3.org/1999/xlink" contentStyleType="text/css" height="975px" preserveAspectRatio="none" style="width:756px;height:975px;" version="1.1" viewBox="0 0 756 975" width="756px" zoomAndPan="magnify"><defs><filter height="300%" id="fob05emxs167q" width="300%" x="-1" y="-1"><feGaussianBlur result="blurOut" stdDeviation="2.0"/><feColorMatrix in="blurOut" result="blurOut2" type="matrix" values="0 0 0 0 0 0 0 0 0 0 0 0 0 0 0 0 0 0 .4 0"/><feOffset dx="4.0" dy="4.0" in="blurOut2" result="blurOut3"/><feBlend in="SourceGraphic" in2="blurOut3" mode="normal"/></filter></defs><g><!--class AccountVoterInfo--><g id="elem_AccountVoterInfo"><rect codeLine="10" fill="#FCF2CC" filter="url(#fob05emxs167q)" height="311.8125" id="AccountVoterInfo" style="stroke:#5A0000;stroke-width:2.0;" width="351" x="200" y="213.93"/><ellipse cx="308.75" cy="229.93" fill="#ADD1B2" rx="11" ry="11" style="stroke:#181818;stroke-width:1.0;"/><path d="M311.2231,236.0731 Q310.6421,236.3719 310.0029,236.5213 Q309.3638,236.6707 308.6582,236.6707 Q306.1514,236.6707 304.8315,235.0189 Q303.5117,233.367 303.5117,230.2459 Q303.5117,227.1165 304.8315,225.4647 Q306.1514,223.8128 308.6582,223.8128 Q309.3638,223.8128 310.0112,223.9622 Q310.6587,224.1116 311.2231,224.4105 L311.2231,227.1331 Q310.5923,226.5521 309.9988,226.2823 Q309.4053,226.0125 308.7744,226.0125 Q307.4297,226.0125 306.7449,227.0792 Q306.0601,228.1458 306.0601,230.2459 Q306.0601,232.3377 306.7449,233.4044 Q307.4297,234.471 308.7744,234.471 Q309.4053,234.471 309.9988,234.2012 Q310.5923,233.9315 311.2231,233.3504 Z " fill="#000000"/><text fill="#000000" font-family="sans-serif" font-size="14" font-weight="bold" lengthAdjust="spacing" textLength="125" x="329.25" y="235.221">AccountVoterInfo</text><line style="stroke:#5A0000;stroke-width:2.0;" x1="201" x2="550" y1="245.93" y2="245.93"/><ellipse cx="211" cy="259.6741" fill="none" rx="3" ry="3" style="stroke:#038048;stroke-width:1.0;"/><text fill="#000000" font-family="sans-serif" font-size="14" font-weight="bold" lengthAdjust="spacing" text-decoration="underline" textLength="55" x="220" y="263.4652">abiBase</text><text fill="#000000" font-family="sans-serif" font-size="14" lengthAdjust="spacing" text-decoration="underline" textLength="191" x="279" y="263.4652">: ABISerializableConstructor</text><ellipse cx="211" cy="276.1624" fill="none" rx="3" ry="3" style="stroke:#038048;stroke-width:1.0;"/><text fill="#000000" font-family="sans-serif" font-size="14" font-weight="bold" lengthAdjust="spacing" text-decoration="underline" textLength="65" x="220" y="279.9534">abiFields</text><text fill="#000000" font-family="sans-serif" font-size="14" lengthAdjust="spacing" text-decoration="underline" textLength="73" x="289" y="279.9534">: ABIField[]</text><ellipse cx="211" cy="292.6507" fill="none" rx="3" ry="3" style="stroke:#038048;stroke-width:1.0;"/><text fill="#000000" font-family="sans-serif" font-size="14" font-weight="bold" lengthAdjust="spacing" text-decoration="underline" textLength="63" x="220" y="296.4417">abiName</text><text fill="#000000" font-family="sans-serif" font-size="14" lengthAdjust="spacing" text-decoration="underline" textLength="48" x="287" y="296.4417">: string</text><ellipse cx="211" cy="309.139" fill="none" rx="3" ry="3" style="stroke:#038048;stroke-width:1.0;"/><text fill="#000000" font-family="sans-serif" font-size="14" font-weight="bold" lengthAdjust="spacing" textLength="45" x="220" y="312.93">flags1</text><text fill="#000000" font-family="sans-serif" font-size="14" lengthAdjust="spacing" textLength="54" x="269" y="312.93">: UInt32</text><ellipse cx="211" cy="325.6273" fill="none" rx="3" ry="3" style="stroke:#038048;stroke-width:1.0;"/><text fill="#000000" font-family="sans-serif" font-size="14" font-weight="bold" lengthAdjust="spacing" textLength="60" x="220" y="329.4183">is_proxy</text><text fill="#000000" font-family="sans-serif" font-size="14" lengthAdjust="spacing" textLength="64" x="284" y="329.4183">: boolean</text><ellipse cx="211" cy="342.1155" fill="none" rx="3" ry="3" style="stroke:#038048;stroke-width:1.0;"/><text fill="#000000" font-family="sans-serif" font-size="14" font-weight="bold" lengthAdjust="spacing" textLength="121" x="220" y="345.9066">last_vote_weight</text><text fill="#000000" font-family="sans-serif" font-size="14" lengthAdjust="spacing" textLength="60" x="345" y="345.9066">: Float64</text><ellipse cx="211" cy="358.6038" fill="none" rx="3" ry="3" style="stroke:#038048;stroke-width:1.0;"/><text fill="#000000" font-family="sans-serif" font-size="14" font-weight="bold" lengthAdjust="spacing" textLength="44" x="220" y="362.3948">owner</text><text fill="#000000" font-family="sans-serif" font-size="14" lengthAdjust="spacing" textLength="47" x="268" y="362.3948">: Name</text><ellipse cx="211" cy="375.0921" fill="none" rx="3" ry="3" style="stroke:#038048;stroke-width:1.0;"/><text fill="#000000" font-family="sans-serif" font-size="14" font-weight="bold" lengthAdjust="spacing" textLength="71" x="220" y="378.8831">producers</text><text fill="#000000" font-family="sans-serif" font-size="14" lengthAdjust="spacing" textLength="57" x="295" y="378.8831">: Name[]</text><ellipse cx="211" cy="391.5804" fill="none" rx="3" ry="3" style="stroke:#038048;stroke-width:1.0;"/><text fill="#000000" font-family="sans-serif" font-size="14" font-weight="bold" lengthAdjust="spacing" textLength="148" x="220" y="395.3714">proxied_vote_weight</text><text fill="#000000" font-family="sans-serif" font-size="14" lengthAdjust="spacing" textLength="60" x="372" y="395.3714">: Float64</text><ellipse cx="211" cy="408.0687" fill="none" rx="3" ry="3" style="stroke:#038048;stroke-width:1.0;"/><text fill="#000000" font-family="sans-serif" font-size="14" font-weight="bold" lengthAdjust="spacing" textLength="40" x="220" y="411.8597">proxy</text><text fill="#000000" font-family="sans-serif" font-size="14" lengthAdjust="spacing" textLength="47" x="264" y="411.8597">: Name</text><ellipse cx="211" cy="424.557" fill="none" rx="3" ry="3" style="stroke:#038048;stroke-width:1.0;"/><text fill="#000000" font-family="sans-serif" font-size="14" font-weight="bold" lengthAdjust="spacing" textLength="70" x="220" y="428.348">reserved2</text><text fill="#000000" font-family="sans-serif" font-size="14" lengthAdjust="spacing" textLength="54" x="294" y="428.348">: UInt32</text><ellipse cx="211" cy="441.0452" fill="none" rx="3" ry="3" style="stroke:#038048;stroke-width:1.0;"/><text fill="#000000" font-family="sans-serif" font-size="14" font-weight="bold" lengthAdjust="spacing" textLength="70" x="220" y="444.8362">reserved3</text><text fill="#000000" font-family="sans-serif" font-size="14" lengthAdjust="spacing" textLength="48" x="294" y="444.8362">: string</text><ellipse cx="211" cy="457.5335" fill="none" rx="3" ry="3" style="stroke:#038048;stroke-width:1.0;"/><text fill="#000000" font-family="sans-serif" font-size="14" font-weight="bold" lengthAdjust="spacing" textLength="48" x="220" y="461.3245">staked</text><text fill="#000000" font-family="sans-serif" font-size="14" lengthAdjust="spacing" textLength="44" x="272" y="461.3245">: Int64</text><line style="stroke:#5A0000;stroke-width:2.0;" x1="201" x2="550" y1="468.2777" y2="468.2777"/><ellipse cx="211" cy="482.0218" fill="#84BE84" rx="3" ry="3" style="stroke:#038048;stroke-width:1.0;"/><text fill="#000000" font-family="sans-serif" font-size="14" lengthAdjust="spacing" textLength="192" x="220" y="485.8128">equals(other: any) : boolean</text><ellipse cx="211" cy="498.5101" fill="#84BE84" rx="3" ry="3" style="stroke:#038048;stroke-width:1.0;"/><text fill="#000000" font-family="sans-serif" font-size="14" lengthAdjust="spacing" text-decoration="underline" textLength="325" x="220" y="502.3011">from&lt;T&gt;(this: T, value: any) : InstanceType&lt;T&gt;</text><ellipse cx="211" cy="514.9984" fill="#84BE84" rx="3" ry="3" style="stroke:#038048;stroke-width:1.0;"/><text fill="#000000" font-family="sans-serif" font-size="14" lengthAdjust="spacing" text-decoration="underline" textLength="187" x="220" y="518.7894">from(value: any) : unknown</text></g><!--class Struct--><g id="elem_Struct"><rect codeLine="28" fill="#FCF2CC" filter="url(#fob05emxs167q)" height="146.9297" id="Struct" style="stroke:#5A0000;stroke-width:2.0;" width="351" x="200" y="7"/><ellipse cx="350.25" cy="23" fill="#ADD1B2" rx="11" ry="11" style="stroke:#181818;stroke-width:1.0;"/><path d="M352.7231,29.1431 Q352.1421,29.4419 351.5029,29.5913 Q350.8638,29.7407 350.1582,29.7407 Q347.6514,29.7407 346.3315,28.0889 Q345.0117,26.437 345.0117,23.3159 Q345.0117,20.1865 346.3315,18.5347 Q347.6514,16.8828 350.1582,16.8828 Q350.8638,16.8828 351.5112,17.0322 Q352.1587,17.1816 352.7231,17.4805 L352.7231,20.2031 Q352.0923,19.6221 351.4988,19.3523 Q350.9053,19.0825 350.2744,19.0825 Q348.9297,19.0825 348.2449,20.1492 Q347.5601,21.2158 347.5601,23.3159 Q347.5601,25.4077 348.2449,26.4744 Q348.9297,27.541 350.2744,27.541 Q350.9053,27.541 351.4988,27.2712 Q352.0923,27.0015 352.7231,26.4204 Z " fill="#000000"/><text fill="#000000" font-family="sans-serif" font-size="14" font-weight="bold" lengthAdjust="spacing" textLength="42" x="370.75" y="28.291">Struct</text><line style="stroke:#5A0000;stroke-width:2.0;" x1="201" x2="550" y1="39" y2="39"/><ellipse cx="211" cy="52.7441" fill="none" rx="3" ry="3" style="stroke:#038048;stroke-width:1.0;"/><text fill="#000000" font-family="sans-serif" font-size="14" font-weight="bold" lengthAdjust="spacing" text-decoration="underline" textLength="55" x="220" y="56.5352">abiBase</text><text fill="#000000" font-family="sans-serif" font-size="14" lengthAdjust="spacing" text-decoration="underline" textLength="191" x="279" y="56.5352">: ABISerializableConstructor</text><ellipse cx="211" cy="69.2324" fill="none" rx="3" ry="3" style="stroke:#038048;stroke-width:1.0;"/><text fill="#000000" font-family="sans-serif" font-size="14" font-weight="bold" lengthAdjust="spacing" text-decoration="underline" textLength="65" x="220" y="73.0234">abiFields</text><text fill="#000000" font-family="sans-serif" font-size="14" lengthAdjust="spacing" text-decoration="underline" textLength="73" x="289" y="73.0234">: ABIField[]</text><ellipse cx="211" cy="85.7207" fill="none" rx="3" ry="3" style="stroke:#038048;stroke-width:1.0;"/><text fill="#000000" font-family="sans-serif" font-size="14" font-weight="bold" lengthAdjust="spacing" text-decoration="underline" textLength="63" x="220" y="89.5117">abiName</text><text fill="#000000" font-family="sans-serif" font-size="14" lengthAdjust="spacing" text-decoration="underline" textLength="48" x="287" y="89.5117">: string</text><line style="stroke:#5A0000;stroke-width:2.0;" x1="201" x2="550" y1="96.4648" y2="96.4648"/><ellipse cx="211" cy="110.209" fill="#84BE84" rx="3" ry="3" style="stroke:#038048;stroke-width:1.0;"/><text fill="#000000" font-family="sans-serif" font-size="14" lengthAdjust="spacing" textLength="192" x="220" y="114">equals(other: any) : boolean</text><ellipse cx="211" cy="126.6973" fill="#84BE84" rx="3" ry="3" style="stroke:#038048;stroke-width:1.0;"/><text fill="#000000" font-family="sans-serif" font-size="14" lengthAdjust="spacing" text-decoration="underline" textLength="325" x="220" y="130.4883">from&lt;T&gt;(this: T, value: any) : InstanceType&lt;T&gt;</text><ellipse cx="211" cy="143.1855" fill="#84BE84" rx="3" ry="3" style="stroke:#038048;stroke-width:1.0;"/><text fill="#000000" font-family="sans-serif" font-size="14" lengthAdjust="spacing" text-decoration="underline" textLength="187" x="220" y="146.9766">from(value: any) : unknown</text></g><!--class TelosAccountVoterInfo--><g id="elem_TelosAccountVoterInfo"><rect codeLine="37" fill="#FCF2CC" filter="url(#fob05emxs167q)" height="328.3008" id="TelosAccountVoterInfo" style="stroke:#5A0000;stroke-width:2.0;" width="351" x="7" y="610.48"/><ellipse cx="95.75" cy="626.48" fill="#ADD1B2" rx="11" ry="11" style="stroke:#181818;stroke-width:1.0;"/><path d="M98.2231,632.6231 Q97.6421,632.9219 97.0029,633.0713 Q96.3638,633.2207 95.6582,633.2207 Q93.1514,633.2207 91.8315,631.5689 Q90.5117,629.917 90.5117,626.7959 Q90.5117,623.6665 91.8315,622.0147 Q93.1514,620.3628 95.6582,620.3628 Q96.3638,620.3628 97.0112,620.5122 Q97.6587,620.6616 98.2231,620.9605 L98.2231,623.6831 Q97.5923,623.1021 96.9988,622.8323 Q96.4053,622.5625 95.7744,622.5625 Q94.4297,622.5625 93.7449,623.6292 Q93.0601,624.6958 93.0601,626.7959 Q93.0601,628.8877 93.7449,629.9544 Q94.4297,631.021 95.7744,631.021 Q96.4053,631.021 96.9988,630.7512 Q97.5923,630.4815 98.2231,629.9004 Z " fill="#000000"/><text fill="#000000" font-family="sans-serif" font-size="14" font-weight="bold" lengthAdjust="spacing" textLength="165" x="116.25" y="631.771">TelosAccountVoterInfo</text><line style="stroke:#5A0000;stroke-width:2.0;" x1="8" x2="357" y1="642.48" y2="642.48"/><ellipse cx="18" cy="656.2241" fill="none" rx="3" ry="3" style="stroke:#038048;stroke-width:1.0;"/><text fill="#000000" font-family="sans-serif" font-size="14" font-weight="bold" lengthAdjust="spacing" text-decoration="underline" textLength="55" x="27" y="660.0152">abiBase</text><text fill="#000000" font-family="sans-serif" font-size="14" lengthAdjust="spacing" text-decoration="underline" textLength="191" x="86" y="660.0152">: ABISerializableConstructor</text><ellipse cx="18" cy="672.7124" fill="none" rx="3" ry="3" style="stroke:#038048;stroke-width:1.0;"/><text fill="#000000" font-family="sans-serif" font-size="14" font-weight="bold" lengthAdjust="spacing" text-decoration="underline" textLength="65" x="27" y="676.5034">abiFields</text><text fill="#000000" font-family="sans-serif" font-size="14" lengthAdjust="spacing" text-decoration="underline" textLength="73" x="96" y="676.5034">: ABIField[]</text><ellipse cx="18" cy="689.2007" fill="none" rx="3" ry="3" style="stroke:#038048;stroke-width:1.0;"/><text fill="#000000" font-family="sans-serif" font-size="14" font-weight="bold" lengthAdjust="spacing" text-decoration="underline" textLength="63" x="27" y="692.9917">abiName</text><text fill="#000000" font-family="sans-serif" font-size="14" lengthAdjust="spacing" text-decoration="underline" textLength="48" x="94" y="692.9917">: string</text><ellipse cx="18" cy="705.689" fill="none" rx="3" ry="3" style="stroke:#038048;stroke-width:1.0;"/><text fill="#000000" font-family="sans-serif" font-size="14" font-weight="bold" lengthAdjust="spacing" textLength="45" x="27" y="709.48">flags1</text><text fill="#000000" font-family="sans-serif" font-size="14" lengthAdjust="spacing" textLength="54" x="76" y="709.48">: UInt32</text><ellipse cx="18" cy="722.1773" fill="none" rx="3" ry="3" style="stroke:#038048;stroke-width:1.0;"/><text fill="#000000" font-family="sans-serif" font-size="14" font-weight="bold" lengthAdjust="spacing" textLength="60" x="27" y="725.9683">is_proxy</text><text fill="#000000" font-family="sans-serif" font-size="14" lengthAdjust="spacing" textLength="64" x="91" y="725.9683">: boolean</text><ellipse cx="18" cy="738.6655" fill="none" rx="3" ry="3" style="stroke:#038048;stroke-width:1.0;"/><text fill="#000000" font-family="sans-serif" font-size="14" font-weight="bold" lengthAdjust="spacing" textLength="73" x="27" y="742.4566">last_stake</text><text fill="#000000" font-family="sans-serif" font-size="14" lengthAdjust="spacing" textLength="44" x="104" y="742.4566">: Int64</text><ellipse cx="18" cy="755.1538" fill="none" rx="3" ry="3" style="stroke:#038048;stroke-width:1.0;"/><text fill="#000000" font-family="sans-serif" font-size="14" font-weight="bold" lengthAdjust="spacing" textLength="121" x="27" y="758.9448">last_vote_weight</text><text fill="#000000" font-family="sans-serif" font-size="14" lengthAdjust="spacing" textLength="60" x="152" y="758.9448">: Float64</text><ellipse cx="18" cy="771.6421" fill="none" rx="3" ry="3" style="stroke:#038048;stroke-width:1.0;"/><text fill="#000000" font-family="sans-serif" font-size="14" font-weight="bold" lengthAdjust="spacing" textLength="44" x="27" y="775.4331">owner</text><text fill="#000000" font-family="sans-serif" font-size="14" lengthAdjust="spacing" textLength="47" x="75" y="775.4331">: Name</text><ellipse cx="18" cy="788.1304" fill="none" rx="3" ry="3" style="stroke:#038048;stroke-width:1.0;"/><text fill="#000000" font-family="sans-serif" font-size="14" font-weight="bold" lengthAdjust="spacing" textLength="71" x="27" y="791.9214">producers</text><text fill="#000000" font-family="sans-serif" font-size="14" lengthAdjust="spacing" textLength="57" x="102" y="791.9214">: Name[]</text><ellipse cx="18" cy="804.6187" fill="none" rx="3" ry="3" style="stroke:#038048;stroke-width:1.0;"/><text fill="#000000" font-family="sans-serif" font-size="14" font-weight="bold" lengthAdjust="spacing" textLength="148" x="27" y="808.4097">proxied_vote_weight</text><text fill="#000000" font-family="sans-serif" font-size="14" lengthAdjust="spacing" textLength="60" x="179" y="808.4097">: Float64</text><ellipse cx="18" cy="821.107" fill="none" rx="3" ry="3" style="stroke:#038048;stroke-width:1.0;"/><text fill="#000000" font-family="sans-serif" font-size="14" font-weight="bold" lengthAdjust="spacing" textLength="40" x="27" y="824.898">proxy</text><text fill="#000000" font-family="sans-serif" font-size="14" lengthAdjust="spacing" textLength="47" x="71" y="824.898">: Name</text><ellipse cx="18" cy="837.5952" fill="none" rx="3" ry="3" style="stroke:#038048;stroke-width:1.0;"/><text fill="#000000" font-family="sans-serif" font-size="14" font-weight="bold" lengthAdjust="spacing" textLength="70" x="27" y="841.3863">reserved2</text><text fill="#000000" font-family="sans-serif" font-size="14" lengthAdjust="spacing" textLength="54" x="101" y="841.3863">: UInt32</text><ellipse cx="18" cy="854.0835" fill="none" rx="3" ry="3" style="stroke:#038048;stroke-width:1.0;"/><text fill="#000000" font-family="sans-serif" font-size="14" font-weight="bold" lengthAdjust="spacing" textLength="70" x="27" y="857.8745">reserved3</text><text fill="#000000" font-family="sans-serif" font-size="14" lengthAdjust="spacing" textLength="48" x="101" y="857.8745">: string</text><ellipse cx="18" cy="870.5718" fill="none" rx="3" ry="3" style="stroke:#038048;stroke-width:1.0;"/><text fill="#000000" font-family="sans-serif" font-size="14" font-weight="bold" lengthAdjust="spacing" textLength="48" x="27" y="874.3628">staked</text><text fill="#000000" font-family="sans-serif" font-size="14" lengthAdjust="spacing" textLength="44" x="79" y="874.3628">: Int64</text><line style="stroke:#5A0000;stroke-width:2.0;" x1="8" x2="357" y1="881.3159" y2="881.3159"/><ellipse cx="18" cy="895.0601" fill="#84BE84" rx="3" ry="3" style="stroke:#038048;stroke-width:1.0;"/><text fill="#000000" font-family="sans-serif" font-size="14" lengthAdjust="spacing" textLength="192" x="27" y="898.8511">equals(other: any) : boolean</text><ellipse cx="18" cy="911.5484" fill="#84BE84" rx="3" ry="3" style="stroke:#038048;stroke-width:1.0;"/><text fill="#000000" font-family="sans-serif" font-size="14" lengthAdjust="spacing" text-decoration="underline" textLength="325" x="27" y="915.3394">from&lt;T&gt;(this: T, value: any) : InstanceType&lt;T&gt;</text><ellipse cx="18" cy="928.0366" fill="#84BE84" rx="3" ry="3" style="stroke:#038048;stroke-width:1.0;"/><text fill="#000000" font-family="sans-serif" font-size="14" lengthAdjust="spacing" text-decoration="underline" textLength="187" x="27" y="931.8277">from(value: any) : unknown</text></g><!--class WAXAccountVoterInfo--><g id="elem_WAXAccountVoterInfo"><rect codeLine="57" fill="#FCF2CC" filter="url(#fob05emxs167q)" height="377.7656" id="WAXAccountVoterInfo" style="stroke:#5A0000;stroke-width:2.0;" width="351" x="393" y="585.74"/><ellipse cx="485.75" cy="601.74" fill="#ADD1B2" rx="11" ry="11" style="stroke:#181818;stroke-width:1.0;"/><path d="M488.2231,607.8831 Q487.6421,608.1819 487.0029,608.3313 Q486.3638,608.4807 485.6582,608.4807 Q483.1514,608.4807 481.8315,606.8289 Q480.5117,605.177 480.5117,602.0559 Q480.5117,598.9265 481.8315,597.2747 Q483.1514,595.6228 485.6582,595.6228 Q486.3638,595.6228 487.0112,595.7722 Q487.6587,595.9216 488.2231,596.2205 L488.2231,598.9431 Q487.5923,598.3621 486.9988,598.0923 Q486.4053,597.8225 485.7744,597.8225 Q484.4297,597.8225 483.7449,598.8892 Q483.0601,599.9558 483.0601,602.0559 Q483.0601,604.1477 483.7449,605.2144 Q484.4297,606.281 485.7744,606.281 Q486.4053,606.281 486.9988,606.0112 Q487.5923,605.7415 488.2231,605.1604 Z " fill="#000000"/><text fill="#000000" font-family="sans-serif" font-size="14" font-weight="bold" lengthAdjust="spacing" textLength="157" x="506.25" y="607.031">WAXAccountVoterInfo</text><line style="stroke:#5A0000;stroke-width:2.0;" x1="394" x2="743" y1="617.74" y2="617.74"/><ellipse cx="404" cy="631.4841" fill="none" rx="3" ry="3" style="stroke:#038048;stroke-width:1.0;"/><text fill="#000000" font-family="sans-serif" font-size="14" font-weight="bold" lengthAdjust="spacing" text-decoration="underline" textLength="55" x="413" y="635.2752">abiBase</text><text fill="#000000" font-family="sans-serif" font-size="14" lengthAdjust="spacing" text-decoration="underline" textLength="191" x="472" y="635.2752">: ABISerializableConstructor</text><ellipse cx="404" cy="647.9724" fill="none" rx="3" ry="3" style="stroke:#038048;stroke-width:1.0;"/><text fill="#000000" font-family="sans-serif" font-size="14" font-weight="bold" lengthAdjust="spacing" text-decoration="underline" textLength="65" x="413" y="651.7634">abiFields</text><text fill="#000000" font-family="sans-serif" font-size="14" lengthAdjust="spacing" text-decoration="underline" textLength="73" x="482" y="651.7634">: ABIField[]</text><ellipse cx="404" cy="664.4607" fill="none" rx="3" ry="3" style="stroke:#038048;stroke-width:1.0;"/><text fill="#000000" font-family="sans-serif" font-size="14" font-weight="bold" lengthAdjust="spacing" text-decoration="underline" textLength="63" x="413" y="668.2517">abiName</text><text fill="#000000" font-family="sans-serif" font-size="14" lengthAdjust="spacing" text-decoration="underline" textLength="48" x="480" y="668.2517">: string</text><ellipse cx="404" cy="680.949" fill="none" rx="3" ry="3" style="stroke:#038048;stroke-width:1.0;"/><text fill="#000000" font-family="sans-serif" font-size="14" font-weight="bold" lengthAdjust="spacing" textLength="45" x="413" y="684.74">flags1</text><text fill="#000000" font-family="sans-serif" font-size="14" lengthAdjust="spacing" textLength="54" x="462" y="684.74">: UInt32</text><ellipse cx="404" cy="697.4373" fill="none" rx="3" ry="3" style="stroke:#038048;stroke-width:1.0;"/><text fill="#000000" font-family="sans-serif" font-size="14" font-weight="bold" lengthAdjust="spacing" textLength="60" x="413" y="701.2283">is_proxy</text><text fill="#000000" font-family="sans-serif" font-size="14" lengthAdjust="spacing" textLength="64" x="477" y="701.2283">: boolean</text><ellipse cx="404" cy="713.9255" fill="none" rx="3" ry="3" style="stroke:#038048;stroke-width:1.0;"/><text fill="#000000" font-family="sans-serif" font-size="14" font-weight="bold" lengthAdjust="spacing" textLength="113" x="413" y="717.7166">last_claim_time</text><text fill="#000000" font-family="sans-serif" font-size="14" lengthAdjust="spacing" textLength="77" x="530" y="717.7166">: TimePoint</text><ellipse cx="404" cy="730.4138" fill="none" rx="3" ry="3" style="stroke:#038048;stroke-width:1.0;"/><text fill="#000000" font-family="sans-serif" font-size="14" font-weight="bold" lengthAdjust="spacing" textLength="121" x="413" y="734.2048">last_vote_weight</text><text fill="#000000" font-family="sans-serif" font-size="14" lengthAdjust="spacing" textLength="60" x="538" y="734.2048">: Float64</text><ellipse cx="404" cy="746.9021" fill="none" rx="3" ry="3" style="stroke:#038048;stroke-width:1.0;"/><text fill="#000000" font-family="sans-serif" font-size="14" font-weight="bold" lengthAdjust="spacing" textLength="44" x="413" y="750.6931">owner</text><text fill="#000000" font-family="sans-serif" font-size="14" lengthAdjust="spacing" textLength="47" x="461" y="750.6931">: Name</text><ellipse cx="404" cy="763.3904" fill="none" rx="3" ry="3" style="stroke:#038048;stroke-width:1.0;"/><text fill="#000000" font-family="sans-serif" font-size="14" font-weight="bold" lengthAdjust="spacing" textLength="71" x="413" y="767.1814">producers</text><text fill="#000000" font-family="sans-serif" font-size="14" lengthAdjust="spacing" textLength="57" x="488" y="767.1814">: Name[]</text><ellipse cx="404" cy="779.8787" fill="none" rx="3" ry="3" style="stroke:#038048;stroke-width:1.0;"/><text fill="#000000" font-family="sans-serif" font-size="14" font-weight="bold" lengthAdjust="spacing" textLength="148" x="413" y="783.6697">proxied_vote_weight</text><text fill="#000000" font-family="sans-serif" font-size="14" lengthAdjust="spacing" textLength="60" x="565" y="783.6697">: Float64</text><ellipse cx="404" cy="796.367" fill="none" rx="3" ry="3" style="stroke:#038048;stroke-width:1.0;"/><text fill="#000000" font-family="sans-serif" font-size="14" font-weight="bold" lengthAdjust="spacing" textLength="40" x="413" y="800.158">proxy</text><text fill="#000000" font-family="sans-serif" font-size="14" lengthAdjust="spacing" textLength="47" x="457" y="800.158">: Name</text><ellipse cx="404" cy="812.8552" fill="none" rx="3" ry="3" style="stroke:#038048;stroke-width:1.0;"/><text fill="#000000" font-family="sans-serif" font-size="14" font-weight="bold" lengthAdjust="spacing" textLength="70" x="413" y="816.6463">reserved2</text><text fill="#000000" font-family="sans-serif" font-size="14" lengthAdjust="spacing" textLength="54" x="487" y="816.6463">: UInt32</text><ellipse cx="404" cy="829.3435" fill="none" rx="3" ry="3" style="stroke:#038048;stroke-width:1.0;"/><text fill="#000000" font-family="sans-serif" font-size="14" font-weight="bold" lengthAdjust="spacing" textLength="70" x="413" y="833.1345">reserved3</text><text fill="#000000" font-family="sans-serif" font-size="14" lengthAdjust="spacing" textLength="48" x="487" y="833.1345">: string</text><ellipse cx="404" cy="845.8318" fill="none" rx="3" ry="3" style="stroke:#038048;stroke-width:1.0;"/><text fill="#000000" font-family="sans-serif" font-size="14" font-weight="bold" lengthAdjust="spacing" textLength="48" x="413" y="849.6228">staked</text><text fill="#000000" font-family="sans-serif" font-size="14" lengthAdjust="spacing" textLength="44" x="465" y="849.6228">: Int64</text><ellipse cx="404" cy="862.3201" fill="none" rx="3" ry="3" style="stroke:#038048;stroke-width:1.0;"/><text fill="#000000" font-family="sans-serif" font-size="14" font-weight="bold" lengthAdjust="spacing" textLength="126" x="413" y="866.1111">unpaid_voteshare</text><text fill="#000000" font-family="sans-serif" font-size="14" lengthAdjust="spacing" textLength="60" x="543" y="866.1111">: Float64</text><ellipse cx="404" cy="878.8084" fill="none" rx="3" ry="3" style="stroke:#038048;stroke-width:1.0;"/><text fill="#000000" font-family="sans-serif" font-size="14" font-weight="bold" lengthAdjust="spacing" textLength="218" x="413" y="882.5994">unpaid_voteshare_change_rate</text><text fill="#000000" font-family="sans-serif" font-size="14" lengthAdjust="spacing" textLength="60" x="635" y="882.5994">: Float64</text><ellipse cx="404" cy="895.2966" fill="none" rx="3" ry="3" style="stroke:#038048;stroke-width:1.0;"/><text fill="#000000" font-family="sans-serif" font-size="14" font-weight="bold" lengthAdjust="spacing" textLength="225" x="413" y="899.0877">unpaid_voteshare_last_updated</text><text fill="#000000" font-family="sans-serif" font-size="14" lengthAdjust="spacing" textLength="77" x="642" y="899.0877">: TimePoint</text><line style="stroke:#5A0000;stroke-width:2.0;" x1="394" x2="743" y1="906.0408" y2="906.0408"/><ellipse cx="404" cy="919.7849" fill="#84BE84" rx="3" ry="3" style="stroke:#038048;stroke-width:1.0;"/><text fill="#000000" font-family="sans-serif" font-size="14" lengthAdjust="spacing" textLength="192" x="413" y="923.5759">equals(other: any) : boolean</text><ellipse cx="404" cy="936.2732" fill="#84BE84" rx="3" ry="3" style="stroke:#038048;stroke-width:1.0;"/><text fill="#000000" font-family="sans-serif" font-size="14" lengthAdjust="spacing" text-decoration="underline" textLength="325" x="413" y="940.0642">from&lt;T&gt;(this: T, value: any) : InstanceType&lt;T&gt;</text><ellipse cx="404" cy="952.7615" fill="#84BE84" rx="3" ry="3" style="stroke:#038048;stroke-width:1.0;"/><text fill="#000000" font-family="sans-serif" font-size="14" lengthAdjust="spacing" text-decoration="underline" textLength="187" x="413" y="956.5525">from(value: any) : unknown</text></g><!--reverse link Struct to AccountVoterInfo--><g id="link_Struct_AccountVoterInfo"><path codeLine="36" d="M375.5,172.35 C375.5,190.65 375.5,192.98 375.5,213.63 " fill="none" id="Struct-backto-AccountVoterInfo" style="stroke:#181818;stroke-width:1.0;"/><polygon fill="none" points="375.5,154.35,369.5,172.35,381.5,172.35,375.5,154.35" style="stroke:#181818;stroke-width:1.0;"/></g><!--reverse link AccountVoterInfo to TelosAccountVoterInfo--><g id="link_AccountVoterInfo_TelosAccountVoterInfo"><path codeLine="56" d="M293.3819,542.2227 C280.1619,569.8127 274.13,582.4 260.8,610.21 " fill="none" id="AccountVoterInfo-backto-TelosAccountVoterInfo" style="stroke:#181818;stroke-width:1.0;"/><polygon fill="none" points="301.16,525.99,287.971,539.63,298.7928,544.8154,301.16,525.99" style="stroke:#181818;stroke-width:1.0;"/></g><!--reverse link AccountVoterInfo to WAXAccountVoterInfo--><g id="link_AccountVoterInfo_WAXAccountVoterInfo"><path codeLine="79" d="M457.6224,542.2207 C466.9724,561.7207 468.83,565.61 478.38,585.55 " fill="none" id="AccountVoterInfo-backto-WAXAccountVoterInfo" style="stroke:#181818;stroke-width:1.0;"/><polygon fill="none" points="449.84,525.99,452.2122,544.8148,463.0326,539.6265,449.84,525.99" style="stroke:#181818;stroke-width:1.0;"/></g><!--SRC=[xLPDYzim4BtdLuWzfRHBjzcsXn02II2GIocD-m6bcB4qjeLbAPNaPDFj_lTE7Djn4XVsra3gawttdkP3Rx1S9lKABEHifi2vkT5-wRSAMMIKwBbZT0eyIwmfj9WPPIoBUJpW_8nbh42xPxo3EtfQZ4zxjTLesLstCaWbppGwnmQzL0facA_ybiKIbN3jbHnzQcZfiCio1M4sKYVCsm9Rm6dcte9s1A7sFRuBpMucd1FklnYFTg5ZSyCUUuoUH-V1I_x4NewYCKHo2Wv7hwCn6xB9TB54Aq79Nn0fd1djA2xtndOgvsK51stv_Vr79_S3v7KKsfCgAbaxC5QGk3SLzdcX_VsWmQGBLzOyR2iqCaOXw0QcGdsufWB33SeazHLjhWpuzsyRcjdGwLJOBey6eBr5mT6w5bZbNy4F4iKp8hIJF8fWqQ5TenXqrrV3zzsjeHvcA2gCb7L4_5c0SdtZKxH31dhxugGvX-x7rkIZODptgNH35hnYQr05Dg85dJ1eZi5sXKJh4FUF1ONEDFMpzrJRR5awv2BDTH5jQXeq-drxsp6LTHy3LCPToyoMnZxtzV-H_iTUFVVVthNTvgoj-tNoxLgCInNBFFIosJ-Wruz6qc_tsXrCK46t4xbFpQLq6VbBOgUqaAUW4mmj-6TBoYuNAq4IqNqKbprHNJFp1m00]--></g></svg>