<?xml version="1.0" encoding="us-ascii" standalone="no"?><svg xmlns="http://www.w3.org/2000/svg" xmlns:xlink="http://www.w3.org/1999/xlink" contentStyleType="text/css" height="702px" preserveAspectRatio="none" style="width:410px;height:702px;" version="1.1" viewBox="0 0 410 702" width="410px" zoomAndPan="magnify"><defs><filter height="300%" id="f1iyxavb3xvam5" width="300%" x="-1" y="-1"><feGaussianBlur result="blurOut" stdDeviation="2.0"/><feColorMatrix in="blurOut" result="blurOut2" type="matrix" values="0 0 0 0 0 0 0 0 0 0 0 0 0 0 0 0 0 0 .4 0"/><feOffset dx="4.0" dy="4.0" in="blurOut2" result="blurOut3"/><feBlend in="SourceGraphic" in2="blurOut3" mode="normal"/></filter></defs><g><!--class Account--><g id="elem_Account"><rect codeLine="10" fill="#FCF2CC" filter="url(#f1iyxavb3xvam5)" height="476.6953" id="Account" style="stroke:#5A0000;stroke-width:2.0;" width="391" x="7" y="213.92"/><ellipse cx="169.75" cy="229.92" fill="#ADD1B2" rx="11" ry="11" style="stroke:#181818;stroke-width:1.0;"/><path d="M172.2231,236.0631 Q171.6421,236.3619 171.0029,236.5113 Q170.3638,236.6607 169.6582,236.6607 Q167.1514,236.6607 165.8315,235.0089 Q164.5117,233.357 164.5117,230.2359 Q164.5117,227.1065 165.8315,225.4547 Q167.1514,223.8028 169.6582,223.8028 Q170.3638,223.8028 171.0112,223.9522 Q171.6587,224.1016 172.2231,224.4005 L172.2231,227.1231 Q171.5923,226.5421 170.9988,226.2723 Q170.4053,226.0025 169.7744,226.0025 Q168.4297,226.0025 167.7449,227.0692 Q167.0601,228.1358 167.0601,230.2359 Q167.0601,232.3277 167.7449,233.3944 Q168.4297,234.461 169.7744,234.461 Q170.4053,234.461 170.9988,234.1912 Q171.5923,233.9215 172.2231,233.3404 Z " fill="#000000"/><text fill="#000000" font-family="sans-serif" font-size="14" font-weight="bold" lengthAdjust="spacing" textLength="57" x="190.25" y="235.211">Account</text><line style="stroke:#5A0000;stroke-width:2.0;" x1="8" x2="397" y1="245.92" y2="245.92"/><ellipse cx="18" cy="259.6641" fill="none" rx="3" ry="3" style="stroke:#038048;stroke-width:1.0;"/><text fill="#000000" font-family="sans-serif" font-size="14" font-weight="bold" lengthAdjust="spacing" text-decoration="underline" textLength="55" x="27" y="263.4552">abiBase</text><text fill="#000000" font-family="sans-serif" font-size="14" lengthAdjust="spacing" text-decoration="underline" textLength="191" x="86" y="263.4552">: ABISerializableConstructor</text><ellipse cx="18" cy="276.1524" fill="none" rx="3" ry="3" style="stroke:#038048;stroke-width:1.0;"/><text fill="#000000" font-family="sans-serif" font-size="14" font-weight="bold" lengthAdjust="spacing" text-decoration="underline" textLength="65" x="27" y="279.9434">abiFields</text><text fill="#000000" font-family="sans-serif" font-size="14" lengthAdjust="spacing" text-decoration="underline" textLength="73" x="96" y="279.9434">: ABIField[]</text><ellipse cx="18" cy="292.6407" fill="none" rx="3" ry="3" style="stroke:#038048;stroke-width:1.0;"/><text fill="#000000" font-family="sans-serif" font-size="14" font-weight="bold" lengthAdjust="spacing" text-decoration="underline" textLength="63" x="27" y="296.4317">abiName</text><text fill="#000000" font-family="sans-serif" font-size="14" lengthAdjust="spacing" text-decoration="underline" textLength="48" x="94" y="296.4317">: string</text><ellipse cx="18" cy="309.129" fill="none" rx="3" ry="3" style="stroke:#038048;stroke-width:1.0;"/><text fill="#000000" font-family="sans-serif" font-size="14" font-weight="bold" lengthAdjust="spacing" textLength="101" x="27" y="312.92">account_name</text><text fill="#000000" font-family="sans-serif" font-size="14" lengthAdjust="spacing" textLength="48" x="132" y="312.92">: string</text><ellipse cx="18" cy="325.6173" fill="none" rx="3" ry="3" style="stroke:#038048;stroke-width:1.0;"/><text fill="#000000" font-family="sans-serif" font-size="14" font-weight="bold" lengthAdjust="spacing" textLength="140" x="27" y="329.4083">core_liquid_balance</text><text fill="#000000" font-family="sans-serif" font-size="14" lengthAdjust="spacing" textLength="48" x="171" y="329.4083">: string</text><ellipse cx="18" cy="342.1055" fill="none" rx="3" ry="3" style="stroke:#038048;stroke-width:1.0;"/><text fill="#000000" font-family="sans-serif" font-size="14" font-weight="bold" lengthAdjust="spacing" textLength="67" x="27" y="345.8966">cpu_limit</text><text fill="#000000" font-family="sans-serif" font-size="14" lengthAdjust="spacing" textLength="41" x="98" y="345.8966">: Limit</text><ellipse cx="18" cy="358.5938" fill="none" rx="3" ry="3" style="stroke:#038048;stroke-width:1.0;"/><text fill="#000000" font-family="sans-serif" font-size="14" font-weight="bold" lengthAdjust="spacing" textLength="81" x="27" y="362.3848">cpu_weight</text><text fill="#000000" font-family="sans-serif" font-size="14" lengthAdjust="spacing" textLength="62" x="112" y="362.3848">: number</text><ellipse cx="18" cy="375.0821" fill="none" rx="3" ry="3" style="stroke:#038048;stroke-width:1.0;"/><text fill="#000000" font-family="sans-serif" font-size="14" font-weight="bold" lengthAdjust="spacing" textLength="52" x="27" y="378.8731">created</text><text fill="#000000" font-family="sans-serif" font-size="14" lengthAdjust="spacing" textLength="48" x="83" y="378.8731">: string</text><ellipse cx="18" cy="391.5704" fill="none" rx="3" ry="3" style="stroke:#038048;stroke-width:1.0;"/><text fill="#000000" font-family="sans-serif" font-size="14" font-weight="bold" lengthAdjust="spacing" textLength="119" x="27" y="395.3614">head_block_num</text><text fill="#000000" font-family="sans-serif" font-size="14" lengthAdjust="spacing" textLength="62" x="150" y="395.3614">: number</text><ellipse cx="18" cy="408.0587" fill="none" rx="3" ry="3" style="stroke:#038048;stroke-width:1.0;"/><text fill="#000000" font-family="sans-serif" font-size="14" font-weight="bold" lengthAdjust="spacing" textLength="120" x="27" y="411.8497">head_block_time</text><text fill="#000000" font-family="sans-serif" font-size="14" lengthAdjust="spacing" textLength="48" x="151" y="411.8497">: string</text><ellipse cx="18" cy="424.547" fill="none" rx="3" ry="3" style="stroke:#038048;stroke-width:1.0;"/><text fill="#000000" font-family="sans-serif" font-size="14" font-weight="bold" lengthAdjust="spacing" textLength="123" x="27" y="428.338">last_code_update</text><text fill="#000000" font-family="sans-serif" font-size="14" lengthAdjust="spacing" textLength="48" x="154" y="428.338">: string</text><ellipse cx="18" cy="441.0352" fill="none" rx="3" ry="3" style="stroke:#038048;stroke-width:1.0;"/><text fill="#000000" font-family="sans-serif" font-size="14" font-weight="bold" lengthAdjust="spacing" textLength="65" x="27" y="444.8263">net_limit</text><text fill="#000000" font-family="sans-serif" font-size="14" lengthAdjust="spacing" textLength="41" x="96" y="444.8263">: Limit</text><ellipse cx="18" cy="457.5235" fill="none" rx="3" ry="3" style="stroke:#038048;stroke-width:1.0;"/><text fill="#000000" font-family="sans-serif" font-size="14" font-weight="bold" lengthAdjust="spacing" textLength="79" x="27" y="461.3145">net_weight</text><text fill="#000000" font-family="sans-serif" font-size="14" lengthAdjust="spacing" textLength="62" x="110" y="461.3145">: number</text><ellipse cx="18" cy="474.0118" fill="none" rx="3" ry="3" style="stroke:#038048;stroke-width:1.0;"/><text fill="#000000" font-family="sans-serif" font-size="14" font-weight="bold" lengthAdjust="spacing" textLength="89" x="27" y="477.8028">permissions</text><text fill="#000000" font-family="sans-serif" font-size="14" lengthAdjust="spacing" textLength="93" x="120" y="477.8028">: Permission[]</text><ellipse cx="18" cy="490.5001" fill="none" rx="3" ry="3" style="stroke:#038048;stroke-width:1.0;"/><text fill="#000000" font-family="sans-serif" font-size="14" font-weight="bold" lengthAdjust="spacing" textLength="72" x="27" y="494.2911">privileged</text><text fill="#000000" font-family="sans-serif" font-size="14" lengthAdjust="spacing" textLength="64" x="103" y="494.2911">: boolean</text><ellipse cx="18" cy="506.9884" fill="none" rx="3" ry="3" style="stroke:#038048;stroke-width:1.0;"/><text fill="#000000" font-family="sans-serif" font-size="14" font-weight="bold" lengthAdjust="spacing" textLength="76" x="27" y="510.7794">ram_quota</text><text fill="#000000" font-family="sans-serif" font-size="14" lengthAdjust="spacing" textLength="62" x="107" y="510.7794">: number</text><ellipse cx="18" cy="523.4766" fill="none" rx="3" ry="3" style="stroke:#038048;stroke-width:1.0;"/><text fill="#000000" font-family="sans-serif" font-size="14" font-weight="bold" lengthAdjust="spacing" textLength="77" x="27" y="527.2677">ram_usage</text><text fill="#000000" font-family="sans-serif" font-size="14" lengthAdjust="spacing" textLength="62" x="108" y="527.2677">: number</text><ellipse cx="18" cy="539.9649" fill="none" rx="3" ry="3" style="stroke:#038048;stroke-width:1.0;"/><text fill="#000000" font-family="sans-serif" font-size="14" font-weight="bold" lengthAdjust="spacing" textLength="108" x="27" y="543.7559">refund_request</text><text fill="#000000" font-family="sans-serif" font-size="14" lengthAdjust="spacing" textLength="32" x="139" y="543.7559">: any</text><ellipse cx="18" cy="556.4532" fill="none" rx="3" ry="3" style="stroke:#038048;stroke-width:1.0;"/><text fill="#000000" font-family="sans-serif" font-size="14" font-weight="bold" lengthAdjust="spacing" textLength="58" x="27" y="560.2442">rex_info</text><text fill="#000000" font-family="sans-serif" font-size="14" lengthAdjust="spacing" textLength="32" x="89" y="560.2442">: any</text><ellipse cx="18" cy="572.9415" fill="none" rx="3" ry="3" style="stroke:#038048;stroke-width:1.0;"/><text fill="#000000" font-family="sans-serif" font-size="14" font-weight="bold" lengthAdjust="spacing" textLength="187" x="27" y="576.7325">self_delegated_bandwidth</text><text fill="#000000" font-family="sans-serif" font-size="14" lengthAdjust="spacing" textLength="174" x="218" y="576.7325">: SelfDelegatedBandwidth</text><ellipse cx="18" cy="589.4298" fill="none" rx="3" ry="3" style="stroke:#038048;stroke-width:1.0;"/><text fill="#000000" font-family="sans-serif" font-size="14" font-weight="bold" lengthAdjust="spacing" textLength="178" x="27" y="593.2208">subjective_cpu_bill_limit</text><text fill="#000000" font-family="sans-serif" font-size="14" lengthAdjust="spacing" textLength="41" x="209" y="593.2208">: Limit</text><ellipse cx="18" cy="605.918" fill="none" rx="3" ry="3" style="stroke:#038048;stroke-width:1.0;"/><text fill="#000000" font-family="sans-serif" font-size="14" font-weight="bold" lengthAdjust="spacing" textLength="110" x="27" y="609.7091">total_resources</text><text fill="#000000" font-family="sans-serif" font-size="14" lengthAdjust="spacing" textLength="113" x="141" y="609.7091">: TotalResources</text><ellipse cx="18" cy="622.4063" fill="none" rx="3" ry="3" style="stroke:#038048;stroke-width:1.0;"/><text fill="#000000" font-family="sans-serif" font-size="14" font-weight="bold" lengthAdjust="spacing" textLength="73" x="27" y="626.1973">voter_info</text><text fill="#000000" font-family="sans-serif" font-size="14" lengthAdjust="spacing" textLength="72" x="104" y="626.1973">: VoterInfo</text><line style="stroke:#5A0000;stroke-width:2.0;" x1="8" x2="397" y1="633.1505" y2="633.1505"/><ellipse cx="18" cy="646.8946" fill="#84BE84" rx="3" ry="3" style="stroke:#038048;stroke-width:1.0;"/><text fill="#000000" font-family="sans-serif" font-size="14" lengthAdjust="spacing" textLength="192" x="27" y="650.6856">equals(other: any) : boolean</text><ellipse cx="18" cy="663.3829" fill="#84BE84" rx="3" ry="3" style="stroke:#038048;stroke-width:1.0;"/><text fill="#000000" font-family="sans-serif" font-size="14" lengthAdjust="spacing" text-decoration="underline" textLength="325" x="27" y="667.1739">from&lt;T&gt;(this: T, value: any) : InstanceType&lt;T&gt;</text><ellipse cx="18" cy="679.8712" fill="#84BE84" rx="3" ry="3" style="stroke:#038048;stroke-width:1.0;"/><text fill="#000000" font-family="sans-serif" font-size="14" lengthAdjust="spacing" text-decoration="underline" textLength="187" x="27" y="683.6622">from(value: any) : unknown</text></g><!--class Struct--><g id="elem_Struct"><rect codeLine="38" fill="#FCF2CC" filter="url(#f1iyxavb3xvam5)" height="146.9297" id="Struct" style="stroke:#5A0000;stroke-width:2.0;" width="351" x="27" y="7"/><ellipse cx="177.25" cy="23" fill="#ADD1B2" rx="11" ry="11" style="stroke:#181818;stroke-width:1.0;"/><path d="M179.7231,29.1431 Q179.1421,29.4419 178.5029,29.5913 Q177.8638,29.7407 177.1582,29.7407 Q174.6514,29.7407 173.3315,28.0889 Q172.0117,26.437 172.0117,23.3159 Q172.0117,20.1865 173.3315,18.5347 Q174.6514,16.8828 177.1582,16.8828 Q177.8638,16.8828 178.5112,17.0322 Q179.1587,17.1816 179.7231,17.4805 L179.7231,20.2031 Q179.0923,19.6221 178.4988,19.3523 Q177.9053,19.0825 177.2744,19.0825 Q175.9297,19.0825 175.2449,20.1492 Q174.5601,21.2158 174.5601,23.3159 Q174.5601,25.4077 175.2449,26.4744 Q175.9297,27.541 177.2744,27.541 Q177.9053,27.541 178.4988,27.2712 Q179.0923,27.0015 179.7231,26.4204 Z " fill="#000000"/><text fill="#000000" font-family="sans-serif" font-size="14" font-weight="bold" lengthAdjust="spacing" textLength="42" x="197.75" y="28.291">Struct</text><line style="stroke:#5A0000;stroke-width:2.0;" x1="28" x2="377" y1="39" y2="39"/><ellipse cx="38" cy="52.7441" fill="none" rx="3" ry="3" style="stroke:#038048;stroke-width:1.0;"/><text fill="#000000" font-family="sans-serif" font-size="14" font-weight="bold" lengthAdjust="spacing" text-decoration="underline" textLength="55" x="47" y="56.5352">abiBase</text><text fill="#000000" font-family="sans-serif" font-size="14" lengthAdjust="spacing" text-decoration="underline" textLength="191" x="106" y="56.5352">: ABISerializableConstructor</text><ellipse cx="38" cy="69.2324" fill="none" rx="3" ry="3" style="stroke:#038048;stroke-width:1.0;"/><text fill="#000000" font-family="sans-serif" font-size="14" font-weight="bold" lengthAdjust="spacing" text-decoration="underline" textLength="65" x="47" y="73.0234">abiFields</text><text fill="#000000" font-family="sans-serif" font-size="14" lengthAdjust="spacing" text-decoration="underline" textLength="73" x="116" y="73.0234">: ABIField[]</text><ellipse cx="38" cy="85.7207" fill="none" rx="3" ry="3" style="stroke:#038048;stroke-width:1.0;"/><text fill="#000000" font-family="sans-serif" font-size="14" font-weight="bold" lengthAdjust="spacing" text-decoration="underline" textLength="63" x="47" y="89.5117">abiName</text><text fill="#000000" font-family="sans-serif" font-size="14" lengthAdjust="spacing" text-decoration="underline" textLength="48" x="114" y="89.5117">: string</text><line style="stroke:#5A0000;stroke-width:2.0;" x1="28" x2="377" y1="96.4648" y2="96.4648"/><ellipse cx="38" cy="110.209" fill="#84BE84" rx="3" ry="3" style="stroke:#038048;stroke-width:1.0;"/><text fill="#000000" font-family="sans-serif" font-size="14" lengthAdjust="spacing" textLength="192" x="47" y="114">equals(other: any) : boolean</text><ellipse cx="38" cy="126.6973" fill="#84BE84" rx="3" ry="3" style="stroke:#038048;stroke-width:1.0;"/><text fill="#000000" font-family="sans-serif" font-size="14" lengthAdjust="spacing" text-decoration="underline" textLength="325" x="47" y="130.4883">from&lt;T&gt;(this: T, value: any) : InstanceType&lt;T&gt;</text><ellipse cx="38" cy="143.1855" fill="#84BE84" rx="3" ry="3" style="stroke:#038048;stroke-width:1.0;"/><text fill="#000000" font-family="sans-serif" font-size="14" lengthAdjust="spacing" text-decoration="underline" textLength="187" x="47" y="146.9766">from(value: any) : unknown</text></g><!--reverse link Struct to Account--><g id="link_Struct_Account"><path codeLine="46" d="M202.5,172.08 C202.5,190.07 202.5,192.33 202.5,213.62 " fill="none" id="Struct-backto-Account" style="stroke:#181818;stroke-width:1.0;"/><polygon fill="none" points="202.5,154.08,196.5,172.08,208.5,172.08,202.5,154.08" style="stroke:#181818;stroke-width:1.0;"/></g><!--SRC=[pPHDQzj048Rl_XLBJYvjQ0ZqKemXJWaOIYcnwQKKiTeTMLElTkNTMRjkcl_UaMnzE95zZaxIlC_iVEqehD6Mqij2t1iPmeEpjA2z0P4weqVXL9r9jLvv5ws-TyPvaQdiLgbNbFCQ_87u96_uwH6F1szlmOkROSzbZcfj8GHnEyfHWu2YfBt848mEVKi1b3isTQSiSgdT3krAa8_G4rvcJbxQm19O6gagjBYwKufrkX9F8y7FKo19g9x5-qawbIdEP839ntGgFekxsNm17gN1lp8rSEziu72Ad1_qVAWJxtphxv-_1jblicYYy9bSI4tLuY6zn9ubbFEG6Dn4r4agZRJg75X6vWgae_orUZzHTu2hl95jB5BmdUv14kZXetEG7DmujKxORVY07aDuhXYU2INAQKXYgJdUC6M1BbHIgPSgAS4N60Bo_8x0zzPod4-DUToYWLLRS-gS0MbRW2zOiecEv72OIev1hk2C31bVoyJ39a9eCfLstmF-96WpDo05C5cYWPEhHi9Jjtg7cl8Zkc3vIwFE6h7pZkblK8HRIAgXfsZCXMuI5sWupU2YLz1qR5bP7njZ2syTWUzd_QCopFdxW72nqeInennyNTAx5ttj5YFphfWifsFACN2y3s8hJOJMQSxBLrtrvRu4nWQSnwSEqQwjszdHSxFuYtfvt-JUluasjGsQ_Bk-xlwJ_m40]--></g></svg>