<?xml version="1.0" encoding="us-ascii" standalone="no"?><svg xmlns="http://www.w3.org/2000/svg" xmlns:xlink="http://www.w3.org/1999/xlink" contentStyleType="text/css" height="488px" preserveAspectRatio="none" style="width:462px;height:488px;" version="1.1" viewBox="0 0 462 488" width="462px" zoomAndPan="magnify"><defs><filter height="300%" id="fnw6xbsi0vnsl" width="300%" x="-1" y="-1"><feGaussianBlur result="blurOut" stdDeviation="2.0"/><feColorMatrix in="blurOut" result="blurOut2" type="matrix" values="0 0 0 0 0 0 0 0 0 0 0 0 0 0 0 0 0 0 .4 0"/><feOffset dx="4.0" dy="4.0" in="blurOut2" result="blurOut3"/><feBlend in="SourceGraphic" in2="blurOut3" mode="normal"/></filter></defs><g><!--class Action--><g id="elem_Action"><rect codeLine="10" fill="#FCF2CC" filter="url(#fnw6xbsi0vnsl)" height="262.3477" id="Action" style="stroke:#5A0000;stroke-width:2.0;" width="443" x="7" y="213.93"/><ellipse cx="201.25" cy="229.93" fill="#ADD1B2" rx="11" ry="11" style="stroke:#181818;stroke-width:1.0;"/><path d="M203.7231,236.0731 Q203.1421,236.3719 202.5029,236.5213 Q201.8638,236.6707 201.1582,236.6707 Q198.6514,236.6707 197.3315,235.0189 Q196.0117,233.367 196.0117,230.2459 Q196.0117,227.1165 197.3315,225.4647 Q198.6514,223.8128 201.1582,223.8128 Q201.8638,223.8128 202.5112,223.9622 Q203.1587,224.1116 203.7231,224.4105 L203.7231,227.1331 Q203.0923,226.5521 202.4988,226.2823 Q201.9053,226.0125 201.2744,226.0125 Q199.9297,226.0125 199.2449,227.0792 Q198.5601,228.1458 198.5601,230.2459 Q198.5601,232.3377 199.2449,233.4044 Q199.9297,234.471 201.2744,234.471 Q201.9053,234.471 202.4988,234.2012 Q203.0923,233.9315 203.7231,233.3504 Z " fill="#000000"/><text fill="#000000" font-family="sans-serif" font-size="14" font-weight="bold" lengthAdjust="spacing" textLength="46" x="221.75" y="235.221">Action</text><line style="stroke:#5A0000;stroke-width:2.0;" x1="8" x2="449" y1="245.93" y2="245.93"/><ellipse cx="18" cy="259.6741" fill="none" rx="3" ry="3" style="stroke:#038048;stroke-width:1.0;"/><text fill="#000000" font-family="sans-serif" font-size="14" font-weight="bold" lengthAdjust="spacing" textLength="22" x="27" y="263.4652">abi</text><text fill="#000000" font-family="sans-serif" font-size="14" lengthAdjust="spacing" textLength="30" x="53" y="263.4652">: ABI</text><ellipse cx="18" cy="276.1624" fill="none" rx="3" ry="3" style="stroke:#038048;stroke-width:1.0;"/><text fill="#000000" font-family="sans-serif" font-size="14" font-weight="bold" lengthAdjust="spacing" text-decoration="underline" textLength="55" x="27" y="279.9534">abiBase</text><text fill="#000000" font-family="sans-serif" font-size="14" lengthAdjust="spacing" text-decoration="underline" textLength="191" x="86" y="279.9534">: ABISerializableConstructor</text><ellipse cx="18" cy="292.6507" fill="none" rx="3" ry="3" style="stroke:#038048;stroke-width:1.0;"/><text fill="#000000" font-family="sans-serif" font-size="14" font-weight="bold" lengthAdjust="spacing" text-decoration="underline" textLength="65" x="27" y="296.4417">abiFields</text><text fill="#000000" font-family="sans-serif" font-size="14" lengthAdjust="spacing" text-decoration="underline" textLength="73" x="96" y="296.4417">: ABIField[]</text><ellipse cx="18" cy="309.139" fill="none" rx="3" ry="3" style="stroke:#038048;stroke-width:1.0;"/><text fill="#000000" font-family="sans-serif" font-size="14" font-weight="bold" lengthAdjust="spacing" text-decoration="underline" textLength="63" x="27" y="312.93">abiName</text><text fill="#000000" font-family="sans-serif" font-size="14" lengthAdjust="spacing" text-decoration="underline" textLength="48" x="94" y="312.93">: string</text><ellipse cx="18" cy="325.6273" fill="none" rx="3" ry="3" style="stroke:#038048;stroke-width:1.0;"/><text fill="#000000" font-family="sans-serif" font-size="14" font-weight="bold" lengthAdjust="spacing" textLength="55" x="27" y="329.4183">account</text><text fill="#000000" font-family="sans-serif" font-size="14" lengthAdjust="spacing" textLength="47" x="86" y="329.4183">: Name</text><ellipse cx="18" cy="342.1155" fill="none" rx="3" ry="3" style="stroke:#038048;stroke-width:1.0;"/><text fill="#000000" font-family="sans-serif" font-size="14" font-weight="bold" lengthAdjust="spacing" textLength="97" x="27" y="345.9066">authorization</text><text fill="#000000" font-family="sans-serif" font-size="14" lengthAdjust="spacing" textLength="127" x="128" y="345.9066">: PermissionLevel[]</text><ellipse cx="18" cy="358.6038" fill="none" rx="3" ry="3" style="stroke:#038048;stroke-width:1.0;"/><text fill="#000000" font-family="sans-serif" font-size="14" font-weight="bold" lengthAdjust="spacing" textLength="31" x="27" y="362.3948">data</text><text fill="#000000" font-family="sans-serif" font-size="14" lengthAdjust="spacing" textLength="43" x="62" y="362.3948">: Bytes</text><ellipse cx="18" cy="375.0921" fill="none" rx="3" ry="3" style="stroke:#038048;stroke-width:1.0;"/><text fill="#000000" font-family="sans-serif" font-size="14" font-weight="bold" lengthAdjust="spacing" textLength="39" x="27" y="378.8831">name</text><text fill="#000000" font-family="sans-serif" font-size="14" lengthAdjust="spacing" textLength="47" x="70" y="378.8831">: Name</text><line style="stroke:#5A0000;stroke-width:2.0;" x1="8" x2="449" y1="385.8362" y2="385.8362"/><ellipse cx="18" cy="399.5804" fill="#84BE84" rx="3" ry="3" style="stroke:#038048;stroke-width:1.0;"/><text fill="#000000" font-family="sans-serif" font-size="14" lengthAdjust="spacing" textLength="301" x="27" y="403.3714">decodeData&lt;T&gt;(type: T) : InstanceType&lt;T&gt;</text><ellipse cx="18" cy="416.0687" fill="#84BE84" rx="3" ry="3" style="stroke:#038048;stroke-width:1.0;"/><text fill="#000000" font-family="sans-serif" font-size="14" lengthAdjust="spacing" textLength="282" x="27" y="419.8597">decodeData&lt;T&gt;(type: T) : BuiltinTypes[T]</text><ellipse cx="18" cy="432.557" fill="#84BE84" rx="3" ry="3" style="stroke:#038048;stroke-width:1.0;"/><text fill="#000000" font-family="sans-serif" font-size="14" lengthAdjust="spacing" textLength="278" x="27" y="436.348">decodeData(abi: ABIDef) : ABISerializable</text><ellipse cx="18" cy="449.0452" fill="#84BE84" rx="3" ry="3" style="stroke:#038048;stroke-width:1.0;"/><text fill="#000000" font-family="sans-serif" font-size="14" lengthAdjust="spacing" textLength="328" x="27" y="452.8362">equals(other: AnyAction | ActionType) : boolean</text><ellipse cx="18" cy="465.5335" fill="#84BE84" rx="3" ry="3" style="stroke:#038048;stroke-width:1.0;"/><text fill="#000000" font-family="sans-serif" font-size="14" lengthAdjust="spacing" text-decoration="underline" textLength="417" x="27" y="469.3245">from(anyAction: AnyAction | ActionType, abi: ABIDef) : Action</text></g><!--class Struct--><g id="elem_Struct"><rect codeLine="25" fill="#FCF2CC" filter="url(#fnw6xbsi0vnsl)" height="146.9297" id="Struct" style="stroke:#5A0000;stroke-width:2.0;" width="351" x="53" y="7"/><ellipse cx="203.25" cy="23" fill="#ADD1B2" rx="11" ry="11" style="stroke:#181818;stroke-width:1.0;"/><path d="M205.7231,29.1431 Q205.1421,29.4419 204.5029,29.5913 Q203.8638,29.7407 203.1582,29.7407 Q200.6514,29.7407 199.3315,28.0889 Q198.0117,26.437 198.0117,23.3159 Q198.0117,20.1865 199.3315,18.5347 Q200.6514,16.8828 203.1582,16.8828 Q203.8638,16.8828 204.5112,17.0322 Q205.1587,17.1816 205.7231,17.4805 L205.7231,20.2031 Q205.0923,19.6221 204.4988,19.3523 Q203.9053,19.0825 203.2744,19.0825 Q201.9297,19.0825 201.2449,20.1492 Q200.5601,21.2158 200.5601,23.3159 Q200.5601,25.4077 201.2449,26.4744 Q201.9297,27.541 203.2744,27.541 Q203.9053,27.541 204.4988,27.2712 Q205.0923,27.0015 205.7231,26.4204 Z " fill="#000000"/><text fill="#000000" font-family="sans-serif" font-size="14" font-weight="bold" lengthAdjust="spacing" textLength="42" x="223.75" y="28.291">Struct</text><line style="stroke:#5A0000;stroke-width:2.0;" x1="54" x2="403" y1="39" y2="39"/><ellipse cx="64" cy="52.7441" fill="none" rx="3" ry="3" style="stroke:#038048;stroke-width:1.0;"/><text fill="#000000" font-family="sans-serif" font-size="14" font-weight="bold" lengthAdjust="spacing" text-decoration="underline" textLength="55" x="73" y="56.5352">abiBase</text><text fill="#000000" font-family="sans-serif" font-size="14" lengthAdjust="spacing" text-decoration="underline" textLength="191" x="132" y="56.5352">: ABISerializableConstructor</text><ellipse cx="64" cy="69.2324" fill="none" rx="3" ry="3" style="stroke:#038048;stroke-width:1.0;"/><text fill="#000000" font-family="sans-serif" font-size="14" font-weight="bold" lengthAdjust="spacing" text-decoration="underline" textLength="65" x="73" y="73.0234">abiFields</text><text fill="#000000" font-family="sans-serif" font-size="14" lengthAdjust="spacing" text-decoration="underline" textLength="73" x="142" y="73.0234">: ABIField[]</text><ellipse cx="64" cy="85.7207" fill="none" rx="3" ry="3" style="stroke:#038048;stroke-width:1.0;"/><text fill="#000000" font-family="sans-serif" font-size="14" font-weight="bold" lengthAdjust="spacing" text-decoration="underline" textLength="63" x="73" y="89.5117">abiName</text><text fill="#000000" font-family="sans-serif" font-size="14" lengthAdjust="spacing" text-decoration="underline" textLength="48" x="140" y="89.5117">: string</text><line style="stroke:#5A0000;stroke-width:2.0;" x1="54" x2="403" y1="96.4648" y2="96.4648"/><ellipse cx="64" cy="110.209" fill="#84BE84" rx="3" ry="3" style="stroke:#038048;stroke-width:1.0;"/><text fill="#000000" font-family="sans-serif" font-size="14" lengthAdjust="spacing" textLength="192" x="73" y="114">equals(other: any) : boolean</text><ellipse cx="64" cy="126.6973" fill="#84BE84" rx="3" ry="3" style="stroke:#038048;stroke-width:1.0;"/><text fill="#000000" font-family="sans-serif" font-size="14" lengthAdjust="spacing" text-decoration="underline" textLength="325" x="73" y="130.4883">from&lt;T&gt;(this: T, value: any) : InstanceType&lt;T&gt;</text><ellipse cx="64" cy="143.1855" fill="#84BE84" rx="3" ry="3" style="stroke:#038048;stroke-width:1.0;"/><text fill="#000000" font-family="sans-serif" font-size="14" lengthAdjust="spacing" text-decoration="underline" textLength="187" x="73" y="146.9766">from(value: any) : unknown</text></g><!--reverse link Struct to Action--><g id="link_Struct_Action"><path codeLine="33" d="M228.5,172.28 C228.5,190.72 228.5,193.1 228.5,213.46 " fill="none" id="Struct-backto-Action" style="stroke:#181818;stroke-width:1.0;"/><polygon fill="none" points="228.5,154.28,222.5,172.28,234.5,172.28,228.5,154.28" style="stroke:#181818;stroke-width:1.0;"/></g><!--SRC=[pLDDQ-Cm4BtxLmmzfMpBba8l9GJgb42Wb6NZM-bXB8rh4LdAIdAB-_7VTsJ7SUActUlg9CzxRpxUo7wjp0OTLZ3NwFt2ch0AZIR8hPQ9FqHJ5EidPsiZvrPR1uKeBeNunB9EakiOLtZ1Pu_nkrCxGmukZYkpKecr8U_XCYcL9A1g4nee56dfzoCLXT9oQCYoAb7Q5sMU8BYQze1nvy6XyGoH2Oc8fU7aHWHbpGcy9S3dnpIVOQwcF_CPNCDDkcoZRpvWKEAZXrFqD51Mv1HgzOgvfharddiGmRgZoaKxpQ1jlnyUZtBliUghS4wURkXG29ufRC786w2QpN7SJ9ngI_X5hbBUS-2EdabloqMsn81RKje4yZl03BM7z9A4bNGRDTbi4feDNKDsofGb3ur6KCOXXlx1JckbWpAHx1-onp5xmgEttjnISVhPuOvEVshKVc93IOuffkdM2E_GNMBoACwjrOHcv6_XR3N1NlIL_Wp6dRHGyj4_dLMxwVxf_5UFvD0V7lLxCzeDbShpXixW6NLDEz6ntOwSF1JKPctiIxHfPz3q_VnyzwVz1G00]--></g></svg>