<?xml version="1.0" encoding="us-ascii" standalone="no"?><svg xmlns="http://www.w3.org/2000/svg" xmlns:xlink="http://www.w3.org/1999/xlink" contentStyleType="text/css" height="405px" preserveAspectRatio="none" style="width:420px;height:405px;" version="1.1" viewBox="0 0 420 405" width="420px" zoomAndPan="magnify"><defs><filter height="300%" id="f1htnq4gd21txj" width="300%" x="-1" y="-1"><feGaussianBlur result="blurOut" stdDeviation="2.0"/><feColorMatrix in="blurOut" result="blurOut2" type="matrix" values="0 0 0 0 0 0 0 0 0 0 0 0 0 0 0 0 0 0 .4 0"/><feOffset dx="4.0" dy="4.0" in="blurOut2" result="blurOut3"/><feBlend in="SourceGraphic" in2="blurOut3" mode="normal"/></filter></defs><g><!--class ApiUsageBucket--><g id="elem_ApiUsageBucket"><rect codeLine="10" fill="#FCF2CC" filter="url(#f1htnq4gd21txj)" height="179.9063" id="ApiUsageBucket" style="stroke:#5A0000;stroke-width:2.0;" width="401" x="7" y="213.93"/><ellipse cx="145.75" cy="229.93" fill="#ADD1B2" rx="11" ry="11" style="stroke:#181818;stroke-width:1.0;"/><path d="M148.2231,236.0731 Q147.6421,236.3719 147.0029,236.5213 Q146.3638,236.6707 145.6582,236.6707 Q143.1514,236.6707 141.8315,235.0189 Q140.5117,233.367 140.5117,230.2459 Q140.5117,227.1165 141.8315,225.4647 Q143.1514,223.8128 145.6582,223.8128 Q146.3638,223.8128 147.0112,223.9622 Q147.6587,224.1116 148.2231,224.4105 L148.2231,227.1331 Q147.5923,226.5521 146.9988,226.2823 Q146.4053,226.0125 145.7744,226.0125 Q144.4297,226.0125 143.7449,227.0792 Q143.0601,228.1458 143.0601,230.2459 Q143.0601,232.3377 143.7449,233.4044 Q144.4297,234.471 145.7744,234.471 Q146.4053,234.471 146.9988,234.2012 Q147.5923,233.9315 148.2231,233.3504 Z " fill="#000000"/><text fill="#000000" font-family="sans-serif" font-size="14" font-weight="bold" lengthAdjust="spacing" textLength="115" x="166.25" y="235.221">ApiUsageBucket</text><line style="stroke:#5A0000;stroke-width:2.0;" x1="8" x2="407" y1="245.93" y2="245.93"/><ellipse cx="18" cy="259.6741" fill="none" rx="3" ry="3" style="stroke:#038048;stroke-width:1.0;"/><text fill="#000000" font-family="sans-serif" font-size="14" font-weight="bold" lengthAdjust="spacing" text-decoration="underline" textLength="55" x="27" y="263.4652">abiBase</text><text fill="#000000" font-family="sans-serif" font-size="14" lengthAdjust="spacing" text-decoration="underline" textLength="191" x="86" y="263.4652">: ABISerializableConstructor</text><ellipse cx="18" cy="276.1624" fill="none" rx="3" ry="3" style="stroke:#038048;stroke-width:1.0;"/><text fill="#000000" font-family="sans-serif" font-size="14" font-weight="bold" lengthAdjust="spacing" text-decoration="underline" textLength="65" x="27" y="279.9534">abiFields</text><text fill="#000000" font-family="sans-serif" font-size="14" lengthAdjust="spacing" text-decoration="underline" textLength="73" x="96" y="279.9534">: ABIField[]</text><ellipse cx="18" cy="292.6507" fill="none" rx="3" ry="3" style="stroke:#038048;stroke-width:1.0;"/><text fill="#000000" font-family="sans-serif" font-size="14" font-weight="bold" lengthAdjust="spacing" text-decoration="underline" textLength="63" x="27" y="296.4417">abiName</text><text fill="#000000" font-family="sans-serif" font-size="14" lengthAdjust="spacing" text-decoration="underline" textLength="48" x="94" y="296.4417">: string</text><ellipse cx="18" cy="309.139" fill="none" rx="3" ry="3" style="stroke:#038048;stroke-width:1.0;"/><text fill="#000000" font-family="sans-serif" font-size="14" font-weight="bold" lengthAdjust="spacing" textLength="73" x="27" y="312.93">responses</text><text fill="#000000" font-family="sans-serif" font-size="14" lengthAdjust="spacing" textLength="298" x="104" y="312.93">: Record&lt;string, Record&lt;string, number&gt;&gt;</text><ellipse cx="18" cy="325.6273" fill="none" rx="3" ry="3" style="stroke:#038048;stroke-width:1.0;"/><text fill="#000000" font-family="sans-serif" font-size="14" font-weight="bold" lengthAdjust="spacing" textLength="78" x="27" y="329.4183">timestamp</text><text fill="#000000" font-family="sans-serif" font-size="14" lengthAdjust="spacing" textLength="48" x="109" y="329.4183">: string</text><line style="stroke:#5A0000;stroke-width:2.0;" x1="8" x2="407" y1="336.3714" y2="336.3714"/><ellipse cx="18" cy="350.1155" fill="#84BE84" rx="3" ry="3" style="stroke:#038048;stroke-width:1.0;"/><text fill="#000000" font-family="sans-serif" font-size="14" lengthAdjust="spacing" textLength="192" x="27" y="353.9066">equals(other: any) : boolean</text><ellipse cx="18" cy="366.6038" fill="#84BE84" rx="3" ry="3" style="stroke:#038048;stroke-width:1.0;"/><text fill="#000000" font-family="sans-serif" font-size="14" lengthAdjust="spacing" text-decoration="underline" textLength="325" x="27" y="370.3948">from&lt;T&gt;(this: T, value: any) : InstanceType&lt;T&gt;</text><ellipse cx="18" cy="383.0921" fill="#84BE84" rx="3" ry="3" style="stroke:#038048;stroke-width:1.0;"/><text fill="#000000" font-family="sans-serif" font-size="14" lengthAdjust="spacing" text-decoration="underline" textLength="187" x="27" y="386.8831">from(value: any) : unknown</text></g><!--class Struct--><g id="elem_Struct"><rect codeLine="20" fill="#FCF2CC" filter="url(#f1htnq4gd21txj)" height="146.9297" id="Struct" style="stroke:#5A0000;stroke-width:2.0;" width="351" x="32" y="7"/><ellipse cx="182.25" cy="23" fill="#ADD1B2" rx="11" ry="11" style="stroke:#181818;stroke-width:1.0;"/><path d="M184.7231,29.1431 Q184.1421,29.4419 183.5029,29.5913 Q182.8638,29.7407 182.1582,29.7407 Q179.6514,29.7407 178.3315,28.0889 Q177.0117,26.437 177.0117,23.3159 Q177.0117,20.1865 178.3315,18.5347 Q179.6514,16.8828 182.1582,16.8828 Q182.8638,16.8828 183.5112,17.0322 Q184.1587,17.1816 184.7231,17.4805 L184.7231,20.2031 Q184.0923,19.6221 183.4988,19.3523 Q182.9053,19.0825 182.2744,19.0825 Q180.9297,19.0825 180.2449,20.1492 Q179.5601,21.2158 179.5601,23.3159 Q179.5601,25.4077 180.2449,26.4744 Q180.9297,27.541 182.2744,27.541 Q182.9053,27.541 183.4988,27.2712 Q184.0923,27.0015 184.7231,26.4204 Z " fill="#000000"/><text fill="#000000" font-family="sans-serif" font-size="14" font-weight="bold" lengthAdjust="spacing" textLength="42" x="202.75" y="28.291">Struct</text><line style="stroke:#5A0000;stroke-width:2.0;" x1="33" x2="382" y1="39" y2="39"/><ellipse cx="43" cy="52.7441" fill="none" rx="3" ry="3" style="stroke:#038048;stroke-width:1.0;"/><text fill="#000000" font-family="sans-serif" font-size="14" font-weight="bold" lengthAdjust="spacing" text-decoration="underline" textLength="55" x="52" y="56.5352">abiBase</text><text fill="#000000" font-family="sans-serif" font-size="14" lengthAdjust="spacing" text-decoration="underline" textLength="191" x="111" y="56.5352">: ABISerializableConstructor</text><ellipse cx="43" cy="69.2324" fill="none" rx="3" ry="3" style="stroke:#038048;stroke-width:1.0;"/><text fill="#000000" font-family="sans-serif" font-size="14" font-weight="bold" lengthAdjust="spacing" text-decoration="underline" textLength="65" x="52" y="73.0234">abiFields</text><text fill="#000000" font-family="sans-serif" font-size="14" lengthAdjust="spacing" text-decoration="underline" textLength="73" x="121" y="73.0234">: ABIField[]</text><ellipse cx="43" cy="85.7207" fill="none" rx="3" ry="3" style="stroke:#038048;stroke-width:1.0;"/><text fill="#000000" font-family="sans-serif" font-size="14" font-weight="bold" lengthAdjust="spacing" text-decoration="underline" textLength="63" x="52" y="89.5117">abiName</text><text fill="#000000" font-family="sans-serif" font-size="14" lengthAdjust="spacing" text-decoration="underline" textLength="48" x="119" y="89.5117">: string</text><line style="stroke:#5A0000;stroke-width:2.0;" x1="33" x2="382" y1="96.4648" y2="96.4648"/><ellipse cx="43" cy="110.209" fill="#84BE84" rx="3" ry="3" style="stroke:#038048;stroke-width:1.0;"/><text fill="#000000" font-family="sans-serif" font-size="14" lengthAdjust="spacing" textLength="192" x="52" y="114">equals(other: any) : boolean</text><ellipse cx="43" cy="126.6973" fill="#84BE84" rx="3" ry="3" style="stroke:#038048;stroke-width:1.0;"/><text fill="#000000" font-family="sans-serif" font-size="14" lengthAdjust="spacing" text-decoration="underline" textLength="325" x="52" y="130.4883">from&lt;T&gt;(this: T, value: any) : InstanceType&lt;T&gt;</text><ellipse cx="43" cy="143.1855" fill="#84BE84" rx="3" ry="3" style="stroke:#038048;stroke-width:1.0;"/><text fill="#000000" font-family="sans-serif" font-size="14" lengthAdjust="spacing" text-decoration="underline" textLength="187" x="52" y="146.9766">from(value: any) : unknown</text></g><!--reverse link Struct to ApiUsageBucket--><g id="link_Struct_ApiUsageBucket"><path codeLine="28" d="M207.5,172.28 C207.5,191.31 207.5,194.04 207.5,213.82 " fill="none" id="Struct-backto-ApiUsageBucket" style="stroke:#181818;stroke-width:1.0;"/><polygon fill="none" points="207.5,154.28,201.5,172.28,213.5,172.28,207.5,154.28" style="stroke:#181818;stroke-width:1.0;"/></g><!--SRC=[pLBBRi903BpdAonEL2qgGke5HP484XAN7aXwgdfmDWvPPH_fxgOefVnxbo3U-G1yiptZyOxNLbpLQ532NA2r2wrSubf1a6cH1_Qw6oEhraOtAfzheGqKh9WmTeVI9YTpGBpXsCS5OdLW6qK6nltCjEIiKcGjJ8AIvmGaQzT2mKdazh8YoPNQbyvJaX9plU5g3SuqTD6utTmPLDQtIBc0xQLXCAlvXyKrnGsho0rW6u2FhNNeEDl1SvX5cF4OBOMlMGHJcCNBX0n7mNyn4pJNodfLvhJfPIww_S_SBl_ywiM-epog-9d-FHrgtpHaQoz4nq4hOjwqy81wkKrL8pCoKNIYEox9QycwPpfzDoZiKBkIp1HGjKyUa6aj2DNDbeNHCaoZeIkvdKBw0Zye6ZgHbju9L8pIjYOFwo4FhmcDgfJUg61tF4RIEVcGHtW8cqu6XN-ZqTtV_GS0]--></g></svg>