<?xml version="1.0" encoding="us-ascii" standalone="no"?><svg xmlns="http://www.w3.org/2000/svg" xmlns:xlink="http://www.w3.org/1999/xlink" contentStyleType="text/css" height="926px" preserveAspectRatio="none" style="width:370px;height:926px;" version="1.1" viewBox="0 0 370 926" width="370px" zoomAndPan="magnify"><defs><filter height="300%" id="fqoqyyd2lczjz" width="300%" x="-1" y="-1"><feGaussianBlur result="blurOut" stdDeviation="2.0"/><feColorMatrix in="blurOut" result="blurOut2" type="matrix" values="0 0 0 0 0 0 0 0 0 0 0 0 0 0 0 0 0 0 .4 0"/><feOffset dx="4.0" dy="4.0" in="blurOut2" result="blurOut3"/><feBlend in="SourceGraphic" in2="blurOut3" mode="normal"/></filter></defs><g><!--class BlockHeader--><g id="elem_BlockHeader"><rect codeLine="10" fill="#FCF2CC" filter="url(#fqoqyyd2lczjz)" height="295.3242" id="BlockHeader" style="stroke:#5A0000;stroke-width:2.0;" width="351" x="7" y="213.93"/><ellipse cx="133.75" cy="229.93" fill="#ADD1B2" rx="11" ry="11" style="stroke:#181818;stroke-width:1.0;"/><path d="M136.2231,236.0731 Q135.6421,236.3719 135.0029,236.5213 Q134.3638,236.6707 133.6582,236.6707 Q131.1514,236.6707 129.8315,235.0189 Q128.5117,233.367 128.5117,230.2459 Q128.5117,227.1165 129.8315,225.4647 Q131.1514,223.8128 133.6582,223.8128 Q134.3638,223.8128 135.0112,223.9622 Q135.6587,224.1116 136.2231,224.4105 L136.2231,227.1331 Q135.5923,226.5521 134.9988,226.2823 Q134.4053,226.0125 133.7744,226.0125 Q132.4297,226.0125 131.7449,227.0792 Q131.0601,228.1458 131.0601,230.2459 Q131.0601,232.3377 131.7449,233.4044 Q132.4297,234.471 133.7744,234.471 Q134.4053,234.471 134.9988,234.2012 Q135.5923,233.9315 136.2231,233.3504 Z " fill="#000000"/><text fill="#000000" font-family="sans-serif" font-size="14" font-weight="bold" lengthAdjust="spacing" textLength="89" x="154.25" y="235.221">BlockHeader</text><line style="stroke:#5A0000;stroke-width:2.0;" x1="8" x2="357" y1="245.93" y2="245.93"/><ellipse cx="18" cy="259.6741" fill="none" rx="3" ry="3" style="stroke:#038048;stroke-width:1.0;"/><text fill="#000000" font-family="sans-serif" font-size="14" font-weight="bold" lengthAdjust="spacing" text-decoration="underline" textLength="55" x="27" y="263.4652">abiBase</text><text fill="#000000" font-family="sans-serif" font-size="14" lengthAdjust="spacing" text-decoration="underline" textLength="191" x="86" y="263.4652">: ABISerializableConstructor</text><ellipse cx="18" cy="276.1624" fill="none" rx="3" ry="3" style="stroke:#038048;stroke-width:1.0;"/><text fill="#000000" font-family="sans-serif" font-size="14" font-weight="bold" lengthAdjust="spacing" text-decoration="underline" textLength="65" x="27" y="279.9534">abiFields</text><text fill="#000000" font-family="sans-serif" font-size="14" lengthAdjust="spacing" text-decoration="underline" textLength="73" x="96" y="279.9534">: ABIField[]</text><ellipse cx="18" cy="292.6507" fill="none" rx="3" ry="3" style="stroke:#038048;stroke-width:1.0;"/><text fill="#000000" font-family="sans-serif" font-size="14" font-weight="bold" lengthAdjust="spacing" text-decoration="underline" textLength="63" x="27" y="296.4417">abiName</text><text fill="#000000" font-family="sans-serif" font-size="14" lengthAdjust="spacing" text-decoration="underline" textLength="48" x="94" y="296.4417">: string</text><ellipse cx="18" cy="309.139" fill="none" rx="3" ry="3" style="stroke:#038048;stroke-width:1.0;"/><text fill="#000000" font-family="sans-serif" font-size="14" font-weight="bold" lengthAdjust="spacing" textLength="95" x="27" y="312.93">action_mroot</text><text fill="#000000" font-family="sans-serif" font-size="14" lengthAdjust="spacing" textLength="57" x="126" y="312.93">: BlockId</text><ellipse cx="18" cy="325.6273" fill="none" rx="3" ry="3" style="stroke:#038048;stroke-width:1.0;"/><text fill="#000000" font-family="sans-serif" font-size="14" font-weight="bold" lengthAdjust="spacing" textLength="73" x="27" y="329.4183">confirmed</text><text fill="#000000" font-family="sans-serif" font-size="14" lengthAdjust="spacing" textLength="54" x="104" y="329.4183">: UInt16</text><ellipse cx="18" cy="342.1155" fill="none" rx="3" ry="3" style="stroke:#038048;stroke-width:1.0;"/><text fill="#000000" font-family="sans-serif" font-size="14" font-weight="bold" lengthAdjust="spacing" textLength="133" x="27" y="345.9066">header_extensions</text><text fill="#000000" font-family="sans-serif" font-size="14" lengthAdjust="spacing" textLength="135" x="164" y="345.9066">: HeaderExtension[]</text><ellipse cx="18" cy="358.6038" fill="none" rx="3" ry="3" style="stroke:#038048;stroke-width:1.0;"/><text fill="#000000" font-family="sans-serif" font-size="14" font-weight="bold" lengthAdjust="spacing" textLength="107" x="27" y="362.3948">new_producers</text><text fill="#000000" font-family="sans-serif" font-size="14" lengthAdjust="spacing" textLength="106" x="138" y="362.3948">: NewProducers</text><ellipse cx="18" cy="375.0921" fill="none" rx="3" ry="3" style="stroke:#038048;stroke-width:1.0;"/><text fill="#000000" font-family="sans-serif" font-size="14" font-weight="bold" lengthAdjust="spacing" textLength="62" x="27" y="378.8831">previous</text><text fill="#000000" font-family="sans-serif" font-size="14" lengthAdjust="spacing" textLength="57" x="93" y="378.8831">: BlockId</text><ellipse cx="18" cy="391.5804" fill="none" rx="3" ry="3" style="stroke:#038048;stroke-width:1.0;"/><text fill="#000000" font-family="sans-serif" font-size="14" font-weight="bold" lengthAdjust="spacing" textLength="63" x="27" y="395.3714">producer</text><text fill="#000000" font-family="sans-serif" font-size="14" lengthAdjust="spacing" textLength="47" x="94" y="395.3714">: Name</text><ellipse cx="18" cy="408.0687" fill="none" rx="3" ry="3" style="stroke:#038048;stroke-width:1.0;"/><text fill="#000000" font-family="sans-serif" font-size="14" font-weight="bold" lengthAdjust="spacing" textLength="123" x="27" y="411.8597">schedule_version</text><text fill="#000000" font-family="sans-serif" font-size="14" lengthAdjust="spacing" textLength="54" x="154" y="411.8597">: UInt32</text><ellipse cx="18" cy="424.557" fill="none" rx="3" ry="3" style="stroke:#038048;stroke-width:1.0;"/><text fill="#000000" font-family="sans-serif" font-size="14" font-weight="bold" lengthAdjust="spacing" textLength="61" x="27" y="428.348">timeSlot</text><text fill="#000000" font-family="sans-serif" font-size="14" lengthAdjust="spacing" textLength="54" x="92" y="428.348">: UInt32</text><ellipse cx="18" cy="441.0452" fill="none" rx="3" ry="3" style="stroke:#038048;stroke-width:1.0;"/><text fill="#000000" font-family="sans-serif" font-size="14" font-weight="bold" lengthAdjust="spacing" textLength="132" x="27" y="444.8362">transaction_mroot</text><text fill="#000000" font-family="sans-serif" font-size="14" lengthAdjust="spacing" textLength="57" x="163" y="444.8362">: BlockId</text><line style="stroke:#5A0000;stroke-width:2.0;" x1="8" x2="357" y1="451.7894" y2="451.7894"/><ellipse cx="18" cy="465.5335" fill="#84BE84" rx="3" ry="3" style="stroke:#038048;stroke-width:1.0;"/><text fill="#000000" font-family="sans-serif" font-size="14" lengthAdjust="spacing" textLength="192" x="27" y="469.3245">equals(other: any) : boolean</text><ellipse cx="18" cy="482.0218" fill="#84BE84" rx="3" ry="3" style="stroke:#038048;stroke-width:1.0;"/><text fill="#000000" font-family="sans-serif" font-size="14" lengthAdjust="spacing" text-decoration="underline" textLength="325" x="27" y="485.8128">from&lt;T&gt;(this: T, value: any) : InstanceType&lt;T&gt;</text><ellipse cx="18" cy="498.5101" fill="#84BE84" rx="3" ry="3" style="stroke:#038048;stroke-width:1.0;"/><text fill="#000000" font-family="sans-serif" font-size="14" lengthAdjust="spacing" text-decoration="underline" textLength="187" x="27" y="502.3011">from(value: any) : unknown</text></g><!--class Struct--><g id="elem_Struct"><rect codeLine="27" fill="#FCF2CC" filter="url(#fqoqyyd2lczjz)" height="146.9297" id="Struct" style="stroke:#5A0000;stroke-width:2.0;" width="351" x="7" y="7"/><ellipse cx="157.25" cy="23" fill="#ADD1B2" rx="11" ry="11" style="stroke:#181818;stroke-width:1.0;"/><path d="M159.7231,29.1431 Q159.1421,29.4419 158.5029,29.5913 Q157.8638,29.7407 157.1582,29.7407 Q154.6514,29.7407 153.3315,28.0889 Q152.0117,26.437 152.0117,23.3159 Q152.0117,20.1865 153.3315,18.5347 Q154.6514,16.8828 157.1582,16.8828 Q157.8638,16.8828 158.5112,17.0322 Q159.1587,17.1816 159.7231,17.4805 L159.7231,20.2031 Q159.0923,19.6221 158.4988,19.3523 Q157.9053,19.0825 157.2744,19.0825 Q155.9297,19.0825 155.2449,20.1492 Q154.5601,21.2158 154.5601,23.3159 Q154.5601,25.4077 155.2449,26.4744 Q155.9297,27.541 157.2744,27.541 Q157.9053,27.541 158.4988,27.2712 Q159.0923,27.0015 159.7231,26.4204 Z " fill="#000000"/><text fill="#000000" font-family="sans-serif" font-size="14" font-weight="bold" lengthAdjust="spacing" textLength="42" x="177.75" y="28.291">Struct</text><line style="stroke:#5A0000;stroke-width:2.0;" x1="8" x2="357" y1="39" y2="39"/><ellipse cx="18" cy="52.7441" fill="none" rx="3" ry="3" style="stroke:#038048;stroke-width:1.0;"/><text fill="#000000" font-family="sans-serif" font-size="14" font-weight="bold" lengthAdjust="spacing" text-decoration="underline" textLength="55" x="27" y="56.5352">abiBase</text><text fill="#000000" font-family="sans-serif" font-size="14" lengthAdjust="spacing" text-decoration="underline" textLength="191" x="86" y="56.5352">: ABISerializableConstructor</text><ellipse cx="18" cy="69.2324" fill="none" rx="3" ry="3" style="stroke:#038048;stroke-width:1.0;"/><text fill="#000000" font-family="sans-serif" font-size="14" font-weight="bold" lengthAdjust="spacing" text-decoration="underline" textLength="65" x="27" y="73.0234">abiFields</text><text fill="#000000" font-family="sans-serif" font-size="14" lengthAdjust="spacing" text-decoration="underline" textLength="73" x="96" y="73.0234">: ABIField[]</text><ellipse cx="18" cy="85.7207" fill="none" rx="3" ry="3" style="stroke:#038048;stroke-width:1.0;"/><text fill="#000000" font-family="sans-serif" font-size="14" font-weight="bold" lengthAdjust="spacing" text-decoration="underline" textLength="63" x="27" y="89.5117">abiName</text><text fill="#000000" font-family="sans-serif" font-size="14" lengthAdjust="spacing" text-decoration="underline" textLength="48" x="94" y="89.5117">: string</text><line style="stroke:#5A0000;stroke-width:2.0;" x1="8" x2="357" y1="96.4648" y2="96.4648"/><ellipse cx="18" cy="110.209" fill="#84BE84" rx="3" ry="3" style="stroke:#038048;stroke-width:1.0;"/><text fill="#000000" font-family="sans-serif" font-size="14" lengthAdjust="spacing" textLength="192" x="27" y="114">equals(other: any) : boolean</text><ellipse cx="18" cy="126.6973" fill="#84BE84" rx="3" ry="3" style="stroke:#038048;stroke-width:1.0;"/><text fill="#000000" font-family="sans-serif" font-size="14" lengthAdjust="spacing" text-decoration="underline" textLength="325" x="27" y="130.4883">from&lt;T&gt;(this: T, value: any) : InstanceType&lt;T&gt;</text><ellipse cx="18" cy="143.1855" fill="#84BE84" rx="3" ry="3" style="stroke:#038048;stroke-width:1.0;"/><text fill="#000000" font-family="sans-serif" font-size="14" lengthAdjust="spacing" text-decoration="underline" textLength="187" x="27" y="146.9766">from(value: any) : unknown</text></g><!--class SignedBlock--><g id="elem_SignedBlock"><rect codeLine="36" fill="#FCF2CC" filter="url(#fqoqyyd2lczjz)" height="344.7891" id="SignedBlock" style="stroke:#5A0000;stroke-width:2.0;" width="351" x="7" y="569.25"/><ellipse cx="134.75" cy="585.25" fill="#ADD1B2" rx="11" ry="11" style="stroke:#181818;stroke-width:1.0;"/><path d="M137.2231,591.3931 Q136.6421,591.6919 136.0029,591.8413 Q135.3638,591.9907 134.6582,591.9907 Q132.1514,591.9907 130.8315,590.3389 Q129.5117,588.687 129.5117,585.5659 Q129.5117,582.4365 130.8315,580.7847 Q132.1514,579.1328 134.6582,579.1328 Q135.3638,579.1328 136.0112,579.2822 Q136.6587,579.4316 137.2231,579.7305 L137.2231,582.4531 Q136.5923,581.8721 135.9988,581.6023 Q135.4053,581.3325 134.7744,581.3325 Q133.4297,581.3325 132.7449,582.3992 Q132.0601,583.4658 132.0601,585.5659 Q132.0601,587.6577 132.7449,588.7244 Q133.4297,589.791 134.7744,589.791 Q135.4053,589.791 135.9988,589.5212 Q136.5923,589.2515 137.2231,588.6704 Z " fill="#000000"/><text fill="#000000" font-family="sans-serif" font-size="14" font-weight="bold" lengthAdjust="spacing" textLength="87" x="155.25" y="590.541">SignedBlock</text><line style="stroke:#5A0000;stroke-width:2.0;" x1="8" x2="357" y1="601.25" y2="601.25"/><ellipse cx="18" cy="614.9941" fill="none" rx="3" ry="3" style="stroke:#038048;stroke-width:1.0;"/><text fill="#000000" font-family="sans-serif" font-size="14" font-weight="bold" lengthAdjust="spacing" text-decoration="underline" textLength="55" x="27" y="618.7852">abiBase</text><text fill="#000000" font-family="sans-serif" font-size="14" lengthAdjust="spacing" text-decoration="underline" textLength="191" x="86" y="618.7852">: ABISerializableConstructor</text><ellipse cx="18" cy="631.4824" fill="none" rx="3" ry="3" style="stroke:#038048;stroke-width:1.0;"/><text fill="#000000" font-family="sans-serif" font-size="14" font-weight="bold" lengthAdjust="spacing" text-decoration="underline" textLength="65" x="27" y="635.2734">abiFields</text><text fill="#000000" font-family="sans-serif" font-size="14" lengthAdjust="spacing" text-decoration="underline" textLength="73" x="96" y="635.2734">: ABIField[]</text><ellipse cx="18" cy="647.9707" fill="none" rx="3" ry="3" style="stroke:#038048;stroke-width:1.0;"/><text fill="#000000" font-family="sans-serif" font-size="14" font-weight="bold" lengthAdjust="spacing" text-decoration="underline" textLength="63" x="27" y="651.7617">abiName</text><text fill="#000000" font-family="sans-serif" font-size="14" lengthAdjust="spacing" text-decoration="underline" textLength="48" x="94" y="651.7617">: string</text><ellipse cx="18" cy="664.459" fill="none" rx="3" ry="3" style="stroke:#038048;stroke-width:1.0;"/><text fill="#000000" font-family="sans-serif" font-size="14" font-weight="bold" lengthAdjust="spacing" textLength="95" x="27" y="668.25">action_mroot</text><text fill="#000000" font-family="sans-serif" font-size="14" lengthAdjust="spacing" textLength="57" x="126" y="668.25">: BlockId</text><ellipse cx="18" cy="680.9473" fill="none" rx="3" ry="3" style="stroke:#038048;stroke-width:1.0;"/><text fill="#000000" font-family="sans-serif" font-size="14" font-weight="bold" lengthAdjust="spacing" textLength="124" x="27" y="684.7383">block_extensions</text><text fill="#000000" font-family="sans-serif" font-size="14" lengthAdjust="spacing" textLength="122" x="155" y="684.7383">: BlockExtension[]</text><ellipse cx="18" cy="697.4355" fill="none" rx="3" ry="3" style="stroke:#038048;stroke-width:1.0;"/><text fill="#000000" font-family="sans-serif" font-size="14" font-weight="bold" lengthAdjust="spacing" textLength="73" x="27" y="701.2266">confirmed</text><text fill="#000000" font-family="sans-serif" font-size="14" lengthAdjust="spacing" textLength="54" x="104" y="701.2266">: UInt16</text><ellipse cx="18" cy="713.9238" fill="none" rx="3" ry="3" style="stroke:#038048;stroke-width:1.0;"/><text fill="#000000" font-family="sans-serif" font-size="14" font-weight="bold" lengthAdjust="spacing" textLength="133" x="27" y="717.7148">header_extensions</text><text fill="#000000" font-family="sans-serif" font-size="14" lengthAdjust="spacing" textLength="135" x="164" y="717.7148">: HeaderExtension[]</text><ellipse cx="18" cy="730.4121" fill="none" rx="3" ry="3" style="stroke:#038048;stroke-width:1.0;"/><text fill="#000000" font-family="sans-serif" font-size="14" font-weight="bold" lengthAdjust="spacing" textLength="107" x="27" y="734.2031">new_producers</text><text fill="#000000" font-family="sans-serif" font-size="14" lengthAdjust="spacing" textLength="106" x="138" y="734.2031">: NewProducers</text><ellipse cx="18" cy="746.9004" fill="none" rx="3" ry="3" style="stroke:#038048;stroke-width:1.0;"/><text fill="#000000" font-family="sans-serif" font-size="14" font-weight="bold" lengthAdjust="spacing" textLength="62" x="27" y="750.6914">previous</text><text fill="#000000" font-family="sans-serif" font-size="14" lengthAdjust="spacing" textLength="57" x="93" y="750.6914">: BlockId</text><ellipse cx="18" cy="763.3887" fill="none" rx="3" ry="3" style="stroke:#038048;stroke-width:1.0;"/><text fill="#000000" font-family="sans-serif" font-size="14" font-weight="bold" lengthAdjust="spacing" textLength="63" x="27" y="767.1797">producer</text><text fill="#000000" font-family="sans-serif" font-size="14" lengthAdjust="spacing" textLength="47" x="94" y="767.1797">: Name</text><ellipse cx="18" cy="779.877" fill="none" rx="3" ry="3" style="stroke:#038048;stroke-width:1.0;"/><text fill="#000000" font-family="sans-serif" font-size="14" font-weight="bold" lengthAdjust="spacing" textLength="138" x="27" y="783.668">producer_signature</text><text fill="#000000" font-family="sans-serif" font-size="14" lengthAdjust="spacing" textLength="74" x="169" y="783.668">: Signature</text><ellipse cx="18" cy="796.3652" fill="none" rx="3" ry="3" style="stroke:#038048;stroke-width:1.0;"/><text fill="#000000" font-family="sans-serif" font-size="14" font-weight="bold" lengthAdjust="spacing" textLength="123" x="27" y="800.1563">schedule_version</text><text fill="#000000" font-family="sans-serif" font-size="14" lengthAdjust="spacing" textLength="54" x="154" y="800.1563">: UInt32</text><ellipse cx="18" cy="812.8535" fill="none" rx="3" ry="3" style="stroke:#038048;stroke-width:1.0;"/><text fill="#000000" font-family="sans-serif" font-size="14" font-weight="bold" lengthAdjust="spacing" textLength="61" x="27" y="816.6445">timeSlot</text><text fill="#000000" font-family="sans-serif" font-size="14" lengthAdjust="spacing" textLength="54" x="92" y="816.6445">: UInt32</text><ellipse cx="18" cy="829.3418" fill="none" rx="3" ry="3" style="stroke:#038048;stroke-width:1.0;"/><text fill="#000000" font-family="sans-serif" font-size="14" font-weight="bold" lengthAdjust="spacing" textLength="89" x="27" y="833.1328">transactions</text><text fill="#000000" font-family="sans-serif" font-size="14" lengthAdjust="spacing" textLength="174" x="120" y="833.1328">: FullTransactionReceipt[]</text><ellipse cx="18" cy="845.8301" fill="none" rx="3" ry="3" style="stroke:#038048;stroke-width:1.0;"/><text fill="#000000" font-family="sans-serif" font-size="14" font-weight="bold" lengthAdjust="spacing" textLength="132" x="27" y="849.6211">transaction_mroot</text><text fill="#000000" font-family="sans-serif" font-size="14" lengthAdjust="spacing" textLength="57" x="163" y="849.6211">: BlockId</text><line style="stroke:#5A0000;stroke-width:2.0;" x1="8" x2="357" y1="856.5742" y2="856.5742"/><ellipse cx="18" cy="870.3184" fill="#84BE84" rx="3" ry="3" style="stroke:#038048;stroke-width:1.0;"/><text fill="#000000" font-family="sans-serif" font-size="14" lengthAdjust="spacing" textLength="192" x="27" y="874.1094">equals(other: any) : boolean</text><ellipse cx="18" cy="886.8066" fill="#84BE84" rx="3" ry="3" style="stroke:#038048;stroke-width:1.0;"/><text fill="#000000" font-family="sans-serif" font-size="14" lengthAdjust="spacing" text-decoration="underline" textLength="325" x="27" y="890.5977">from&lt;T&gt;(this: T, value: any) : InstanceType&lt;T&gt;</text><ellipse cx="18" cy="903.2949" fill="#84BE84" rx="3" ry="3" style="stroke:#038048;stroke-width:1.0;"/><text fill="#000000" font-family="sans-serif" font-size="14" lengthAdjust="spacing" text-decoration="underline" textLength="187" x="27" y="907.0859">from(value: any) : unknown</text></g><!--reverse link Struct to BlockHeader--><g id="link_Struct_BlockHeader"><path codeLine="35" d="M182.5,172.07 C182.5,190.49 182.5,192.94 182.5,213.61 " fill="none" id="Struct-backto-BlockHeader" style="stroke:#181818;stroke-width:1.0;"/><polygon fill="none" points="182.5,154.07,176.5,172.07,188.5,172.07,182.5,154.07" style="stroke:#181818;stroke-width:1.0;"/></g><!--reverse link BlockHeader to SignedBlock--><g id="link_BlockHeader_SignedBlock"><path codeLine="56" d="M182.5,527.57 C182.5,547.07 182.5,549.2 182.5,569.06 " fill="none" id="BlockHeader-backto-SignedBlock" style="stroke:#181818;stroke-width:1.0;"/><polygon fill="none" points="182.5,509.57,176.5,527.57,188.5,527.57,182.5,509.57" style="stroke:#181818;stroke-width:1.0;"/></g><!--SRC=[rLN1Rjim3BtdAuIUCcp5kWpR8GW2BC62vL8CjNSg1aEMw5YmJ7gId2ph-kzJdCXnKWyz5MXq4zyZ-KYAjYqKLjpmaiqrjtP1w2AtrS1Iqd9WJz4P5yNAK8roJfeCoqGs4k89Yum4isTyuZV-T1XtUs-3ODXDlsUSAr4WMCj6Wrn9O51MRiio1LhQhgK4bvCt7QD4EPUqKRXYpjJG0SwLEyFHUWZG3SGkDRkQQHB5D-1UmHLx631_7gpZJeb7zdQIJdcgPjp2v7qwPMFsPRQCm2YkrH-UQfWJMfzIE3Azdej6_D6tkT__xENUyZ9ayJ5zCGsh0OLJX4bfYDo1qQXUofOY23DbIf07_CSItOVFBPmtzINmsm5Q7oj8sjVzDPWFodOU29kaCYHh0IQmRs7pFPXQOcLWhQYs_n4MOeGGliWMio87MMj8rZwWJz_H_d7Kifmg8T9jvUVeRgBFDGX-rLpR8RaSp9XntBxnZ9H80yUpMMI6oaay7RfSsJ6Btx4rrpMqJai_Ruu2ucq5djRZF3nrgB50sk3WCRotg7alh_AflOesjGsQ_Bs-FbtFjeLgXI0Rv89NDjtTdwvaG-lRo8jSyO0bri-Ckzg4VaNX_b9VWw1sKMiT7yrt841LhjE6o_c2dFwhzllHtOL_]--></g></svg>