<?xml version="1.0" encoding="us-ascii" standalone="no"?><svg xmlns="http://www.w3.org/2000/svg" xmlns:xlink="http://www.w3.org/1999/xlink" contentStyleType="text/css" height="603px" preserveAspectRatio="none" style="width:1001px;height:603px;" version="1.1" viewBox="0 0 1001 603" width="1001px" zoomAndPan="magnify"><defs><filter height="300%" id="f12cai8e1pujbd" width="300%" x="-1" y="-1"><feGaussianBlur result="blurOut" stdDeviation="2.0"/><feColorMatrix in="blurOut" result="blurOut2" type="matrix" values="0 0 0 0 0 0 0 0 0 0 0 0 0 0 0 0 0 0 .4 0"/><feOffset dx="4.0" dy="4.0" in="blurOut2" result="blurOut3"/><feBlend in="SourceGraphic" in2="blurOut3" mode="normal"/></filter></defs><g><!--class ChainId--><g id="elem_ChainId"><rect codeLine="10" fill="#FCF2CC" filter="url(#f12cai8e1pujbd)" height="262.3477" id="ChainId" style="stroke:#5A0000;stroke-width:2.0;" width="982" x="7" y="329.35"/><ellipse cx="466.25" cy="345.35" fill="#ADD1B2" rx="11" ry="11" style="stroke:#181818;stroke-width:1.0;"/><path d="M468.7231,351.4931 Q468.1421,351.7919 467.5029,351.9413 Q466.8638,352.0907 466.1582,352.0907 Q463.6514,352.0907 462.3315,350.4389 Q461.0117,348.787 461.0117,345.6659 Q461.0117,342.5365 462.3315,340.8847 Q463.6514,339.2328 466.1582,339.2328 Q466.8638,339.2328 467.5112,339.3822 Q468.1587,339.5316 468.7231,339.8305 L468.7231,342.5531 Q468.0923,341.9721 467.4988,341.7023 Q466.9053,341.4325 466.2744,341.4325 Q464.9297,341.4325 464.2449,342.4992 Q463.5601,343.5658 463.5601,345.6659 Q463.5601,347.7577 464.2449,348.8244 Q464.9297,349.891 466.2744,349.891 Q466.9053,349.891 467.4988,349.6212 Q468.0923,349.3515 468.7231,348.7704 Z " fill="#000000"/><text fill="#000000" font-family="sans-serif" font-size="14" font-weight="bold" lengthAdjust="spacing" textLength="55" x="486.75" y="350.641">ChainId</text><line style="stroke:#5A0000;stroke-width:2.0;" x1="8" x2="988" y1="361.35" y2="361.35"/><ellipse cx="18" cy="375.0941" fill="none" rx="3" ry="3" style="stroke:#038048;stroke-width:1.0;"/><text fill="#000000" font-family="sans-serif" font-size="14" font-weight="bold" lengthAdjust="spacing" text-decoration="underline" textLength="63" x="27" y="378.8852">abiName</text><text fill="#000000" font-family="sans-serif" font-size="14" lengthAdjust="spacing" text-decoration="underline" textLength="48" x="94" y="378.8852">: string</text><ellipse cx="18" cy="391.5824" fill="none" rx="3" ry="3" style="stroke:#038048;stroke-width:1.0;"/><text fill="#000000" font-family="sans-serif" font-size="14" font-weight="bold" lengthAdjust="spacing" textLength="36" x="27" y="395.3734">array</text><text fill="#000000" font-family="sans-serif" font-size="14" lengthAdjust="spacing" textLength="82" x="67" y="395.3734">: Uint8Array</text><ellipse cx="18" cy="408.0707" fill="none" rx="3" ry="3" style="stroke:#038048;stroke-width:1.0;"/><text fill="#000000" font-family="sans-serif" font-size="14" font-weight="bold" lengthAdjust="spacing" text-decoration="underline" textLength="60" x="27" y="411.8617">byteSize</text><text fill="#000000" font-family="sans-serif" font-size="14" lengthAdjust="spacing" text-decoration="underline" textLength="62" x="91" y="411.8617">: number</text><line style="stroke:#5A0000;stroke-width:2.0;" x1="8" x2="988" y1="418.8148" y2="418.8148"/><ellipse cx="18" cy="432.559" fill="#84BE84" rx="3" ry="3" style="stroke:#038048;stroke-width:1.0;"/><text fill="#000000" font-family="sans-serif" font-size="14" lengthAdjust="spacing" text-decoration="underline" textLength="286" x="27" y="436.35">abiDefault&lt;T&gt;(this: T) : InstanceType&lt;T&gt;</text><ellipse cx="18" cy="449.0473" fill="#84BE84" rx="3" ry="3" style="stroke:#038048;stroke-width:1.0;"/><text fill="#000000" font-family="sans-serif" font-size="14" lengthAdjust="spacing" text-decoration="underline" textLength="156" x="27" y="452.8383">abiDefault() : unknown</text><ellipse cx="18" cy="465.5355" fill="#84BE84" rx="3" ry="3" style="stroke:#038048;stroke-width:1.0;"/><text fill="#000000" font-family="sans-serif" font-size="14" lengthAdjust="spacing" textLength="956" x="27" y="469.3266">equals(other: string | ArrayBuffer | ArrayBufferView | ArrayLike&lt;number&gt; | Bytes | Checksum160 | Checksum256 | Checksum512) : boolean</text><ellipse cx="18" cy="482.0238" fill="#84BE84" rx="3" ry="3" style="stroke:#038048;stroke-width:1.0;"/><text fill="#000000" font-family="sans-serif" font-size="14" lengthAdjust="spacing" text-decoration="underline" textLength="238" x="27" y="485.8148">from(value: ChainIdType) : ChainId</text><ellipse cx="18" cy="498.5121" fill="#84BE84" rx="3" ry="3" style="stroke:#038048;stroke-width:1.0;"/><text fill="#000000" font-family="sans-serif" font-size="14" lengthAdjust="spacing" text-decoration="underline" textLength="422" x="27" y="502.3031">fromABI&lt;T&gt;(this: T, decoder: ABIDecoder) : InstanceType&lt;T&gt;</text><ellipse cx="18" cy="515.0004" fill="#84BE84" rx="3" ry="3" style="stroke:#038048;stroke-width:1.0;"/><text fill="#000000" font-family="sans-serif" font-size="14" lengthAdjust="spacing" text-decoration="underline" textLength="284" x="27" y="518.7914">fromABI(decoder: ABIDecoder) : unknown</text><ellipse cx="18" cy="531.4887" fill="#84BE84" rx="3" ry="3" style="stroke:#038048;stroke-width:1.0;"/><text fill="#000000" font-family="sans-serif" font-size="14" lengthAdjust="spacing" text-decoration="underline" textLength="259" x="27" y="535.2797">hash(data: BytesType) : Checksum256</text><ellipse cx="18" cy="547.977" fill="#84BE84" rx="3" ry="3" style="stroke:#038048;stroke-width:1.0;"/><text fill="#000000" font-family="sans-serif" font-size="14" lengthAdjust="spacing" textLength="229" x="27" y="551.768">toABI(encoder: ABIEncoder) : void</text><ellipse cx="18" cy="564.4652" fill="#84BE84" rx="3" ry="3" style="stroke:#038048;stroke-width:1.0;"/><text fill="#000000" font-family="sans-serif" font-size="14" lengthAdjust="spacing" textLength="109" x="27" y="568.2563">toJSON() : string</text><ellipse cx="18" cy="580.9535" fill="#84BE84" rx="3" ry="3" style="stroke:#038048;stroke-width:1.0;"/><text fill="#000000" font-family="sans-serif" font-size="14" lengthAdjust="spacing" textLength="117" x="27" y="584.7445">toString() : string</text></g><!--class Checksum256--><g id="elem_Checksum256"><rect codeLine="25" fill="#FCF2CC" filter="url(#f12cai8e1pujbd)" height="262.3477" id="Checksum256" style="stroke:#5A0000;stroke-width:2.0;" width="982" x="7" y="7"/><ellipse cx="443.25" cy="23" fill="#ADD1B2" rx="11" ry="11" style="stroke:#181818;stroke-width:1.0;"/><path d="M445.7231,29.1431 Q445.1421,29.4419 444.5029,29.5913 Q443.8638,29.7407 443.1582,29.7407 Q440.6514,29.7407 439.3315,28.0889 Q438.0117,26.437 438.0117,23.3159 Q438.0117,20.1865 439.3315,18.5347 Q440.6514,16.8828 443.1582,16.8828 Q443.8638,16.8828 444.5112,17.0322 Q445.1587,17.1816 445.7231,17.4805 L445.7231,20.2031 Q445.0923,19.6221 444.4988,19.3523 Q443.9053,19.0825 443.2744,19.0825 Q441.9297,19.0825 441.2449,20.1492 Q440.5601,21.2158 440.5601,23.3159 Q440.5601,25.4077 441.2449,26.4744 Q441.9297,27.541 443.2744,27.541 Q443.9053,27.541 444.4988,27.2712 Q445.0923,27.0015 445.7231,26.4204 Z " fill="#000000"/><text fill="#000000" font-family="sans-serif" font-size="14" font-weight="bold" lengthAdjust="spacing" textLength="101" x="463.75" y="28.291">Checksum256</text><line style="stroke:#5A0000;stroke-width:2.0;" x1="8" x2="988" y1="39" y2="39"/><ellipse cx="18" cy="52.7441" fill="none" rx="3" ry="3" style="stroke:#038048;stroke-width:1.0;"/><text fill="#000000" font-family="sans-serif" font-size="14" font-weight="bold" lengthAdjust="spacing" text-decoration="underline" textLength="63" x="27" y="56.5352">abiName</text><text fill="#000000" font-family="sans-serif" font-size="14" lengthAdjust="spacing" text-decoration="underline" textLength="48" x="94" y="56.5352">: string</text><ellipse cx="18" cy="69.2324" fill="none" rx="3" ry="3" style="stroke:#038048;stroke-width:1.0;"/><text fill="#000000" font-family="sans-serif" font-size="14" font-weight="bold" lengthAdjust="spacing" textLength="36" x="27" y="73.0234">array</text><text fill="#000000" font-family="sans-serif" font-size="14" lengthAdjust="spacing" textLength="82" x="67" y="73.0234">: Uint8Array</text><ellipse cx="18" cy="85.7207" fill="none" rx="3" ry="3" style="stroke:#038048;stroke-width:1.0;"/><text fill="#000000" font-family="sans-serif" font-size="14" font-weight="bold" lengthAdjust="spacing" text-decoration="underline" textLength="60" x="27" y="89.5117">byteSize</text><text fill="#000000" font-family="sans-serif" font-size="14" lengthAdjust="spacing" text-decoration="underline" textLength="62" x="91" y="89.5117">: number</text><line style="stroke:#5A0000;stroke-width:2.0;" x1="8" x2="988" y1="96.4648" y2="96.4648"/><ellipse cx="18" cy="110.209" fill="#84BE84" rx="3" ry="3" style="stroke:#038048;stroke-width:1.0;"/><text fill="#000000" font-family="sans-serif" font-size="14" lengthAdjust="spacing" text-decoration="underline" textLength="286" x="27" y="114">abiDefault&lt;T&gt;(this: T) : InstanceType&lt;T&gt;</text><ellipse cx="18" cy="126.6973" fill="#84BE84" rx="3" ry="3" style="stroke:#038048;stroke-width:1.0;"/><text fill="#000000" font-family="sans-serif" font-size="14" lengthAdjust="spacing" text-decoration="underline" textLength="156" x="27" y="130.4883">abiDefault() : unknown</text><ellipse cx="18" cy="143.1855" fill="#84BE84" rx="3" ry="3" style="stroke:#038048;stroke-width:1.0;"/><text fill="#000000" font-family="sans-serif" font-size="14" lengthAdjust="spacing" textLength="956" x="27" y="146.9766">equals(other: string | ArrayBuffer | ArrayBufferView | ArrayLike&lt;number&gt; | Bytes | Checksum160 | Checksum256 | Checksum512) : boolean</text><ellipse cx="18" cy="159.6738" fill="#84BE84" rx="3" ry="3" style="stroke:#038048;stroke-width:1.0;"/><text fill="#000000" font-family="sans-serif" font-size="14" lengthAdjust="spacing" text-decoration="underline" textLength="328" x="27" y="163.4648">from(value: Checksum256Type) : Checksum256</text><ellipse cx="18" cy="176.1621" fill="#84BE84" rx="3" ry="3" style="stroke:#038048;stroke-width:1.0;"/><text fill="#000000" font-family="sans-serif" font-size="14" lengthAdjust="spacing" text-decoration="underline" textLength="422" x="27" y="179.9531">fromABI&lt;T&gt;(this: T, decoder: ABIDecoder) : InstanceType&lt;T&gt;</text><ellipse cx="18" cy="192.6504" fill="#84BE84" rx="3" ry="3" style="stroke:#038048;stroke-width:1.0;"/><text fill="#000000" font-family="sans-serif" font-size="14" lengthAdjust="spacing" text-decoration="underline" textLength="284" x="27" y="196.4414">fromABI(decoder: ABIDecoder) : unknown</text><ellipse cx="18" cy="209.1387" fill="#84BE84" rx="3" ry="3" style="stroke:#038048;stroke-width:1.0;"/><text fill="#000000" font-family="sans-serif" font-size="14" lengthAdjust="spacing" text-decoration="underline" textLength="259" x="27" y="212.9297">hash(data: BytesType) : Checksum256</text><ellipse cx="18" cy="225.627" fill="#84BE84" rx="3" ry="3" style="stroke:#038048;stroke-width:1.0;"/><text fill="#000000" font-family="sans-serif" font-size="14" lengthAdjust="spacing" textLength="229" x="27" y="229.418">toABI(encoder: ABIEncoder) : void</text><ellipse cx="18" cy="242.1152" fill="#84BE84" rx="3" ry="3" style="stroke:#038048;stroke-width:1.0;"/><text fill="#000000" font-family="sans-serif" font-size="14" lengthAdjust="spacing" textLength="109" x="27" y="245.9063">toJSON() : string</text><ellipse cx="18" cy="258.6035" fill="#84BE84" rx="3" ry="3" style="stroke:#038048;stroke-width:1.0;"/><text fill="#000000" font-family="sans-serif" font-size="14" lengthAdjust="spacing" textLength="117" x="27" y="262.3945">toString() : string</text></g><!--reverse link Checksum256 to ChainId--><g id="link_Checksum256_ChainId"><path codeLine="40" d="M498,287.48 C498,307.14 498,309.42 498,329.08 " fill="none" id="Checksum256-backto-ChainId" style="stroke:#181818;stroke-width:1.0;"/><polygon fill="none" points="498,269.48,492,287.48,504,287.48,498,269.48" style="stroke:#181818;stroke-width:1.0;"/></g><!--SRC=[xLJ1Rjim3BtdAuYUF6p5qW0fXi08qAGRa67eW3dRdPReIh1DPPBSm6lxxvFj97RI1hljL5ziyhr7Fb64NQvvWnPBM1Ret1V3Fl5rGP2QGexSCRf0aTzRKx5Sci9Oo4Gs4U85orX9jcDCSHoU0UD7fxPC5iQlAzTAYvp9EPYCb9O4L6vy3PccGhfXfYIlJ4ZrLHA5qcmrtuEt5Gs0K-VU8hi04VkHQ5h3nLAXvfMyWCSHXEVHUVHQFCFxE9rZgk-mfFXZEeSPE6z3YvRLWjPYlOD-QlQVRfh4oo9fxIdHV_PLk2fJiYUqqEYMCgmA7w_daLVQpM3zBh1N73WiQ5rlA41dPL53hZXdi-NE8Vski72HyOhitZiyGMjoKMLPk8YZw9UcxJxpJUSKTqRd8RS89t3XlLGaSbULLzVZGJIPNW-YwTMaiP8QKn3oYT_CcZ9wmAAY6UpctXoi4Up2LmGtYzLWA1z0aZ2oELC0RhllVqzgLoWw8nvEhXSfT2gIw77MZQ3tUZXvDsjlcjh4VUtFVAZzOBJSqxuct-_QgnhkaZT96ms1vtuz3xtULlI_h-X1VkxgtrOrhEhnaiPFbvVzR_Kl]--></g></svg>