<?xml version="1.0" encoding="us-ascii" standalone="no"?><svg xmlns="http://www.w3.org/2000/svg" xmlns:xlink="http://www.w3.org/1999/xlink" contentStyleType="text/css" height="405px" preserveAspectRatio="none" style="width:427px;height:405px;" version="1.1" viewBox="0 0 427 405" width="427px" zoomAndPan="magnify"><defs><filter height="300%" id="f1g0ykmzx34e35" width="300%" x="-1" y="-1"><feGaussianBlur result="blurOut" stdDeviation="2.0"/><feColorMatrix in="blurOut" result="blurOut2" type="matrix" values="0 0 0 0 0 0 0 0 0 0 0 0 0 0 0 0 0 0 .4 0"/><feOffset dx="4.0" dy="4.0" in="blurOut2" result="blurOut3"/><feBlend in="SourceGraphic" in2="blurOut3" mode="normal"/></filter></defs><g><!--class ChainIdVariant--><g id="elem_ChainIdVariant"><rect codeLine="10" fill="#FCF2CC" filter="url(#f1g0ykmzx34e35)" height="163.418" id="ChainIdVariant" style="stroke:#5A0000;stroke-width:2.0;" width="408" x="7" y="230.42"/><ellipse cx="153.25" cy="246.42" fill="#ADD1B2" rx="11" ry="11" style="stroke:#181818;stroke-width:1.0;"/><path d="M155.7231,252.5631 Q155.1421,252.8619 154.5029,253.0113 Q153.8638,253.1607 153.1582,253.1607 Q150.6514,253.1607 149.3315,251.5089 Q148.0117,249.857 148.0117,246.7359 Q148.0117,243.6065 149.3315,241.9547 Q150.6514,240.3028 153.1582,240.3028 Q153.8638,240.3028 154.5112,240.4522 Q155.1587,240.6016 155.7231,240.9005 L155.7231,243.6231 Q155.0923,243.0421 154.4988,242.7723 Q153.9053,242.5025 153.2744,242.5025 Q151.9297,242.5025 151.2449,243.5692 Q150.5601,244.6358 150.5601,246.7359 Q150.5601,248.8277 151.2449,249.8944 Q151.9297,250.961 153.2744,250.961 Q153.9053,250.961 154.4988,250.6912 Q155.0923,250.4215 155.7231,249.8404 Z " fill="#000000"/><text fill="#000000" font-family="sans-serif" font-size="14" font-weight="bold" lengthAdjust="spacing" textLength="107" x="173.75" y="251.711">ChainIdVariant</text><line style="stroke:#5A0000;stroke-width:2.0;" x1="8" x2="414" y1="262.42" y2="262.42"/><ellipse cx="18" cy="276.1641" fill="none" rx="3" ry="3" style="stroke:#038048;stroke-width:1.0;"/><text fill="#000000" font-family="sans-serif" font-size="14" font-weight="bold" lengthAdjust="spacing" text-decoration="underline" textLength="63" x="27" y="279.9552">abiName</text><text fill="#000000" font-family="sans-serif" font-size="14" lengthAdjust="spacing" text-decoration="underline" textLength="48" x="94" y="279.9552">: string</text><ellipse cx="18" cy="292.6524" fill="none" rx="3" ry="3" style="stroke:#038048;stroke-width:1.0;"/><text fill="#000000" font-family="sans-serif" font-size="14" font-weight="bold" lengthAdjust="spacing" text-decoration="underline" textLength="74" x="27" y="296.4434">abiVariant</text><text fill="#000000" font-family="sans-serif" font-size="14" lengthAdjust="spacing" text-decoration="underline" textLength="144" x="105" y="296.4434">: ABITypeDescriptor[]</text><ellipse cx="18" cy="309.1407" fill="none" rx="3" ry="3" style="stroke:#038048;stroke-width:1.0;"/><text fill="#000000" font-family="sans-serif" font-size="14" font-weight="bold" lengthAdjust="spacing" textLength="38" x="27" y="312.9317">value</text><text fill="#000000" font-family="sans-serif" font-size="14" lengthAdjust="spacing" textLength="147" x="69" y="312.9317">: ChainId | ChainAlias</text><ellipse cx="18" cy="325.629" fill="none" rx="3" ry="3" style="stroke:#038048;stroke-width:1.0;"/><text fill="#000000" font-family="sans-serif" font-size="14" font-weight="bold" lengthAdjust="spacing" textLength="72" x="27" y="329.42">variantIdx</text><text fill="#000000" font-family="sans-serif" font-size="14" lengthAdjust="spacing" textLength="62" x="103" y="329.42">: number</text><line style="stroke:#5A0000;stroke-width:2.0;" x1="8" x2="414" y1="336.3731" y2="336.3731"/><ellipse cx="18" cy="350.1173" fill="#84BE84" rx="3" ry="3" style="stroke:#038048;stroke-width:1.0;"/><text fill="#000000" font-family="sans-serif" font-size="14" lengthAdjust="spacing" textLength="243" x="27" y="353.9083">equals(other: AnyVariant) : boolean</text><ellipse cx="18" cy="366.6055" fill="#84BE84" rx="3" ry="3" style="stroke:#038048;stroke-width:1.0;"/><text fill="#000000" font-family="sans-serif" font-size="14" lengthAdjust="spacing" text-decoration="underline" textLength="382" x="27" y="370.3966">from&lt;T&gt;(this: T, object: AnyVariant) : InstanceType&lt;T&gt;</text><ellipse cx="18" cy="383.0938" fill="#84BE84" rx="3" ry="3" style="stroke:#038048;stroke-width:1.0;"/><text fill="#000000" font-family="sans-serif" font-size="14" lengthAdjust="spacing" text-decoration="underline" textLength="244" x="27" y="386.8848">from(object: AnyVariant) : unknown</text></g><!--class Variant--><g id="elem_Variant"><rect codeLine="19" fill="#FCF2CC" filter="url(#f1g0ykmzx34e35)" height="163.418" id="Variant" style="stroke:#5A0000;stroke-width:2.0;" width="408" x="7" y="7"/><ellipse cx="180.75" cy="23" fill="#ADD1B2" rx="11" ry="11" style="stroke:#181818;stroke-width:1.0;"/><path d="M183.2231,29.1431 Q182.6421,29.4419 182.0029,29.5913 Q181.3638,29.7407 180.6582,29.7407 Q178.1514,29.7407 176.8315,28.0889 Q175.5117,26.437 175.5117,23.3159 Q175.5117,20.1865 176.8315,18.5347 Q178.1514,16.8828 180.6582,16.8828 Q181.3638,16.8828 182.0112,17.0322 Q182.6587,17.1816 183.2231,17.4805 L183.2231,20.2031 Q182.5923,19.6221 181.9988,19.3523 Q181.4053,19.0825 180.7744,19.0825 Q179.4297,19.0825 178.7449,20.1492 Q178.0601,21.2158 178.0601,23.3159 Q178.0601,25.4077 178.7449,26.4744 Q179.4297,27.541 180.7744,27.541 Q181.4053,27.541 181.9988,27.2712 Q182.5923,27.0015 183.2231,26.4204 Z " fill="#000000"/><text fill="#000000" font-family="sans-serif" font-size="14" font-weight="bold" lengthAdjust="spacing" textLength="52" x="201.25" y="28.291">Variant</text><line style="stroke:#5A0000;stroke-width:2.0;" x1="8" x2="414" y1="39" y2="39"/><ellipse cx="18" cy="52.7441" fill="none" rx="3" ry="3" style="stroke:#038048;stroke-width:1.0;"/><text fill="#000000" font-family="sans-serif" font-size="14" font-weight="bold" lengthAdjust="spacing" text-decoration="underline" textLength="63" x="27" y="56.5352">abiName</text><text fill="#000000" font-family="sans-serif" font-size="14" lengthAdjust="spacing" text-decoration="underline" textLength="48" x="94" y="56.5352">: string</text><ellipse cx="18" cy="69.2324" fill="none" rx="3" ry="3" style="stroke:#038048;stroke-width:1.0;"/><text fill="#000000" font-family="sans-serif" font-size="14" font-weight="bold" lengthAdjust="spacing" text-decoration="underline" textLength="74" x="27" y="73.0234">abiVariant</text><text fill="#000000" font-family="sans-serif" font-size="14" lengthAdjust="spacing" text-decoration="underline" textLength="144" x="105" y="73.0234">: ABITypeDescriptor[]</text><ellipse cx="18" cy="85.7207" fill="none" rx="3" ry="3" style="stroke:#038048;stroke-width:1.0;"/><text fill="#000000" font-family="sans-serif" font-size="14" font-weight="bold" lengthAdjust="spacing" textLength="38" x="27" y="89.5117">value</text><text fill="#000000" font-family="sans-serif" font-size="14" lengthAdjust="spacing" textLength="109" x="69" y="89.5117">: ABISerializable</text><ellipse cx="18" cy="102.209" fill="none" rx="3" ry="3" style="stroke:#038048;stroke-width:1.0;"/><text fill="#000000" font-family="sans-serif" font-size="14" font-weight="bold" lengthAdjust="spacing" textLength="72" x="27" y="106">variantIdx</text><text fill="#000000" font-family="sans-serif" font-size="14" lengthAdjust="spacing" textLength="62" x="103" y="106">: number</text><line style="stroke:#5A0000;stroke-width:2.0;" x1="8" x2="414" y1="112.9531" y2="112.9531"/><ellipse cx="18" cy="126.6973" fill="#84BE84" rx="3" ry="3" style="stroke:#038048;stroke-width:1.0;"/><text fill="#000000" font-family="sans-serif" font-size="14" lengthAdjust="spacing" textLength="243" x="27" y="130.4883">equals(other: AnyVariant) : boolean</text><ellipse cx="18" cy="143.1855" fill="#84BE84" rx="3" ry="3" style="stroke:#038048;stroke-width:1.0;"/><text fill="#000000" font-family="sans-serif" font-size="14" lengthAdjust="spacing" text-decoration="underline" textLength="382" x="27" y="146.9766">from&lt;T&gt;(this: T, object: AnyVariant) : InstanceType&lt;T&gt;</text><ellipse cx="18" cy="159.6738" fill="#84BE84" rx="3" ry="3" style="stroke:#038048;stroke-width:1.0;"/><text fill="#000000" font-family="sans-serif" font-size="14" lengthAdjust="spacing" text-decoration="underline" textLength="244" x="27" y="163.4648">from(object: AnyVariant) : unknown</text></g><!--reverse link Variant to ChainIdVariant--><g id="link_Variant_ChainIdVariant"><path codeLine="28" d="M211,188.9 C211,208.16 211,210.7 211,229.95 " fill="none" id="Variant-backto-ChainIdVariant" style="stroke:#181818;stroke-width:1.0;"/><polygon fill="none" points="211,170.9,205,188.9,217,188.9,211,170.9" style="stroke:#181818;stroke-width:1.0;"/></g><!--SRC=[rP91Jy9048Nl_HKJJXWb4X8lf241Z4al7gJnOZnCjrEwTZjRTxSY0l_TnPPGWRjnJfkPxxrvcQmj95Tei8IvGciVDBk5Mok2HAiqiB-dCnJ5qkYQqxbMsa0cif4GPvGsAPc6kCEXhmxnrAWDau7XPMMSIr4mMGkZ89Sf0PMLMqCcIQMssod9vTgtZYwB75Ezahm4Pshg34wJEuDi_OZO1MA_6dhp72L7wJCQYUnwi0d0ryOwT5Biu3fC9fZ8Homfl4qcC0RhZDzqaMfDMd0wY-9rHVTaXP6Lq-RbzKUrXpzGrGV3DW5iczTKIRGTyCSoIZzRckio8TFCwRr6PVlQvMJyFbwt0QuybsYj2FaaPsPq6SQJlikb7KDy0pfv8-5EnH5x1GlQv_Vu1PF-PM7D1UiL1xl3UV_mhfvRa1Sg-OM9elz_qkCnm-rWSFPrlm40]--></g></svg>