<?xml version="1.0" encoding="us-ascii" standalone="no"?><svg xmlns="http://www.w3.org/2000/svg" xmlns:xlink="http://www.w3.org/1999/xlink" contentStyleType="text/css" height="367px" preserveAspectRatio="none" style="width:1001px;height:367px;" version="1.1" viewBox="0 0 1001 367" width="1001px" zoomAndPan="magnify"><defs><filter height="300%" id="fvfvuegpi98uv" width="300%" x="-1" y="-1"><feGaussianBlur result="blurOut" stdDeviation="2.0"/><feColorMatrix in="blurOut" result="blurOut2" type="matrix" values="0 0 0 0 0 0 0 0 0 0 0 0 0 0 0 0 0 0 .4 0"/><feOffset dx="4.0" dy="4.0" in="blurOut2" result="blurOut3"/><feBlend in="SourceGraphic" in2="blurOut3" mode="normal"/></filter></defs><g><!--class Checksum512--><g id="elem_Checksum512"><rect codeLine="10" fill="#FCF2CC" filter="url(#fvfvuegpi98uv)" height="262.3477" id="Checksum512" style="stroke:#5A0000;stroke-width:2.0;" width="982" x="7" y="93.49"/><ellipse cx="443.25" cy="109.49" fill="#ADD1B2" rx="11" ry="11" style="stroke:#181818;stroke-width:1.0;"/><path d="M445.7231,115.6331 Q445.1421,115.9319 444.5029,116.0813 Q443.8638,116.2307 443.1582,116.2307 Q440.6514,116.2307 439.3315,114.5789 Q438.0117,112.927 438.0117,109.8059 Q438.0117,106.6765 439.3315,105.0247 Q440.6514,103.3728 443.1582,103.3728 Q443.8638,103.3728 444.5112,103.5222 Q445.1587,103.6716 445.7231,103.9705 L445.7231,106.6931 Q445.0923,106.1121 444.4988,105.8423 Q443.9053,105.5725 443.2744,105.5725 Q441.9297,105.5725 441.2449,106.6392 Q440.5601,107.7058 440.5601,109.8059 Q440.5601,111.8977 441.2449,112.9644 Q441.9297,114.031 443.2744,114.031 Q443.9053,114.031 444.4988,113.7612 Q445.0923,113.4915 445.7231,112.9104 Z " fill="#000000"/><text fill="#000000" font-family="sans-serif" font-size="14" font-weight="bold" lengthAdjust="spacing" textLength="101" x="463.75" y="114.781">Checksum512</text><line style="stroke:#5A0000;stroke-width:2.0;" x1="8" x2="988" y1="125.49" y2="125.49"/><ellipse cx="18" cy="139.2341" fill="none" rx="3" ry="3" style="stroke:#038048;stroke-width:1.0;"/><text fill="#000000" font-family="sans-serif" font-size="14" font-weight="bold" lengthAdjust="spacing" text-decoration="underline" textLength="63" x="27" y="143.0252">abiName</text><text fill="#000000" font-family="sans-serif" font-size="14" lengthAdjust="spacing" text-decoration="underline" textLength="48" x="94" y="143.0252">: string</text><ellipse cx="18" cy="155.7224" fill="none" rx="3" ry="3" style="stroke:#038048;stroke-width:1.0;"/><text fill="#000000" font-family="sans-serif" font-size="14" font-weight="bold" lengthAdjust="spacing" textLength="36" x="27" y="159.5134">array</text><text fill="#000000" font-family="sans-serif" font-size="14" lengthAdjust="spacing" textLength="82" x="67" y="159.5134">: Uint8Array</text><ellipse cx="18" cy="172.2107" fill="none" rx="3" ry="3" style="stroke:#038048;stroke-width:1.0;"/><text fill="#000000" font-family="sans-serif" font-size="14" font-weight="bold" lengthAdjust="spacing" text-decoration="underline" textLength="60" x="27" y="176.0017">byteSize</text><text fill="#000000" font-family="sans-serif" font-size="14" lengthAdjust="spacing" text-decoration="underline" textLength="62" x="91" y="176.0017">: number</text><line style="stroke:#5A0000;stroke-width:2.0;" x1="8" x2="988" y1="182.9548" y2="182.9548"/><ellipse cx="18" cy="196.699" fill="#84BE84" rx="3" ry="3" style="stroke:#038048;stroke-width:1.0;"/><text fill="#000000" font-family="sans-serif" font-size="14" lengthAdjust="spacing" text-decoration="underline" textLength="286" x="27" y="200.49">abiDefault&lt;T&gt;(this: T) : InstanceType&lt;T&gt;</text><ellipse cx="18" cy="213.1873" fill="#84BE84" rx="3" ry="3" style="stroke:#038048;stroke-width:1.0;"/><text fill="#000000" font-family="sans-serif" font-size="14" lengthAdjust="spacing" text-decoration="underline" textLength="156" x="27" y="216.9783">abiDefault() : unknown</text><ellipse cx="18" cy="229.6755" fill="#84BE84" rx="3" ry="3" style="stroke:#038048;stroke-width:1.0;"/><text fill="#000000" font-family="sans-serif" font-size="14" lengthAdjust="spacing" textLength="956" x="27" y="233.4666">equals(other: string | ArrayBuffer | ArrayBufferView | ArrayLike&lt;number&gt; | Bytes | Checksum160 | Checksum256 | Checksum512) : boolean</text><ellipse cx="18" cy="246.1638" fill="#84BE84" rx="3" ry="3" style="stroke:#038048;stroke-width:1.0;"/><text fill="#000000" font-family="sans-serif" font-size="14" lengthAdjust="spacing" text-decoration="underline" textLength="328" x="27" y="249.9548">from(value: Checksum512Type) : Checksum512</text><ellipse cx="18" cy="262.6521" fill="#84BE84" rx="3" ry="3" style="stroke:#038048;stroke-width:1.0;"/><text fill="#000000" font-family="sans-serif" font-size="14" lengthAdjust="spacing" text-decoration="underline" textLength="422" x="27" y="266.4431">fromABI&lt;T&gt;(this: T, decoder: ABIDecoder) : InstanceType&lt;T&gt;</text><ellipse cx="18" cy="279.1404" fill="#84BE84" rx="3" ry="3" style="stroke:#038048;stroke-width:1.0;"/><text fill="#000000" font-family="sans-serif" font-size="14" lengthAdjust="spacing" text-decoration="underline" textLength="284" x="27" y="282.9314">fromABI(decoder: ABIDecoder) : unknown</text><ellipse cx="18" cy="295.6287" fill="#84BE84" rx="3" ry="3" style="stroke:#038048;stroke-width:1.0;"/><text fill="#000000" font-family="sans-serif" font-size="14" lengthAdjust="spacing" text-decoration="underline" textLength="259" x="27" y="299.4197">hash(data: BytesType) : Checksum512</text><ellipse cx="18" cy="312.117" fill="#84BE84" rx="3" ry="3" style="stroke:#038048;stroke-width:1.0;"/><text fill="#000000" font-family="sans-serif" font-size="14" lengthAdjust="spacing" textLength="229" x="27" y="315.908">toABI(encoder: ABIEncoder) : void</text><ellipse cx="18" cy="328.6052" fill="#84BE84" rx="3" ry="3" style="stroke:#038048;stroke-width:1.0;"/><text fill="#000000" font-family="sans-serif" font-size="14" lengthAdjust="spacing" textLength="109" x="27" y="332.3962">toJSON() : string</text><ellipse cx="18" cy="345.0935" fill="#84BE84" rx="3" ry="3" style="stroke:#038048;stroke-width:1.0;"/><text fill="#000000" font-family="sans-serif" font-size="14" lengthAdjust="spacing" textLength="117" x="27" y="348.8845">toString() : string</text></g><!--class Checksum--><g id="elem_Checksum"><rect codeLine="25" fill="#FCF2CC" filter="url(#fvfvuegpi98uv)" height="26.4883" id="Checksum" style="stroke:#5A0000;stroke-width:2.0;" width="80" x="458" y="7"/><text fill="#000000" font-family="sans-serif" font-size="14" font-weight="bold" lengthAdjust="spacing" textLength="74" x="461" y="25.5352">Checksum</text></g><!--reverse link Checksum to Checksum512--><g id="link_Checksum_Checksum512"><path codeLine="27" d="M498,51.91 C498,64.98 498,68.84 498,93.18 " fill="none" id="Checksum-backto-Checksum512" style="stroke:#181818;stroke-width:1.0;"/><polygon fill="none" points="498,33.91,492,51.91,504,51.91,498,33.91" style="stroke:#181818;stroke-width:1.0;"/></g><!--SRC=[XLFVQzim47xtNt7aoQKhImCf8vX0atRGCJgOqxsVfNCbB4kP93TuRV_toNQzA6d3_6BVVJ_qwIIxIkejMgnXhT2vhqRxtBUAe32A9-uGNI6h7grfD5yRPIoKh9mnzevbB2SxCEOu3K_4-3cehIOBqu-L6o5PfSavc2L2SWAgjxw5KfBYBkxKv8K9hRrBBf2RdTIFu6r34N2St5lKBa2aVSAwfM6o5iGgrzJpoza4dXC8pxFpw2LxXVEiM68Xxx6cx7EnX0KuRyCoFQi7hSNs3NgGsd-vxXhlJOhMKox_Z2wwgGkoHxImq0sLs2YVRPQf5z8jO7CMs7SwS3IZJRkb09sKfHsvqPKsEpqafDyDAfSQByYEsU45-f2hfYp3OHnKloJjnivtML4s15s6tYhim8NtEAxBgsbKpUPNKHL6sKKfZ564-YXlQKsTFg5gQ14BkirregZrWV1wTHSDvnDmOePtUml0pV3z_ucz6QKdnF44zoA1JgGSFIw6KPpAU-vDvqrwxtsh_ta_6Sb7shVyntr_PF6TyYRlgnXuFRwga-5lsDV0f6MAagYJlLnS75xklm00]--></g></svg>