<?xml version="1.0" encoding="us-ascii" standalone="no"?><svg xmlns="http://www.w3.org/2000/svg" xmlns:xlink="http://www.w3.org/1999/xlink" contentStyleType="text/css" height="690px" preserveAspectRatio="none" style="width:1001px;height:690px;" version="1.1" viewBox="0 0 1001 690" width="1001px" zoomAndPan="magnify"><defs><filter height="300%" id="fd7lob6an8otg" width="300%" x="-1" y="-1"><feGaussianBlur result="blurOut" stdDeviation="2.0"/><feColorMatrix in="blurOut" result="blurOut2" type="matrix" values="0 0 0 0 0 0 0 0 0 0 0 0 0 0 0 0 0 0 .4 0"/><feOffset dx="4.0" dy="4.0" in="blurOut2" result="blurOut3"/><feBlend in="SourceGraphic" in2="blurOut3" mode="normal"/></filter></defs><g><!--class Checksum256--><g id="elem_Checksum256"><rect codeLine="10" fill="#FCF2CC" filter="url(#fd7lob6an8otg)" height="262.3477" id="Checksum256" style="stroke:#5A0000;stroke-width:2.0;" width="982" x="7" y="93.48"/><ellipse cx="443.25" cy="109.48" fill="#ADD1B2" rx="11" ry="11" style="stroke:#181818;stroke-width:1.0;"/><path d="M445.7231,115.6231 Q445.1421,115.9219 444.5029,116.0713 Q443.8638,116.2207 443.1582,116.2207 Q440.6514,116.2207 439.3315,114.5689 Q438.0117,112.917 438.0117,109.7959 Q438.0117,106.6665 439.3315,105.0147 Q440.6514,103.3628 443.1582,103.3628 Q443.8638,103.3628 444.5112,103.5122 Q445.1587,103.6616 445.7231,103.9605 L445.7231,106.6831 Q445.0923,106.1021 444.4988,105.8323 Q443.9053,105.5625 443.2744,105.5625 Q441.9297,105.5625 441.2449,106.6292 Q440.5601,107.6958 440.5601,109.7959 Q440.5601,111.8877 441.2449,112.9544 Q441.9297,114.021 443.2744,114.021 Q443.9053,114.021 444.4988,113.7512 Q445.0923,113.4815 445.7231,112.9004 Z " fill="#000000"/><text fill="#000000" font-family="sans-serif" font-size="14" font-weight="bold" lengthAdjust="spacing" textLength="101" x="463.75" y="114.771">Checksum256</text><line style="stroke:#5A0000;stroke-width:2.0;" x1="8" x2="988" y1="125.48" y2="125.48"/><ellipse cx="18" cy="139.2241" fill="none" rx="3" ry="3" style="stroke:#038048;stroke-width:1.0;"/><text fill="#000000" font-family="sans-serif" font-size="14" font-weight="bold" lengthAdjust="spacing" text-decoration="underline" textLength="63" x="27" y="143.0152">abiName</text><text fill="#000000" font-family="sans-serif" font-size="14" lengthAdjust="spacing" text-decoration="underline" textLength="48" x="94" y="143.0152">: string</text><ellipse cx="18" cy="155.7124" fill="none" rx="3" ry="3" style="stroke:#038048;stroke-width:1.0;"/><text fill="#000000" font-family="sans-serif" font-size="14" font-weight="bold" lengthAdjust="spacing" textLength="36" x="27" y="159.5034">array</text><text fill="#000000" font-family="sans-serif" font-size="14" lengthAdjust="spacing" textLength="82" x="67" y="159.5034">: Uint8Array</text><ellipse cx="18" cy="172.2007" fill="none" rx="3" ry="3" style="stroke:#038048;stroke-width:1.0;"/><text fill="#000000" font-family="sans-serif" font-size="14" font-weight="bold" lengthAdjust="spacing" text-decoration="underline" textLength="60" x="27" y="175.9917">byteSize</text><text fill="#000000" font-family="sans-serif" font-size="14" lengthAdjust="spacing" text-decoration="underline" textLength="62" x="91" y="175.9917">: number</text><line style="stroke:#5A0000;stroke-width:2.0;" x1="8" x2="988" y1="182.9448" y2="182.9448"/><ellipse cx="18" cy="196.689" fill="#84BE84" rx="3" ry="3" style="stroke:#038048;stroke-width:1.0;"/><text fill="#000000" font-family="sans-serif" font-size="14" lengthAdjust="spacing" text-decoration="underline" textLength="286" x="27" y="200.48">abiDefault&lt;T&gt;(this: T) : InstanceType&lt;T&gt;</text><ellipse cx="18" cy="213.1773" fill="#84BE84" rx="3" ry="3" style="stroke:#038048;stroke-width:1.0;"/><text fill="#000000" font-family="sans-serif" font-size="14" lengthAdjust="spacing" text-decoration="underline" textLength="156" x="27" y="216.9683">abiDefault() : unknown</text><ellipse cx="18" cy="229.6655" fill="#84BE84" rx="3" ry="3" style="stroke:#038048;stroke-width:1.0;"/><text fill="#000000" font-family="sans-serif" font-size="14" lengthAdjust="spacing" textLength="956" x="27" y="233.4566">equals(other: string | ArrayBuffer | ArrayBufferView | ArrayLike&lt;number&gt; | Bytes | Checksum160 | Checksum256 | Checksum512) : boolean</text><ellipse cx="18" cy="246.1538" fill="#84BE84" rx="3" ry="3" style="stroke:#038048;stroke-width:1.0;"/><text fill="#000000" font-family="sans-serif" font-size="14" lengthAdjust="spacing" text-decoration="underline" textLength="328" x="27" y="249.9448">from(value: Checksum256Type) : Checksum256</text><ellipse cx="18" cy="262.6421" fill="#84BE84" rx="3" ry="3" style="stroke:#038048;stroke-width:1.0;"/><text fill="#000000" font-family="sans-serif" font-size="14" lengthAdjust="spacing" text-decoration="underline" textLength="422" x="27" y="266.4331">fromABI&lt;T&gt;(this: T, decoder: ABIDecoder) : InstanceType&lt;T&gt;</text><ellipse cx="18" cy="279.1304" fill="#84BE84" rx="3" ry="3" style="stroke:#038048;stroke-width:1.0;"/><text fill="#000000" font-family="sans-serif" font-size="14" lengthAdjust="spacing" text-decoration="underline" textLength="284" x="27" y="282.9214">fromABI(decoder: ABIDecoder) : unknown</text><ellipse cx="18" cy="295.6187" fill="#84BE84" rx="3" ry="3" style="stroke:#038048;stroke-width:1.0;"/><text fill="#000000" font-family="sans-serif" font-size="14" lengthAdjust="spacing" text-decoration="underline" textLength="259" x="27" y="299.4097">hash(data: BytesType) : Checksum256</text><ellipse cx="18" cy="312.107" fill="#84BE84" rx="3" ry="3" style="stroke:#038048;stroke-width:1.0;"/><text fill="#000000" font-family="sans-serif" font-size="14" lengthAdjust="spacing" textLength="229" x="27" y="315.898">toABI(encoder: ABIEncoder) : void</text><ellipse cx="18" cy="328.5952" fill="#84BE84" rx="3" ry="3" style="stroke:#038048;stroke-width:1.0;"/><text fill="#000000" font-family="sans-serif" font-size="14" lengthAdjust="spacing" textLength="109" x="27" y="332.3862">toJSON() : string</text><ellipse cx="18" cy="345.0835" fill="#84BE84" rx="3" ry="3" style="stroke:#038048;stroke-width:1.0;"/><text fill="#000000" font-family="sans-serif" font-size="14" lengthAdjust="spacing" textLength="117" x="27" y="348.8745">toString() : string</text></g><!--class Checksum--><g id="elem_Checksum"><rect codeLine="25" fill="#FCF2CC" filter="url(#fd7lob6an8otg)" height="26.4883" id="Checksum" style="stroke:#5A0000;stroke-width:2.0;" width="80" x="458" y="7"/><text fill="#000000" font-family="sans-serif" font-size="14" font-weight="bold" lengthAdjust="spacing" textLength="74" x="461" y="25.5352">Checksum</text></g><!--class ChainId--><g id="elem_ChainId"><rect codeLine="28" fill="#FCF2CC" filter="url(#fd7lob6an8otg)" height="262.3477" id="ChainId" style="stroke:#5A0000;stroke-width:2.0;" width="982" x="7" y="415.83"/><ellipse cx="466.25" cy="431.83" fill="#ADD1B2" rx="11" ry="11" style="stroke:#181818;stroke-width:1.0;"/><path d="M468.7231,437.9731 Q468.1421,438.2719 467.5029,438.4213 Q466.8638,438.5707 466.1582,438.5707 Q463.6514,438.5707 462.3315,436.9189 Q461.0117,435.267 461.0117,432.1459 Q461.0117,429.0165 462.3315,427.3647 Q463.6514,425.7128 466.1582,425.7128 Q466.8638,425.7128 467.5112,425.8622 Q468.1587,426.0116 468.7231,426.3105 L468.7231,429.0331 Q468.0923,428.4521 467.4988,428.1823 Q466.9053,427.9125 466.2744,427.9125 Q464.9297,427.9125 464.2449,428.9792 Q463.5601,430.0458 463.5601,432.1459 Q463.5601,434.2377 464.2449,435.3044 Q464.9297,436.371 466.2744,436.371 Q466.9053,436.371 467.4988,436.1012 Q468.0923,435.8315 468.7231,435.2504 Z " fill="#000000"/><text fill="#000000" font-family="sans-serif" font-size="14" font-weight="bold" lengthAdjust="spacing" textLength="55" x="486.75" y="437.121">ChainId</text><line style="stroke:#5A0000;stroke-width:2.0;" x1="8" x2="988" y1="447.83" y2="447.83"/><ellipse cx="18" cy="461.5741" fill="none" rx="3" ry="3" style="stroke:#038048;stroke-width:1.0;"/><text fill="#000000" font-family="sans-serif" font-size="14" font-weight="bold" lengthAdjust="spacing" text-decoration="underline" textLength="63" x="27" y="465.3652">abiName</text><text fill="#000000" font-family="sans-serif" font-size="14" lengthAdjust="spacing" text-decoration="underline" textLength="48" x="94" y="465.3652">: string</text><ellipse cx="18" cy="478.0624" fill="none" rx="3" ry="3" style="stroke:#038048;stroke-width:1.0;"/><text fill="#000000" font-family="sans-serif" font-size="14" font-weight="bold" lengthAdjust="spacing" textLength="36" x="27" y="481.8534">array</text><text fill="#000000" font-family="sans-serif" font-size="14" lengthAdjust="spacing" textLength="82" x="67" y="481.8534">: Uint8Array</text><ellipse cx="18" cy="494.5507" fill="none" rx="3" ry="3" style="stroke:#038048;stroke-width:1.0;"/><text fill="#000000" font-family="sans-serif" font-size="14" font-weight="bold" lengthAdjust="spacing" text-decoration="underline" textLength="60" x="27" y="498.3417">byteSize</text><text fill="#000000" font-family="sans-serif" font-size="14" lengthAdjust="spacing" text-decoration="underline" textLength="62" x="91" y="498.3417">: number</text><line style="stroke:#5A0000;stroke-width:2.0;" x1="8" x2="988" y1="505.2948" y2="505.2948"/><ellipse cx="18" cy="519.039" fill="#84BE84" rx="3" ry="3" style="stroke:#038048;stroke-width:1.0;"/><text fill="#000000" font-family="sans-serif" font-size="14" lengthAdjust="spacing" text-decoration="underline" textLength="286" x="27" y="522.83">abiDefault&lt;T&gt;(this: T) : InstanceType&lt;T&gt;</text><ellipse cx="18" cy="535.5273" fill="#84BE84" rx="3" ry="3" style="stroke:#038048;stroke-width:1.0;"/><text fill="#000000" font-family="sans-serif" font-size="14" lengthAdjust="spacing" text-decoration="underline" textLength="156" x="27" y="539.3183">abiDefault() : unknown</text><ellipse cx="18" cy="552.0155" fill="#84BE84" rx="3" ry="3" style="stroke:#038048;stroke-width:1.0;"/><text fill="#000000" font-family="sans-serif" font-size="14" lengthAdjust="spacing" textLength="956" x="27" y="555.8066">equals(other: string | ArrayBuffer | ArrayBufferView | ArrayLike&lt;number&gt; | Bytes | Checksum160 | Checksum256 | Checksum512) : boolean</text><ellipse cx="18" cy="568.5038" fill="#84BE84" rx="3" ry="3" style="stroke:#038048;stroke-width:1.0;"/><text fill="#000000" font-family="sans-serif" font-size="14" lengthAdjust="spacing" text-decoration="underline" textLength="238" x="27" y="572.2948">from(value: ChainIdType) : ChainId</text><ellipse cx="18" cy="584.9921" fill="#84BE84" rx="3" ry="3" style="stroke:#038048;stroke-width:1.0;"/><text fill="#000000" font-family="sans-serif" font-size="14" lengthAdjust="spacing" text-decoration="underline" textLength="422" x="27" y="588.7831">fromABI&lt;T&gt;(this: T, decoder: ABIDecoder) : InstanceType&lt;T&gt;</text><ellipse cx="18" cy="601.4804" fill="#84BE84" rx="3" ry="3" style="stroke:#038048;stroke-width:1.0;"/><text fill="#000000" font-family="sans-serif" font-size="14" lengthAdjust="spacing" text-decoration="underline" textLength="284" x="27" y="605.2714">fromABI(decoder: ABIDecoder) : unknown</text><ellipse cx="18" cy="617.9687" fill="#84BE84" rx="3" ry="3" style="stroke:#038048;stroke-width:1.0;"/><text fill="#000000" font-family="sans-serif" font-size="14" lengthAdjust="spacing" text-decoration="underline" textLength="259" x="27" y="621.7597">hash(data: BytesType) : Checksum256</text><ellipse cx="18" cy="634.457" fill="#84BE84" rx="3" ry="3" style="stroke:#038048;stroke-width:1.0;"/><text fill="#000000" font-family="sans-serif" font-size="14" lengthAdjust="spacing" textLength="229" x="27" y="638.248">toABI(encoder: ABIEncoder) : void</text><ellipse cx="18" cy="650.9452" fill="#84BE84" rx="3" ry="3" style="stroke:#038048;stroke-width:1.0;"/><text fill="#000000" font-family="sans-serif" font-size="14" lengthAdjust="spacing" textLength="109" x="27" y="654.7362">toJSON() : string</text><ellipse cx="18" cy="667.4335" fill="#84BE84" rx="3" ry="3" style="stroke:#038048;stroke-width:1.0;"/><text fill="#000000" font-family="sans-serif" font-size="14" lengthAdjust="spacing" textLength="117" x="27" y="671.2245">toString() : string</text></g><!--reverse link Checksum to Checksum256--><g id="link_Checksum_Checksum256"><path codeLine="27" d="M498,51.9 C498,64.97 498,68.84 498,93.17 " fill="none" id="Checksum-backto-Checksum256" style="stroke:#181818;stroke-width:1.0;"/><polygon fill="none" points="498,33.9,492,51.9,504,51.9,498,33.9" style="stroke:#181818;stroke-width:1.0;"/></g><!--reverse link Checksum256 to ChainId--><g id="link_Checksum256_ChainId"><path codeLine="43" d="M498,373.96 C498,393.62 498,395.9 498,415.56 " fill="none" id="Checksum256-backto-ChainId" style="stroke:#181818;stroke-width:1.0;"/><polygon fill="none" points="498,355.96,492,373.96,504,373.96,498,355.96" style="stroke:#181818;stroke-width:1.0;"/></g><!--SRC=[xLJ1Rjim3BtxAuYSF7H5qm0fXi08qAGRa67eW3dRdPReMh0iPPBSm6lxxvFjUbRI1hlrL5riakyzKTIpRIdK3WrMi9PexHUjNEeQIP1foIDxM5qXA- -ChXLVQwaDv2oVCVO2fGqdqoFcEFKhGFpesKQHWUdhp6qXMAd8MfX5XU04LErS0xaWoMsOgSWLsgT6bRH0hlT2tO4pDGM5uywTGMLzYPIBMBirJDO5iTBMrMn-DO672Fnwi0wTO4zmbcHBpCGjLfHSP4jOW7N6RzEXkg8ns3oNVWhbFbstYPSYMUCe5Ny65LLN6PaZcD_eXdAifKksozWLmYvW-y6ZDyfZ5ADjioDVEacBMt2jIgNtgk-GVjSeRQnTGMRe7HwXQt9Lvxc_Z8Febw3zaFacIahwHfS-j_8diFuvZEloQXf4VdX1DB-SjQraMaj2TTHlRdGLtwEiQH7IsyErf23r2l5wjGc6yn4uCStRi_d2JV_-_uaz2yKdoE44HrA1jeWvEbpqepZLxvdJhJQfKVkp-gTzhmKVO5_JxxVTbOMUSZhjeh3mT6pLIVyrZ34mOPYaACWaZ-VdX-OULL2e3Nyt-vkRlPlxQ9mkV3VvOFB3F_7WtzwhVm40]--></g></svg>