<?xml version="1.0" encoding="us-ascii" standalone="no"?><svg xmlns="http://www.w3.org/2000/svg" xmlns:xlink="http://www.w3.org/1999/xlink" contentStyleType="text/css" height="728px" preserveAspectRatio="none" style="width:424px;height:728px;" version="1.1" viewBox="0 0 424 728" width="424px" zoomAndPan="magnify"><defs><filter height="300%" id="f1mhyjazyfh7qk" width="300%" x="-1" y="-1"><feGaussianBlur result="blurOut" stdDeviation="2.0"/><feColorMatrix in="blurOut" result="blurOut2" type="matrix" values="0 0 0 0 0 0 0 0 0 0 0 0 0 0 0 0 0 0 .4 0"/><feOffset dx="4.0" dy="4.0" in="blurOut2" result="blurOut3"/><feBlend in="SourceGraphic" in2="blurOut3" mode="normal"/></filter></defs><g><!--class ExchangeState--><g id="elem_ExchangeState"><rect codeLine="10" fill="#FCF2CC" filter="url(#f1mhyjazyfh7qk)" height="196.3945" id="ExchangeState" style="stroke:#5A0000;stroke-width:2.0;" width="351" x="34" y="213.93"/><ellipse cx="154.25" cy="229.93" fill="#ADD1B2" rx="11" ry="11" style="stroke:#181818;stroke-width:1.0;"/><path d="M156.7231,236.0731 Q156.1421,236.3719 155.5029,236.5213 Q154.8638,236.6707 154.1582,236.6707 Q151.6514,236.6707 150.3315,235.0189 Q149.0117,233.367 149.0117,230.2459 Q149.0117,227.1165 150.3315,225.4647 Q151.6514,223.8128 154.1582,223.8128 Q154.8638,223.8128 155.5112,223.9622 Q156.1587,224.1116 156.7231,224.4105 L156.7231,227.1331 Q156.0923,226.5521 155.4988,226.2823 Q154.9053,226.0125 154.2744,226.0125 Q152.9297,226.0125 152.2449,227.0792 Q151.5601,228.1458 151.5601,230.2459 Q151.5601,232.3377 152.2449,233.4044 Q152.9297,234.471 154.2744,234.471 Q154.9053,234.471 155.4988,234.2012 Q156.0923,233.9315 156.7231,233.3504 Z " fill="#000000"/><text fill="#000000" font-family="sans-serif" font-size="14" font-weight="bold" lengthAdjust="spacing" textLength="102" x="174.75" y="235.221">ExchangeState</text><line style="stroke:#5A0000;stroke-width:2.0;" x1="35" x2="384" y1="245.93" y2="245.93"/><ellipse cx="45" cy="259.6741" fill="none" rx="3" ry="3" style="stroke:#038048;stroke-width:1.0;"/><text fill="#000000" font-family="sans-serif" font-size="14" font-weight="bold" lengthAdjust="spacing" text-decoration="underline" textLength="55" x="54" y="263.4652">abiBase</text><text fill="#000000" font-family="sans-serif" font-size="14" lengthAdjust="spacing" text-decoration="underline" textLength="191" x="113" y="263.4652">: ABISerializableConstructor</text><ellipse cx="45" cy="276.1624" fill="none" rx="3" ry="3" style="stroke:#038048;stroke-width:1.0;"/><text fill="#000000" font-family="sans-serif" font-size="14" font-weight="bold" lengthAdjust="spacing" text-decoration="underline" textLength="65" x="54" y="279.9534">abiFields</text><text fill="#000000" font-family="sans-serif" font-size="14" lengthAdjust="spacing" text-decoration="underline" textLength="73" x="123" y="279.9534">: ABIField[]</text><ellipse cx="45" cy="292.6507" fill="none" rx="3" ry="3" style="stroke:#038048;stroke-width:1.0;"/><text fill="#000000" font-family="sans-serif" font-size="14" font-weight="bold" lengthAdjust="spacing" text-decoration="underline" textLength="63" x="54" y="296.4417">abiName</text><text fill="#000000" font-family="sans-serif" font-size="14" lengthAdjust="spacing" text-decoration="underline" textLength="48" x="121" y="296.4417">: string</text><ellipse cx="45" cy="309.139" fill="none" rx="3" ry="3" style="stroke:#038048;stroke-width:1.0;"/><text fill="#000000" font-family="sans-serif" font-size="14" font-weight="bold" lengthAdjust="spacing" textLength="33" x="54" y="312.93">base</text><text fill="#000000" font-family="sans-serif" font-size="14" lengthAdjust="spacing" textLength="80" x="91" y="312.93">: Connector</text><ellipse cx="45" cy="325.6273" fill="none" rx="3" ry="3" style="stroke:#038048;stroke-width:1.0;"/><text fill="#000000" font-family="sans-serif" font-size="14" font-weight="bold" lengthAdjust="spacing" textLength="41" x="54" y="329.4183">quote</text><text fill="#000000" font-family="sans-serif" font-size="14" lengthAdjust="spacing" textLength="80" x="99" y="329.4183">: Connector</text><ellipse cx="45" cy="342.1155" fill="none" rx="3" ry="3" style="stroke:#038048;stroke-width:1.0;"/><text fill="#000000" font-family="sans-serif" font-size="14" font-weight="bold" lengthAdjust="spacing" textLength="48" x="54" y="345.9066">supply</text><text fill="#000000" font-family="sans-serif" font-size="14" lengthAdjust="spacing" textLength="45" x="106" y="345.9066">: Asset</text><line style="stroke:#5A0000;stroke-width:2.0;" x1="35" x2="384" y1="352.8597" y2="352.8597"/><ellipse cx="45" cy="366.6038" fill="#84BE84" rx="3" ry="3" style="stroke:#038048;stroke-width:1.0;"/><text fill="#000000" font-family="sans-serif" font-size="14" lengthAdjust="spacing" textLength="192" x="54" y="370.3948">equals(other: any) : boolean</text><ellipse cx="45" cy="383.0921" fill="#84BE84" rx="3" ry="3" style="stroke:#038048;stroke-width:1.0;"/><text fill="#000000" font-family="sans-serif" font-size="14" lengthAdjust="spacing" text-decoration="underline" textLength="325" x="54" y="386.8831">from&lt;T&gt;(this: T, value: any) : InstanceType&lt;T&gt;</text><ellipse cx="45" cy="399.5804" fill="#84BE84" rx="3" ry="3" style="stroke:#038048;stroke-width:1.0;"/><text fill="#000000" font-family="sans-serif" font-size="14" lengthAdjust="spacing" text-decoration="underline" textLength="187" x="54" y="403.3714">from(value: any) : unknown</text></g><!--class Struct--><g id="elem_Struct"><rect codeLine="21" fill="#FCF2CC" filter="url(#f1mhyjazyfh7qk)" height="146.9297" id="Struct" style="stroke:#5A0000;stroke-width:2.0;" width="351" x="34" y="7"/><ellipse cx="184.25" cy="23" fill="#ADD1B2" rx="11" ry="11" style="stroke:#181818;stroke-width:1.0;"/><path d="M186.7231,29.1431 Q186.1421,29.4419 185.5029,29.5913 Q184.8638,29.7407 184.1582,29.7407 Q181.6514,29.7407 180.3315,28.0889 Q179.0117,26.437 179.0117,23.3159 Q179.0117,20.1865 180.3315,18.5347 Q181.6514,16.8828 184.1582,16.8828 Q184.8638,16.8828 185.5112,17.0322 Q186.1587,17.1816 186.7231,17.4805 L186.7231,20.2031 Q186.0923,19.6221 185.4988,19.3523 Q184.9053,19.0825 184.2744,19.0825 Q182.9297,19.0825 182.2449,20.1492 Q181.5601,21.2158 181.5601,23.3159 Q181.5601,25.4077 182.2449,26.4744 Q182.9297,27.541 184.2744,27.541 Q184.9053,27.541 185.4988,27.2712 Q186.0923,27.0015 186.7231,26.4204 Z " fill="#000000"/><text fill="#000000" font-family="sans-serif" font-size="14" font-weight="bold" lengthAdjust="spacing" textLength="42" x="204.75" y="28.291">Struct</text><line style="stroke:#5A0000;stroke-width:2.0;" x1="35" x2="384" y1="39" y2="39"/><ellipse cx="45" cy="52.7441" fill="none" rx="3" ry="3" style="stroke:#038048;stroke-width:1.0;"/><text fill="#000000" font-family="sans-serif" font-size="14" font-weight="bold" lengthAdjust="spacing" text-decoration="underline" textLength="55" x="54" y="56.5352">abiBase</text><text fill="#000000" font-family="sans-serif" font-size="14" lengthAdjust="spacing" text-decoration="underline" textLength="191" x="113" y="56.5352">: ABISerializableConstructor</text><ellipse cx="45" cy="69.2324" fill="none" rx="3" ry="3" style="stroke:#038048;stroke-width:1.0;"/><text fill="#000000" font-family="sans-serif" font-size="14" font-weight="bold" lengthAdjust="spacing" text-decoration="underline" textLength="65" x="54" y="73.0234">abiFields</text><text fill="#000000" font-family="sans-serif" font-size="14" lengthAdjust="spacing" text-decoration="underline" textLength="73" x="123" y="73.0234">: ABIField[]</text><ellipse cx="45" cy="85.7207" fill="none" rx="3" ry="3" style="stroke:#038048;stroke-width:1.0;"/><text fill="#000000" font-family="sans-serif" font-size="14" font-weight="bold" lengthAdjust="spacing" text-decoration="underline" textLength="63" x="54" y="89.5117">abiName</text><text fill="#000000" font-family="sans-serif" font-size="14" lengthAdjust="spacing" text-decoration="underline" textLength="48" x="121" y="89.5117">: string</text><line style="stroke:#5A0000;stroke-width:2.0;" x1="35" x2="384" y1="96.4648" y2="96.4648"/><ellipse cx="45" cy="110.209" fill="#84BE84" rx="3" ry="3" style="stroke:#038048;stroke-width:1.0;"/><text fill="#000000" font-family="sans-serif" font-size="14" lengthAdjust="spacing" textLength="192" x="54" y="114">equals(other: any) : boolean</text><ellipse cx="45" cy="126.6973" fill="#84BE84" rx="3" ry="3" style="stroke:#038048;stroke-width:1.0;"/><text fill="#000000" font-family="sans-serif" font-size="14" lengthAdjust="spacing" text-decoration="underline" textLength="325" x="54" y="130.4883">from&lt;T&gt;(this: T, value: any) : InstanceType&lt;T&gt;</text><ellipse cx="45" cy="143.1855" fill="#84BE84" rx="3" ry="3" style="stroke:#038048;stroke-width:1.0;"/><text fill="#000000" font-family="sans-serif" font-size="14" lengthAdjust="spacing" text-decoration="underline" textLength="187" x="54" y="146.9766">from(value: any) : unknown</text></g><!--class RAMState--><g id="elem_RAMState"><rect codeLine="30" fill="#FCF2CC" filter="url(#f1mhyjazyfh7qk)" height="245.8594" id="RAMState" style="stroke:#5A0000;stroke-width:2.0;" width="405" x="7" y="470.32"/><ellipse cx="170.75" cy="486.32" fill="#ADD1B2" rx="11" ry="11" style="stroke:#181818;stroke-width:1.0;"/><path d="M173.2231,492.4631 Q172.6421,492.7619 172.0029,492.9113 Q171.3638,493.0607 170.6582,493.0607 Q168.1514,493.0607 166.8315,491.4089 Q165.5117,489.757 165.5117,486.6359 Q165.5117,483.5065 166.8315,481.8547 Q168.1514,480.2028 170.6582,480.2028 Q171.3638,480.2028 172.0112,480.3522 Q172.6587,480.5016 173.2231,480.8005 L173.2231,483.5231 Q172.5923,482.9421 171.9988,482.6723 Q171.4053,482.4025 170.7744,482.4025 Q169.4297,482.4025 168.7449,483.4692 Q168.0601,484.5358 168.0601,486.6359 Q168.0601,488.7277 168.7449,489.7944 Q169.4297,490.861 170.7744,490.861 Q171.4053,490.861 171.9988,490.5912 Q172.5923,490.3215 173.2231,489.7404 Z " fill="#000000"/><text fill="#000000" font-family="sans-serif" font-size="14" font-weight="bold" lengthAdjust="spacing" textLength="69" x="191.25" y="491.611">RAMState</text><line style="stroke:#5A0000;stroke-width:2.0;" x1="8" x2="411" y1="502.32" y2="502.32"/><ellipse cx="18" cy="516.0641" fill="none" rx="3" ry="3" style="stroke:#038048;stroke-width:1.0;"/><text fill="#000000" font-family="sans-serif" font-size="14" font-weight="bold" lengthAdjust="spacing" text-decoration="underline" textLength="55" x="27" y="519.8552">abiBase</text><text fill="#000000" font-family="sans-serif" font-size="14" lengthAdjust="spacing" text-decoration="underline" textLength="191" x="86" y="519.8552">: ABISerializableConstructor</text><ellipse cx="18" cy="532.5524" fill="none" rx="3" ry="3" style="stroke:#038048;stroke-width:1.0;"/><text fill="#000000" font-family="sans-serif" font-size="14" font-weight="bold" lengthAdjust="spacing" text-decoration="underline" textLength="65" x="27" y="536.3434">abiFields</text><text fill="#000000" font-family="sans-serif" font-size="14" lengthAdjust="spacing" text-decoration="underline" textLength="73" x="96" y="536.3434">: ABIField[]</text><ellipse cx="18" cy="549.0407" fill="none" rx="3" ry="3" style="stroke:#038048;stroke-width:1.0;"/><text fill="#000000" font-family="sans-serif" font-size="14" font-weight="bold" lengthAdjust="spacing" text-decoration="underline" textLength="63" x="27" y="552.8317">abiName</text><text fill="#000000" font-family="sans-serif" font-size="14" lengthAdjust="spacing" text-decoration="underline" textLength="48" x="94" y="552.8317">: string</text><ellipse cx="18" cy="565.529" fill="none" rx="3" ry="3" style="stroke:#038048;stroke-width:1.0;"/><text fill="#000000" font-family="sans-serif" font-size="14" font-weight="bold" lengthAdjust="spacing" textLength="33" x="27" y="569.32">base</text><text fill="#000000" font-family="sans-serif" font-size="14" lengthAdjust="spacing" textLength="80" x="64" y="569.32">: Connector</text><ellipse cx="18" cy="582.0173" fill="none" rx="3" ry="3" style="stroke:#038048;stroke-width:1.0;"/><text fill="#000000" font-family="sans-serif" font-size="14" font-weight="bold" lengthAdjust="spacing" textLength="41" x="27" y="585.8083">quote</text><text fill="#000000" font-family="sans-serif" font-size="14" lengthAdjust="spacing" textLength="80" x="72" y="585.8083">: Connector</text><ellipse cx="18" cy="598.5055" fill="none" rx="3" ry="3" style="stroke:#038048;stroke-width:1.0;"/><text fill="#000000" font-family="sans-serif" font-size="14" font-weight="bold" lengthAdjust="spacing" textLength="48" x="27" y="602.2966">supply</text><text fill="#000000" font-family="sans-serif" font-size="14" lengthAdjust="spacing" textLength="45" x="79" y="602.2966">: Asset</text><line style="stroke:#5A0000;stroke-width:2.0;" x1="8" x2="411" y1="609.2497" y2="609.2497"/><ellipse cx="18" cy="622.9938" fill="#84BE84" rx="3" ry="3" style="stroke:#038048;stroke-width:1.0;"/><text fill="#000000" font-family="sans-serif" font-size="14" lengthAdjust="spacing" textLength="192" x="27" y="626.7848">equals(other: any) : boolean</text><ellipse cx="18" cy="639.4821" fill="#84BE84" rx="3" ry="3" style="stroke:#038048;stroke-width:1.0;"/><text fill="#000000" font-family="sans-serif" font-size="14" lengthAdjust="spacing" text-decoration="underline" textLength="325" x="27" y="643.2731">from&lt;T&gt;(this: T, value: any) : InstanceType&lt;T&gt;</text><ellipse cx="18" cy="655.9704" fill="#84BE84" rx="3" ry="3" style="stroke:#038048;stroke-width:1.0;"/><text fill="#000000" font-family="sans-serif" font-size="14" lengthAdjust="spacing" text-decoration="underline" textLength="187" x="27" y="659.7614">from(value: any) : unknown</text><ellipse cx="18" cy="672.4587" fill="#84BE84" rx="3" ry="3" style="stroke:#038048;stroke-width:1.0;"/><text fill="#000000" font-family="sans-serif" font-size="14" lengthAdjust="spacing" textLength="379" x="27" y="676.2497">get_input(base: Int64, quote: Int64, value: Int64) : Int64</text><ellipse cx="18" cy="688.947" fill="#84BE84" rx="3" ry="3" style="stroke:#038048;stroke-width:1.0;"/><text fill="#000000" font-family="sans-serif" font-size="14" lengthAdjust="spacing" textLength="221" x="27" y="692.738">price_per(bytes: number) : Asset</text><ellipse cx="18" cy="705.4352" fill="#84BE84" rx="3" ry="3" style="stroke:#038048;stroke-width:1.0;"/><text fill="#000000" font-family="sans-serif" font-size="14" lengthAdjust="spacing" textLength="270" x="27" y="709.2262">price_per_kb(kilobytes: number) : Asset</text></g><!--reverse link Struct to ExchangeState--><g id="link_Struct_ExchangeState"><path codeLine="29" d="M209.5,172.13 C209.5,191.05 209.5,193.75 209.5,213.73 " fill="none" id="Struct-backto-ExchangeState" style="stroke:#181818;stroke-width:1.0;"/><polygon fill="none" points="209.5,154.13,203.5,172.13,215.5,172.13,209.5,154.13" style="stroke:#181818;stroke-width:1.0;"/></g><!--reverse link ExchangeState to RAMState--><g id="link_ExchangeState_RAMState"><path codeLine="44" d="M209.5,428.75 C209.5,447.93 209.5,450.27 209.5,470.14 " fill="none" id="ExchangeState-backto-RAMState" style="stroke:#181818;stroke-width:1.0;"/><polygon fill="none" points="209.5,410.75,203.5,428.75,215.5,428.75,209.5,410.75" style="stroke:#181818;stroke-width:1.0;"/></g><!--SRC=[xLHDRzim3BtxLn0zkLYB5SMsGn04Q88Lw64xrBaDGq39J2nOfbo9NkTr_U-JxSRvM7eTUfXEejvxUYH5A9I6Q_HOmS9Y2BUE9PFM4YXdyoGSedFKvSQxXlE5iyx3Mg-ljVwBvNnEVc1ynAkuzXZtWzepURWwhLmMHfTC8S1rKfYSWAfQMbWRiddOFwb82XUFThTa1URkqV06n3Uq1nndBXuvH8XO4jrPmzdddxf0tb0cA7G6Jmd4zHHYPFGpl9kg6Iepnq3Jzse64xYPtsNa3Lhp2vMbXUCGJRKuVr9vswU_q_Rnj-ydkL-nshh4EsCvFQi3rSu_6ZADTXtuq3Xv7GrDNTjscq0890D43mtQa3efo4y0kJsFk7BE4l9HTcllgkbobafXmWIM5_03RKEZw2vs05dJigqfqaw8qqD1moMxHqwUjs-GzHryayr_4sqQ6pJzVNbvFBBR9jxVVFa_m__ySVeyDYIh-EKqadP5ThV9fmyNq1SrHY_wFXeiusRGrzveMjNaKzKAnVougHJvyyDgHzQgL6bfh7k57EVbw5CRncOSa3y0]--></g></svg>