<?xml version="1.0" encoding="us-ascii" standalone="no"?><svg xmlns="http://www.w3.org/2000/svg" xmlns:xlink="http://www.w3.org/1999/xlink" contentStyleType="text/css" height="384px" preserveAspectRatio="none" style="width:467px;height:384px;" version="1.1" viewBox="0 0 467 384" width="467px" zoomAndPan="magnify"><defs><filter height="300%" id="f1ek8atwf164yp" width="300%" x="-1" y="-1"><feGaussianBlur result="blurOut" stdDeviation="2.0"/><feColorMatrix in="blurOut" result="blurOut2" type="matrix" values="0 0 0 0 0 0 0 0 0 0 0 0 0 0 0 0 0 0 .4 0"/><feOffset dx="4.0" dy="4.0" in="blurOut2" result="blurOut3"/><feBlend in="SourceGraphic" in2="blurOut3" mode="normal"/></filter></defs><g><!--class Float64--><g id="elem_Float64"><rect codeLine="10" fill="#FCF2CC" filter="url(#f1ek8atwf164yp)" height="278.8359" id="Float64" style="stroke:#5A0000;stroke-width:2.0;" width="448" x="7" y="93.48"/><ellipse cx="199.75" cy="109.48" fill="#ADD1B2" rx="11" ry="11" style="stroke:#181818;stroke-width:1.0;"/><path d="M202.2231,115.6231 Q201.6421,115.9219 201.0029,116.0713 Q200.3638,116.2207 199.6582,116.2207 Q197.1514,116.2207 195.8315,114.5689 Q194.5117,112.917 194.5117,109.7959 Q194.5117,106.6665 195.8315,105.0147 Q197.1514,103.3628 199.6582,103.3628 Q200.3638,103.3628 201.0112,103.5122 Q201.6587,103.6616 202.2231,103.9605 L202.2231,106.6831 Q201.5923,106.1021 200.9988,105.8323 Q200.4053,105.5625 199.7744,105.5625 Q198.4297,105.5625 197.7449,106.6292 Q197.0601,107.6958 197.0601,109.7959 Q197.0601,111.8877 197.7449,112.9544 Q198.4297,114.021 199.7744,114.021 Q200.4053,114.021 200.9988,113.7512 Q201.5923,113.4815 202.2231,112.9004 Z " fill="#000000"/><text fill="#000000" font-family="sans-serif" font-size="14" font-weight="bold" lengthAdjust="spacing" textLength="54" x="220.25" y="114.771">Float64</text><line style="stroke:#5A0000;stroke-width:2.0;" x1="8" x2="454" y1="125.48" y2="125.48"/><ellipse cx="18" cy="139.2241" fill="none" rx="3" ry="3" style="stroke:#038048;stroke-width:1.0;"/><text fill="#000000" font-family="sans-serif" font-size="14" font-weight="bold" lengthAdjust="spacing" text-decoration="underline" textLength="63" x="27" y="143.0152">abiName</text><text fill="#000000" font-family="sans-serif" font-size="14" lengthAdjust="spacing" text-decoration="underline" textLength="48" x="94" y="143.0152">: string</text><ellipse cx="18" cy="155.7124" fill="none" rx="3" ry="3" style="stroke:#038048;stroke-width:1.0;"/><text fill="#000000" font-family="sans-serif" font-size="14" font-weight="bold" lengthAdjust="spacing" text-decoration="underline" textLength="73" x="27" y="159.5034">byteWidth</text><text fill="#000000" font-family="sans-serif" font-size="14" lengthAdjust="spacing" text-decoration="underline" textLength="62" x="104" y="159.5034">: number</text><ellipse cx="18" cy="172.2007" fill="none" rx="3" ry="3" style="stroke:#038048;stroke-width:1.0;"/><text fill="#000000" font-family="sans-serif" font-size="14" font-weight="bold" lengthAdjust="spacing" textLength="38" x="27" y="175.9917">value</text><text fill="#000000" font-family="sans-serif" font-size="14" lengthAdjust="spacing" textLength="62" x="69" y="175.9917">: number</text><line style="stroke:#5A0000;stroke-width:2.0;" x1="8" x2="454" y1="182.9448" y2="182.9448"/><ellipse cx="18" cy="196.689" fill="#84BE84" rx="3" ry="3" style="stroke:#038048;stroke-width:1.0;"/><text fill="#000000" font-family="sans-serif" font-size="14" lengthAdjust="spacing" text-decoration="underline" textLength="126" x="27" y="200.48">abiDefault() : Float</text><ellipse cx="18" cy="213.1773" fill="#84BE84" rx="3" ry="3" style="stroke:#038048;stroke-width:1.0;"/><text fill="#000000" font-family="sans-serif" font-size="14" lengthAdjust="spacing" textLength="235" x="27" y="216.9683">equals(other: FloatType) : boolean</text><ellipse cx="18" cy="229.6655" fill="#84BE84" rx="3" ry="3" style="stroke:#038048;stroke-width:1.0;"/><text fill="#000000" font-family="sans-serif" font-size="14" lengthAdjust="spacing" text-decoration="underline" textLength="368" x="27" y="233.4566">from&lt;T&gt;(this: T, value: FloatType) : InstanceType&lt;T&gt;</text><ellipse cx="18" cy="246.1538" fill="#84BE84" rx="3" ry="3" style="stroke:#038048;stroke-width:1.0;"/><text fill="#000000" font-family="sans-serif" font-size="14" lengthAdjust="spacing" text-decoration="underline" textLength="230" x="27" y="249.9448">from(value: FloatType) : unknown</text><ellipse cx="18" cy="262.6421" fill="#84BE84" rx="3" ry="3" style="stroke:#038048;stroke-width:1.0;"/><text fill="#000000" font-family="sans-serif" font-size="14" lengthAdjust="spacing" text-decoration="underline" textLength="422" x="27" y="266.4331">fromABI&lt;T&gt;(this: T, decoder: ABIDecoder) : InstanceType&lt;T&gt;</text><ellipse cx="18" cy="279.1304" fill="#84BE84" rx="3" ry="3" style="stroke:#038048;stroke-width:1.0;"/><text fill="#000000" font-family="sans-serif" font-size="14" lengthAdjust="spacing" text-decoration="underline" textLength="284" x="27" y="282.9214">fromABI(decoder: ABIDecoder) : unknown</text><ellipse cx="18" cy="295.6187" fill="#84BE84" rx="3" ry="3" style="stroke:#038048;stroke-width:1.0;"/><text fill="#000000" font-family="sans-serif" font-size="14" lengthAdjust="spacing" text-decoration="underline" textLength="270" x="27" y="299.4097">random&lt;T&gt;(this: T) : InstanceType&lt;T&gt;</text><ellipse cx="18" cy="312.107" fill="#84BE84" rx="3" ry="3" style="stroke:#038048;stroke-width:1.0;"/><text fill="#000000" font-family="sans-serif" font-size="14" lengthAdjust="spacing" text-decoration="underline" textLength="140" x="27" y="315.898">random() : unknown</text><ellipse cx="18" cy="328.5952" fill="#84BE84" rx="3" ry="3" style="stroke:#038048;stroke-width:1.0;"/><text fill="#000000" font-family="sans-serif" font-size="14" lengthAdjust="spacing" textLength="229" x="27" y="332.3863">toABI(encoder: ABIEncoder) : void</text><ellipse cx="18" cy="345.0835" fill="#84BE84" rx="3" ry="3" style="stroke:#038048;stroke-width:1.0;"/><text fill="#000000" font-family="sans-serif" font-size="14" lengthAdjust="spacing" textLength="109" x="27" y="348.8745">toJSON() : string</text><ellipse cx="18" cy="361.5718" fill="#84BE84" rx="3" ry="3" style="stroke:#038048;stroke-width:1.0;"/><text fill="#000000" font-family="sans-serif" font-size="14" lengthAdjust="spacing" textLength="117" x="27" y="365.3628">toString() : string</text></g><!--class Float--><g id="elem_Float"><rect codeLine="26" fill="#FCF2CC" filter="url(#f1ek8atwf164yp)" height="26.4883" id="Float" style="stroke:#5A0000;stroke-width:2.0;" width="42" x="210" y="7"/><text fill="#000000" font-family="sans-serif" font-size="14" font-weight="bold" lengthAdjust="spacing" textLength="36" x="213" y="25.5352">Float</text></g><!--reverse link Float to Float64--><g id="link_Float_Float64"><path codeLine="28" d="M231,51.79 C231,64.76 231,68.53 231,93 " fill="none" id="Float-backto-Float64" style="stroke:#181818;stroke-width:1.0;"/><polygon fill="none" points="231,33.79,225,51.79,237,51.79,231,33.79" style="stroke:#181818;stroke-width:1.0;"/></g><!--SRC=[ZP91JyCm38Nl_HNMJaKmCKt00KsJO6FIE8349d5E4vT6I-EHkA09-E-axKQxhGXogltUyvUezYjjryA972P6U3yZomlU68I4Z8hyldehvEh5KM7LX0mvI6KwbFB8HKwXgnsNOX1Eo_5Kfvr51uFkv3BJScNHUnX6cLO8cAzv0wb6etoxaoDd55hDb4Kc5Brh-mBi2cm9XpTd9wmF4bgEP8c6tioGuAkB7dn44Cw7Py5QVi7fA1cBH3-874VdoHYkmRCBY6DNic5yregphSyMUOAkyfNocp057alDY42POYeAm_59y5GNgjFuMWZZO-8CtLPORjPOkX8YWy8UZ4eTvQFbEEPC-sjOda45FuZERV1RYMKTp1qZugvOOLUMthk8DxVpFQX2IQgySH2czVV_kC4V_nBkfeVVgVPU_3UdZiI7Cq-PIZhQXdvdV-XlfDNEThzuVAZYhNq8xKLLjOMllHNhrIkyBK1g9mr6ktBqsUytk_WD]--></g></svg>