<?xml version="1.0" encoding="us-ascii" standalone="no"?><svg xmlns="http://www.w3.org/2000/svg" xmlns:xlink="http://www.w3.org/1999/xlink" contentStyleType="text/css" height="603px" preserveAspectRatio="none" style="width:379px;height:603px;" version="1.1" viewBox="0 0 379 603" width="379px" zoomAndPan="magnify"><defs><filter height="300%" id="f1elwhlvnwetv8" width="300%" x="-1" y="-1"><feGaussianBlur result="blurOut" stdDeviation="2.0"/><feColorMatrix in="blurOut" result="blurOut2" type="matrix" values="0 0 0 0 0 0 0 0 0 0 0 0 0 0 0 0 0 0 .4 0"/><feOffset dx="4.0" dy="4.0" in="blurOut2" result="blurOut3"/><feBlend in="SourceGraphic" in2="blurOut3" mode="normal"/></filter></defs><g><!--class GetBlockHeaderStateResponse--><g id="elem_GetBlockHeaderStateResponse"><rect codeLine="10" fill="#FCF2CC" filter="url(#f1elwhlvnwetv8)" height="377.7656" id="GetBlockHeaderStateResponse" style="stroke:#5A0000;stroke-width:2.0;" width="360" x="7" y="213.93"/><ellipse cx="73.75" cy="229.93" fill="#ADD1B2" rx="11" ry="11" style="stroke:#181818;stroke-width:1.0;"/><path d="M76.2231,236.0731 Q75.6421,236.3719 75.0029,236.5213 Q74.3638,236.6707 73.6582,236.6707 Q71.1514,236.6707 69.8315,235.0189 Q68.5117,233.367 68.5117,230.2459 Q68.5117,227.1165 69.8315,225.4647 Q71.1514,223.8128 73.6582,223.8128 Q74.3638,223.8128 75.0112,223.9622 Q75.6587,224.1116 76.2231,224.4105 L76.2231,227.1331 Q75.5923,226.5521 74.9988,226.2823 Q74.4053,226.0125 73.7744,226.0125 Q72.4297,226.0125 71.7449,227.0792 Q71.0601,228.1458 71.0601,230.2459 Q71.0601,232.3377 71.7449,233.4044 Q72.4297,234.471 73.7744,234.471 Q74.4053,234.471 74.9988,234.2012 Q75.5923,233.9315 76.2231,233.3504 Z " fill="#000000"/><text fill="#000000" font-family="sans-serif" font-size="14" font-weight="bold" lengthAdjust="spacing" textLength="218" x="94.25" y="235.221">GetBlockHeaderStateResponse</text><line style="stroke:#5A0000;stroke-width:2.0;" x1="8" x2="366" y1="245.93" y2="245.93"/><ellipse cx="18" cy="259.6741" fill="none" rx="3" ry="3" style="stroke:#038048;stroke-width:1.0;"/><text fill="#000000" font-family="sans-serif" font-size="14" font-weight="bold" lengthAdjust="spacing" text-decoration="underline" textLength="55" x="27" y="263.4652">abiBase</text><text fill="#000000" font-family="sans-serif" font-size="14" lengthAdjust="spacing" text-decoration="underline" textLength="191" x="86" y="263.4652">: ABISerializableConstructor</text><ellipse cx="18" cy="276.1624" fill="none" rx="3" ry="3" style="stroke:#038048;stroke-width:1.0;"/><text fill="#000000" font-family="sans-serif" font-size="14" font-weight="bold" lengthAdjust="spacing" text-decoration="underline" textLength="65" x="27" y="279.9534">abiFields</text><text fill="#000000" font-family="sans-serif" font-size="14" lengthAdjust="spacing" text-decoration="underline" textLength="73" x="96" y="279.9534">: ABIField[]</text><ellipse cx="18" cy="292.6507" fill="none" rx="3" ry="3" style="stroke:#038048;stroke-width:1.0;"/><text fill="#000000" font-family="sans-serif" font-size="14" font-weight="bold" lengthAdjust="spacing" text-decoration="underline" textLength="63" x="27" y="296.4417">abiName</text><text fill="#000000" font-family="sans-serif" font-size="14" lengthAdjust="spacing" text-decoration="underline" textLength="48" x="94" y="296.4417">: string</text><ellipse cx="18" cy="309.139" fill="none" rx="3" ry="3" style="stroke:#038048;stroke-width:1.0;"/><text fill="#000000" font-family="sans-serif" font-size="14" font-weight="bold" lengthAdjust="spacing" textLength="198" x="27" y="312.93">activated_protocol_features</text><text fill="#000000" font-family="sans-serif" font-size="14" lengthAdjust="spacing" textLength="32" x="229" y="312.93">: any</text><ellipse cx="18" cy="325.6273" fill="none" rx="3" ry="3" style="stroke:#038048;stroke-width:1.0;"/><text fill="#000000" font-family="sans-serif" font-size="14" font-weight="bold" lengthAdjust="spacing" textLength="112" x="27" y="329.4183">active_schedule</text><text fill="#000000" font-family="sans-serif" font-size="14" lengthAdjust="spacing" textLength="32" x="143" y="329.4183">: any</text><ellipse cx="18" cy="342.1155" fill="none" rx="3" ry="3" style="stroke:#038048;stroke-width:1.0;"/><text fill="#000000" font-family="sans-serif" font-size="14" font-weight="bold" lengthAdjust="spacing" textLength="156" x="27" y="345.9066">additional_signatures</text><text fill="#000000" font-family="sans-serif" font-size="14" lengthAdjust="spacing" textLength="32" x="187" y="345.9066">: any</text><ellipse cx="18" cy="358.6038" fill="none" rx="3" ry="3" style="stroke:#038048;stroke-width:1.0;"/><text fill="#000000" font-family="sans-serif" font-size="14" font-weight="bold" lengthAdjust="spacing" textLength="126" x="27" y="362.3948">blockroot_merkle</text><text fill="#000000" font-family="sans-serif" font-size="14" lengthAdjust="spacing" textLength="32" x="157" y="362.3948">: any</text><ellipse cx="18" cy="375.0921" fill="none" rx="3" ry="3" style="stroke:#038048;stroke-width:1.0;"/><text fill="#000000" font-family="sans-serif" font-size="14" font-weight="bold" lengthAdjust="spacing" textLength="78" x="27" y="378.8831">block_num</text><text fill="#000000" font-family="sans-serif" font-size="14" lengthAdjust="spacing" textLength="54" x="109" y="378.8831">: UInt32</text><ellipse cx="18" cy="391.5804" fill="none" rx="3" ry="3" style="stroke:#038048;stroke-width:1.0;"/><text fill="#000000" font-family="sans-serif" font-size="14" font-weight="bold" lengthAdjust="spacing" textLength="103" x="27" y="395.3714">confirm_count</text><text fill="#000000" font-family="sans-serif" font-size="14" lengthAdjust="spacing" textLength="32" x="134" y="395.3714">: any</text><ellipse cx="18" cy="408.0687" fill="none" rx="3" ry="3" style="stroke:#038048;stroke-width:1.0;"/><text fill="#000000" font-family="sans-serif" font-size="14" font-weight="bold" lengthAdjust="spacing" textLength="202" x="27" y="411.8597">dpos_irreversible_blocknum</text><text fill="#000000" font-family="sans-serif" font-size="14" lengthAdjust="spacing" textLength="54" x="233" y="411.8597">: UInt32</text><ellipse cx="18" cy="424.557" fill="none" rx="3" ry="3" style="stroke:#038048;stroke-width:1.0;"/><text fill="#000000" font-family="sans-serif" font-size="14" font-weight="bold" lengthAdjust="spacing" textLength="276" x="27" y="428.348">dpos_proposed_irreversible_blocknum</text><text fill="#000000" font-family="sans-serif" font-size="14" lengthAdjust="spacing" textLength="54" x="307" y="428.348">: UInt32</text><ellipse cx="18" cy="441.0452" fill="none" rx="3" ry="3" style="stroke:#038048;stroke-width:1.0;"/><text fill="#000000" font-family="sans-serif" font-size="14" font-weight="bold" lengthAdjust="spacing" textLength="48" x="27" y="444.8363">header</text><text fill="#000000" font-family="sans-serif" font-size="14" lengthAdjust="spacing" textLength="127" x="79" y="444.8363">: BlockStateHeader</text><ellipse cx="18" cy="457.5335" fill="none" rx="3" ry="3" style="stroke:#038048;stroke-width:1.0;"/><text fill="#000000" font-family="sans-serif" font-size="14" font-weight="bold" lengthAdjust="spacing" textLength="14" x="27" y="461.3245">id</text><text fill="#000000" font-family="sans-serif" font-size="14" lengthAdjust="spacing" textLength="57" x="45" y="461.3245">: BlockId</text><ellipse cx="18" cy="474.0218" fill="none" rx="3" ry="3" style="stroke:#038048;stroke-width:1.0;"/><text fill="#000000" font-family="sans-serif" font-size="14" font-weight="bold" lengthAdjust="spacing" textLength="128" x="27" y="477.8128">pending_schedule</text><text fill="#000000" font-family="sans-serif" font-size="14" lengthAdjust="spacing" textLength="32" x="159" y="477.8128">: any</text><ellipse cx="18" cy="490.5101" fill="none" rx="3" ry="3" style="stroke:#038048;stroke-width:1.0;"/><text fill="#000000" font-family="sans-serif" font-size="14" font-weight="bold" lengthAdjust="spacing" textLength="208" x="27" y="494.3011">producer_to_last_implied_irb</text><text fill="#000000" font-family="sans-serif" font-size="14" lengthAdjust="spacing" textLength="32" x="239" y="494.3011">: any</text><ellipse cx="18" cy="506.9984" fill="none" rx="3" ry="3" style="stroke:#038048;stroke-width:1.0;"/><text fill="#000000" font-family="sans-serif" font-size="14" font-weight="bold" lengthAdjust="spacing" textLength="192" x="27" y="510.7894">producer_to_last_produced</text><text fill="#000000" font-family="sans-serif" font-size="14" lengthAdjust="spacing" textLength="32" x="223" y="510.7894">: any</text><ellipse cx="18" cy="523.4866" fill="none" rx="3" ry="3" style="stroke:#038048;stroke-width:1.0;"/><text fill="#000000" font-family="sans-serif" font-size="14" font-weight="bold" lengthAdjust="spacing" textLength="215" x="27" y="527.2777">valid_block_signing_authority</text><text fill="#000000" font-family="sans-serif" font-size="14" lengthAdjust="spacing" textLength="32" x="246" y="527.2777">: any</text><line style="stroke:#5A0000;stroke-width:2.0;" x1="8" x2="366" y1="534.2308" y2="534.2308"/><ellipse cx="18" cy="547.9749" fill="#84BE84" rx="3" ry="3" style="stroke:#038048;stroke-width:1.0;"/><text fill="#000000" font-family="sans-serif" font-size="14" lengthAdjust="spacing" textLength="192" x="27" y="551.7659">equals(other: any) : boolean</text><ellipse cx="18" cy="564.4632" fill="#84BE84" rx="3" ry="3" style="stroke:#038048;stroke-width:1.0;"/><text fill="#000000" font-family="sans-serif" font-size="14" lengthAdjust="spacing" text-decoration="underline" textLength="325" x="27" y="568.2542">from&lt;T&gt;(this: T, value: any) : InstanceType&lt;T&gt;</text><ellipse cx="18" cy="580.9515" fill="#84BE84" rx="3" ry="3" style="stroke:#038048;stroke-width:1.0;"/><text fill="#000000" font-family="sans-serif" font-size="14" lengthAdjust="spacing" text-decoration="underline" textLength="187" x="27" y="584.7425">from(value: any) : unknown</text></g><!--class Struct--><g id="elem_Struct"><rect codeLine="32" fill="#FCF2CC" filter="url(#f1elwhlvnwetv8)" height="146.9297" id="Struct" style="stroke:#5A0000;stroke-width:2.0;" width="351" x="11.5" y="7"/><ellipse cx="161.75" cy="23" fill="#ADD1B2" rx="11" ry="11" style="stroke:#181818;stroke-width:1.0;"/><path d="M164.2231,29.1431 Q163.6421,29.4419 163.0029,29.5913 Q162.3638,29.7407 161.6582,29.7407 Q159.1514,29.7407 157.8315,28.0889 Q156.5117,26.437 156.5117,23.3159 Q156.5117,20.1865 157.8315,18.5347 Q159.1514,16.8828 161.6582,16.8828 Q162.3638,16.8828 163.0112,17.0322 Q163.6587,17.1816 164.2231,17.4805 L164.2231,20.2031 Q163.5923,19.6221 162.9988,19.3523 Q162.4053,19.0825 161.7744,19.0825 Q160.4297,19.0825 159.7449,20.1492 Q159.0601,21.2158 159.0601,23.3159 Q159.0601,25.4077 159.7449,26.4744 Q160.4297,27.541 161.7744,27.541 Q162.4053,27.541 162.9988,27.2712 Q163.5923,27.0015 164.2231,26.4204 Z " fill="#000000"/><text fill="#000000" font-family="sans-serif" font-size="14" font-weight="bold" lengthAdjust="spacing" textLength="42" x="182.25" y="28.291">Struct</text><line style="stroke:#5A0000;stroke-width:2.0;" x1="12.5" x2="361.5" y1="39" y2="39"/><ellipse cx="22.5" cy="52.7441" fill="none" rx="3" ry="3" style="stroke:#038048;stroke-width:1.0;"/><text fill="#000000" font-family="sans-serif" font-size="14" font-weight="bold" lengthAdjust="spacing" text-decoration="underline" textLength="55" x="31.5" y="56.5352">abiBase</text><text fill="#000000" font-family="sans-serif" font-size="14" lengthAdjust="spacing" text-decoration="underline" textLength="191" x="90.5" y="56.5352">: ABISerializableConstructor</text><ellipse cx="22.5" cy="69.2324" fill="none" rx="3" ry="3" style="stroke:#038048;stroke-width:1.0;"/><text fill="#000000" font-family="sans-serif" font-size="14" font-weight="bold" lengthAdjust="spacing" text-decoration="underline" textLength="65" x="31.5" y="73.0234">abiFields</text><text fill="#000000" font-family="sans-serif" font-size="14" lengthAdjust="spacing" text-decoration="underline" textLength="73" x="100.5" y="73.0234">: ABIField[]</text><ellipse cx="22.5" cy="85.7207" fill="none" rx="3" ry="3" style="stroke:#038048;stroke-width:1.0;"/><text fill="#000000" font-family="sans-serif" font-size="14" font-weight="bold" lengthAdjust="spacing" text-decoration="underline" textLength="63" x="31.5" y="89.5117">abiName</text><text fill="#000000" font-family="sans-serif" font-size="14" lengthAdjust="spacing" text-decoration="underline" textLength="48" x="98.5" y="89.5117">: string</text><line style="stroke:#5A0000;stroke-width:2.0;" x1="12.5" x2="361.5" y1="96.4648" y2="96.4648"/><ellipse cx="22.5" cy="110.209" fill="#84BE84" rx="3" ry="3" style="stroke:#038048;stroke-width:1.0;"/><text fill="#000000" font-family="sans-serif" font-size="14" lengthAdjust="spacing" textLength="192" x="31.5" y="114">equals(other: any) : boolean</text><ellipse cx="22.5" cy="126.6973" fill="#84BE84" rx="3" ry="3" style="stroke:#038048;stroke-width:1.0;"/><text fill="#000000" font-family="sans-serif" font-size="14" lengthAdjust="spacing" text-decoration="underline" textLength="325" x="31.5" y="130.4883">from&lt;T&gt;(this: T, value: any) : InstanceType&lt;T&gt;</text><ellipse cx="22.5" cy="143.1855" fill="#84BE84" rx="3" ry="3" style="stroke:#038048;stroke-width:1.0;"/><text fill="#000000" font-family="sans-serif" font-size="14" lengthAdjust="spacing" text-decoration="underline" textLength="187" x="31.5" y="146.9766">from(value: any) : unknown</text></g><!--reverse link Struct to GetBlockHeaderStateResponse--><g id="link_Struct_GetBlockHeaderStateResponse"><path codeLine="40" d="M187,172.16 C187,190.34 187,192.7 187,213.71 " fill="none" id="Struct-backto-GetBlockHeaderStateResponse" style="stroke:#181818;stroke-width:1.0;"/><polygon fill="none" points="187,154.16,181,172.16,193,172.16,187,154.16" style="stroke:#181818;stroke-width:1.0;"/></g><!--SRC=[pLGxRzim4DxzAuXCBjgWWOikWM6WDf3MIuVOdOg2eCYJHOZYgSUJ0pVDV- -5ViHsbQ3TeaNGVGyUxw5K-zWQCesQ1PFI3KPUy2Q0AZ2uGJf5fyRMAy8kkXa695NQScJjNoma1xHbV3HNyXmnRhTgYa3ggb-vhBoj8wIaHeFAEr3GjBnHfOVWqd6a0QvGGaykYyeulFDnfPWwE0BECsSoCGa4aGVsyMXryHbu6j3MNy184Wis3BUGMem9BjJzGCbpdoJgxODwEoucfl1Jas3ylfYeQ_LfEby0UHFyBrC4c8bCKh2CrAkyoPTvqkRlxpzwkLzDipz5FELocPL1otujUJhT4Z9Q3Be4mnt1tjh4pIaRTB8Lk2v07yCvpnwZ2JhvLNpMgNYi4o6oRe3gNgjCqR5hTjYtUUGFemDiCPQU6csb9TmZToqcxObW3PIy55HdmsVzCb-A82-fndy8gzpj7PRxdpk_7O83oxjZnjmTW1QYauwyL5J9odKMI3DgcJJMlcc3praM_qBV1LmFTotZvhONp0rxpCHqiXJaUNFEXv-T2Mc8N07by1j12yG09fxDNKdOZ9UJ8LS-NQlbEoK7TN0GpMMsJRImtBGWj1xny5JGnJhYNHmyx7TjaNVZLQxLgoZJeK3ZtvUNB_-Q_W00]--></g></svg>