<?xml version="1.0" encoding="us-ascii" standalone="no"?><svg xmlns="http://www.w3.org/2000/svg" xmlns:xlink="http://www.w3.org/1999/xlink" contentStyleType="text/css" height="636px" preserveAspectRatio="none" style="width:511px;height:636px;" version="1.1" viewBox="0 0 511 636" width="511px" zoomAndPan="magnify"><defs><filter height="300%" id="f15yuu552emfea" width="300%" x="-1" y="-1"><feGaussianBlur result="blurOut" stdDeviation="2.0"/><feColorMatrix in="blurOut" result="blurOut2" type="matrix" values="0 0 0 0 0 0 0 0 0 0 0 0 0 0 0 0 0 0 .4 0"/><feOffset dx="4.0" dy="4.0" in="blurOut2" result="blurOut3"/><feBlend in="SourceGraphic" in2="blurOut3" mode="normal"/></filter></defs><g><!--class GetInfoResponse--><g id="elem_GetInfoResponse"><rect codeLine="10" fill="#FCF2CC" filter="url(#f15yuu552emfea)" height="410.7422" id="GetInfoResponse" style="stroke:#5A0000;stroke-width:2.0;" width="492" x="7" y="213.93"/><ellipse cx="187.75" cy="229.93" fill="#ADD1B2" rx="11" ry="11" style="stroke:#181818;stroke-width:1.0;"/><path d="M190.2231,236.0731 Q189.6421,236.3719 189.0029,236.5213 Q188.3638,236.6707 187.6582,236.6707 Q185.1514,236.6707 183.8315,235.0189 Q182.5117,233.367 182.5117,230.2459 Q182.5117,227.1165 183.8315,225.4647 Q185.1514,223.8128 187.6582,223.8128 Q188.3638,223.8128 189.0112,223.9622 Q189.6587,224.1116 190.2231,224.4105 L190.2231,227.1331 Q189.5923,226.5521 188.9988,226.2823 Q188.4053,226.0125 187.7744,226.0125 Q186.4297,226.0125 185.7449,227.0792 Q185.0601,228.1458 185.0601,230.2459 Q185.0601,232.3377 185.7449,233.4044 Q186.4297,234.471 187.7744,234.471 Q188.4053,234.471 188.9988,234.2012 Q189.5923,233.9315 190.2231,233.3504 Z " fill="#000000"/><text fill="#000000" font-family="sans-serif" font-size="14" font-weight="bold" lengthAdjust="spacing" textLength="122" x="208.25" y="235.221">GetInfoResponse</text><line style="stroke:#5A0000;stroke-width:2.0;" x1="8" x2="498" y1="245.93" y2="245.93"/><ellipse cx="18" cy="259.6741" fill="none" rx="3" ry="3" style="stroke:#038048;stroke-width:1.0;"/><text fill="#000000" font-family="sans-serif" font-size="14" font-weight="bold" lengthAdjust="spacing" text-decoration="underline" textLength="55" x="27" y="263.4652">abiBase</text><text fill="#000000" font-family="sans-serif" font-size="14" lengthAdjust="spacing" text-decoration="underline" textLength="191" x="86" y="263.4652">: ABISerializableConstructor</text><ellipse cx="18" cy="276.1624" fill="none" rx="3" ry="3" style="stroke:#038048;stroke-width:1.0;"/><text fill="#000000" font-family="sans-serif" font-size="14" font-weight="bold" lengthAdjust="spacing" text-decoration="underline" textLength="65" x="27" y="279.9534">abiFields</text><text fill="#000000" font-family="sans-serif" font-size="14" lengthAdjust="spacing" text-decoration="underline" textLength="73" x="96" y="279.9534">: ABIField[]</text><ellipse cx="18" cy="292.6507" fill="none" rx="3" ry="3" style="stroke:#038048;stroke-width:1.0;"/><text fill="#000000" font-family="sans-serif" font-size="14" font-weight="bold" lengthAdjust="spacing" text-decoration="underline" textLength="63" x="27" y="296.4417">abiName</text><text fill="#000000" font-family="sans-serif" font-size="14" lengthAdjust="spacing" text-decoration="underline" textLength="48" x="94" y="296.4417">: string</text><ellipse cx="18" cy="309.139" fill="none" rx="3" ry="3" style="stroke:#038048;stroke-width:1.0;"/><text fill="#000000" font-family="sans-serif" font-size="14" font-weight="bold" lengthAdjust="spacing" textLength="113" x="27" y="312.93">block_cpu_limit</text><text fill="#000000" font-family="sans-serif" font-size="14" lengthAdjust="spacing" textLength="54" x="144" y="312.93">: UInt64</text><ellipse cx="18" cy="325.6273" fill="none" rx="3" ry="3" style="stroke:#038048;stroke-width:1.0;"/><text fill="#000000" font-family="sans-serif" font-size="14" font-weight="bold" lengthAdjust="spacing" textLength="111" x="27" y="329.4183">block_net_limit</text><text fill="#000000" font-family="sans-serif" font-size="14" lengthAdjust="spacing" textLength="54" x="142" y="329.4183">: UInt64</text><ellipse cx="18" cy="342.1155" fill="none" rx="3" ry="3" style="stroke:#038048;stroke-width:1.0;"/><text fill="#000000" font-family="sans-serif" font-size="14" font-weight="bold" lengthAdjust="spacing" textLength="59" x="27" y="345.9066">chain_id</text><text fill="#000000" font-family="sans-serif" font-size="14" lengthAdjust="spacing" textLength="106" x="90" y="345.9066">: Checksum256</text><ellipse cx="18" cy="358.6038" fill="none" rx="3" ry="3" style="stroke:#038048;stroke-width:1.0;"/><text fill="#000000" font-family="sans-serif" font-size="14" font-weight="bold" lengthAdjust="spacing" textLength="163" x="27" y="362.3948">fork_db_head_block_id</text><text fill="#000000" font-family="sans-serif" font-size="14" lengthAdjust="spacing" textLength="57" x="194" y="362.3948">: BlockId</text><ellipse cx="18" cy="375.0921" fill="none" rx="3" ry="3" style="stroke:#038048;stroke-width:1.0;"/><text fill="#000000" font-family="sans-serif" font-size="14" font-weight="bold" lengthAdjust="spacing" textLength="181" x="27" y="378.8831">fork_db_head_block_num</text><text fill="#000000" font-family="sans-serif" font-size="14" lengthAdjust="spacing" textLength="54" x="212" y="378.8831">: UInt32</text><ellipse cx="18" cy="391.5804" fill="none" rx="3" ry="3" style="stroke:#038048;stroke-width:1.0;"/><text fill="#000000" font-family="sans-serif" font-size="14" font-weight="bold" lengthAdjust="spacing" textLength="101" x="27" y="395.3714">head_block_id</text><text fill="#000000" font-family="sans-serif" font-size="14" lengthAdjust="spacing" textLength="57" x="132" y="395.3714">: BlockId</text><ellipse cx="18" cy="408.0687" fill="none" rx="3" ry="3" style="stroke:#038048;stroke-width:1.0;"/><text fill="#000000" font-family="sans-serif" font-size="14" font-weight="bold" lengthAdjust="spacing" textLength="119" x="27" y="411.8597">head_block_num</text><text fill="#000000" font-family="sans-serif" font-size="14" lengthAdjust="spacing" textLength="54" x="150" y="411.8597">: UInt32</text><ellipse cx="18" cy="424.557" fill="none" rx="3" ry="3" style="stroke:#038048;stroke-width:1.0;"/><text fill="#000000" font-family="sans-serif" font-size="14" font-weight="bold" lengthAdjust="spacing" textLength="150" x="27" y="428.348">head_block_producer</text><text fill="#000000" font-family="sans-serif" font-size="14" lengthAdjust="spacing" textLength="47" x="181" y="428.348">: Name</text><ellipse cx="18" cy="441.0452" fill="none" rx="3" ry="3" style="stroke:#038048;stroke-width:1.0;"/><text fill="#000000" font-family="sans-serif" font-size="14" font-weight="bold" lengthAdjust="spacing" textLength="120" x="27" y="444.8362">head_block_time</text><text fill="#000000" font-family="sans-serif" font-size="14" lengthAdjust="spacing" textLength="77" x="151" y="444.8362">: TimePoint</text><ellipse cx="18" cy="457.5335" fill="none" rx="3" ry="3" style="stroke:#038048;stroke-width:1.0;"/><text fill="#000000" font-family="sans-serif" font-size="14" font-weight="bold" lengthAdjust="spacing" textLength="183" x="27" y="461.3245">last_irreversible_block_id</text><text fill="#000000" font-family="sans-serif" font-size="14" lengthAdjust="spacing" textLength="57" x="214" y="461.3245">: BlockId</text><ellipse cx="18" cy="474.0218" fill="none" rx="3" ry="3" style="stroke:#038048;stroke-width:1.0;"/><text fill="#000000" font-family="sans-serif" font-size="14" font-weight="bold" lengthAdjust="spacing" textLength="201" x="27" y="477.8128">last_irreversible_block_num</text><text fill="#000000" font-family="sans-serif" font-size="14" lengthAdjust="spacing" textLength="54" x="232" y="477.8128">: UInt32</text><ellipse cx="18" cy="490.5101" fill="none" rx="3" ry="3" style="stroke:#038048;stroke-width:1.0;"/><text fill="#000000" font-family="sans-serif" font-size="14" font-weight="bold" lengthAdjust="spacing" textLength="104" x="27" y="494.3011">server_version</text><text fill="#000000" font-family="sans-serif" font-size="14" lengthAdjust="spacing" textLength="48" x="135" y="494.3011">: string</text><ellipse cx="18" cy="506.9984" fill="none" rx="3" ry="3" style="stroke:#038048;stroke-width:1.0;"/><text fill="#000000" font-family="sans-serif" font-size="14" font-weight="bold" lengthAdjust="spacing" textLength="154" x="27" y="510.7894">server_version_string</text><text fill="#000000" font-family="sans-serif" font-size="14" lengthAdjust="spacing" textLength="48" x="185" y="510.7894">: string</text><ellipse cx="18" cy="523.4866" fill="none" rx="3" ry="3" style="stroke:#038048;stroke-width:1.0;"/><text fill="#000000" font-family="sans-serif" font-size="14" font-weight="bold" lengthAdjust="spacing" textLength="167" x="27" y="527.2777">virtual_block_cpu_limit</text><text fill="#000000" font-family="sans-serif" font-size="14" lengthAdjust="spacing" textLength="54" x="198" y="527.2777">: UInt64</text><ellipse cx="18" cy="539.9749" fill="none" rx="3" ry="3" style="stroke:#038048;stroke-width:1.0;"/><text fill="#000000" font-family="sans-serif" font-size="14" font-weight="bold" lengthAdjust="spacing" textLength="165" x="27" y="543.7659">virtual_block_net_limit</text><text fill="#000000" font-family="sans-serif" font-size="14" lengthAdjust="spacing" textLength="54" x="196" y="543.7659">: UInt64</text><line style="stroke:#5A0000;stroke-width:2.0;" x1="8" x2="498" y1="550.7191" y2="550.7191"/><ellipse cx="18" cy="564.4632" fill="#84BE84" rx="3" ry="3" style="stroke:#038048;stroke-width:1.0;"/><text fill="#000000" font-family="sans-serif" font-size="14" lengthAdjust="spacing" textLength="192" x="27" y="568.2542">equals(other: any) : boolean</text><ellipse cx="18" cy="580.9515" fill="#84BE84" rx="3" ry="3" style="stroke:#038048;stroke-width:1.0;"/><text fill="#000000" font-family="sans-serif" font-size="14" lengthAdjust="spacing" text-decoration="underline" textLength="325" x="27" y="584.7425">from&lt;T&gt;(this: T, value: any) : InstanceType&lt;T&gt;</text><ellipse cx="18" cy="597.4398" fill="#84BE84" rx="3" ry="3" style="stroke:#038048;stroke-width:1.0;"/><text fill="#000000" font-family="sans-serif" font-size="14" lengthAdjust="spacing" text-decoration="underline" textLength="187" x="27" y="601.2308">from(value: any) : unknown</text><ellipse cx="18" cy="613.928" fill="#84BE84" rx="3" ry="3" style="stroke:#038048;stroke-width:1.0;"/><text fill="#000000" font-family="sans-serif" font-size="14" lengthAdjust="spacing" textLength="466" x="27" y="617.7191">getTransactionHeader(secondsAhead: number) : TransactionHeader</text></g><!--class Struct--><g id="elem_Struct"><rect codeLine="34" fill="#FCF2CC" filter="url(#f15yuu552emfea)" height="146.9297" id="Struct" style="stroke:#5A0000;stroke-width:2.0;" width="351" x="77.5" y="7"/><ellipse cx="227.75" cy="23" fill="#ADD1B2" rx="11" ry="11" style="stroke:#181818;stroke-width:1.0;"/><path d="M230.2231,29.1431 Q229.6421,29.4419 229.0029,29.5913 Q228.3638,29.7407 227.6582,29.7407 Q225.1514,29.7407 223.8315,28.0889 Q222.5117,26.437 222.5117,23.3159 Q222.5117,20.1865 223.8315,18.5347 Q225.1514,16.8828 227.6582,16.8828 Q228.3638,16.8828 229.0112,17.0322 Q229.6587,17.1816 230.2231,17.4805 L230.2231,20.2031 Q229.5923,19.6221 228.9988,19.3523 Q228.4053,19.0825 227.7744,19.0825 Q226.4297,19.0825 225.7449,20.1492 Q225.0601,21.2158 225.0601,23.3159 Q225.0601,25.4077 225.7449,26.4744 Q226.4297,27.541 227.7744,27.541 Q228.4053,27.541 228.9988,27.2712 Q229.5923,27.0015 230.2231,26.4204 Z " fill="#000000"/><text fill="#000000" font-family="sans-serif" font-size="14" font-weight="bold" lengthAdjust="spacing" textLength="42" x="248.25" y="28.291">Struct</text><line style="stroke:#5A0000;stroke-width:2.0;" x1="78.5" x2="427.5" y1="39" y2="39"/><ellipse cx="88.5" cy="52.7441" fill="none" rx="3" ry="3" style="stroke:#038048;stroke-width:1.0;"/><text fill="#000000" font-family="sans-serif" font-size="14" font-weight="bold" lengthAdjust="spacing" text-decoration="underline" textLength="55" x="97.5" y="56.5352">abiBase</text><text fill="#000000" font-family="sans-serif" font-size="14" lengthAdjust="spacing" text-decoration="underline" textLength="191" x="156.5" y="56.5352">: ABISerializableConstructor</text><ellipse cx="88.5" cy="69.2324" fill="none" rx="3" ry="3" style="stroke:#038048;stroke-width:1.0;"/><text fill="#000000" font-family="sans-serif" font-size="14" font-weight="bold" lengthAdjust="spacing" text-decoration="underline" textLength="65" x="97.5" y="73.0234">abiFields</text><text fill="#000000" font-family="sans-serif" font-size="14" lengthAdjust="spacing" text-decoration="underline" textLength="73" x="166.5" y="73.0234">: ABIField[]</text><ellipse cx="88.5" cy="85.7207" fill="none" rx="3" ry="3" style="stroke:#038048;stroke-width:1.0;"/><text fill="#000000" font-family="sans-serif" font-size="14" font-weight="bold" lengthAdjust="spacing" text-decoration="underline" textLength="63" x="97.5" y="89.5117">abiName</text><text fill="#000000" font-family="sans-serif" font-size="14" lengthAdjust="spacing" text-decoration="underline" textLength="48" x="164.5" y="89.5117">: string</text><line style="stroke:#5A0000;stroke-width:2.0;" x1="78.5" x2="427.5" y1="96.4648" y2="96.4648"/><ellipse cx="88.5" cy="110.209" fill="#84BE84" rx="3" ry="3" style="stroke:#038048;stroke-width:1.0;"/><text fill="#000000" font-family="sans-serif" font-size="14" lengthAdjust="spacing" textLength="192" x="97.5" y="114">equals(other: any) : boolean</text><ellipse cx="88.5" cy="126.6973" fill="#84BE84" rx="3" ry="3" style="stroke:#038048;stroke-width:1.0;"/><text fill="#000000" font-family="sans-serif" font-size="14" lengthAdjust="spacing" text-decoration="underline" textLength="325" x="97.5" y="130.4883">from&lt;T&gt;(this: T, value: any) : InstanceType&lt;T&gt;</text><ellipse cx="88.5" cy="143.1855" fill="#84BE84" rx="3" ry="3" style="stroke:#038048;stroke-width:1.0;"/><text fill="#000000" font-family="sans-serif" font-size="14" lengthAdjust="spacing" text-decoration="underline" textLength="187" x="97.5" y="146.9766">from(value: any) : unknown</text></g><!--reverse link Struct to GetInfoResponse--><g id="link_Struct_GetInfoResponse"><path codeLine="42" d="M253,172.14 C253,190.22 253,192.51 253,213.59 " fill="none" id="Struct-backto-GetInfoResponse" style="stroke:#181818;stroke-width:1.0;"/><polygon fill="none" points="253,154.14,247,172.14,259,172.14,253,154.14" style="stroke:#181818;stroke-width:1.0;"/></g><!--SRC=[pPHDRzim38Rl_XL2JncwOaMszX040Pe0tN8PXYOx3OCXItGiM2OzIawHTVdlavt4pOURTRVgP8dFIqhyiCiDbf9b8IPMEdTFw6T-PK4aP7Na3grZgV85KuLwGfPOf2hjAtL24MlW3N4ZhyFQ8nusQaPWSTsjd6T6vGZEYNwK6Gq2YjAlH6h0QhT_Ke3FA1mzUvbbKjEZmONmNC6UuVZcdYMwO0BqaQf3YulFuAUOqWEuaj31XNYAH5XFpajlr5fS3fEHJCnOEXX-I4PY8Ex6qncmaTRybec5IP25iCeJTohlcmSyQvlzZv-Tx5TPxA84d-513LKR4qigZrLPnTOKnc-XxrFqjv-E80H_3bAPD1WRlRLECb2vguh-pMsBfCHvh9Cu0wdZZTEM7zVRgJx7ObNiXVxORzdN-FjFFoMJhXJm5gmJs8LvqoPs7Zw_aGaTiED28_ZOCCCIs9bGqd_TyIN1YnTsm06D6vomkyA7JBonTgDBmxwIDdvLKnp2vve3VWNEzSXdm0CXSVKk00cH1Ob7xPeo5SFvgESpuq9Atukbj1MqecaO2OaAvgiI0jOXxXqAAioH7ZTHBXVWv_MWIkL39hw4AWBt72X2xUxgeWv4o7G2N2jFo6Yz6-rPCvPlSgBVGAhNKPkWuP-hgzC_uLy0]--></g></svg>