<?xml version="1.0" encoding="us-ascii" standalone="no"?><svg xmlns="http://www.w3.org/2000/svg" xmlns:xlink="http://www.w3.org/1999/xlink" contentStyleType="text/css" height="405px" preserveAspectRatio="none" style="width:374px;height:405px;" version="1.1" viewBox="0 0 374 405" width="374px" zoomAndPan="magnify"><defs><filter height="300%" id="f16p55ydi80cxx" width="300%" x="-1" y="-1"><feGaussianBlur result="blurOut" stdDeviation="2.0"/><feColorMatrix in="blurOut" result="blurOut2" type="matrix" values="0 0 0 0 0 0 0 0 0 0 0 0 0 0 0 0 0 0 .4 0"/><feOffset dx="4.0" dy="4.0" in="blurOut2" result="blurOut3"/><feBlend in="SourceGraphic" in2="blurOut3" mode="normal"/></filter></defs><g><!--class GetProtocolFeaturesResponse--><g id="elem_GetProtocolFeaturesResponse"><rect codeLine="10" fill="#FCF2CC" filter="url(#f16p55ydi80cxx)" height="179.9063" id="GetProtocolFeaturesResponse" style="stroke:#5A0000;stroke-width:2.0;" width="355" x="7" y="213.93"/><ellipse cx="73.25" cy="229.93" fill="#ADD1B2" rx="11" ry="11" style="stroke:#181818;stroke-width:1.0;"/><path d="M75.7231,236.0731 Q75.1421,236.3719 74.5029,236.5213 Q73.8638,236.6707 73.1582,236.6707 Q70.6514,236.6707 69.3315,235.0189 Q68.0117,233.367 68.0117,230.2459 Q68.0117,227.1165 69.3315,225.4647 Q70.6514,223.8128 73.1582,223.8128 Q73.8638,223.8128 74.5112,223.9622 Q75.1587,224.1116 75.7231,224.4105 L75.7231,227.1331 Q75.0923,226.5521 74.4988,226.2823 Q73.9053,226.0125 73.2744,226.0125 Q71.9297,226.0125 71.2449,227.0792 Q70.5601,228.1458 70.5601,230.2459 Q70.5601,232.3377 71.2449,233.4044 Q71.9297,234.471 73.2744,234.471 Q73.9053,234.471 74.4988,234.2012 Q75.0923,233.9315 75.7231,233.3504 Z " fill="#000000"/><text fill="#000000" font-family="sans-serif" font-size="14" font-weight="bold" lengthAdjust="spacing" textLength="214" x="93.75" y="235.221">GetProtocolFeaturesResponse</text><line style="stroke:#5A0000;stroke-width:2.0;" x1="8" x2="361" y1="245.93" y2="245.93"/><ellipse cx="18" cy="259.6741" fill="none" rx="3" ry="3" style="stroke:#038048;stroke-width:1.0;"/><text fill="#000000" font-family="sans-serif" font-size="14" font-weight="bold" lengthAdjust="spacing" text-decoration="underline" textLength="55" x="27" y="263.4652">abiBase</text><text fill="#000000" font-family="sans-serif" font-size="14" lengthAdjust="spacing" text-decoration="underline" textLength="191" x="86" y="263.4652">: ABISerializableConstructor</text><ellipse cx="18" cy="276.1624" fill="none" rx="3" ry="3" style="stroke:#038048;stroke-width:1.0;"/><text fill="#000000" font-family="sans-serif" font-size="14" font-weight="bold" lengthAdjust="spacing" text-decoration="underline" textLength="65" x="27" y="279.9534">abiFields</text><text fill="#000000" font-family="sans-serif" font-size="14" lengthAdjust="spacing" text-decoration="underline" textLength="73" x="96" y="279.9534">: ABIField[]</text><ellipse cx="18" cy="292.6507" fill="none" rx="3" ry="3" style="stroke:#038048;stroke-width:1.0;"/><text fill="#000000" font-family="sans-serif" font-size="14" font-weight="bold" lengthAdjust="spacing" text-decoration="underline" textLength="63" x="27" y="296.4417">abiName</text><text fill="#000000" font-family="sans-serif" font-size="14" lengthAdjust="spacing" text-decoration="underline" textLength="48" x="94" y="296.4417">: string</text><ellipse cx="18" cy="309.139" fill="none" rx="3" ry="3" style="stroke:#038048;stroke-width:1.0;"/><text fill="#000000" font-family="sans-serif" font-size="14" font-weight="bold" lengthAdjust="spacing" textLength="198" x="27" y="312.93">activated_protocol_features</text><text fill="#000000" font-family="sans-serif" font-size="14" lengthAdjust="spacing" textLength="127" x="229" y="312.93">: ProtocolFeature[]</text><ellipse cx="18" cy="325.6273" fill="none" rx="3" ry="3" style="stroke:#038048;stroke-width:1.0;"/><text fill="#000000" font-family="sans-serif" font-size="14" font-weight="bold" lengthAdjust="spacing" textLength="37" x="27" y="329.4183">more</text><text fill="#000000" font-family="sans-serif" font-size="14" lengthAdjust="spacing" textLength="54" x="68" y="329.4183">: UInt32</text><line style="stroke:#5A0000;stroke-width:2.0;" x1="8" x2="361" y1="336.3714" y2="336.3714"/><ellipse cx="18" cy="350.1155" fill="#84BE84" rx="3" ry="3" style="stroke:#038048;stroke-width:1.0;"/><text fill="#000000" font-family="sans-serif" font-size="14" lengthAdjust="spacing" textLength="192" x="27" y="353.9066">equals(other: any) : boolean</text><ellipse cx="18" cy="366.6038" fill="#84BE84" rx="3" ry="3" style="stroke:#038048;stroke-width:1.0;"/><text fill="#000000" font-family="sans-serif" font-size="14" lengthAdjust="spacing" text-decoration="underline" textLength="325" x="27" y="370.3948">from&lt;T&gt;(this: T, value: any) : InstanceType&lt;T&gt;</text><ellipse cx="18" cy="383.0921" fill="#84BE84" rx="3" ry="3" style="stroke:#038048;stroke-width:1.0;"/><text fill="#000000" font-family="sans-serif" font-size="14" lengthAdjust="spacing" text-decoration="underline" textLength="187" x="27" y="386.8831">from(value: any) : unknown</text></g><!--class Struct--><g id="elem_Struct"><rect codeLine="20" fill="#FCF2CC" filter="url(#f16p55ydi80cxx)" height="146.9297" id="Struct" style="stroke:#5A0000;stroke-width:2.0;" width="351" x="9" y="7"/><ellipse cx="159.25" cy="23" fill="#ADD1B2" rx="11" ry="11" style="stroke:#181818;stroke-width:1.0;"/><path d="M161.7231,29.1431 Q161.1421,29.4419 160.5029,29.5913 Q159.8638,29.7407 159.1582,29.7407 Q156.6514,29.7407 155.3315,28.0889 Q154.0117,26.437 154.0117,23.3159 Q154.0117,20.1865 155.3315,18.5347 Q156.6514,16.8828 159.1582,16.8828 Q159.8638,16.8828 160.5112,17.0322 Q161.1587,17.1816 161.7231,17.4805 L161.7231,20.2031 Q161.0923,19.6221 160.4988,19.3523 Q159.9053,19.0825 159.2744,19.0825 Q157.9297,19.0825 157.2449,20.1492 Q156.5601,21.2158 156.5601,23.3159 Q156.5601,25.4077 157.2449,26.4744 Q157.9297,27.541 159.2744,27.541 Q159.9053,27.541 160.4988,27.2712 Q161.0923,27.0015 161.7231,26.4204 Z " fill="#000000"/><text fill="#000000" font-family="sans-serif" font-size="14" font-weight="bold" lengthAdjust="spacing" textLength="42" x="179.75" y="28.291">Struct</text><line style="stroke:#5A0000;stroke-width:2.0;" x1="10" x2="359" y1="39" y2="39"/><ellipse cx="20" cy="52.7441" fill="none" rx="3" ry="3" style="stroke:#038048;stroke-width:1.0;"/><text fill="#000000" font-family="sans-serif" font-size="14" font-weight="bold" lengthAdjust="spacing" text-decoration="underline" textLength="55" x="29" y="56.5352">abiBase</text><text fill="#000000" font-family="sans-serif" font-size="14" lengthAdjust="spacing" text-decoration="underline" textLength="191" x="88" y="56.5352">: ABISerializableConstructor</text><ellipse cx="20" cy="69.2324" fill="none" rx="3" ry="3" style="stroke:#038048;stroke-width:1.0;"/><text fill="#000000" font-family="sans-serif" font-size="14" font-weight="bold" lengthAdjust="spacing" text-decoration="underline" textLength="65" x="29" y="73.0234">abiFields</text><text fill="#000000" font-family="sans-serif" font-size="14" lengthAdjust="spacing" text-decoration="underline" textLength="73" x="98" y="73.0234">: ABIField[]</text><ellipse cx="20" cy="85.7207" fill="none" rx="3" ry="3" style="stroke:#038048;stroke-width:1.0;"/><text fill="#000000" font-family="sans-serif" font-size="14" font-weight="bold" lengthAdjust="spacing" text-decoration="underline" textLength="63" x="29" y="89.5117">abiName</text><text fill="#000000" font-family="sans-serif" font-size="14" lengthAdjust="spacing" text-decoration="underline" textLength="48" x="96" y="89.5117">: string</text><line style="stroke:#5A0000;stroke-width:2.0;" x1="10" x2="359" y1="96.4648" y2="96.4648"/><ellipse cx="20" cy="110.209" fill="#84BE84" rx="3" ry="3" style="stroke:#038048;stroke-width:1.0;"/><text fill="#000000" font-family="sans-serif" font-size="14" lengthAdjust="spacing" textLength="192" x="29" y="114">equals(other: any) : boolean</text><ellipse cx="20" cy="126.6973" fill="#84BE84" rx="3" ry="3" style="stroke:#038048;stroke-width:1.0;"/><text fill="#000000" font-family="sans-serif" font-size="14" lengthAdjust="spacing" text-decoration="underline" textLength="325" x="29" y="130.4883">from&lt;T&gt;(this: T, value: any) : InstanceType&lt;T&gt;</text><ellipse cx="20" cy="143.1855" fill="#84BE84" rx="3" ry="3" style="stroke:#038048;stroke-width:1.0;"/><text fill="#000000" font-family="sans-serif" font-size="14" lengthAdjust="spacing" text-decoration="underline" textLength="187" x="29" y="146.9766">from(value: any) : unknown</text></g><!--reverse link Struct to GetProtocolFeaturesResponse--><g id="link_Struct_GetProtocolFeaturesResponse"><path codeLine="28" d="M184.5,172.28 C184.5,191.31 184.5,194.04 184.5,213.82 " fill="none" id="Struct-backto-GetProtocolFeaturesResponse" style="stroke:#181818;stroke-width:1.0;"/><polygon fill="none" points="184.5,154.28,178.5,172.28,190.5,172.28,184.5,154.28" style="stroke:#181818;stroke-width:1.0;"/></g><!--SRC=[pP9FJy904CNl_HGJJnWb6emNGaY41CF56C6JCMIwdTeDsvswEuLKvBkxbFz8FBkttNc_cJUlzLDj2tIOGz-WzmEsCfBA4CHiaiWVLtkefX-EIvlqsR23LAKjfNwfs2Narefxl0tdGF6offqb1xVdoN6crTIIzz2ACfqGK5v81Qaca_Z3bvmau_2qxpBACE6vjXyWhgI3mgbpSMXzA96LIAr6myKZoRDZOSLcG2Yb8_z2lc3hwG8M4OIpy8AYrHAkEd4NOzr3JvsRk0jjUEWDH-Gq6ls5iQ5-m8859UpEaeDwcJrRtz_UpsgVCDzE2Jt3ShMgBYhHCnHA9iN6-IJTMDy09njj9gpOdDssw-lGobrhNQ7F4erli6Jase2skWo2cDaGsXDtgUEyC-us9DE-3UDhcA4fQGSDGm9e5OshWeBi3Dmu1aexjJotqNBxHKPrWlyo_7yHqowWpdUp-VSF_0C0]--></g></svg>