<?xml version="1.0" encoding="us-ascii" standalone="no"?><svg xmlns="http://www.w3.org/2000/svg" xmlns:xlink="http://www.w3.org/1999/xlink" contentStyleType="text/css" height="521px" preserveAspectRatio="none" style="width:707px;height:521px;" version="1.1" viewBox="0 0 707 521" width="707px" zoomAndPan="magnify"><defs><filter height="300%" id="f1a70hjt1wu5oz" width="300%" x="-1" y="-1"><feGaussianBlur result="blurOut" stdDeviation="2.0"/><feColorMatrix in="blurOut" result="blurOut2" type="matrix" values="0 0 0 0 0 0 0 0 0 0 0 0 0 0 0 0 0 0 .4 0"/><feOffset dx="4.0" dy="4.0" in="blurOut2" result="blurOut3"/><feBlend in="SourceGraphic" in2="blurOut3" mode="normal"/></filter></defs><g><!--class IdentityProof--><g id="elem_IdentityProof"><rect codeLine="10" fill="#FCF2CC" filter="url(#f1a70hjt1wu5oz)" height="295.3242" id="IdentityProof" style="stroke:#5A0000;stroke-width:2.0;" width="688" x="7" y="213.93"/><ellipse cx="299.25" cy="229.93" fill="#ADD1B2" rx="11" ry="11" style="stroke:#181818;stroke-width:1.0;"/><path d="M301.7231,236.0731 Q301.1421,236.3719 300.5029,236.5213 Q299.8638,236.6707 299.1582,236.6707 Q296.6514,236.6707 295.3315,235.0189 Q294.0117,233.367 294.0117,230.2459 Q294.0117,227.1165 295.3315,225.4647 Q296.6514,223.8128 299.1582,223.8128 Q299.8638,223.8128 300.5112,223.9622 Q301.1587,224.1116 301.7231,224.4105 L301.7231,227.1331 Q301.0923,226.5521 300.4988,226.2823 Q299.9053,226.0125 299.2744,226.0125 Q297.9297,226.0125 297.2449,227.0792 Q296.5601,228.1458 296.5601,230.2459 Q296.5601,232.3377 297.2449,233.4044 Q297.9297,234.471 299.2744,234.471 Q299.9053,234.471 300.4988,234.2012 Q301.0923,233.9315 301.7231,233.3504 Z " fill="#000000"/><text fill="#000000" font-family="sans-serif" font-size="14" font-weight="bold" lengthAdjust="spacing" textLength="95" x="319.75" y="235.221">IdentityProof</text><line style="stroke:#5A0000;stroke-width:2.0;" x1="8" x2="694" y1="245.93" y2="245.93"/><ellipse cx="18" cy="259.6741" fill="none" rx="3" ry="3" style="stroke:#038048;stroke-width:1.0;"/><text fill="#000000" font-family="sans-serif" font-size="14" font-weight="bold" lengthAdjust="spacing" text-decoration="underline" textLength="55" x="27" y="263.4652">abiBase</text><text fill="#000000" font-family="sans-serif" font-size="14" lengthAdjust="spacing" text-decoration="underline" textLength="191" x="86" y="263.4652">: ABISerializableConstructor</text><ellipse cx="18" cy="276.1624" fill="none" rx="3" ry="3" style="stroke:#038048;stroke-width:1.0;"/><text fill="#000000" font-family="sans-serif" font-size="14" font-weight="bold" lengthAdjust="spacing" text-decoration="underline" textLength="65" x="27" y="279.9534">abiFields</text><text fill="#000000" font-family="sans-serif" font-size="14" lengthAdjust="spacing" text-decoration="underline" textLength="73" x="96" y="279.9534">: ABIField[]</text><ellipse cx="18" cy="292.6507" fill="none" rx="3" ry="3" style="stroke:#038048;stroke-width:1.0;"/><text fill="#000000" font-family="sans-serif" font-size="14" font-weight="bold" lengthAdjust="spacing" text-decoration="underline" textLength="63" x="27" y="296.4417">abiName</text><text fill="#000000" font-family="sans-serif" font-size="14" lengthAdjust="spacing" text-decoration="underline" textLength="48" x="94" y="296.4417">: string</text><ellipse cx="18" cy="309.139" fill="none" rx="3" ry="3" style="stroke:#038048;stroke-width:1.0;"/><text fill="#000000" font-family="sans-serif" font-size="14" font-weight="bold" lengthAdjust="spacing" textLength="52" x="27" y="312.93">chainId</text><text fill="#000000" font-family="sans-serif" font-size="14" lengthAdjust="spacing" textLength="61" x="83" y="312.93">: ChainId</text><ellipse cx="18" cy="325.6273" fill="none" rx="3" ry="3" style="stroke:#038048;stroke-width:1.0;"/><text fill="#000000" font-family="sans-serif" font-size="14" font-weight="bold" lengthAdjust="spacing" textLength="73" x="27" y="329.4183">expiration</text><text fill="#000000" font-family="sans-serif" font-size="14" lengthAdjust="spacing" textLength="100" x="104" y="329.4183">: TimePointSec</text><ellipse cx="18" cy="342.1155" fill="none" rx="3" ry="3" style="stroke:#038048;stroke-width:1.0;"/><text fill="#000000" font-family="sans-serif" font-size="14" font-weight="bold" lengthAdjust="spacing" textLength="41" x="27" y="345.9066">scope</text><text fill="#000000" font-family="sans-serif" font-size="14" lengthAdjust="spacing" textLength="47" x="72" y="345.9066">: Name</text><ellipse cx="18" cy="358.6038" fill="none" rx="3" ry="3" style="stroke:#038048;stroke-width:1.0;"/><text fill="#000000" font-family="sans-serif" font-size="14" font-weight="bold" lengthAdjust="spacing" textLength="68" x="27" y="362.3948">signature</text><text fill="#000000" font-family="sans-serif" font-size="14" lengthAdjust="spacing" textLength="74" x="99" y="362.3948">: Signature</text><ellipse cx="18" cy="375.0921" fill="none" rx="3" ry="3" style="stroke:#038048;stroke-width:1.0;"/><text fill="#000000" font-family="sans-serif" font-size="14" font-weight="bold" lengthAdjust="spacing" textLength="45" x="27" y="378.8831">signer</text><text fill="#000000" font-family="sans-serif" font-size="14" lengthAdjust="spacing" textLength="117" x="76" y="378.8831">: PermissionLevel</text><line style="stroke:#5A0000;stroke-width:2.0;" x1="8" x2="694" y1="385.8363" y2="385.8363"/><ellipse cx="18" cy="399.5804" fill="#84BE84" rx="3" ry="3" style="stroke:#038048;stroke-width:1.0;"/><text fill="#000000" font-family="sans-serif" font-size="14" lengthAdjust="spacing" textLength="192" x="27" y="403.3714">equals(other: any) : boolean</text><ellipse cx="18" cy="416.0687" fill="#84BE84" rx="3" ry="3" style="stroke:#038048;stroke-width:1.0;"/><text fill="#000000" font-family="sans-serif" font-size="14" lengthAdjust="spacing" text-decoration="underline" textLength="308" x="27" y="419.8597">from(value: IdentityProofType) : IdentityProof</text><ellipse cx="18" cy="432.557" fill="#84BE84" rx="3" ry="3" style="stroke:#038048;stroke-width:1.0;"/><text fill="#000000" font-family="sans-serif" font-size="14" lengthAdjust="spacing" text-decoration="underline" textLength="662" x="27" y="436.348">fromPayload(payload: CallbackPayload, options: SigningRequestEncodingOptions) : IdentityProof</text><ellipse cx="18" cy="449.0452" fill="#84BE84" rx="3" ry="3" style="stroke:#038048;stroke-width:1.0;"/><text fill="#000000" font-family="sans-serif" font-size="14" lengthAdjust="spacing" text-decoration="underline" textLength="272" x="27" y="452.8363">fromString(string: string) : IdentityProof</text><ellipse cx="18" cy="465.5335" fill="#84BE84" rx="3" ry="3" style="stroke:#038048;stroke-width:1.0;"/><text fill="#000000" font-family="sans-serif" font-size="14" lengthAdjust="spacing" textLength="138" x="27" y="469.3245">recover() : PublicKey</text><ellipse cx="18" cy="482.0218" fill="#84BE84" rx="3" ry="3" style="stroke:#038048;stroke-width:1.0;"/><text fill="#000000" font-family="sans-serif" font-size="14" lengthAdjust="spacing" textLength="117" x="27" y="485.8128">toString() : string</text><ellipse cx="18" cy="498.5101" fill="#84BE84" rx="3" ry="3" style="stroke:#038048;stroke-width:1.0;"/><text fill="#000000" font-family="sans-serif" font-size="14" lengthAdjust="spacing" textLength="453" x="27" y="502.3011">verify(auth: AuthorityType, currentTime: TimePointType) : boolean</text></g><!--class Struct--><g id="elem_Struct"><rect codeLine="27" fill="#FCF2CC" filter="url(#f1a70hjt1wu5oz)" height="146.9297" id="Struct" style="stroke:#5A0000;stroke-width:2.0;" width="351" x="175.5" y="7"/><ellipse cx="325.75" cy="23" fill="#ADD1B2" rx="11" ry="11" style="stroke:#181818;stroke-width:1.0;"/><path d="M328.2231,29.1431 Q327.6421,29.4419 327.0029,29.5913 Q326.3638,29.7407 325.6582,29.7407 Q323.1514,29.7407 321.8315,28.0889 Q320.5117,26.437 320.5117,23.3159 Q320.5117,20.1865 321.8315,18.5347 Q323.1514,16.8828 325.6582,16.8828 Q326.3638,16.8828 327.0112,17.0322 Q327.6587,17.1816 328.2231,17.4805 L328.2231,20.2031 Q327.5923,19.6221 326.9988,19.3523 Q326.4053,19.0825 325.7744,19.0825 Q324.4297,19.0825 323.7449,20.1492 Q323.0601,21.2158 323.0601,23.3159 Q323.0601,25.4077 323.7449,26.4744 Q324.4297,27.541 325.7744,27.541 Q326.4053,27.541 326.9988,27.2712 Q327.5923,27.0015 328.2231,26.4204 Z " fill="#000000"/><text fill="#000000" font-family="sans-serif" font-size="14" font-weight="bold" lengthAdjust="spacing" textLength="42" x="346.25" y="28.291">Struct</text><line style="stroke:#5A0000;stroke-width:2.0;" x1="176.5" x2="525.5" y1="39" y2="39"/><ellipse cx="186.5" cy="52.7441" fill="none" rx="3" ry="3" style="stroke:#038048;stroke-width:1.0;"/><text fill="#000000" font-family="sans-serif" font-size="14" font-weight="bold" lengthAdjust="spacing" text-decoration="underline" textLength="55" x="195.5" y="56.5352">abiBase</text><text fill="#000000" font-family="sans-serif" font-size="14" lengthAdjust="spacing" text-decoration="underline" textLength="191" x="254.5" y="56.5352">: ABISerializableConstructor</text><ellipse cx="186.5" cy="69.2324" fill="none" rx="3" ry="3" style="stroke:#038048;stroke-width:1.0;"/><text fill="#000000" font-family="sans-serif" font-size="14" font-weight="bold" lengthAdjust="spacing" text-decoration="underline" textLength="65" x="195.5" y="73.0234">abiFields</text><text fill="#000000" font-family="sans-serif" font-size="14" lengthAdjust="spacing" text-decoration="underline" textLength="73" x="264.5" y="73.0234">: ABIField[]</text><ellipse cx="186.5" cy="85.7207" fill="none" rx="3" ry="3" style="stroke:#038048;stroke-width:1.0;"/><text fill="#000000" font-family="sans-serif" font-size="14" font-weight="bold" lengthAdjust="spacing" text-decoration="underline" textLength="63" x="195.5" y="89.5117">abiName</text><text fill="#000000" font-family="sans-serif" font-size="14" lengthAdjust="spacing" text-decoration="underline" textLength="48" x="262.5" y="89.5117">: string</text><line style="stroke:#5A0000;stroke-width:2.0;" x1="176.5" x2="525.5" y1="96.4648" y2="96.4648"/><ellipse cx="186.5" cy="110.209" fill="#84BE84" rx="3" ry="3" style="stroke:#038048;stroke-width:1.0;"/><text fill="#000000" font-family="sans-serif" font-size="14" lengthAdjust="spacing" textLength="192" x="195.5" y="114">equals(other: any) : boolean</text><ellipse cx="186.5" cy="126.6973" fill="#84BE84" rx="3" ry="3" style="stroke:#038048;stroke-width:1.0;"/><text fill="#000000" font-family="sans-serif" font-size="14" lengthAdjust="spacing" text-decoration="underline" textLength="325" x="195.5" y="130.4883">from&lt;T&gt;(this: T, value: any) : InstanceType&lt;T&gt;</text><ellipse cx="186.5" cy="143.1855" fill="#84BE84" rx="3" ry="3" style="stroke:#038048;stroke-width:1.0;"/><text fill="#000000" font-family="sans-serif" font-size="14" lengthAdjust="spacing" text-decoration="underline" textLength="187" x="195.5" y="146.9766">from(value: any) : unknown</text></g><!--reverse link Struct to IdentityProof--><g id="link_Struct_IdentityProof"><path codeLine="35" d="M351,172.07 C351,190.48 351,192.94 351,213.61 " fill="none" id="Struct-backto-IdentityProof" style="stroke:#181818;stroke-width:1.0;"/><polygon fill="none" points="351,154.07,345,172.07,357,172.07,351,154.07" style="stroke:#181818;stroke-width:1.0;"/></g><!--SRC=[pLDDRzim3BtdLmWzkMYA5GLs2O82Ix02mOOjg7CRTg1bEXOYYnubf_Ew_lTHiPsl1SDscmysgFSUIJtIVcDS3GoLcblm_f5SI4DhKMLayv4_HMUWDskcnkLpiiIgqCMzrh-nY7FaZl4MxkGvOZnrQdR8wkwoSbKQlN7elReVbIP7XLKTMbKOjBa_Fgamb2H7Xonf2Jaz6xTMWHiy0iux3mpE2uGkZ7GihQuMkGGcj4icAgxKoqZ9y-831ADVrSqqUu3CpC3Zz4tse2RgtMoH8XkmvWTa5kVal1JLWVYYyd7N_a6xYxzylSZz1DLGHNBATNQi2EeIZ5laFJZleZsAtsl3aebSJrYP2fTaPAQezoolgHxInqe7mAmTX8O7C1tY4mPo3o-HA-EzLFk8MxGT2RyrO7r2eKIUA73jjJ0p8elWpkvQC5N95co34tLY_ggjCSfE3Y-8bz1QWZofkw_u0TPcCkaU62kgenc-kuhu-2JjeG_ldQPSmiyT_3UrqjqSacuSmrWk2syODMsHamWlcymQ_G7R3WhK9xe-cwtmJT4cq8HIraFUn98qEZ5Mkk6ug76OHoCTN1hCVHqMETsjuN-vmV-u7TFLGn9A8_DRZLM_ARre8Rs2qnXT4DeVLgiND6xZw3dQj3Te-lFszlo__mK0]--></g></svg>