<?xml version="1.0" encoding="us-ascii" standalone="no"?><svg xmlns="http://www.w3.org/2000/svg" xmlns:xlink="http://www.w3.org/1999/xlink" contentStyleType="text/css" height="471px" preserveAspectRatio="none" style="width:686px;height:471px;" version="1.1" viewBox="0 0 686 471" width="686px" zoomAndPan="magnify"><defs><filter height="300%" id="fkvjbu1nktl73" width="300%" x="-1" y="-1"><feGaussianBlur result="blurOut" stdDeviation="2.0"/><feColorMatrix in="blurOut" result="blurOut2" type="matrix" values="0 0 0 0 0 0 0 0 0 0 0 0 0 0 0 0 0 0 .4 0"/><feOffset dx="4.0" dy="4.0" in="blurOut2" result="blurOut3"/><feBlend in="SourceGraphic" in2="blurOut3" mode="normal"/></filter></defs><g><!--class PackedTransaction--><g id="elem_PackedTransaction"><rect codeLine="10" fill="#FCF2CC" filter="url(#fkvjbu1nktl73)" height="245.8594" id="PackedTransaction" style="stroke:#5A0000;stroke-width:2.0;" width="667" x="7" y="213.93"/><ellipse cx="268.75" cy="229.93" fill="#ADD1B2" rx="11" ry="11" style="stroke:#181818;stroke-width:1.0;"/><path d="M271.2231,236.0731 Q270.6421,236.3719 270.0029,236.5213 Q269.3638,236.6707 268.6582,236.6707 Q266.1514,236.6707 264.8315,235.0189 Q263.5117,233.367 263.5117,230.2459 Q263.5117,227.1165 264.8315,225.4647 Q266.1514,223.8128 268.6582,223.8128 Q269.3638,223.8128 270.0112,223.9622 Q270.6587,224.1116 271.2231,224.4105 L271.2231,227.1331 Q270.5923,226.5521 269.9988,226.2823 Q269.4053,226.0125 268.7744,226.0125 Q267.4297,226.0125 266.7449,227.0792 Q266.0601,228.1458 266.0601,230.2459 Q266.0601,232.3377 266.7449,233.4044 Q267.4297,234.471 268.7744,234.471 Q269.4053,234.471 269.9988,234.2012 Q270.5923,233.9315 271.2231,233.3504 Z " fill="#000000"/><text fill="#000000" font-family="sans-serif" font-size="14" font-weight="bold" lengthAdjust="spacing" textLength="135" x="289.25" y="235.221">PackedTransaction</text><line style="stroke:#5A0000;stroke-width:2.0;" x1="8" x2="673" y1="245.93" y2="245.93"/><ellipse cx="18" cy="259.6741" fill="none" rx="3" ry="3" style="stroke:#038048;stroke-width:1.0;"/><text fill="#000000" font-family="sans-serif" font-size="14" font-weight="bold" lengthAdjust="spacing" text-decoration="underline" textLength="55" x="27" y="263.4652">abiBase</text><text fill="#000000" font-family="sans-serif" font-size="14" lengthAdjust="spacing" text-decoration="underline" textLength="191" x="86" y="263.4652">: ABISerializableConstructor</text><ellipse cx="18" cy="276.1624" fill="none" rx="3" ry="3" style="stroke:#038048;stroke-width:1.0;"/><text fill="#000000" font-family="sans-serif" font-size="14" font-weight="bold" lengthAdjust="spacing" text-decoration="underline" textLength="65" x="27" y="279.9534">abiFields</text><text fill="#000000" font-family="sans-serif" font-size="14" lengthAdjust="spacing" text-decoration="underline" textLength="73" x="96" y="279.9534">: ABIField[]</text><ellipse cx="18" cy="292.6507" fill="none" rx="3" ry="3" style="stroke:#038048;stroke-width:1.0;"/><text fill="#000000" font-family="sans-serif" font-size="14" font-weight="bold" lengthAdjust="spacing" text-decoration="underline" textLength="63" x="27" y="296.4417">abiName</text><text fill="#000000" font-family="sans-serif" font-size="14" lengthAdjust="spacing" text-decoration="underline" textLength="48" x="94" y="296.4417">: string</text><ellipse cx="18" cy="309.139" fill="none" rx="3" ry="3" style="stroke:#038048;stroke-width:1.0;"/><text fill="#000000" font-family="sans-serif" font-size="14" font-weight="bold" lengthAdjust="spacing" textLength="92" x="27" y="312.93">compression</text><text fill="#000000" font-family="sans-serif" font-size="14" lengthAdjust="spacing" textLength="45" x="123" y="312.93">: UInt8</text><ellipse cx="18" cy="325.6273" fill="none" rx="3" ry="3" style="stroke:#038048;stroke-width:1.0;"/><text fill="#000000" font-family="sans-serif" font-size="14" font-weight="bold" lengthAdjust="spacing" textLength="183" x="27" y="329.4183">packed_context_free_data</text><text fill="#000000" font-family="sans-serif" font-size="14" lengthAdjust="spacing" textLength="43" x="214" y="329.4183">: Bytes</text><ellipse cx="18" cy="342.1155" fill="none" rx="3" ry="3" style="stroke:#038048;stroke-width:1.0;"/><text fill="#000000" font-family="sans-serif" font-size="14" font-weight="bold" lengthAdjust="spacing" textLength="77" x="27" y="345.9066">packed_trx</text><text fill="#000000" font-family="sans-serif" font-size="14" lengthAdjust="spacing" textLength="43" x="108" y="345.9066">: Bytes</text><ellipse cx="18" cy="358.6038" fill="none" rx="3" ry="3" style="stroke:#038048;stroke-width:1.0;"/><text fill="#000000" font-family="sans-serif" font-size="14" font-weight="bold" lengthAdjust="spacing" textLength="76" x="27" y="362.3948">signatures</text><text fill="#000000" font-family="sans-serif" font-size="14" lengthAdjust="spacing" textLength="84" x="107" y="362.3948">: Signature[]</text><line style="stroke:#5A0000;stroke-width:2.0;" x1="8" x2="673" y1="369.348" y2="369.348"/><ellipse cx="18" cy="383.0921" fill="#84BE84" rx="3" ry="3" style="stroke:#038048;stroke-width:1.0;"/><text fill="#000000" font-family="sans-serif" font-size="14" lengthAdjust="spacing" textLength="192" x="27" y="386.8831">equals(other: any) : boolean</text><ellipse cx="18" cy="399.5804" fill="#84BE84" rx="3" ry="3" style="stroke:#038048;stroke-width:1.0;"/><text fill="#000000" font-family="sans-serif" font-size="14" lengthAdjust="spacing" text-decoration="underline" textLength="396" x="27" y="403.3714">from(object: PackedTransactionType) : PackedTransaction</text><ellipse cx="18" cy="416.0687" fill="#84BE84" rx="3" ry="3" style="stroke:#038048;stroke-width:1.0;"/><text fill="#000000" font-family="sans-serif" font-size="14" lengthAdjust="spacing" text-decoration="underline" textLength="641" x="27" y="419.8597">fromSigned(signed: SignedTransaction, compression: CompressionType) : PackedTransaction</text><ellipse cx="18" cy="432.557" fill="#84BE84" rx="3" ry="3" style="stroke:#038048;stroke-width:1.0;"/><text fill="#000000" font-family="sans-serif" font-size="14" lengthAdjust="spacing" textLength="300" x="27" y="436.348">getSignedTransaction() : SignedTransaction</text><ellipse cx="18" cy="449.0452" fill="#84BE84" rx="3" ry="3" style="stroke:#038048;stroke-width:1.0;"/><text fill="#000000" font-family="sans-serif" font-size="14" lengthAdjust="spacing" textLength="206" x="27" y="452.8363">getTransaction() : Transaction</text></g><!--class Struct--><g id="elem_Struct"><rect codeLine="24" fill="#FCF2CC" filter="url(#fkvjbu1nktl73)" height="146.9297" id="Struct" style="stroke:#5A0000;stroke-width:2.0;" width="351" x="165" y="7"/><ellipse cx="315.25" cy="23" fill="#ADD1B2" rx="11" ry="11" style="stroke:#181818;stroke-width:1.0;"/><path d="M317.7231,29.1431 Q317.1421,29.4419 316.5029,29.5913 Q315.8638,29.7407 315.1582,29.7407 Q312.6514,29.7407 311.3315,28.0889 Q310.0117,26.437 310.0117,23.3159 Q310.0117,20.1865 311.3315,18.5347 Q312.6514,16.8828 315.1582,16.8828 Q315.8638,16.8828 316.5112,17.0322 Q317.1587,17.1816 317.7231,17.4805 L317.7231,20.2031 Q317.0923,19.6221 316.4988,19.3523 Q315.9053,19.0825 315.2744,19.0825 Q313.9297,19.0825 313.2449,20.1492 Q312.5601,21.2158 312.5601,23.3159 Q312.5601,25.4077 313.2449,26.4744 Q313.9297,27.541 315.2744,27.541 Q315.9053,27.541 316.4988,27.2712 Q317.0923,27.0015 317.7231,26.4204 Z " fill="#000000"/><text fill="#000000" font-family="sans-serif" font-size="14" font-weight="bold" lengthAdjust="spacing" textLength="42" x="335.75" y="28.291">Struct</text><line style="stroke:#5A0000;stroke-width:2.0;" x1="166" x2="515" y1="39" y2="39"/><ellipse cx="176" cy="52.7441" fill="none" rx="3" ry="3" style="stroke:#038048;stroke-width:1.0;"/><text fill="#000000" font-family="sans-serif" font-size="14" font-weight="bold" lengthAdjust="spacing" text-decoration="underline" textLength="55" x="185" y="56.5352">abiBase</text><text fill="#000000" font-family="sans-serif" font-size="14" lengthAdjust="spacing" text-decoration="underline" textLength="191" x="244" y="56.5352">: ABISerializableConstructor</text><ellipse cx="176" cy="69.2324" fill="none" rx="3" ry="3" style="stroke:#038048;stroke-width:1.0;"/><text fill="#000000" font-family="sans-serif" font-size="14" font-weight="bold" lengthAdjust="spacing" text-decoration="underline" textLength="65" x="185" y="73.0234">abiFields</text><text fill="#000000" font-family="sans-serif" font-size="14" lengthAdjust="spacing" text-decoration="underline" textLength="73" x="254" y="73.0234">: ABIField[]</text><ellipse cx="176" cy="85.7207" fill="none" rx="3" ry="3" style="stroke:#038048;stroke-width:1.0;"/><text fill="#000000" font-family="sans-serif" font-size="14" font-weight="bold" lengthAdjust="spacing" text-decoration="underline" textLength="63" x="185" y="89.5117">abiName</text><text fill="#000000" font-family="sans-serif" font-size="14" lengthAdjust="spacing" text-decoration="underline" textLength="48" x="252" y="89.5117">: string</text><line style="stroke:#5A0000;stroke-width:2.0;" x1="166" x2="515" y1="96.4648" y2="96.4648"/><ellipse cx="176" cy="110.209" fill="#84BE84" rx="3" ry="3" style="stroke:#038048;stroke-width:1.0;"/><text fill="#000000" font-family="sans-serif" font-size="14" lengthAdjust="spacing" textLength="192" x="185" y="114">equals(other: any) : boolean</text><ellipse cx="176" cy="126.6973" fill="#84BE84" rx="3" ry="3" style="stroke:#038048;stroke-width:1.0;"/><text fill="#000000" font-family="sans-serif" font-size="14" lengthAdjust="spacing" text-decoration="underline" textLength="325" x="185" y="130.4883">from&lt;T&gt;(this: T, value: any) : InstanceType&lt;T&gt;</text><ellipse cx="176" cy="143.1855" fill="#84BE84" rx="3" ry="3" style="stroke:#038048;stroke-width:1.0;"/><text fill="#000000" font-family="sans-serif" font-size="14" lengthAdjust="spacing" text-decoration="underline" textLength="187" x="185" y="146.9766">from(value: any) : unknown</text></g><!--reverse link Struct to PackedTransaction--><g id="link_Struct_PackedTransaction"><path codeLine="32" d="M340.5,172.37 C340.5,190.86 340.5,193.25 340.5,213.47 " fill="none" id="Struct-backto-PackedTransaction" style="stroke:#181818;stroke-width:1.0;"/><polygon fill="none" points="340.5,154.37,334.5,172.37,346.5,172.37,340.5,154.37" style="stroke:#181818;stroke-width:1.0;"/></g><!--SRC=[pPDDQzj048Rl_XL3JWfEI0WKYZ66s13mfOJAFPLYHgkHjVLgHzaTDL7J_FUkv2_P5e7SiXUn-pxlVEtAhxKjqM41CuFUFx2LM6f3aB191_vOdQ9QhnnNDfsnOGUPokwKEgFOfUGsn1Uy3Qj3VD-udIK7j_tEHQxLsfBtS3V8TKf0HIarP9fCwhid1KdEuUWG9SunvMTjLo2keevmMhauj3v8P6MWcjHmyHWGIXUDW4eqsmju7K1OhrvGj7g3uJYPOAAdw6byaqnW1FVJUKnEez5_CJ4qO-j3OYNiUfqFRGi7Rxl_-QkN_OR5Bak86LfggKPKN9GkZ2UKk0L-pArytUjbsyXIXQka5rbcZcYPek0MdjP2_XGMzz8hUxsoA5L8jvNZtS6sx24zLMXyn9AJ6m7Q-Z9G2RCXj2UDPOwBY9FVf6G4P-DUr2KrtZEX9qfJ1QMHRp-ReeuiLz0PqWXcXytxMOOhahDWqINqfDZpfsINUTizhhXz5f_oHNtm0iUBIIIvzg7HA_Y3fgAzQHvgHQkecN70-cx_s53PjUNdPapx0Ot_NL_t_Ol_0G00]--></g></svg>