<?xml version="1.0" encoding="us-ascii" standalone="no"?><svg xmlns="http://www.w3.org/2000/svg" xmlns:xlink="http://www.w3.org/1999/xlink" contentStyleType="text/css" height="405px" preserveAspectRatio="none" style="width:448px;height:405px;" version="1.1" viewBox="0 0 448 405" width="448px" zoomAndPan="magnify"><defs><filter height="300%" id="f18jmy53w0jolp" width="300%" x="-1" y="-1"><feGaussianBlur result="blurOut" stdDeviation="2.0"/><feColorMatrix in="blurOut" result="blurOut2" type="matrix" values="0 0 0 0 0 0 0 0 0 0 0 0 0 0 0 0 0 0 .4 0"/><feOffset dx="4.0" dy="4.0" in="blurOut2" result="blurOut3"/><feBlend in="SourceGraphic" in2="blurOut3" mode="normal"/></filter></defs><g><!--class PermissionLevel--><g id="elem_PermissionLevel"><rect codeLine="10" fill="#FCF2CC" filter="url(#f18jmy53w0jolp)" height="179.9063" id="PermissionLevel" style="stroke:#5A0000;stroke-width:2.0;" width="429" x="7" y="213.93"/><ellipse cx="158.25" cy="229.93" fill="#ADD1B2" rx="11" ry="11" style="stroke:#181818;stroke-width:1.0;"/><path d="M160.7231,236.0731 Q160.1421,236.3719 159.5029,236.5213 Q158.8638,236.6707 158.1582,236.6707 Q155.6514,236.6707 154.3315,235.0189 Q153.0117,233.367 153.0117,230.2459 Q153.0117,227.1165 154.3315,225.4647 Q155.6514,223.8128 158.1582,223.8128 Q158.8638,223.8128 159.5112,223.9622 Q160.1587,224.1116 160.7231,224.4105 L160.7231,227.1331 Q160.0923,226.5521 159.4988,226.2823 Q158.9053,226.0125 158.2744,226.0125 Q156.9297,226.0125 156.2449,227.0792 Q155.5601,228.1458 155.5601,230.2459 Q155.5601,232.3377 156.2449,233.4044 Q156.9297,234.471 158.2744,234.471 Q158.9053,234.471 159.4988,234.2012 Q160.0923,233.9315 160.7231,233.3504 Z " fill="#000000"/><text fill="#000000" font-family="sans-serif" font-size="14" font-weight="bold" lengthAdjust="spacing" textLength="118" x="178.75" y="235.221">PermissionLevel</text><line style="stroke:#5A0000;stroke-width:2.0;" x1="8" x2="435" y1="245.93" y2="245.93"/><ellipse cx="18" cy="259.6741" fill="none" rx="3" ry="3" style="stroke:#038048;stroke-width:1.0;"/><text fill="#000000" font-family="sans-serif" font-size="14" font-weight="bold" lengthAdjust="spacing" text-decoration="underline" textLength="55" x="27" y="263.4652">abiBase</text><text fill="#000000" font-family="sans-serif" font-size="14" lengthAdjust="spacing" text-decoration="underline" textLength="191" x="86" y="263.4652">: ABISerializableConstructor</text><ellipse cx="18" cy="276.1624" fill="none" rx="3" ry="3" style="stroke:#038048;stroke-width:1.0;"/><text fill="#000000" font-family="sans-serif" font-size="14" font-weight="bold" lengthAdjust="spacing" text-decoration="underline" textLength="65" x="27" y="279.9534">abiFields</text><text fill="#000000" font-family="sans-serif" font-size="14" lengthAdjust="spacing" text-decoration="underline" textLength="73" x="96" y="279.9534">: ABIField[]</text><ellipse cx="18" cy="292.6507" fill="none" rx="3" ry="3" style="stroke:#038048;stroke-width:1.0;"/><text fill="#000000" font-family="sans-serif" font-size="14" font-weight="bold" lengthAdjust="spacing" text-decoration="underline" textLength="63" x="27" y="296.4417">abiName</text><text fill="#000000" font-family="sans-serif" font-size="14" lengthAdjust="spacing" text-decoration="underline" textLength="48" x="94" y="296.4417">: string</text><ellipse cx="18" cy="309.139" fill="none" rx="3" ry="3" style="stroke:#038048;stroke-width:1.0;"/><text fill="#000000" font-family="sans-serif" font-size="14" font-weight="bold" lengthAdjust="spacing" textLength="36" x="27" y="312.93">actor</text><text fill="#000000" font-family="sans-serif" font-size="14" lengthAdjust="spacing" textLength="47" x="67" y="312.93">: Name</text><ellipse cx="18" cy="325.6273" fill="none" rx="3" ry="3" style="stroke:#038048;stroke-width:1.0;"/><text fill="#000000" font-family="sans-serif" font-size="14" font-weight="bold" lengthAdjust="spacing" textLength="81" x="27" y="329.4183">permission</text><text fill="#000000" font-family="sans-serif" font-size="14" lengthAdjust="spacing" textLength="47" x="112" y="329.4183">: Name</text><line style="stroke:#5A0000;stroke-width:2.0;" x1="8" x2="435" y1="336.3714" y2="336.3714"/><ellipse cx="18" cy="350.1155" fill="#84BE84" rx="3" ry="3" style="stroke:#038048;stroke-width:1.0;"/><text fill="#000000" font-family="sans-serif" font-size="14" lengthAdjust="spacing" textLength="363" x="27" y="353.9066">equals(other: string | PermissionLevelType) : boolean</text><ellipse cx="18" cy="366.6038" fill="#84BE84" rx="3" ry="3" style="stroke:#038048;stroke-width:1.0;"/><text fill="#000000" font-family="sans-serif" font-size="14" lengthAdjust="spacing" text-decoration="underline" textLength="403" x="27" y="370.3948">from(value: string | PermissionLevelType) : PermissionLevel</text><ellipse cx="18" cy="383.0921" fill="#84BE84" rx="3" ry="3" style="stroke:#038048;stroke-width:1.0;"/><text fill="#000000" font-family="sans-serif" font-size="14" lengthAdjust="spacing" textLength="117" x="27" y="386.8831">toString() : string</text></g><!--class Struct--><g id="elem_Struct"><rect codeLine="20" fill="#FCF2CC" filter="url(#f18jmy53w0jolp)" height="146.9297" id="Struct" style="stroke:#5A0000;stroke-width:2.0;" width="351" x="46" y="7"/><ellipse cx="196.25" cy="23" fill="#ADD1B2" rx="11" ry="11" style="stroke:#181818;stroke-width:1.0;"/><path d="M198.7231,29.1431 Q198.1421,29.4419 197.5029,29.5913 Q196.8638,29.7407 196.1582,29.7407 Q193.6514,29.7407 192.3315,28.0889 Q191.0117,26.437 191.0117,23.3159 Q191.0117,20.1865 192.3315,18.5347 Q193.6514,16.8828 196.1582,16.8828 Q196.8638,16.8828 197.5112,17.0322 Q198.1587,17.1816 198.7231,17.4805 L198.7231,20.2031 Q198.0923,19.6221 197.4988,19.3523 Q196.9053,19.0825 196.2744,19.0825 Q194.9297,19.0825 194.2449,20.1492 Q193.5601,21.2158 193.5601,23.3159 Q193.5601,25.4077 194.2449,26.4744 Q194.9297,27.541 196.2744,27.541 Q196.9053,27.541 197.4988,27.2712 Q198.0923,27.0015 198.7231,26.4204 Z " fill="#000000"/><text fill="#000000" font-family="sans-serif" font-size="14" font-weight="bold" lengthAdjust="spacing" textLength="42" x="216.75" y="28.291">Struct</text><line style="stroke:#5A0000;stroke-width:2.0;" x1="47" x2="396" y1="39" y2="39"/><ellipse cx="57" cy="52.7441" fill="none" rx="3" ry="3" style="stroke:#038048;stroke-width:1.0;"/><text fill="#000000" font-family="sans-serif" font-size="14" font-weight="bold" lengthAdjust="spacing" text-decoration="underline" textLength="55" x="66" y="56.5352">abiBase</text><text fill="#000000" font-family="sans-serif" font-size="14" lengthAdjust="spacing" text-decoration="underline" textLength="191" x="125" y="56.5352">: ABISerializableConstructor</text><ellipse cx="57" cy="69.2324" fill="none" rx="3" ry="3" style="stroke:#038048;stroke-width:1.0;"/><text fill="#000000" font-family="sans-serif" font-size="14" font-weight="bold" lengthAdjust="spacing" text-decoration="underline" textLength="65" x="66" y="73.0234">abiFields</text><text fill="#000000" font-family="sans-serif" font-size="14" lengthAdjust="spacing" text-decoration="underline" textLength="73" x="135" y="73.0234">: ABIField[]</text><ellipse cx="57" cy="85.7207" fill="none" rx="3" ry="3" style="stroke:#038048;stroke-width:1.0;"/><text fill="#000000" font-family="sans-serif" font-size="14" font-weight="bold" lengthAdjust="spacing" text-decoration="underline" textLength="63" x="66" y="89.5117">abiName</text><text fill="#000000" font-family="sans-serif" font-size="14" lengthAdjust="spacing" text-decoration="underline" textLength="48" x="133" y="89.5117">: string</text><line style="stroke:#5A0000;stroke-width:2.0;" x1="47" x2="396" y1="96.4648" y2="96.4648"/><ellipse cx="57" cy="110.209" fill="#84BE84" rx="3" ry="3" style="stroke:#038048;stroke-width:1.0;"/><text fill="#000000" font-family="sans-serif" font-size="14" lengthAdjust="spacing" textLength="192" x="66" y="114">equals(other: any) : boolean</text><ellipse cx="57" cy="126.6973" fill="#84BE84" rx="3" ry="3" style="stroke:#038048;stroke-width:1.0;"/><text fill="#000000" font-family="sans-serif" font-size="14" lengthAdjust="spacing" text-decoration="underline" textLength="325" x="66" y="130.4883">from&lt;T&gt;(this: T, value: any) : InstanceType&lt;T&gt;</text><ellipse cx="57" cy="143.1855" fill="#84BE84" rx="3" ry="3" style="stroke:#038048;stroke-width:1.0;"/><text fill="#000000" font-family="sans-serif" font-size="14" lengthAdjust="spacing" text-decoration="underline" textLength="187" x="66" y="146.9766">from(value: any) : unknown</text></g><!--reverse link Struct to PermissionLevel--><g id="link_Struct_PermissionLevel"><path codeLine="28" d="M221.5,172.28 C221.5,191.31 221.5,194.04 221.5,213.82 " fill="none" id="Struct-backto-PermissionLevel" style="stroke:#181818;stroke-width:1.0;"/><polygon fill="none" points="221.5,154.28,215.5,172.28,227.5,172.28,221.5,154.28" style="stroke:#181818;stroke-width:1.0;"/></g><!--SRC=[pL9DQy904BtdLmoU8grKX5v4X2e8GYcboQtqCDcCPd6pOtStYbN_UpSnVekzTc-Pzp5l7h4pgUTeC8UXGcj7h5taLeeWOPK6zXmTe9XD3HSw7R9Y0nCnwGXnnMAJajandh7jtmdZOwSscWoqRolZJ8gP9ckX4sGo9Q1yxbOmaQHIUph9oMNiHqUNACEKbr9FmPc2Je3BvCwWjXuYxG9HheR6EvbSMYjPlzA2L0FM0VYtjWwT55juw2LzJEG0BVMUaZvquMKmZiX8LF874qL3rjQl5OxDJUMeEk2ehRu_lsvotp3VR_6U_g2ALO6bVmsLh0CmF-I_GkcxG6L3TXcPlI5iuEBYU3MdfjSbp8fGN-IQ6Cx31Qg2_dQu6Ez2E8ugMTWy7hNTbnzLnVtBpi_BGxswtr4lxeSkaxOByIFKVTMYiS-AMb1PawVTARWM57gcUQbzJOU2UfjMw_fV_GK0]--></g></svg>