<?xml version="1.0" encoding="us-ascii" standalone="no"?><svg xmlns="http://www.w3.org/2000/svg" xmlns:xlink="http://www.w3.org/1999/xlink" contentStyleType="text/css" height="471px" preserveAspectRatio="none" style="width:304px;height:471px;" version="1.1" viewBox="0 0 304 471" width="304px" zoomAndPan="magnify"><defs><filter height="300%" id="f7arl1dgrovy7" width="300%" x="-1" y="-1"><feGaussianBlur result="blurOut" stdDeviation="2.0"/><feColorMatrix in="blurOut" result="blurOut2" type="matrix" values="0 0 0 0 0 0 0 0 0 0 0 0 0 0 0 0 0 0 .4 0"/><feOffset dx="4.0" dy="4.0" in="blurOut2" result="blurOut3"/><feBlend in="SourceGraphic" in2="blurOut3" mode="normal"/></filter></defs><g><!--class PermissionName--><g id="elem_PermissionName"><rect codeLine="10" fill="#FCF2CC" filter="url(#f7arl1dgrovy7)" height="196.3945" id="PermissionName" style="stroke:#5A0000;stroke-width:2.0;" width="285" x="7" y="263.4"/><ellipse cx="84.25" cy="279.4" fill="#ADD1B2" rx="11" ry="11" style="stroke:#181818;stroke-width:1.0;"/><path d="M86.7231,285.5431 Q86.1421,285.8419 85.5029,285.9913 Q84.8638,286.1407 84.1582,286.1407 Q81.6514,286.1407 80.3315,284.4889 Q79.0117,282.837 79.0117,279.7159 Q79.0117,276.5865 80.3315,274.9347 Q81.6514,273.2828 84.1582,273.2828 Q84.8638,273.2828 85.5112,273.4322 Q86.1587,273.5816 86.7231,273.8805 L86.7231,276.6031 Q86.0923,276.0221 85.4988,275.7523 Q84.9053,275.4825 84.2744,275.4825 Q82.9297,275.4825 82.2449,276.5492 Q81.5601,277.6158 81.5601,279.7159 Q81.5601,281.8077 82.2449,282.8744 Q82.9297,283.941 84.2744,283.941 Q84.9053,283.941 85.4988,283.6712 Q86.0923,283.4015 86.7231,282.8204 Z " fill="#000000"/><text fill="#000000" font-family="sans-serif" font-size="14" font-weight="bold" lengthAdjust="spacing" textLength="122" x="104.75" y="284.691">PermissionName</text><line style="stroke:#5A0000;stroke-width:2.0;" x1="8" x2="291" y1="295.4" y2="295.4"/><ellipse cx="18" cy="309.1441" fill="none" rx="3" ry="3" style="stroke:#038048;stroke-width:1.0;"/><text fill="#000000" font-family="sans-serif" font-size="14" font-weight="bold" lengthAdjust="spacing" text-decoration="underline" textLength="63" x="27" y="312.9352">abiName</text><text fill="#000000" font-family="sans-serif" font-size="14" lengthAdjust="spacing" text-decoration="underline" textLength="48" x="94" y="312.9352">: string</text><ellipse cx="18" cy="325.6324" fill="none" rx="3" ry="3" style="stroke:#038048;stroke-width:1.0;"/><text fill="#000000" font-family="sans-serif" font-size="14" font-weight="bold" lengthAdjust="spacing" text-decoration="underline" textLength="52" x="27" y="329.4234">pattern</text><text fill="#000000" font-family="sans-serif" font-size="14" lengthAdjust="spacing" text-decoration="underline" textLength="60" x="83" y="329.4234">: RegExp</text><ellipse cx="18" cy="342.1207" fill="none" rx="3" ry="3" style="stroke:#038048;stroke-width:1.0;"/><text fill="#000000" font-family="sans-serif" font-size="14" font-weight="bold" lengthAdjust="spacing" textLength="38" x="27" y="345.9117">value</text><text fill="#000000" font-family="sans-serif" font-size="14" lengthAdjust="spacing" textLength="54" x="69" y="345.9117">: UInt64</text><line style="stroke:#5A0000;stroke-width:2.0;" x1="8" x2="291" y1="352.8648" y2="352.8648"/><ellipse cx="18" cy="366.609" fill="#84BE84" rx="3" ry="3" style="stroke:#038048;stroke-width:1.0;"/><text fill="#000000" font-family="sans-serif" font-size="14" lengthAdjust="spacing" text-decoration="underline" textLength="131" x="27" y="370.4">abiDefault() : Name</text><ellipse cx="18" cy="383.0973" fill="#84BE84" rx="3" ry="3" style="stroke:#038048;stroke-width:1.0;"/><text fill="#000000" font-family="sans-serif" font-size="14" lengthAdjust="spacing" textLength="240" x="27" y="386.8883">equals(other: NameType) : boolean</text><ellipse cx="18" cy="399.5855" fill="#84BE84" rx="3" ry="3" style="stroke:#038048;stroke-width:1.0;"/><text fill="#000000" font-family="sans-serif" font-size="14" lengthAdjust="spacing" text-decoration="underline" textLength="210" x="27" y="403.3766">from(value: NameType) : Name</text><ellipse cx="18" cy="416.0738" fill="#84BE84" rx="3" ry="3" style="stroke:#038048;stroke-width:1.0;"/><text fill="#000000" font-family="sans-serif" font-size="14" lengthAdjust="spacing" text-decoration="underline" textLength="259" x="27" y="419.8648">fromABI(decoder: ABIDecoder) : Name</text><ellipse cx="18" cy="432.5621" fill="#84BE84" rx="3" ry="3" style="stroke:#038048;stroke-width:1.0;"/><text fill="#000000" font-family="sans-serif" font-size="14" lengthAdjust="spacing" textLength="229" x="27" y="436.3531">toABI(encoder: ABIEncoder) : void</text><ellipse cx="18" cy="449.0504" fill="#84BE84" rx="3" ry="3" style="stroke:#038048;stroke-width:1.0;"/><text fill="#000000" font-family="sans-serif" font-size="14" lengthAdjust="spacing" textLength="117" x="27" y="452.8414">toString() : string</text></g><!--class Name--><g id="elem_Name"><rect codeLine="21" fill="#FCF2CC" filter="url(#f7arl1dgrovy7)" height="196.3945" id="Name" style="stroke:#5A0000;stroke-width:2.0;" width="285" x="7" y="7"/><ellipse cx="124.75" cy="23" fill="#ADD1B2" rx="11" ry="11" style="stroke:#181818;stroke-width:1.0;"/><path d="M127.2231,29.1431 Q126.6421,29.4419 126.0029,29.5913 Q125.3638,29.7407 124.6582,29.7407 Q122.1514,29.7407 120.8315,28.0889 Q119.5117,26.437 119.5117,23.3159 Q119.5117,20.1865 120.8315,18.5347 Q122.1514,16.8828 124.6582,16.8828 Q125.3638,16.8828 126.0112,17.0322 Q126.6587,17.1816 127.2231,17.4805 L127.2231,20.2031 Q126.5923,19.6221 125.9988,19.3523 Q125.4053,19.0825 124.7744,19.0825 Q123.4297,19.0825 122.7449,20.1492 Q122.0601,21.2158 122.0601,23.3159 Q122.0601,25.4077 122.7449,26.4744 Q123.4297,27.541 124.7744,27.541 Q125.4053,27.541 125.9988,27.2712 Q126.5923,27.0015 127.2231,26.4204 Z " fill="#000000"/><text fill="#000000" font-family="sans-serif" font-size="14" font-weight="bold" lengthAdjust="spacing" textLength="41" x="145.25" y="28.291">Name</text><line style="stroke:#5A0000;stroke-width:2.0;" x1="8" x2="291" y1="39" y2="39"/><ellipse cx="18" cy="52.7441" fill="none" rx="3" ry="3" style="stroke:#038048;stroke-width:1.0;"/><text fill="#000000" font-family="sans-serif" font-size="14" font-weight="bold" lengthAdjust="spacing" text-decoration="underline" textLength="63" x="27" y="56.5352">abiName</text><text fill="#000000" font-family="sans-serif" font-size="14" lengthAdjust="spacing" text-decoration="underline" textLength="48" x="94" y="56.5352">: string</text><ellipse cx="18" cy="69.2324" fill="none" rx="3" ry="3" style="stroke:#038048;stroke-width:1.0;"/><text fill="#000000" font-family="sans-serif" font-size="14" font-weight="bold" lengthAdjust="spacing" text-decoration="underline" textLength="52" x="27" y="73.0234">pattern</text><text fill="#000000" font-family="sans-serif" font-size="14" lengthAdjust="spacing" text-decoration="underline" textLength="60" x="83" y="73.0234">: RegExp</text><ellipse cx="18" cy="85.7207" fill="none" rx="3" ry="3" style="stroke:#038048;stroke-width:1.0;"/><text fill="#000000" font-family="sans-serif" font-size="14" font-weight="bold" lengthAdjust="spacing" textLength="38" x="27" y="89.5117">value</text><text fill="#000000" font-family="sans-serif" font-size="14" lengthAdjust="spacing" textLength="54" x="69" y="89.5117">: UInt64</text><line style="stroke:#5A0000;stroke-width:2.0;" x1="8" x2="291" y1="96.4648" y2="96.4648"/><ellipse cx="18" cy="110.209" fill="#84BE84" rx="3" ry="3" style="stroke:#038048;stroke-width:1.0;"/><text fill="#000000" font-family="sans-serif" font-size="14" lengthAdjust="spacing" text-decoration="underline" textLength="131" x="27" y="114">abiDefault() : Name</text><ellipse cx="18" cy="126.6973" fill="#84BE84" rx="3" ry="3" style="stroke:#038048;stroke-width:1.0;"/><text fill="#000000" font-family="sans-serif" font-size="14" lengthAdjust="spacing" textLength="240" x="27" y="130.4883">equals(other: NameType) : boolean</text><ellipse cx="18" cy="143.1855" fill="#84BE84" rx="3" ry="3" style="stroke:#038048;stroke-width:1.0;"/><text fill="#000000" font-family="sans-serif" font-size="14" lengthAdjust="spacing" text-decoration="underline" textLength="210" x="27" y="146.9766">from(value: NameType) : Name</text><ellipse cx="18" cy="159.6738" fill="#84BE84" rx="3" ry="3" style="stroke:#038048;stroke-width:1.0;"/><text fill="#000000" font-family="sans-serif" font-size="14" lengthAdjust="spacing" text-decoration="underline" textLength="259" x="27" y="163.4648">fromABI(decoder: ABIDecoder) : Name</text><ellipse cx="18" cy="176.1621" fill="#84BE84" rx="3" ry="3" style="stroke:#038048;stroke-width:1.0;"/><text fill="#000000" font-family="sans-serif" font-size="14" lengthAdjust="spacing" textLength="229" x="27" y="179.9531">toABI(encoder: ABIEncoder) : void</text><ellipse cx="18" cy="192.6504" fill="#84BE84" rx="3" ry="3" style="stroke:#038048;stroke-width:1.0;"/><text fill="#000000" font-family="sans-serif" font-size="14" lengthAdjust="spacing" textLength="117" x="27" y="196.4414">toString() : string</text></g><!--reverse link Name to PermissionName--><g id="link_Name_PermissionName"><path codeLine="32" d="M149.5,221.83 C149.5,241.3 149.5,243.76 149.5,263.23 " fill="none" id="Name-backto-PermissionName" style="stroke:#181818;stroke-width:1.0;"/><polygon fill="none" points="149.5,203.83,143.5,221.83,155.5,221.83,149.5,203.83" style="stroke:#181818;stroke-width:1.0;"/></g><!--SRC=[xPBDRi8m48JlUGgBKweA5Q6sXmeXbPzANAeAw0Dix0snSBoflQ55b7UlG_WBzDfRVKfslfrnHl5BRGjma8kX0UzVoFACrmP5GaP5lgaEG2uNZaghXcJ8YLIcNIclA78ANKqyG2USCs9QRpkBJdH-tvndMYujUY-wKQOL2imBNejKer7-V98ZPnH69vTP1ee-jLq8TYMU2PStPmVM1majHxAA5gqtTBdsNfDzXHnROXE9S3QUWRNSYjjUqeT4LrhlBkcB9-7PXQHhgW1cT7PFJN4n_YfsL2Mkm9G7W_U9vSVx2uEGCS8KIiFnJM2gl7ePFqemFYREqDNp-Rh0Yac838AzC4eTvV4khaaV7Pleys0IAvIaAlVmCggVctTWgZ2q9sniZzYAj3fWirqtko_OrxGzzFpVxf-qk- -rzzrkN_tBFm00]--></g></svg>