<?xml version="1.0" encoding="us-ascii" standalone="no"?><svg xmlns="http://www.w3.org/2000/svg" xmlns:xlink="http://www.w3.org/1999/xlink" contentStyleType="text/css" height="521px" preserveAspectRatio="none" style="width:424px;height:521px;" version="1.1" viewBox="0 0 424 521" width="424px" zoomAndPan="magnify"><defs><filter height="300%" id="f15tx9ntrq5esf" width="300%" x="-1" y="-1"><feGaussianBlur result="blurOut" stdDeviation="2.0"/><feColorMatrix in="blurOut" result="blurOut2" type="matrix" values="0 0 0 0 0 0 0 0 0 0 0 0 0 0 0 0 0 0 .4 0"/><feOffset dx="4.0" dy="4.0" in="blurOut2" result="blurOut3"/><feBlend in="SourceGraphic" in2="blurOut3" mode="normal"/></filter></defs><g><!--class RAMState--><g id="elem_RAMState"><rect codeLine="10" fill="#FCF2CC" filter="url(#f15tx9ntrq5esf)" height="245.8594" id="RAMState" style="stroke:#5A0000;stroke-width:2.0;" width="405" x="7" y="263.39"/><ellipse cx="170.75" cy="279.39" fill="#ADD1B2" rx="11" ry="11" style="stroke:#181818;stroke-width:1.0;"/><path d="M173.2231,285.5331 Q172.6421,285.8319 172.0029,285.9813 Q171.3638,286.1307 170.6582,286.1307 Q168.1514,286.1307 166.8315,284.4789 Q165.5117,282.827 165.5117,279.7059 Q165.5117,276.5765 166.8315,274.9247 Q168.1514,273.2728 170.6582,273.2728 Q171.3638,273.2728 172.0112,273.4222 Q172.6587,273.5716 173.2231,273.8705 L173.2231,276.5931 Q172.5923,276.0121 171.9988,275.7423 Q171.4053,275.4725 170.7744,275.4725 Q169.4297,275.4725 168.7449,276.5392 Q168.0601,277.6058 168.0601,279.7059 Q168.0601,281.7977 168.7449,282.8644 Q169.4297,283.931 170.7744,283.931 Q171.4053,283.931 171.9988,283.6612 Q172.5923,283.3915 173.2231,282.8104 Z " fill="#000000"/><text fill="#000000" font-family="sans-serif" font-size="14" font-weight="bold" lengthAdjust="spacing" textLength="69" x="191.25" y="284.681">RAMState</text><line style="stroke:#5A0000;stroke-width:2.0;" x1="8" x2="411" y1="295.39" y2="295.39"/><ellipse cx="18" cy="309.1341" fill="none" rx="3" ry="3" style="stroke:#038048;stroke-width:1.0;"/><text fill="#000000" font-family="sans-serif" font-size="14" font-weight="bold" lengthAdjust="spacing" text-decoration="underline" textLength="55" x="27" y="312.9252">abiBase</text><text fill="#000000" font-family="sans-serif" font-size="14" lengthAdjust="spacing" text-decoration="underline" textLength="191" x="86" y="312.9252">: ABISerializableConstructor</text><ellipse cx="18" cy="325.6224" fill="none" rx="3" ry="3" style="stroke:#038048;stroke-width:1.0;"/><text fill="#000000" font-family="sans-serif" font-size="14" font-weight="bold" lengthAdjust="spacing" text-decoration="underline" textLength="65" x="27" y="329.4134">abiFields</text><text fill="#000000" font-family="sans-serif" font-size="14" lengthAdjust="spacing" text-decoration="underline" textLength="73" x="96" y="329.4134">: ABIField[]</text><ellipse cx="18" cy="342.1107" fill="none" rx="3" ry="3" style="stroke:#038048;stroke-width:1.0;"/><text fill="#000000" font-family="sans-serif" font-size="14" font-weight="bold" lengthAdjust="spacing" text-decoration="underline" textLength="63" x="27" y="345.9017">abiName</text><text fill="#000000" font-family="sans-serif" font-size="14" lengthAdjust="spacing" text-decoration="underline" textLength="48" x="94" y="345.9017">: string</text><ellipse cx="18" cy="358.599" fill="none" rx="3" ry="3" style="stroke:#038048;stroke-width:1.0;"/><text fill="#000000" font-family="sans-serif" font-size="14" font-weight="bold" lengthAdjust="spacing" textLength="33" x="27" y="362.39">base</text><text fill="#000000" font-family="sans-serif" font-size="14" lengthAdjust="spacing" textLength="80" x="64" y="362.39">: Connector</text><ellipse cx="18" cy="375.0873" fill="none" rx="3" ry="3" style="stroke:#038048;stroke-width:1.0;"/><text fill="#000000" font-family="sans-serif" font-size="14" font-weight="bold" lengthAdjust="spacing" textLength="41" x="27" y="378.8783">quote</text><text fill="#000000" font-family="sans-serif" font-size="14" lengthAdjust="spacing" textLength="80" x="72" y="378.8783">: Connector</text><ellipse cx="18" cy="391.5755" fill="none" rx="3" ry="3" style="stroke:#038048;stroke-width:1.0;"/><text fill="#000000" font-family="sans-serif" font-size="14" font-weight="bold" lengthAdjust="spacing" textLength="48" x="27" y="395.3666">supply</text><text fill="#000000" font-family="sans-serif" font-size="14" lengthAdjust="spacing" textLength="45" x="79" y="395.3666">: Asset</text><line style="stroke:#5A0000;stroke-width:2.0;" x1="8" x2="411" y1="402.3197" y2="402.3197"/><ellipse cx="18" cy="416.0638" fill="#84BE84" rx="3" ry="3" style="stroke:#038048;stroke-width:1.0;"/><text fill="#000000" font-family="sans-serif" font-size="14" lengthAdjust="spacing" textLength="192" x="27" y="419.8548">equals(other: any) : boolean</text><ellipse cx="18" cy="432.5521" fill="#84BE84" rx="3" ry="3" style="stroke:#038048;stroke-width:1.0;"/><text fill="#000000" font-family="sans-serif" font-size="14" lengthAdjust="spacing" text-decoration="underline" textLength="325" x="27" y="436.3431">from&lt;T&gt;(this: T, value: any) : InstanceType&lt;T&gt;</text><ellipse cx="18" cy="449.0404" fill="#84BE84" rx="3" ry="3" style="stroke:#038048;stroke-width:1.0;"/><text fill="#000000" font-family="sans-serif" font-size="14" lengthAdjust="spacing" text-decoration="underline" textLength="187" x="27" y="452.8314">from(value: any) : unknown</text><ellipse cx="18" cy="465.5287" fill="#84BE84" rx="3" ry="3" style="stroke:#038048;stroke-width:1.0;"/><text fill="#000000" font-family="sans-serif" font-size="14" lengthAdjust="spacing" textLength="379" x="27" y="469.3197">get_input(base: Int64, quote: Int64, value: Int64) : Int64</text><ellipse cx="18" cy="482.017" fill="#84BE84" rx="3" ry="3" style="stroke:#038048;stroke-width:1.0;"/><text fill="#000000" font-family="sans-serif" font-size="14" lengthAdjust="spacing" textLength="221" x="27" y="485.808">price_per(bytes: number) : Asset</text><ellipse cx="18" cy="498.5052" fill="#84BE84" rx="3" ry="3" style="stroke:#038048;stroke-width:1.0;"/><text fill="#000000" font-family="sans-serif" font-size="14" lengthAdjust="spacing" textLength="270" x="27" y="502.2963">price_per_kb(kilobytes: number) : Asset</text></g><!--class ExchangeState--><g id="elem_ExchangeState"><rect codeLine="24" fill="#FCF2CC" filter="url(#f15tx9ntrq5esf)" height="196.3945" id="ExchangeState" style="stroke:#5A0000;stroke-width:2.0;" width="351" x="34" y="7"/><ellipse cx="154.25" cy="23" fill="#ADD1B2" rx="11" ry="11" style="stroke:#181818;stroke-width:1.0;"/><path d="M156.7231,29.1431 Q156.1421,29.4419 155.5029,29.5913 Q154.8638,29.7407 154.1582,29.7407 Q151.6514,29.7407 150.3315,28.0889 Q149.0117,26.437 149.0117,23.3159 Q149.0117,20.1865 150.3315,18.5347 Q151.6514,16.8828 154.1582,16.8828 Q154.8638,16.8828 155.5112,17.0322 Q156.1587,17.1816 156.7231,17.4805 L156.7231,20.2031 Q156.0923,19.6221 155.4988,19.3523 Q154.9053,19.0825 154.2744,19.0825 Q152.9297,19.0825 152.2449,20.1492 Q151.5601,21.2158 151.5601,23.3159 Q151.5601,25.4077 152.2449,26.4744 Q152.9297,27.541 154.2744,27.541 Q154.9053,27.541 155.4988,27.2712 Q156.0923,27.0015 156.7231,26.4204 Z " fill="#000000"/><text fill="#000000" font-family="sans-serif" font-size="14" font-weight="bold" lengthAdjust="spacing" textLength="102" x="174.75" y="28.291">ExchangeState</text><line style="stroke:#5A0000;stroke-width:2.0;" x1="35" x2="384" y1="39" y2="39"/><ellipse cx="45" cy="52.7441" fill="none" rx="3" ry="3" style="stroke:#038048;stroke-width:1.0;"/><text fill="#000000" font-family="sans-serif" font-size="14" font-weight="bold" lengthAdjust="spacing" text-decoration="underline" textLength="55" x="54" y="56.5352">abiBase</text><text fill="#000000" font-family="sans-serif" font-size="14" lengthAdjust="spacing" text-decoration="underline" textLength="191" x="113" y="56.5352">: ABISerializableConstructor</text><ellipse cx="45" cy="69.2324" fill="none" rx="3" ry="3" style="stroke:#038048;stroke-width:1.0;"/><text fill="#000000" font-family="sans-serif" font-size="14" font-weight="bold" lengthAdjust="spacing" text-decoration="underline" textLength="65" x="54" y="73.0234">abiFields</text><text fill="#000000" font-family="sans-serif" font-size="14" lengthAdjust="spacing" text-decoration="underline" textLength="73" x="123" y="73.0234">: ABIField[]</text><ellipse cx="45" cy="85.7207" fill="none" rx="3" ry="3" style="stroke:#038048;stroke-width:1.0;"/><text fill="#000000" font-family="sans-serif" font-size="14" font-weight="bold" lengthAdjust="spacing" text-decoration="underline" textLength="63" x="54" y="89.5117">abiName</text><text fill="#000000" font-family="sans-serif" font-size="14" lengthAdjust="spacing" text-decoration="underline" textLength="48" x="121" y="89.5117">: string</text><ellipse cx="45" cy="102.209" fill="none" rx="3" ry="3" style="stroke:#038048;stroke-width:1.0;"/><text fill="#000000" font-family="sans-serif" font-size="14" font-weight="bold" lengthAdjust="spacing" textLength="33" x="54" y="106">base</text><text fill="#000000" font-family="sans-serif" font-size="14" lengthAdjust="spacing" textLength="80" x="91" y="106">: Connector</text><ellipse cx="45" cy="118.6973" fill="none" rx="3" ry="3" style="stroke:#038048;stroke-width:1.0;"/><text fill="#000000" font-family="sans-serif" font-size="14" font-weight="bold" lengthAdjust="spacing" textLength="41" x="54" y="122.4883">quote</text><text fill="#000000" font-family="sans-serif" font-size="14" lengthAdjust="spacing" textLength="80" x="99" y="122.4883">: Connector</text><ellipse cx="45" cy="135.1855" fill="none" rx="3" ry="3" style="stroke:#038048;stroke-width:1.0;"/><text fill="#000000" font-family="sans-serif" font-size="14" font-weight="bold" lengthAdjust="spacing" textLength="48" x="54" y="138.9766">supply</text><text fill="#000000" font-family="sans-serif" font-size="14" lengthAdjust="spacing" textLength="45" x="106" y="138.9766">: Asset</text><line style="stroke:#5A0000;stroke-width:2.0;" x1="35" x2="384" y1="145.9297" y2="145.9297"/><ellipse cx="45" cy="159.6738" fill="#84BE84" rx="3" ry="3" style="stroke:#038048;stroke-width:1.0;"/><text fill="#000000" font-family="sans-serif" font-size="14" lengthAdjust="spacing" textLength="192" x="54" y="163.4648">equals(other: any) : boolean</text><ellipse cx="45" cy="176.1621" fill="#84BE84" rx="3" ry="3" style="stroke:#038048;stroke-width:1.0;"/><text fill="#000000" font-family="sans-serif" font-size="14" lengthAdjust="spacing" text-decoration="underline" textLength="325" x="54" y="179.9531">from&lt;T&gt;(this: T, value: any) : InstanceType&lt;T&gt;</text><ellipse cx="45" cy="192.6504" fill="#84BE84" rx="3" ry="3" style="stroke:#038048;stroke-width:1.0;"/><text fill="#000000" font-family="sans-serif" font-size="14" lengthAdjust="spacing" text-decoration="underline" textLength="187" x="54" y="196.4414">from(value: any) : unknown</text></g><!--reverse link ExchangeState to RAMState--><g id="link_ExchangeState_RAMState"><path codeLine="35" d="M209.5,221.82 C209.5,241 209.5,243.34 209.5,263.21 " fill="none" id="ExchangeState-backto-RAMState" style="stroke:#181818;stroke-width:1.0;"/><polygon fill="none" points="209.5,203.82,203.5,221.82,215.5,221.82,209.5,203.82" style="stroke:#181818;stroke-width:1.0;"/></g><!--SRC=[xLDDRzim3BtxLn0zkMYB5SMsGn04Q88Lw64xDBaDGq39J2nO5bs9MkTr-U-JxULpwNMdwIJglST7IbIeZ6lGOmqpYo4yi9Evj9P0iIsoS8nEKLThpz4LCxRiOQLNTrh_nM9Va1yO7_0shGF6qw3sZZpSdbSkIgChHo70NLQQWe3gHbfO6R95E3ofIKfEH_iiyn8BVZ5k3U8Z7G2dbOj75n94JZBTMSF5q_tdkQ3G1RncaDPhI97H6xWQgmagCyL0utTg0YEudpxEoHkqvYSgIpDs8VbfONzM-T1NljVsyTTlPxbViDwwf9ofavxLWMhldmmTxUmwy3col8s6s3IstHOG0ia0qND46tAMalm8qBMN2LVCbj2TLBVoN8yNarnA4qQmk8RlQ2FjH8_f1j1fMhGD9TePSNuiYAvo_3AuNAr9bkcbekHTarqs-VZ-6lgcTj4VVHyDbcapw1jlD2qRyhbgXL9zBjQA_ELnjplMib9vPIo_GTvi9-BJ3rsYMzF_iVZdOx79Jcz__Elcvk2J_WO0]--></g></svg>