<?xml version="1.0" encoding="us-ascii" standalone="no"?><svg xmlns="http://www.w3.org/2000/svg" xmlns:xlink="http://www.w3.org/1999/xlink" contentStyleType="text/css" height="669px" preserveAspectRatio="none" style="width:440px;height:669px;" version="1.1" viewBox="0 0 440 669" width="440px" zoomAndPan="magnify"><defs><filter height="300%" id="f1m6jcb0hujfuo" width="300%" x="-1" y="-1"><feGaussianBlur result="blurOut" stdDeviation="2.0"/><feColorMatrix in="blurOut" result="blurOut2" type="matrix" values="0 0 0 0 0 0 0 0 0 0 0 0 0 0 0 0 0 0 .4 0"/><feOffset dx="4.0" dy="4.0" in="blurOut2" result="blurOut3"/><feBlend in="SourceGraphic" in2="blurOut3" mode="normal"/></filter></defs><g><!--class ResourceUsageStats--><g id="elem_ResourceUsageStats"><rect codeLine="10" fill="#FCF2CC" filter="url(#f1m6jcb0hujfuo)" height="443.7188" id="ResourceUsageStats" style="stroke:#5A0000;stroke-width:2.0;" width="421" x="7" y="213.93"/><ellipse cx="141.25" cy="229.93" fill="#ADD1B2" rx="11" ry="11" style="stroke:#181818;stroke-width:1.0;"/><path d="M143.7231,236.0731 Q143.1421,236.3719 142.5029,236.5213 Q141.8638,236.6707 141.1582,236.6707 Q138.6514,236.6707 137.3315,235.0189 Q136.0117,233.367 136.0117,230.2459 Q136.0117,227.1165 137.3315,225.4647 Q138.6514,223.8128 141.1582,223.8128 Q141.8638,223.8128 142.5112,223.9622 Q143.1587,224.1116 143.7231,224.4105 L143.7231,227.1331 Q143.0923,226.5521 142.4988,226.2823 Q141.9053,226.0125 141.2744,226.0125 Q139.9297,226.0125 139.2449,227.0792 Q138.5601,228.1458 138.5601,230.2459 Q138.5601,232.3377 139.2449,233.4044 Q139.9297,234.471 141.2744,234.471 Q141.9053,234.471 142.4988,234.2012 Q143.0923,233.9315 143.7231,233.3504 Z " fill="#000000"/><text fill="#000000" font-family="sans-serif" font-size="14" font-weight="bold" lengthAdjust="spacing" textLength="144" x="161.75" y="235.221">ResourceUsageStats</text><line style="stroke:#5A0000;stroke-width:2.0;" x1="8" x2="427" y1="245.93" y2="245.93"/><ellipse cx="18" cy="259.6741" fill="none" rx="3" ry="3" style="stroke:#038048;stroke-width:1.0;"/><text fill="#000000" font-family="sans-serif" font-size="14" font-weight="bold" lengthAdjust="spacing" text-decoration="underline" textLength="55" x="27" y="263.4652">abiBase</text><text fill="#000000" font-family="sans-serif" font-size="14" lengthAdjust="spacing" text-decoration="underline" textLength="191" x="86" y="263.4652">: ABISerializableConstructor</text><ellipse cx="18" cy="276.1624" fill="none" rx="3" ry="3" style="stroke:#038048;stroke-width:1.0;"/><text fill="#000000" font-family="sans-serif" font-size="14" font-weight="bold" lengthAdjust="spacing" text-decoration="underline" textLength="65" x="27" y="279.9534">abiFields</text><text fill="#000000" font-family="sans-serif" font-size="14" lengthAdjust="spacing" text-decoration="underline" textLength="73" x="96" y="279.9534">: ABIField[]</text><ellipse cx="18" cy="292.6507" fill="none" rx="3" ry="3" style="stroke:#038048;stroke-width:1.0;"/><text fill="#000000" font-family="sans-serif" font-size="14" font-weight="bold" lengthAdjust="spacing" text-decoration="underline" textLength="63" x="27" y="296.4417">abiName</text><text fill="#000000" font-family="sans-serif" font-size="14" lengthAdjust="spacing" text-decoration="underline" textLength="48" x="94" y="296.4417">: string</text><ellipse cx="18" cy="309.139" fill="none" rx="3" ry="3" style="stroke:#038048;stroke-width:1.0;"/><text fill="#000000" font-family="sans-serif" font-size="14" font-weight="bold" lengthAdjust="spacing" textLength="25" x="27" y="312.93">avg</text><text fill="#000000" font-family="sans-serif" font-size="14" lengthAdjust="spacing" textLength="101" x="56" y="312.93">: null | number</text><ellipse cx="18" cy="325.6273" fill="none" rx="3" ry="3" style="stroke:#038048;stroke-width:1.0;"/><text fill="#000000" font-family="sans-serif" font-size="14" font-weight="bold" lengthAdjust="spacing" textLength="40" x="27" y="329.4183">count</text><text fill="#000000" font-family="sans-serif" font-size="14" lengthAdjust="spacing" textLength="62" x="71" y="329.4183">: number</text><ellipse cx="18" cy="342.1155" fill="none" rx="3" ry="3" style="stroke:#038048;stroke-width:1.0;"/><text fill="#000000" font-family="sans-serif" font-size="14" font-weight="bold" lengthAdjust="spacing" textLength="30" x="27" y="345.9066">max</text><text fill="#000000" font-family="sans-serif" font-size="14" lengthAdjust="spacing" textLength="101" x="61" y="345.9066">: null | number</text><ellipse cx="18" cy="358.6038" fill="none" rx="3" ry="3" style="stroke:#038048;stroke-width:1.0;"/><text fill="#000000" font-family="sans-serif" font-size="14" font-weight="bold" lengthAdjust="spacing" textLength="28" x="27" y="362.3948">min</text><text fill="#000000" font-family="sans-serif" font-size="14" lengthAdjust="spacing" textLength="101" x="59" y="362.3948">: null | number</text><ellipse cx="18" cy="375.0921" fill="none" rx="3" ry="3" style="stroke:#038048;stroke-width:1.0;"/><text fill="#000000" font-family="sans-serif" font-size="14" font-weight="bold" lengthAdjust="spacing" textLength="97" x="27" y="378.8831">std_deviation</text><text fill="#000000" font-family="sans-serif" font-size="14" lengthAdjust="spacing" textLength="101" x="128" y="378.8831">: null | number</text><ellipse cx="18" cy="391.5804" fill="none" rx="3" ry="3" style="stroke:#038048;stroke-width:1.0;"/><text fill="#000000" font-family="sans-serif" font-size="14" font-weight="bold" lengthAdjust="spacing" textLength="204" x="27" y="395.3714">std_deviation_bounds_lower</text><text fill="#000000" font-family="sans-serif" font-size="14" lengthAdjust="spacing" textLength="101" x="235" y="395.3714">: null | number</text><ellipse cx="18" cy="408.0687" fill="none" rx="3" ry="3" style="stroke:#038048;stroke-width:1.0;"/><text fill="#000000" font-family="sans-serif" font-size="14" font-weight="bold" lengthAdjust="spacing" textLength="289" x="27" y="411.8597">std_deviation_bounds_lower_population</text><text fill="#000000" font-family="sans-serif" font-size="14" lengthAdjust="spacing" textLength="101" x="320" y="411.8597">: null | number</text><ellipse cx="18" cy="424.557" fill="none" rx="3" ry="3" style="stroke:#038048;stroke-width:1.0;"/><text fill="#000000" font-family="sans-serif" font-size="14" font-weight="bold" lengthAdjust="spacing" textLength="278" x="27" y="428.348">std_deviation_bounds_lower_sampling</text><text fill="#000000" font-family="sans-serif" font-size="14" lengthAdjust="spacing" textLength="101" x="309" y="428.348">: null | number</text><ellipse cx="18" cy="441.0452" fill="none" rx="3" ry="3" style="stroke:#038048;stroke-width:1.0;"/><text fill="#000000" font-family="sans-serif" font-size="14" font-weight="bold" lengthAdjust="spacing" textLength="205" x="27" y="444.8362">std_deviation_bounds_upper</text><text fill="#000000" font-family="sans-serif" font-size="14" lengthAdjust="spacing" textLength="101" x="236" y="444.8362">: null | number</text><ellipse cx="18" cy="457.5335" fill="none" rx="3" ry="3" style="stroke:#038048;stroke-width:1.0;"/><text fill="#000000" font-family="sans-serif" font-size="14" font-weight="bold" lengthAdjust="spacing" textLength="290" x="27" y="461.3245">std_deviation_bounds_upper_population</text><text fill="#000000" font-family="sans-serif" font-size="14" lengthAdjust="spacing" textLength="101" x="321" y="461.3245">: null | number</text><ellipse cx="18" cy="474.0218" fill="none" rx="3" ry="3" style="stroke:#038048;stroke-width:1.0;"/><text fill="#000000" font-family="sans-serif" font-size="14" font-weight="bold" lengthAdjust="spacing" textLength="279" x="27" y="477.8128">std_deviation_bounds_upper_sampling</text><text fill="#000000" font-family="sans-serif" font-size="14" lengthAdjust="spacing" textLength="101" x="310" y="477.8128">: null | number</text><ellipse cx="18" cy="490.5101" fill="none" rx="3" ry="3" style="stroke:#038048;stroke-width:1.0;"/><text fill="#000000" font-family="sans-serif" font-size="14" font-weight="bold" lengthAdjust="spacing" textLength="182" x="27" y="494.3011">std_deviation_population</text><text fill="#000000" font-family="sans-serif" font-size="14" lengthAdjust="spacing" textLength="101" x="213" y="494.3011">: null | number</text><ellipse cx="18" cy="506.9984" fill="none" rx="3" ry="3" style="stroke:#038048;stroke-width:1.0;"/><text fill="#000000" font-family="sans-serif" font-size="14" font-weight="bold" lengthAdjust="spacing" textLength="171" x="27" y="510.7894">std_deviation_sampling</text><text fill="#000000" font-family="sans-serif" font-size="14" lengthAdjust="spacing" textLength="101" x="202" y="510.7894">: null | number</text><ellipse cx="18" cy="523.4866" fill="none" rx="3" ry="3" style="stroke:#038048;stroke-width:1.0;"/><text fill="#000000" font-family="sans-serif" font-size="14" font-weight="bold" lengthAdjust="spacing" textLength="31" x="27" y="527.2777">sum</text><text fill="#000000" font-family="sans-serif" font-size="14" lengthAdjust="spacing" textLength="62" x="62" y="527.2777">: number</text><ellipse cx="18" cy="539.9749" fill="none" rx="3" ry="3" style="stroke:#038048;stroke-width:1.0;"/><text fill="#000000" font-family="sans-serif" font-size="14" font-weight="bold" lengthAdjust="spacing" textLength="116" x="27" y="543.7659">sum_of_squares</text><text fill="#000000" font-family="sans-serif" font-size="14" lengthAdjust="spacing" textLength="101" x="147" y="543.7659">: null | number</text><ellipse cx="18" cy="556.4632" fill="none" rx="3" ry="3" style="stroke:#038048;stroke-width:1.0;"/><text fill="#000000" font-family="sans-serif" font-size="14" font-weight="bold" lengthAdjust="spacing" textLength="59" x="27" y="560.2542">variance</text><text fill="#000000" font-family="sans-serif" font-size="14" lengthAdjust="spacing" textLength="101" x="90" y="560.2542">: null | number</text><ellipse cx="18" cy="572.9515" fill="none" rx="3" ry="3" style="stroke:#038048;stroke-width:1.0;"/><text fill="#000000" font-family="sans-serif" font-size="14" font-weight="bold" lengthAdjust="spacing" textLength="144" x="27" y="576.7425">variance_population</text><text fill="#000000" font-family="sans-serif" font-size="14" lengthAdjust="spacing" textLength="101" x="175" y="576.7425">: null | number</text><ellipse cx="18" cy="589.4398" fill="none" rx="3" ry="3" style="stroke:#038048;stroke-width:1.0;"/><text fill="#000000" font-family="sans-serif" font-size="14" font-weight="bold" lengthAdjust="spacing" textLength="133" x="27" y="593.2308">variance_sampling</text><text fill="#000000" font-family="sans-serif" font-size="14" lengthAdjust="spacing" textLength="101" x="164" y="593.2308">: null | number</text><line style="stroke:#5A0000;stroke-width:2.0;" x1="8" x2="427" y1="600.1839" y2="600.1839"/><ellipse cx="18" cy="613.928" fill="#84BE84" rx="3" ry="3" style="stroke:#038048;stroke-width:1.0;"/><text fill="#000000" font-family="sans-serif" font-size="14" lengthAdjust="spacing" textLength="192" x="27" y="617.7191">equals(other: any) : boolean</text><ellipse cx="18" cy="630.4163" fill="#84BE84" rx="3" ry="3" style="stroke:#038048;stroke-width:1.0;"/><text fill="#000000" font-family="sans-serif" font-size="14" lengthAdjust="spacing" text-decoration="underline" textLength="325" x="27" y="634.2073">from&lt;T&gt;(this: T, value: any) : InstanceType&lt;T&gt;</text><ellipse cx="18" cy="646.9046" fill="#84BE84" rx="3" ry="3" style="stroke:#038048;stroke-width:1.0;"/><text fill="#000000" font-family="sans-serif" font-size="14" lengthAdjust="spacing" text-decoration="underline" textLength="187" x="27" y="650.6956">from(value: any) : unknown</text></g><!--class Struct--><g id="elem_Struct"><rect codeLine="36" fill="#FCF2CC" filter="url(#f1m6jcb0hujfuo)" height="146.9297" id="Struct" style="stroke:#5A0000;stroke-width:2.0;" width="351" x="42" y="7"/><ellipse cx="192.25" cy="23" fill="#ADD1B2" rx="11" ry="11" style="stroke:#181818;stroke-width:1.0;"/><path d="M194.7231,29.1431 Q194.1421,29.4419 193.5029,29.5913 Q192.8638,29.7407 192.1582,29.7407 Q189.6514,29.7407 188.3315,28.0889 Q187.0117,26.437 187.0117,23.3159 Q187.0117,20.1865 188.3315,18.5347 Q189.6514,16.8828 192.1582,16.8828 Q192.8638,16.8828 193.5112,17.0322 Q194.1587,17.1816 194.7231,17.4805 L194.7231,20.2031 Q194.0923,19.6221 193.4988,19.3523 Q192.9053,19.0825 192.2744,19.0825 Q190.9297,19.0825 190.2449,20.1492 Q189.5601,21.2158 189.5601,23.3159 Q189.5601,25.4077 190.2449,26.4744 Q190.9297,27.541 192.2744,27.541 Q192.9053,27.541 193.4988,27.2712 Q194.0923,27.0015 194.7231,26.4204 Z " fill="#000000"/><text fill="#000000" font-family="sans-serif" font-size="14" font-weight="bold" lengthAdjust="spacing" textLength="42" x="212.75" y="28.291">Struct</text><line style="stroke:#5A0000;stroke-width:2.0;" x1="43" x2="392" y1="39" y2="39"/><ellipse cx="53" cy="52.7441" fill="none" rx="3" ry="3" style="stroke:#038048;stroke-width:1.0;"/><text fill="#000000" font-family="sans-serif" font-size="14" font-weight="bold" lengthAdjust="spacing" text-decoration="underline" textLength="55" x="62" y="56.5352">abiBase</text><text fill="#000000" font-family="sans-serif" font-size="14" lengthAdjust="spacing" text-decoration="underline" textLength="191" x="121" y="56.5352">: ABISerializableConstructor</text><ellipse cx="53" cy="69.2324" fill="none" rx="3" ry="3" style="stroke:#038048;stroke-width:1.0;"/><text fill="#000000" font-family="sans-serif" font-size="14" font-weight="bold" lengthAdjust="spacing" text-decoration="underline" textLength="65" x="62" y="73.0234">abiFields</text><text fill="#000000" font-family="sans-serif" font-size="14" lengthAdjust="spacing" text-decoration="underline" textLength="73" x="131" y="73.0234">: ABIField[]</text><ellipse cx="53" cy="85.7207" fill="none" rx="3" ry="3" style="stroke:#038048;stroke-width:1.0;"/><text fill="#000000" font-family="sans-serif" font-size="14" font-weight="bold" lengthAdjust="spacing" text-decoration="underline" textLength="63" x="62" y="89.5117">abiName</text><text fill="#000000" font-family="sans-serif" font-size="14" lengthAdjust="spacing" text-decoration="underline" textLength="48" x="129" y="89.5117">: string</text><line style="stroke:#5A0000;stroke-width:2.0;" x1="43" x2="392" y1="96.4648" y2="96.4648"/><ellipse cx="53" cy="110.209" fill="#84BE84" rx="3" ry="3" style="stroke:#038048;stroke-width:1.0;"/><text fill="#000000" font-family="sans-serif" font-size="14" lengthAdjust="spacing" textLength="192" x="62" y="114">equals(other: any) : boolean</text><ellipse cx="53" cy="126.6973" fill="#84BE84" rx="3" ry="3" style="stroke:#038048;stroke-width:1.0;"/><text fill="#000000" font-family="sans-serif" font-size="14" lengthAdjust="spacing" text-decoration="underline" textLength="325" x="62" y="130.4883">from&lt;T&gt;(this: T, value: any) : InstanceType&lt;T&gt;</text><ellipse cx="53" cy="143.1855" fill="#84BE84" rx="3" ry="3" style="stroke:#038048;stroke-width:1.0;"/><text fill="#000000" font-family="sans-serif" font-size="14" lengthAdjust="spacing" text-decoration="underline" textLength="187" x="62" y="146.9766">from(value: any) : unknown</text></g><!--reverse link Struct to ResourceUsageStats--><g id="link_Struct_ResourceUsageStats"><path codeLine="44" d="M217.5,172.25 C217.5,190.23 217.5,192.43 217.5,213.55 " fill="none" id="Struct-backto-ResourceUsageStats" style="stroke:#181818;stroke-width:1.0;"/><polygon fill="none" points="217.5,154.25,211.5,172.25,223.5,172.25,217.5,154.25" style="stroke:#181818;stroke-width:1.0;"/></g><!--SRC=[pLJ1Rjim3BtxAuIUCcn5YmAx14609a21NdgeizCm6BHCnq9aqHEbP5dRVn_Zh6xI6LcQNggB8Rtt-4Z292-CQy13hQOMc6_8XJIiBQgSR97mFZe1lPXxYgwOaYMlIbrUQVqFYto1Vilu2fToTXZtMxLtwDLblt9M6RrmoAokaieKgB1kmbgL1ct1koyrXehawILAMa51A-FcAlY8Ey3hp8C7nmAX2udUMAkpUsIANkCtXZcc0GAVgOT4oNbWkHdzf3wFyZ7aPWACeujyh8RgUdAReZTWpM_8BKx9iJZhGBvNUTFMyA9jxzz_z7Ble7vsaPXIKyjgmUNyB-2YjUfHFdMEliErr1awnXvKmw-3qjguWpY78YjmQIHJUWCpopUjvypI2ls9igoX9jht66SCTMEbas_NnwOv9V5Mzgx4jn5EIFmaq-DyOjt_SmcGKPdnpoY3nGTZB466ncayYdHiBHt__sMWv6XvGA52FrJWrf-4bnDP1FTg6ajFzMWs7eJAy53DlgWbs8YTw5OcVcCwMpSej1xnO5yGtSBHoYLFpuidRJV6Xrms7w9DNOD6Z-VdlNlw3m00]--></g></svg>