<?xml version="1.0" encoding="us-ascii" standalone="no"?><svg xmlns="http://www.w3.org/2000/svg" xmlns:xlink="http://www.w3.org/1999/xlink" contentStyleType="text/css" height="537px" preserveAspectRatio="none" style="width:431px;height:537px;" version="1.1" viewBox="0 0 431 537" width="431px" zoomAndPan="magnify"><defs><filter height="300%" id="f1f09fpeh381ag" width="300%" x="-1" y="-1"><feGaussianBlur result="blurOut" stdDeviation="2.0"/><feColorMatrix in="blurOut" result="blurOut2" type="matrix" values="0 0 0 0 0 0 0 0 0 0 0 0 0 0 0 0 0 0 .4 0"/><feOffset dx="4.0" dy="4.0" in="blurOut2" result="blurOut3"/><feBlend in="SourceGraphic" in2="blurOut3" mode="normal"/></filter></defs><g><!--class REXState--><g id="elem_REXState"><rect codeLine="10" fill="#FCF2CC" filter="url(#f1f09fpeh381ag)" height="311.8125" id="REXState" style="stroke:#5A0000;stroke-width:2.0;" width="412" x="7" y="213.93"/><ellipse cx="177.25" cy="229.93" fill="#ADD1B2" rx="11" ry="11" style="stroke:#181818;stroke-width:1.0;"/><path d="M179.7231,236.0731 Q179.1421,236.3719 178.5029,236.5213 Q177.8638,236.6707 177.1582,236.6707 Q174.6514,236.6707 173.3315,235.0189 Q172.0117,233.367 172.0117,230.2459 Q172.0117,227.1165 173.3315,225.4647 Q174.6514,223.8128 177.1582,223.8128 Q177.8638,223.8128 178.5112,223.9622 Q179.1587,224.1116 179.7231,224.4105 L179.7231,227.1331 Q179.0923,226.5521 178.4988,226.2823 Q177.9053,226.0125 177.2744,226.0125 Q175.9297,226.0125 175.2449,227.0792 Q174.5601,228.1458 174.5601,230.2459 Q174.5601,232.3377 175.2449,233.4044 Q175.9297,234.471 177.2744,234.471 Q177.9053,234.471 178.4988,234.2012 Q179.0923,233.9315 179.7231,233.3504 Z " fill="#000000"/><text fill="#000000" font-family="sans-serif" font-size="14" font-weight="bold" lengthAdjust="spacing" textLength="63" x="197.75" y="235.221">REXState</text><line style="stroke:#5A0000;stroke-width:2.0;" x1="8" x2="418" y1="245.93" y2="245.93"/><ellipse cx="18" cy="259.6741" fill="none" rx="3" ry="3" style="stroke:#038048;stroke-width:1.0;"/><text fill="#000000" font-family="sans-serif" font-size="14" font-weight="bold" lengthAdjust="spacing" text-decoration="underline" textLength="55" x="27" y="263.4652">abiBase</text><text fill="#000000" font-family="sans-serif" font-size="14" lengthAdjust="spacing" text-decoration="underline" textLength="191" x="86" y="263.4652">: ABISerializableConstructor</text><ellipse cx="18" cy="276.1624" fill="none" rx="3" ry="3" style="stroke:#038048;stroke-width:1.0;"/><text fill="#000000" font-family="sans-serif" font-size="14" font-weight="bold" lengthAdjust="spacing" text-decoration="underline" textLength="65" x="27" y="279.9534">abiFields</text><text fill="#000000" font-family="sans-serif" font-size="14" lengthAdjust="spacing" text-decoration="underline" textLength="73" x="96" y="279.9534">: ABIField[]</text><ellipse cx="18" cy="292.6507" fill="none" rx="3" ry="3" style="stroke:#038048;stroke-width:1.0;"/><text fill="#000000" font-family="sans-serif" font-size="14" font-weight="bold" lengthAdjust="spacing" text-decoration="underline" textLength="63" x="27" y="296.4417">abiName</text><text fill="#000000" font-family="sans-serif" font-size="14" lengthAdjust="spacing" text-decoration="underline" textLength="48" x="94" y="296.4417">: string</text><ellipse cx="18" cy="309.139" fill="none" rx="3" ry="3" style="stroke:#038048;stroke-width:1.0;"/><text fill="#000000" font-family="sans-serif" font-size="14" font-weight="bold" lengthAdjust="spacing" textLength="70" x="27" y="312.93">loan_num</text><text fill="#000000" font-family="sans-serif" font-size="14" lengthAdjust="spacing" textLength="54" x="101" y="312.93">: UInt64</text><ellipse cx="18" cy="325.6273" fill="none" rx="3" ry="3" style="stroke:#038048;stroke-width:1.0;"/><text fill="#000000" font-family="sans-serif" font-size="14" font-weight="bold" lengthAdjust="spacing" textLength="133" x="27" y="329.4183">namebid_proceeds</text><text fill="#000000" font-family="sans-serif" font-size="14" lengthAdjust="spacing" textLength="45" x="164" y="329.4183">: Asset</text><ellipse cx="18" cy="342.1155" fill="none" rx="3" ry="3" style="stroke:#038048;stroke-width:1.0;"/><text fill="#000000" font-family="sans-serif" font-size="14" font-weight="bold" lengthAdjust="spacing" textLength="102" x="27" y="345.9066">total_lendable</text><text fill="#000000" font-family="sans-serif" font-size="14" lengthAdjust="spacing" textLength="45" x="133" y="345.9066">: Asset</text><ellipse cx="18" cy="358.6038" fill="none" rx="3" ry="3" style="stroke:#038048;stroke-width:1.0;"/><text fill="#000000" font-family="sans-serif" font-size="14" font-weight="bold" lengthAdjust="spacing" textLength="69" x="27" y="362.3948">total_lent</text><text fill="#000000" font-family="sans-serif" font-size="14" lengthAdjust="spacing" textLength="45" x="100" y="362.3948">: Asset</text><ellipse cx="18" cy="375.0921" fill="none" rx="3" ry="3" style="stroke:#038048;stroke-width:1.0;"/><text fill="#000000" font-family="sans-serif" font-size="14" font-weight="bold" lengthAdjust="spacing" textLength="70" x="27" y="378.8831">total_rent</text><text fill="#000000" font-family="sans-serif" font-size="14" lengthAdjust="spacing" textLength="45" x="101" y="378.8831">: Asset</text><ellipse cx="18" cy="391.5804" fill="none" rx="3" ry="3" style="stroke:#038048;stroke-width:1.0;"/><text fill="#000000" font-family="sans-serif" font-size="14" font-weight="bold" lengthAdjust="spacing" textLength="63" x="27" y="395.3714">total_rex</text><text fill="#000000" font-family="sans-serif" font-size="14" lengthAdjust="spacing" textLength="45" x="94" y="395.3714">: Asset</text><ellipse cx="18" cy="408.0687" fill="none" rx="3" ry="3" style="stroke:#038048;stroke-width:1.0;"/><text fill="#000000" font-family="sans-serif" font-size="14" font-weight="bold" lengthAdjust="spacing" textLength="87" x="27" y="411.8597">total_unlent</text><text fill="#000000" font-family="sans-serif" font-size="14" lengthAdjust="spacing" textLength="45" x="118" y="411.8597">: Asset</text><ellipse cx="18" cy="424.557" fill="none" rx="3" ry="3" style="stroke:#038048;stroke-width:1.0;"/><text fill="#000000" font-family="sans-serif" font-size="14" font-weight="bold" lengthAdjust="spacing" textLength="53" x="27" y="428.348">version</text><text fill="#000000" font-family="sans-serif" font-size="14" lengthAdjust="spacing" textLength="45" x="84" y="428.348">: UInt8</text><line style="stroke:#5A0000;stroke-width:2.0;" x1="8" x2="418" y1="435.3011" y2="435.3011"/><ellipse cx="18" cy="449.0452" fill="#84BE84" rx="3" ry="3" style="stroke:#038048;stroke-width:1.0;"/><text fill="#000000" font-family="sans-serif" font-size="14" lengthAdjust="spacing" textLength="192" x="27" y="452.8363">equals(other: any) : boolean</text><ellipse cx="18" cy="465.5335" fill="#84BE84" rx="3" ry="3" style="stroke:#038048;stroke-width:1.0;"/><text fill="#000000" font-family="sans-serif" font-size="14" lengthAdjust="spacing" textLength="224" x="27" y="469.3245">exchange(amount: Asset) : Asset</text><ellipse cx="18" cy="482.0218" fill="#84BE84" rx="3" ry="3" style="stroke:#038048;stroke-width:1.0;"/><text fill="#000000" font-family="sans-serif" font-size="14" lengthAdjust="spacing" text-decoration="underline" textLength="325" x="27" y="485.8128">from&lt;T&gt;(this: T, value: any) : InstanceType&lt;T&gt;</text><ellipse cx="18" cy="498.5101" fill="#84BE84" rx="3" ry="3" style="stroke:#038048;stroke-width:1.0;"/><text fill="#000000" font-family="sans-serif" font-size="14" lengthAdjust="spacing" text-decoration="underline" textLength="187" x="27" y="502.3011">from(value: any) : unknown</text><ellipse cx="18" cy="514.9984" fill="#84BE84" rx="3" ry="3" style="stroke:#038048;stroke-width:1.0;"/><text fill="#000000" font-family="sans-serif" font-size="14" lengthAdjust="spacing" textLength="386" x="27" y="518.7894">price_per(sample: SampleUsage, unit: number) : number</text></g><!--class Struct--><g id="elem_Struct"><rect codeLine="28" fill="#FCF2CC" filter="url(#f1f09fpeh381ag)" height="146.9297" id="Struct" style="stroke:#5A0000;stroke-width:2.0;" width="351" x="37.5" y="7"/><ellipse cx="187.75" cy="23" fill="#ADD1B2" rx="11" ry="11" style="stroke:#181818;stroke-width:1.0;"/><path d="M190.2231,29.1431 Q189.6421,29.4419 189.0029,29.5913 Q188.3638,29.7407 187.6582,29.7407 Q185.1514,29.7407 183.8315,28.0889 Q182.5117,26.437 182.5117,23.3159 Q182.5117,20.1865 183.8315,18.5347 Q185.1514,16.8828 187.6582,16.8828 Q188.3638,16.8828 189.0112,17.0322 Q189.6587,17.1816 190.2231,17.4805 L190.2231,20.2031 Q189.5923,19.6221 188.9988,19.3523 Q188.4053,19.0825 187.7744,19.0825 Q186.4297,19.0825 185.7449,20.1492 Q185.0601,21.2158 185.0601,23.3159 Q185.0601,25.4077 185.7449,26.4744 Q186.4297,27.541 187.7744,27.541 Q188.4053,27.541 188.9988,27.2712 Q189.5923,27.0015 190.2231,26.4204 Z " fill="#000000"/><text fill="#000000" font-family="sans-serif" font-size="14" font-weight="bold" lengthAdjust="spacing" textLength="42" x="208.25" y="28.291">Struct</text><line style="stroke:#5A0000;stroke-width:2.0;" x1="38.5" x2="387.5" y1="39" y2="39"/><ellipse cx="48.5" cy="52.7441" fill="none" rx="3" ry="3" style="stroke:#038048;stroke-width:1.0;"/><text fill="#000000" font-family="sans-serif" font-size="14" font-weight="bold" lengthAdjust="spacing" text-decoration="underline" textLength="55" x="57.5" y="56.5352">abiBase</text><text fill="#000000" font-family="sans-serif" font-size="14" lengthAdjust="spacing" text-decoration="underline" textLength="191" x="116.5" y="56.5352">: ABISerializableConstructor</text><ellipse cx="48.5" cy="69.2324" fill="none" rx="3" ry="3" style="stroke:#038048;stroke-width:1.0;"/><text fill="#000000" font-family="sans-serif" font-size="14" font-weight="bold" lengthAdjust="spacing" text-decoration="underline" textLength="65" x="57.5" y="73.0234">abiFields</text><text fill="#000000" font-family="sans-serif" font-size="14" lengthAdjust="spacing" text-decoration="underline" textLength="73" x="126.5" y="73.0234">: ABIField[]</text><ellipse cx="48.5" cy="85.7207" fill="none" rx="3" ry="3" style="stroke:#038048;stroke-width:1.0;"/><text fill="#000000" font-family="sans-serif" font-size="14" font-weight="bold" lengthAdjust="spacing" text-decoration="underline" textLength="63" x="57.5" y="89.5117">abiName</text><text fill="#000000" font-family="sans-serif" font-size="14" lengthAdjust="spacing" text-decoration="underline" textLength="48" x="124.5" y="89.5117">: string</text><line style="stroke:#5A0000;stroke-width:2.0;" x1="38.5" x2="387.5" y1="96.4648" y2="96.4648"/><ellipse cx="48.5" cy="110.209" fill="#84BE84" rx="3" ry="3" style="stroke:#038048;stroke-width:1.0;"/><text fill="#000000" font-family="sans-serif" font-size="14" lengthAdjust="spacing" textLength="192" x="57.5" y="114">equals(other: any) : boolean</text><ellipse cx="48.5" cy="126.6973" fill="#84BE84" rx="3" ry="3" style="stroke:#038048;stroke-width:1.0;"/><text fill="#000000" font-family="sans-serif" font-size="14" lengthAdjust="spacing" text-decoration="underline" textLength="325" x="57.5" y="130.4883">from&lt;T&gt;(this: T, value: any) : InstanceType&lt;T&gt;</text><ellipse cx="48.5" cy="143.1855" fill="#84BE84" rx="3" ry="3" style="stroke:#038048;stroke-width:1.0;"/><text fill="#000000" font-family="sans-serif" font-size="14" lengthAdjust="spacing" text-decoration="underline" textLength="187" x="57.5" y="146.9766">from(value: any) : unknown</text></g><!--reverse link Struct to REXState--><g id="link_Struct_REXState"><path codeLine="36" d="M213,172.35 C213,190.64 213,192.97 213,213.62 " fill="none" id="Struct-backto-REXState" style="stroke:#181818;stroke-width:1.0;"/><polygon fill="none" points="213,154.35,207,172.35,219,172.35,213,154.35" style="stroke:#181818;stroke-width:1.0;"/></g><!--SRC=[pLDVQzim47_tfn1zSbdBIjd6226mX1NoieSwXS4euInVOX7vphkJssPTlliK9qsSBKkV1jEBBVt-tEdkf0j7DGXKPkH1zOOfP67fqUJiYqGFqI7OnLoueMB4diNCxEpQsZzOB0NAXl4UhkBgC6utQY4KStLSEIcTNH2gckkaT0KQhEgmD3E7lj3kIOMXv7YqTybAAFZHqTm4QR03_9vv422D4598x3gqERlz_3KB4F3CF2SchcUDEsTNvaq_7q3kXg3OVviFJCzy6eup50VU_O3SuuX9OpmRM8ugRzhCzzfs_-t-AFSBL2zHecUyISjQWvw1fjHKM_HkJE73knrAKPUxObeBMyHzD5KCErBW07xgaOfrsgSfuGGihy5F9z26_kh-WAAEgNF3ZniClpVWDULGelGCqF8yuZcpHw0juycMG7DCeOfT3bldyuCG-rhFXAl-P926qcdFJ2xC0_W6TyxZs4yWYvDbZP5sH9mU2XfQ43zkKwd5MPpMAAb2LVl8ojhldS8SBoBNnVHY8tEKjNRpbwnUvZ1hH-c_dC9Ns_3lAxnATWNg_xoyx3pRNm00]--></g></svg>