<?xml version="1.0" encoding="us-ascii" standalone="no"?><svg xmlns="http://www.w3.org/2000/svg" xmlns:xlink="http://www.w3.org/1999/xlink" contentStyleType="text/css" height="735px" preserveAspectRatio="none" style="width:621px;height:735px;" version="1.1" viewBox="0 0 621 735" width="621px" zoomAndPan="magnify"><defs><filter height="300%" id="f3qvxqgkedhav" width="300%" x="-1" y="-1"><feGaussianBlur result="blurOut" stdDeviation="2.0"/><feColorMatrix in="blurOut" result="blurOut2" type="matrix" values="0 0 0 0 0 0 0 0 0 0 0 0 0 0 0 0 0 0 .4 0"/><feOffset dx="4.0" dy="4.0" in="blurOut2" result="blurOut3"/><feBlend in="SourceGraphic" in2="blurOut3" mode="normal"/></filter></defs><g><!--class SignedTransaction--><g id="elem_SignedTransaction"><rect codeLine="10" fill="#FCF2CC" filter="url(#f3qvxqgkedhav)" height="344.7891" id="SignedTransaction" style="stroke:#5A0000;stroke-width:2.0;" width="429" x="93.5" y="378.81"/><ellipse cx="237.25" cy="394.81" fill="#ADD1B2" rx="11" ry="11" style="stroke:#181818;stroke-width:1.0;"/><path d="M239.7231,400.9531 Q239.1421,401.2519 238.5029,401.4013 Q237.8638,401.5507 237.1582,401.5507 Q234.6514,401.5507 233.3315,399.8989 Q232.0117,398.247 232.0117,395.1259 Q232.0117,391.9965 233.3315,390.3447 Q234.6514,388.6928 237.1582,388.6928 Q237.8638,388.6928 238.5112,388.8422 Q239.1587,388.9916 239.7231,389.2905 L239.7231,392.0131 Q239.0923,391.4321 238.4988,391.1623 Q237.9053,390.8925 237.2744,390.8925 Q235.9297,390.8925 235.2449,391.9592 Q234.5601,393.0258 234.5601,395.1259 Q234.5601,397.2177 235.2449,398.2844 Q235.9297,399.351 237.2744,399.351 Q237.9053,399.351 238.4988,399.0812 Q239.0923,398.8115 239.7231,398.2304 Z " fill="#000000"/><text fill="#000000" font-family="sans-serif" font-size="14" font-weight="bold" lengthAdjust="spacing" textLength="133" x="257.75" y="400.101">SignedTransaction</text><line style="stroke:#5A0000;stroke-width:2.0;" x1="94.5" x2="521.5" y1="410.81" y2="410.81"/><ellipse cx="104.5" cy="424.5541" fill="none" rx="3" ry="3" style="stroke:#038048;stroke-width:1.0;"/><text fill="#000000" font-family="sans-serif" font-size="14" font-weight="bold" lengthAdjust="spacing" text-decoration="underline" textLength="55" x="113.5" y="428.3452">abiBase</text><text fill="#000000" font-family="sans-serif" font-size="14" lengthAdjust="spacing" text-decoration="underline" textLength="191" x="172.5" y="428.3452">: ABISerializableConstructor</text><ellipse cx="104.5" cy="441.0424" fill="none" rx="3" ry="3" style="stroke:#038048;stroke-width:1.0;"/><text fill="#000000" font-family="sans-serif" font-size="14" font-weight="bold" lengthAdjust="spacing" text-decoration="underline" textLength="65" x="113.5" y="444.8334">abiFields</text><text fill="#000000" font-family="sans-serif" font-size="14" lengthAdjust="spacing" text-decoration="underline" textLength="73" x="182.5" y="444.8334">: ABIField[]</text><ellipse cx="104.5" cy="457.5307" fill="none" rx="3" ry="3" style="stroke:#038048;stroke-width:1.0;"/><text fill="#000000" font-family="sans-serif" font-size="14" font-weight="bold" lengthAdjust="spacing" text-decoration="underline" textLength="63" x="113.5" y="461.3217">abiName</text><text fill="#000000" font-family="sans-serif" font-size="14" lengthAdjust="spacing" text-decoration="underline" textLength="48" x="180.5" y="461.3217">: string</text><ellipse cx="104.5" cy="474.019" fill="none" rx="3" ry="3" style="stroke:#038048;stroke-width:1.0;"/><text fill="#000000" font-family="sans-serif" font-size="14" font-weight="bold" lengthAdjust="spacing" textLength="52" x="113.5" y="477.81">actions</text><text fill="#000000" font-family="sans-serif" font-size="14" lengthAdjust="spacing" textLength="62" x="169.5" y="477.81">: Action[]</text><ellipse cx="104.5" cy="490.5073" fill="none" rx="3" ry="3" style="stroke:#038048;stroke-width:1.0;"/><text fill="#000000" font-family="sans-serif" font-size="14" font-weight="bold" lengthAdjust="spacing" textLength="147" x="113.5" y="494.2983">context_free_actions</text><text fill="#000000" font-family="sans-serif" font-size="14" lengthAdjust="spacing" textLength="62" x="264.5" y="494.2983">: Action[]</text><ellipse cx="104.5" cy="506.9955" fill="none" rx="3" ry="3" style="stroke:#038048;stroke-width:1.0;"/><text fill="#000000" font-family="sans-serif" font-size="14" font-weight="bold" lengthAdjust="spacing" textLength="126" x="113.5" y="510.7866">context_free_data</text><text fill="#000000" font-family="sans-serif" font-size="14" lengthAdjust="spacing" textLength="53" x="243.5" y="510.7866">: Bytes[]</text><ellipse cx="104.5" cy="523.4838" fill="none" rx="3" ry="3" style="stroke:#038048;stroke-width:1.0;"/><text fill="#000000" font-family="sans-serif" font-size="14" font-weight="bold" lengthAdjust="spacing" textLength="68" x="113.5" y="527.2748">delay_sec</text><text fill="#000000" font-family="sans-serif" font-size="14" lengthAdjust="spacing" textLength="59" x="185.5" y="527.2748">: VarUInt</text><ellipse cx="104.5" cy="539.9721" fill="none" rx="3" ry="3" style="stroke:#038048;stroke-width:1.0;"/><text fill="#000000" font-family="sans-serif" font-size="14" font-weight="bold" lengthAdjust="spacing" textLength="73" x="113.5" y="543.7631">expiration</text><text fill="#000000" font-family="sans-serif" font-size="14" lengthAdjust="spacing" textLength="100" x="190.5" y="543.7631">: TimePointSec</text><ellipse cx="104.5" cy="556.4604" fill="none" rx="3" ry="3" style="stroke:#038048;stroke-width:1.0;"/><text fill="#000000" font-family="sans-serif" font-size="14" font-weight="bold" lengthAdjust="spacing" textLength="140" x="113.5" y="560.2514">max_cpu_usage_ms</text><text fill="#000000" font-family="sans-serif" font-size="14" lengthAdjust="spacing" textLength="45" x="257.5" y="560.2514">: UInt8</text><ellipse cx="104.5" cy="572.9487" fill="none" rx="3" ry="3" style="stroke:#038048;stroke-width:1.0;"/><text fill="#000000" font-family="sans-serif" font-size="14" font-weight="bold" lengthAdjust="spacing" textLength="160" x="113.5" y="576.7397">max_net_usage_words</text><text fill="#000000" font-family="sans-serif" font-size="14" lengthAdjust="spacing" textLength="59" x="277.5" y="576.7397">: VarUInt</text><ellipse cx="104.5" cy="589.437" fill="none" rx="3" ry="3" style="stroke:#038048;stroke-width:1.0;"/><text fill="#000000" font-family="sans-serif" font-size="14" font-weight="bold" lengthAdjust="spacing" textLength="105" x="113.5" y="593.228">ref_block_num</text><text fill="#000000" font-family="sans-serif" font-size="14" lengthAdjust="spacing" textLength="54" x="222.5" y="593.228">: UInt16</text><ellipse cx="104.5" cy="605.9252" fill="none" rx="3" ry="3" style="stroke:#038048;stroke-width:1.0;"/><text fill="#000000" font-family="sans-serif" font-size="14" font-weight="bold" lengthAdjust="spacing" textLength="115" x="113.5" y="609.7163">ref_block_prefix</text><text fill="#000000" font-family="sans-serif" font-size="14" lengthAdjust="spacing" textLength="54" x="232.5" y="609.7163">: UInt32</text><ellipse cx="104.5" cy="622.4135" fill="none" rx="3" ry="3" style="stroke:#038048;stroke-width:1.0;"/><text fill="#000000" font-family="sans-serif" font-size="14" font-weight="bold" lengthAdjust="spacing" textLength="76" x="113.5" y="626.2045">signatures</text><text fill="#000000" font-family="sans-serif" font-size="14" lengthAdjust="spacing" textLength="84" x="193.5" y="626.2045">: Signature[]</text><ellipse cx="104.5" cy="638.9018" fill="none" rx="3" ry="3" style="stroke:#038048;stroke-width:1.0;"/><text fill="#000000" font-family="sans-serif" font-size="14" font-weight="bold" lengthAdjust="spacing" textLength="166" x="113.5" y="642.6928">transaction_extensions</text><text fill="#000000" font-family="sans-serif" font-size="14" lengthAdjust="spacing" textLength="167" x="283.5" y="642.6928">: TransactionExtension[]</text><line style="stroke:#5A0000;stroke-width:2.0;" x1="94.5" x2="521.5" y1="649.6459" y2="649.6459"/><ellipse cx="104.5" cy="663.3901" fill="#84BE84" rx="3" ry="3" style="stroke:#038048;stroke-width:1.0;"/><text fill="#000000" font-family="sans-serif" font-size="14" lengthAdjust="spacing" textLength="282" x="113.5" y="667.1811">equals(other: TransactionType) : boolean</text><ellipse cx="104.5" cy="679.8784" fill="#84BE84" rx="3" ry="3" style="stroke:#038048;stroke-width:1.0;"/><text fill="#000000" font-family="sans-serif" font-size="14" lengthAdjust="spacing" text-decoration="underline" textLength="394" x="113.5" y="683.6694">from(object: SignedTransactionType) : SignedTransaction</text><ellipse cx="104.5" cy="696.3666" fill="#84BE84" rx="3" ry="3" style="stroke:#038048;stroke-width:1.0;"/><text fill="#000000" font-family="sans-serif" font-size="14" lengthAdjust="spacing" textLength="328" x="113.5" y="700.1577">signingData(chainId: Checksum256Type) : Bytes</text><ellipse cx="104.5" cy="712.8549" fill="#84BE84" rx="3" ry="3" style="stroke:#038048;stroke-width:1.0;"/><text fill="#000000" font-family="sans-serif" font-size="14" lengthAdjust="spacing" textLength="403" x="113.5" y="716.6459">signingDigest(chainId: Checksum256Type) : Checksum256</text></g><!--class Transaction--><g id="elem_Transaction"><rect codeLine="30" fill="#FCF2CC" filter="url(#f3qvxqgkedhav)" height="311.8125" id="Transaction" style="stroke:#5A0000;stroke-width:2.0;" width="602" x="7" y="7"/><ellipse cx="261.25" cy="23" fill="#ADD1B2" rx="11" ry="11" style="stroke:#181818;stroke-width:1.0;"/><path d="M263.7231,29.1431 Q263.1421,29.4419 262.5029,29.5913 Q261.8638,29.7407 261.1582,29.7407 Q258.6514,29.7407 257.3315,28.0889 Q256.0117,26.437 256.0117,23.3159 Q256.0117,20.1865 257.3315,18.5347 Q258.6514,16.8828 261.1582,16.8828 Q261.8638,16.8828 262.5112,17.0322 Q263.1587,17.1816 263.7231,17.4805 L263.7231,20.2031 Q263.0923,19.6221 262.4988,19.3523 Q261.9053,19.0825 261.2744,19.0825 Q259.9297,19.0825 259.2449,20.1492 Q258.5601,21.2158 258.5601,23.3159 Q258.5601,25.4077 259.2449,26.4744 Q259.9297,27.541 261.2744,27.541 Q261.9053,27.541 262.4988,27.2712 Q263.0923,27.0015 263.7231,26.4204 Z " fill="#000000"/><text fill="#000000" font-family="sans-serif" font-size="14" font-weight="bold" lengthAdjust="spacing" textLength="85" x="281.75" y="28.291">Transaction</text><line style="stroke:#5A0000;stroke-width:2.0;" x1="8" x2="608" y1="39" y2="39"/><ellipse cx="18" cy="52.7441" fill="none" rx="3" ry="3" style="stroke:#038048;stroke-width:1.0;"/><text fill="#000000" font-family="sans-serif" font-size="14" font-weight="bold" lengthAdjust="spacing" text-decoration="underline" textLength="55" x="27" y="56.5352">abiBase</text><text fill="#000000" font-family="sans-serif" font-size="14" lengthAdjust="spacing" text-decoration="underline" textLength="191" x="86" y="56.5352">: ABISerializableConstructor</text><ellipse cx="18" cy="69.2324" fill="none" rx="3" ry="3" style="stroke:#038048;stroke-width:1.0;"/><text fill="#000000" font-family="sans-serif" font-size="14" font-weight="bold" lengthAdjust="spacing" text-decoration="underline" textLength="65" x="27" y="73.0234">abiFields</text><text fill="#000000" font-family="sans-serif" font-size="14" lengthAdjust="spacing" text-decoration="underline" textLength="73" x="96" y="73.0234">: ABIField[]</text><ellipse cx="18" cy="85.7207" fill="none" rx="3" ry="3" style="stroke:#038048;stroke-width:1.0;"/><text fill="#000000" font-family="sans-serif" font-size="14" font-weight="bold" lengthAdjust="spacing" text-decoration="underline" textLength="63" x="27" y="89.5117">abiName</text><text fill="#000000" font-family="sans-serif" font-size="14" lengthAdjust="spacing" text-decoration="underline" textLength="48" x="94" y="89.5117">: string</text><ellipse cx="18" cy="102.209" fill="none" rx="3" ry="3" style="stroke:#038048;stroke-width:1.0;"/><text fill="#000000" font-family="sans-serif" font-size="14" font-weight="bold" lengthAdjust="spacing" textLength="52" x="27" y="106">actions</text><text fill="#000000" font-family="sans-serif" font-size="14" lengthAdjust="spacing" textLength="62" x="83" y="106">: Action[]</text><ellipse cx="18" cy="118.6973" fill="none" rx="3" ry="3" style="stroke:#038048;stroke-width:1.0;"/><text fill="#000000" font-family="sans-serif" font-size="14" font-weight="bold" lengthAdjust="spacing" textLength="147" x="27" y="122.4883">context_free_actions</text><text fill="#000000" font-family="sans-serif" font-size="14" lengthAdjust="spacing" textLength="62" x="178" y="122.4883">: Action[]</text><ellipse cx="18" cy="135.1855" fill="none" rx="3" ry="3" style="stroke:#038048;stroke-width:1.0;"/><text fill="#000000" font-family="sans-serif" font-size="14" font-weight="bold" lengthAdjust="spacing" textLength="68" x="27" y="138.9766">delay_sec</text><text fill="#000000" font-family="sans-serif" font-size="14" lengthAdjust="spacing" textLength="59" x="99" y="138.9766">: VarUInt</text><ellipse cx="18" cy="151.6738" fill="none" rx="3" ry="3" style="stroke:#038048;stroke-width:1.0;"/><text fill="#000000" font-family="sans-serif" font-size="14" font-weight="bold" lengthAdjust="spacing" textLength="73" x="27" y="155.4648">expiration</text><text fill="#000000" font-family="sans-serif" font-size="14" lengthAdjust="spacing" textLength="100" x="104" y="155.4648">: TimePointSec</text><ellipse cx="18" cy="168.1621" fill="none" rx="3" ry="3" style="stroke:#038048;stroke-width:1.0;"/><text fill="#000000" font-family="sans-serif" font-size="14" font-weight="bold" lengthAdjust="spacing" textLength="140" x="27" y="171.9531">max_cpu_usage_ms</text><text fill="#000000" font-family="sans-serif" font-size="14" lengthAdjust="spacing" textLength="45" x="171" y="171.9531">: UInt8</text><ellipse cx="18" cy="184.6504" fill="none" rx="3" ry="3" style="stroke:#038048;stroke-width:1.0;"/><text fill="#000000" font-family="sans-serif" font-size="14" font-weight="bold" lengthAdjust="spacing" textLength="160" x="27" y="188.4414">max_net_usage_words</text><text fill="#000000" font-family="sans-serif" font-size="14" lengthAdjust="spacing" textLength="59" x="191" y="188.4414">: VarUInt</text><ellipse cx="18" cy="201.1387" fill="none" rx="3" ry="3" style="stroke:#038048;stroke-width:1.0;"/><text fill="#000000" font-family="sans-serif" font-size="14" font-weight="bold" lengthAdjust="spacing" textLength="105" x="27" y="204.9297">ref_block_num</text><text fill="#000000" font-family="sans-serif" font-size="14" lengthAdjust="spacing" textLength="54" x="136" y="204.9297">: UInt16</text><ellipse cx="18" cy="217.627" fill="none" rx="3" ry="3" style="stroke:#038048;stroke-width:1.0;"/><text fill="#000000" font-family="sans-serif" font-size="14" font-weight="bold" lengthAdjust="spacing" textLength="115" x="27" y="221.418">ref_block_prefix</text><text fill="#000000" font-family="sans-serif" font-size="14" lengthAdjust="spacing" textLength="54" x="146" y="221.418">: UInt32</text><ellipse cx="18" cy="234.1152" fill="none" rx="3" ry="3" style="stroke:#038048;stroke-width:1.0;"/><text fill="#000000" font-family="sans-serif" font-size="14" font-weight="bold" lengthAdjust="spacing" textLength="166" x="27" y="237.9063">transaction_extensions</text><text fill="#000000" font-family="sans-serif" font-size="14" lengthAdjust="spacing" textLength="167" x="197" y="237.9063">: TransactionExtension[]</text><line style="stroke:#5A0000;stroke-width:2.0;" x1="8" x2="608" y1="244.8594" y2="244.8594"/><ellipse cx="18" cy="258.6035" fill="#84BE84" rx="3" ry="3" style="stroke:#038048;stroke-width:1.0;"/><text fill="#000000" font-family="sans-serif" font-size="14" lengthAdjust="spacing" textLength="282" x="27" y="262.3945">equals(other: TransactionType) : boolean</text><ellipse cx="18" cy="275.0918" fill="#84BE84" rx="3" ry="3" style="stroke:#038048;stroke-width:1.0;"/><text fill="#000000" font-family="sans-serif" font-size="14" lengthAdjust="spacing" text-decoration="underline" textLength="576" x="27" y="278.8828">from(object: AnyTransaction | TransactionType, abis: ABIDef | Object[]) : Transaction</text><ellipse cx="18" cy="291.5801" fill="#84BE84" rx="3" ry="3" style="stroke:#038048;stroke-width:1.0;"/><text fill="#000000" font-family="sans-serif" font-size="14" lengthAdjust="spacing" textLength="328" x="27" y="295.3711">signingData(chainId: Checksum256Type) : Bytes</text><ellipse cx="18" cy="308.0684" fill="#84BE84" rx="3" ry="3" style="stroke:#038048;stroke-width:1.0;"/><text fill="#000000" font-family="sans-serif" font-size="14" lengthAdjust="spacing" textLength="403" x="27" y="311.8594">signingDigest(chainId: Checksum256Type) : Checksum256</text></g><!--reverse link Transaction to SignedTransaction--><g id="link_Transaction_SignedTransaction"><path codeLine="48" d="M308,337.08 C308,356.59 308,358.64 308,378.38 " fill="none" id="Transaction-backto-SignedTransaction" style="stroke:#181818;stroke-width:1.0;"/><polygon fill="none" points="308,319.08,302,337.08,314,337.08,308,319.08" style="stroke:#181818;stroke-width:1.0;"/></g><!--SRC=[vLLHRzCm47xlhx3sr0acHj4cD5MJrev9VG542Y_J55sSIsBYsC7dQ0tR_ZjEchHE5v1u0Gdy5Flxlhkpxpk5Sg5AC52mfGIY6wriO6k9BD8odj0GNG3FKwCh5I-rr8ObF9bn_eobJOncopY3KxSyngUjsYWqx7HSkSu4pnKIiTaa4p4oB4fRiqIWZCa_AT1csXtjemGPnFfUg9HPKw4775Pk3IXo42exuKrgTXI8L66yRW3WLcXrn1ucpAq7ic05Vs8lvj4bH681XFDNqIMxO5UBLO16W1JV8PAur8fSOcwr6LNUj5VOQzlzxTqezpqKVHONqrsfPRLWMzqkJBlhWZGmTot4ZGqJWnZ-3ZS62nrnKLiaZnUZX3eav1t-1SpdbNkw7iTDAGmqmJl2MXJuKGjd9kGxLW6Ra9TLM16a61PzLKsajmEIGjkHxfqZw2T93IPX93NFGrKLNgpNvoEKqdsAZSTwCzkno7KUR6MmpnJq1zuJsBqnGlTagCXxMCyrxtgir-At2YHDjStG39ZhkiHZ9uwqbWZgm0M9qSLKHr-Hssr10s_sscV0DcTp8sUPQzVHASz0g5LymPOPyfogOdPstilRFWyb8aMolnHvHvEdVdh-hxdvj-VXhrhzIjMUa3qUXdd9N9EfjS4r9Wx_q0flxuw7nVtnGHYEmFpnv6Jid_83]--></g></svg>