<?xml version="1.0" encoding="us-ascii" standalone="no"?><svg xmlns="http://www.w3.org/2000/svg" xmlns:xlink="http://www.w3.org/1999/xlink" contentStyleType="text/css" height="719px" preserveAspectRatio="none" style="width:370px;height:719px;" version="1.1" viewBox="0 0 370 719" width="370px" zoomAndPan="magnify"><defs><filter height="300%" id="fo2j3zmdl963q" width="300%" x="-1" y="-1"><feGaussianBlur result="blurOut" stdDeviation="2.0"/><feColorMatrix in="blurOut" result="blurOut2" type="matrix" values="0 0 0 0 0 0 0 0 0 0 0 0 0 0 0 0 0 0 .4 0"/><feOffset dx="4.0" dy="4.0" in="blurOut2" result="blurOut3"/><feBlend in="SourceGraphic" in2="blurOut3" mode="normal"/></filter></defs><g><!--class SignedBlock--><g id="elem_SignedBlock"><rect codeLine="10" fill="#FCF2CC" filter="url(#fo2j3zmdl963q)" height="344.7891" id="SignedBlock" style="stroke:#5A0000;stroke-width:2.0;" width="351" x="7" y="362.32"/><ellipse cx="134.75" cy="378.32" fill="#ADD1B2" rx="11" ry="11" style="stroke:#181818;stroke-width:1.0;"/><path d="M137.2231,384.4631 Q136.6421,384.7619 136.0029,384.9113 Q135.3638,385.0607 134.6582,385.0607 Q132.1514,385.0607 130.8315,383.4089 Q129.5117,381.757 129.5117,378.6359 Q129.5117,375.5065 130.8315,373.8547 Q132.1514,372.2028 134.6582,372.2028 Q135.3638,372.2028 136.0112,372.3522 Q136.6587,372.5016 137.2231,372.8005 L137.2231,375.5231 Q136.5923,374.9421 135.9988,374.6723 Q135.4053,374.4025 134.7744,374.4025 Q133.4297,374.4025 132.7449,375.4692 Q132.0601,376.5358 132.0601,378.6359 Q132.0601,380.7277 132.7449,381.7944 Q133.4297,382.861 134.7744,382.861 Q135.4053,382.861 135.9988,382.5912 Q136.5923,382.3215 137.2231,381.7404 Z " fill="#000000"/><text fill="#000000" font-family="sans-serif" font-size="14" font-weight="bold" lengthAdjust="spacing" textLength="87" x="155.25" y="383.611">SignedBlock</text><line style="stroke:#5A0000;stroke-width:2.0;" x1="8" x2="357" y1="394.32" y2="394.32"/><ellipse cx="18" cy="408.0641" fill="none" rx="3" ry="3" style="stroke:#038048;stroke-width:1.0;"/><text fill="#000000" font-family="sans-serif" font-size="14" font-weight="bold" lengthAdjust="spacing" text-decoration="underline" textLength="55" x="27" y="411.8552">abiBase</text><text fill="#000000" font-family="sans-serif" font-size="14" lengthAdjust="spacing" text-decoration="underline" textLength="191" x="86" y="411.8552">: ABISerializableConstructor</text><ellipse cx="18" cy="424.5524" fill="none" rx="3" ry="3" style="stroke:#038048;stroke-width:1.0;"/><text fill="#000000" font-family="sans-serif" font-size="14" font-weight="bold" lengthAdjust="spacing" text-decoration="underline" textLength="65" x="27" y="428.3434">abiFields</text><text fill="#000000" font-family="sans-serif" font-size="14" lengthAdjust="spacing" text-decoration="underline" textLength="73" x="96" y="428.3434">: ABIField[]</text><ellipse cx="18" cy="441.0407" fill="none" rx="3" ry="3" style="stroke:#038048;stroke-width:1.0;"/><text fill="#000000" font-family="sans-serif" font-size="14" font-weight="bold" lengthAdjust="spacing" text-decoration="underline" textLength="63" x="27" y="444.8317">abiName</text><text fill="#000000" font-family="sans-serif" font-size="14" lengthAdjust="spacing" text-decoration="underline" textLength="48" x="94" y="444.8317">: string</text><ellipse cx="18" cy="457.529" fill="none" rx="3" ry="3" style="stroke:#038048;stroke-width:1.0;"/><text fill="#000000" font-family="sans-serif" font-size="14" font-weight="bold" lengthAdjust="spacing" textLength="95" x="27" y="461.32">action_mroot</text><text fill="#000000" font-family="sans-serif" font-size="14" lengthAdjust="spacing" textLength="57" x="126" y="461.32">: BlockId</text><ellipse cx="18" cy="474.0173" fill="none" rx="3" ry="3" style="stroke:#038048;stroke-width:1.0;"/><text fill="#000000" font-family="sans-serif" font-size="14" font-weight="bold" lengthAdjust="spacing" textLength="124" x="27" y="477.8083">block_extensions</text><text fill="#000000" font-family="sans-serif" font-size="14" lengthAdjust="spacing" textLength="122" x="155" y="477.8083">: BlockExtension[]</text><ellipse cx="18" cy="490.5055" fill="none" rx="3" ry="3" style="stroke:#038048;stroke-width:1.0;"/><text fill="#000000" font-family="sans-serif" font-size="14" font-weight="bold" lengthAdjust="spacing" textLength="73" x="27" y="494.2966">confirmed</text><text fill="#000000" font-family="sans-serif" font-size="14" lengthAdjust="spacing" textLength="54" x="104" y="494.2966">: UInt16</text><ellipse cx="18" cy="506.9938" fill="none" rx="3" ry="3" style="stroke:#038048;stroke-width:1.0;"/><text fill="#000000" font-family="sans-serif" font-size="14" font-weight="bold" lengthAdjust="spacing" textLength="133" x="27" y="510.7848">header_extensions</text><text fill="#000000" font-family="sans-serif" font-size="14" lengthAdjust="spacing" textLength="135" x="164" y="510.7848">: HeaderExtension[]</text><ellipse cx="18" cy="523.4821" fill="none" rx="3" ry="3" style="stroke:#038048;stroke-width:1.0;"/><text fill="#000000" font-family="sans-serif" font-size="14" font-weight="bold" lengthAdjust="spacing" textLength="107" x="27" y="527.2731">new_producers</text><text fill="#000000" font-family="sans-serif" font-size="14" lengthAdjust="spacing" textLength="106" x="138" y="527.2731">: NewProducers</text><ellipse cx="18" cy="539.9704" fill="none" rx="3" ry="3" style="stroke:#038048;stroke-width:1.0;"/><text fill="#000000" font-family="sans-serif" font-size="14" font-weight="bold" lengthAdjust="spacing" textLength="62" x="27" y="543.7614">previous</text><text fill="#000000" font-family="sans-serif" font-size="14" lengthAdjust="spacing" textLength="57" x="93" y="543.7614">: BlockId</text><ellipse cx="18" cy="556.4587" fill="none" rx="3" ry="3" style="stroke:#038048;stroke-width:1.0;"/><text fill="#000000" font-family="sans-serif" font-size="14" font-weight="bold" lengthAdjust="spacing" textLength="63" x="27" y="560.2497">producer</text><text fill="#000000" font-family="sans-serif" font-size="14" lengthAdjust="spacing" textLength="47" x="94" y="560.2497">: Name</text><ellipse cx="18" cy="572.947" fill="none" rx="3" ry="3" style="stroke:#038048;stroke-width:1.0;"/><text fill="#000000" font-family="sans-serif" font-size="14" font-weight="bold" lengthAdjust="spacing" textLength="138" x="27" y="576.738">producer_signature</text><text fill="#000000" font-family="sans-serif" font-size="14" lengthAdjust="spacing" textLength="74" x="169" y="576.738">: Signature</text><ellipse cx="18" cy="589.4352" fill="none" rx="3" ry="3" style="stroke:#038048;stroke-width:1.0;"/><text fill="#000000" font-family="sans-serif" font-size="14" font-weight="bold" lengthAdjust="spacing" textLength="123" x="27" y="593.2262">schedule_version</text><text fill="#000000" font-family="sans-serif" font-size="14" lengthAdjust="spacing" textLength="54" x="154" y="593.2262">: UInt32</text><ellipse cx="18" cy="605.9235" fill="none" rx="3" ry="3" style="stroke:#038048;stroke-width:1.0;"/><text fill="#000000" font-family="sans-serif" font-size="14" font-weight="bold" lengthAdjust="spacing" textLength="61" x="27" y="609.7145">timeSlot</text><text fill="#000000" font-family="sans-serif" font-size="14" lengthAdjust="spacing" textLength="54" x="92" y="609.7145">: UInt32</text><ellipse cx="18" cy="622.4118" fill="none" rx="3" ry="3" style="stroke:#038048;stroke-width:1.0;"/><text fill="#000000" font-family="sans-serif" font-size="14" font-weight="bold" lengthAdjust="spacing" textLength="89" x="27" y="626.2028">transactions</text><text fill="#000000" font-family="sans-serif" font-size="14" lengthAdjust="spacing" textLength="174" x="120" y="626.2028">: FullTransactionReceipt[]</text><ellipse cx="18" cy="638.9001" fill="none" rx="3" ry="3" style="stroke:#038048;stroke-width:1.0;"/><text fill="#000000" font-family="sans-serif" font-size="14" font-weight="bold" lengthAdjust="spacing" textLength="132" x="27" y="642.6911">transaction_mroot</text><text fill="#000000" font-family="sans-serif" font-size="14" lengthAdjust="spacing" textLength="57" x="163" y="642.6911">: BlockId</text><line style="stroke:#5A0000;stroke-width:2.0;" x1="8" x2="357" y1="649.6442" y2="649.6442"/><ellipse cx="18" cy="663.3884" fill="#84BE84" rx="3" ry="3" style="stroke:#038048;stroke-width:1.0;"/><text fill="#000000" font-family="sans-serif" font-size="14" lengthAdjust="spacing" textLength="192" x="27" y="667.1794">equals(other: any) : boolean</text><ellipse cx="18" cy="679.8766" fill="#84BE84" rx="3" ry="3" style="stroke:#038048;stroke-width:1.0;"/><text fill="#000000" font-family="sans-serif" font-size="14" lengthAdjust="spacing" text-decoration="underline" textLength="325" x="27" y="683.6677">from&lt;T&gt;(this: T, value: any) : InstanceType&lt;T&gt;</text><ellipse cx="18" cy="696.3649" fill="#84BE84" rx="3" ry="3" style="stroke:#038048;stroke-width:1.0;"/><text fill="#000000" font-family="sans-serif" font-size="14" lengthAdjust="spacing" text-decoration="underline" textLength="187" x="27" y="700.1559">from(value: any) : unknown</text></g><!--class BlockHeader--><g id="elem_BlockHeader"><rect codeLine="30" fill="#FCF2CC" filter="url(#fo2j3zmdl963q)" height="295.3242" id="BlockHeader" style="stroke:#5A0000;stroke-width:2.0;" width="351" x="7" y="7"/><ellipse cx="133.75" cy="23" fill="#ADD1B2" rx="11" ry="11" style="stroke:#181818;stroke-width:1.0;"/><path d="M136.2231,29.1431 Q135.6421,29.4419 135.0029,29.5913 Q134.3638,29.7407 133.6582,29.7407 Q131.1514,29.7407 129.8315,28.0889 Q128.5117,26.437 128.5117,23.3159 Q128.5117,20.1865 129.8315,18.5347 Q131.1514,16.8828 133.6582,16.8828 Q134.3638,16.8828 135.0112,17.0322 Q135.6587,17.1816 136.2231,17.4805 L136.2231,20.2031 Q135.5923,19.6221 134.9988,19.3523 Q134.4053,19.0825 133.7744,19.0825 Q132.4297,19.0825 131.7449,20.1492 Q131.0601,21.2158 131.0601,23.3159 Q131.0601,25.4077 131.7449,26.4744 Q132.4297,27.541 133.7744,27.541 Q134.4053,27.541 134.9988,27.2712 Q135.5923,27.0015 136.2231,26.4204 Z " fill="#000000"/><text fill="#000000" font-family="sans-serif" font-size="14" font-weight="bold" lengthAdjust="spacing" textLength="89" x="154.25" y="28.291">BlockHeader</text><line style="stroke:#5A0000;stroke-width:2.0;" x1="8" x2="357" y1="39" y2="39"/><ellipse cx="18" cy="52.7441" fill="none" rx="3" ry="3" style="stroke:#038048;stroke-width:1.0;"/><text fill="#000000" font-family="sans-serif" font-size="14" font-weight="bold" lengthAdjust="spacing" text-decoration="underline" textLength="55" x="27" y="56.5352">abiBase</text><text fill="#000000" font-family="sans-serif" font-size="14" lengthAdjust="spacing" text-decoration="underline" textLength="191" x="86" y="56.5352">: ABISerializableConstructor</text><ellipse cx="18" cy="69.2324" fill="none" rx="3" ry="3" style="stroke:#038048;stroke-width:1.0;"/><text fill="#000000" font-family="sans-serif" font-size="14" font-weight="bold" lengthAdjust="spacing" text-decoration="underline" textLength="65" x="27" y="73.0234">abiFields</text><text fill="#000000" font-family="sans-serif" font-size="14" lengthAdjust="spacing" text-decoration="underline" textLength="73" x="96" y="73.0234">: ABIField[]</text><ellipse cx="18" cy="85.7207" fill="none" rx="3" ry="3" style="stroke:#038048;stroke-width:1.0;"/><text fill="#000000" font-family="sans-serif" font-size="14" font-weight="bold" lengthAdjust="spacing" text-decoration="underline" textLength="63" x="27" y="89.5117">abiName</text><text fill="#000000" font-family="sans-serif" font-size="14" lengthAdjust="spacing" text-decoration="underline" textLength="48" x="94" y="89.5117">: string</text><ellipse cx="18" cy="102.209" fill="none" rx="3" ry="3" style="stroke:#038048;stroke-width:1.0;"/><text fill="#000000" font-family="sans-serif" font-size="14" font-weight="bold" lengthAdjust="spacing" textLength="95" x="27" y="106">action_mroot</text><text fill="#000000" font-family="sans-serif" font-size="14" lengthAdjust="spacing" textLength="57" x="126" y="106">: BlockId</text><ellipse cx="18" cy="118.6973" fill="none" rx="3" ry="3" style="stroke:#038048;stroke-width:1.0;"/><text fill="#000000" font-family="sans-serif" font-size="14" font-weight="bold" lengthAdjust="spacing" textLength="73" x="27" y="122.4883">confirmed</text><text fill="#000000" font-family="sans-serif" font-size="14" lengthAdjust="spacing" textLength="54" x="104" y="122.4883">: UInt16</text><ellipse cx="18" cy="135.1855" fill="none" rx="3" ry="3" style="stroke:#038048;stroke-width:1.0;"/><text fill="#000000" font-family="sans-serif" font-size="14" font-weight="bold" lengthAdjust="spacing" textLength="133" x="27" y="138.9766">header_extensions</text><text fill="#000000" font-family="sans-serif" font-size="14" lengthAdjust="spacing" textLength="135" x="164" y="138.9766">: HeaderExtension[]</text><ellipse cx="18" cy="151.6738" fill="none" rx="3" ry="3" style="stroke:#038048;stroke-width:1.0;"/><text fill="#000000" font-family="sans-serif" font-size="14" font-weight="bold" lengthAdjust="spacing" textLength="107" x="27" y="155.4648">new_producers</text><text fill="#000000" font-family="sans-serif" font-size="14" lengthAdjust="spacing" textLength="106" x="138" y="155.4648">: NewProducers</text><ellipse cx="18" cy="168.1621" fill="none" rx="3" ry="3" style="stroke:#038048;stroke-width:1.0;"/><text fill="#000000" font-family="sans-serif" font-size="14" font-weight="bold" lengthAdjust="spacing" textLength="62" x="27" y="171.9531">previous</text><text fill="#000000" font-family="sans-serif" font-size="14" lengthAdjust="spacing" textLength="57" x="93" y="171.9531">: BlockId</text><ellipse cx="18" cy="184.6504" fill="none" rx="3" ry="3" style="stroke:#038048;stroke-width:1.0;"/><text fill="#000000" font-family="sans-serif" font-size="14" font-weight="bold" lengthAdjust="spacing" textLength="63" x="27" y="188.4414">producer</text><text fill="#000000" font-family="sans-serif" font-size="14" lengthAdjust="spacing" textLength="47" x="94" y="188.4414">: Name</text><ellipse cx="18" cy="201.1387" fill="none" rx="3" ry="3" style="stroke:#038048;stroke-width:1.0;"/><text fill="#000000" font-family="sans-serif" font-size="14" font-weight="bold" lengthAdjust="spacing" textLength="123" x="27" y="204.9297">schedule_version</text><text fill="#000000" font-family="sans-serif" font-size="14" lengthAdjust="spacing" textLength="54" x="154" y="204.9297">: UInt32</text><ellipse cx="18" cy="217.627" fill="none" rx="3" ry="3" style="stroke:#038048;stroke-width:1.0;"/><text fill="#000000" font-family="sans-serif" font-size="14" font-weight="bold" lengthAdjust="spacing" textLength="61" x="27" y="221.418">timeSlot</text><text fill="#000000" font-family="sans-serif" font-size="14" lengthAdjust="spacing" textLength="54" x="92" y="221.418">: UInt32</text><ellipse cx="18" cy="234.1152" fill="none" rx="3" ry="3" style="stroke:#038048;stroke-width:1.0;"/><text fill="#000000" font-family="sans-serif" font-size="14" font-weight="bold" lengthAdjust="spacing" textLength="132" x="27" y="237.9063">transaction_mroot</text><text fill="#000000" font-family="sans-serif" font-size="14" lengthAdjust="spacing" textLength="57" x="163" y="237.9063">: BlockId</text><line style="stroke:#5A0000;stroke-width:2.0;" x1="8" x2="357" y1="244.8594" y2="244.8594"/><ellipse cx="18" cy="258.6035" fill="#84BE84" rx="3" ry="3" style="stroke:#038048;stroke-width:1.0;"/><text fill="#000000" font-family="sans-serif" font-size="14" lengthAdjust="spacing" textLength="192" x="27" y="262.3945">equals(other: any) : boolean</text><ellipse cx="18" cy="275.0918" fill="#84BE84" rx="3" ry="3" style="stroke:#038048;stroke-width:1.0;"/><text fill="#000000" font-family="sans-serif" font-size="14" lengthAdjust="spacing" text-decoration="underline" textLength="325" x="27" y="278.8828">from&lt;T&gt;(this: T, value: any) : InstanceType&lt;T&gt;</text><ellipse cx="18" cy="291.5801" fill="#84BE84" rx="3" ry="3" style="stroke:#038048;stroke-width:1.0;"/><text fill="#000000" font-family="sans-serif" font-size="14" lengthAdjust="spacing" text-decoration="underline" textLength="187" x="27" y="295.3711">from(value: any) : unknown</text></g><!--reverse link BlockHeader to SignedBlock--><g id="link_BlockHeader_SignedBlock"><path codeLine="47" d="M182.5,320.64 C182.5,340.14 182.5,342.27 182.5,362.13 " fill="none" id="BlockHeader-backto-SignedBlock" style="stroke:#181818;stroke-width:1.0;"/><polygon fill="none" points="182.5,302.64,176.5,320.64,188.5,320.64,182.5,302.64" style="stroke:#181818;stroke-width:1.0;"/></g><!--SRC=[rPHDZzCm48Rl-HNMdefWnL84XwggH2igUbcXJJWX53dsfB7Yp0H_j9Hb_pjksgHfcxrnO7FppFFEZCUlOak5DJUyOWlDhLqIkjZjDB2Cj8piUNREHRasv54kI9DXkSZ7GbnHP2IO0_61tuMlHpmSr0R1iBjXPL8eKI9OoyPHeIGmg6gtOxa2BMq_Ke4hA8HELUA2IzegN3DdFFGIbvCxmz665A2BnBurkudL6a7EDOdoXZr6B7oFrd6dn1DxFSrcF5DpRc7wDfkn2ViqNyLW5DVgDyyqB0XjQ2aScK7biXd-f6tEttyCilUyQhk4ck4o3TKaXLE4QMM8t95evbt93idsvnH-EK0RMDl7FhVHO-CzBmXpPIgGH_3R2jsxZrsw01vUvBhUboO-L11XczQ6f1TWMleUjb_RK0VM1ZQAl7tc8csDjaHOobKkjU7DkFEctLVSdZlKYWAarv1kGkymQU-QxySTvLG5iUwMUfdTc-Mm-tRQfTSwEOKVG82gNMyDFStpxmK_FTTsHAu0Cs4STwy2aH5fu7XXZTnGDKrc8rSeEs796xRXsaCdMWNxSHIGx6e8s81uT2xmM29jCNfgxTyCTdZM5sp_5sddV-pH_znlvqwR_hczFV_t_WK0]--></g></svg>