<?xml version="1.0" encoding="us-ascii" standalone="no"?><svg xmlns="http://www.w3.org/2000/svg" xmlns:xlink="http://www.w3.org/1999/xlink" contentStyleType="text/css" height="719px" preserveAspectRatio="none" style="width:370px;height:719px;" version="1.1" viewBox="0 0 370 719" width="370px" zoomAndPan="magnify"><defs><filter height="300%" id="f1xawievdlzjit" width="300%" x="-1" y="-1"><feGaussianBlur result="blurOut" stdDeviation="2.0"/><feColorMatrix in="blurOut" result="blurOut2" type="matrix" values="0 0 0 0 0 0 0 0 0 0 0 0 0 0 0 0 0 0 .4 0"/><feOffset dx="4.0" dy="4.0" in="blurOut2" result="blurOut3"/><feBlend in="SourceGraphic" in2="blurOut3" mode="normal"/></filter></defs><g><!--class TelosAccountVoterInfo--><g id="elem_TelosAccountVoterInfo"><rect codeLine="10" fill="#FCF2CC" filter="url(#f1xawievdlzjit)" height="328.3008" id="TelosAccountVoterInfo" style="stroke:#5A0000;stroke-width:2.0;" width="351" x="7" y="378.81"/><ellipse cx="95.75" cy="394.81" fill="#ADD1B2" rx="11" ry="11" style="stroke:#181818;stroke-width:1.0;"/><path d="M98.2231,400.9531 Q97.6421,401.2519 97.0029,401.4013 Q96.3638,401.5507 95.6582,401.5507 Q93.1514,401.5507 91.8315,399.8989 Q90.5117,398.247 90.5117,395.1259 Q90.5117,391.9965 91.8315,390.3447 Q93.1514,388.6928 95.6582,388.6928 Q96.3638,388.6928 97.0112,388.8422 Q97.6587,388.9916 98.2231,389.2905 L98.2231,392.0131 Q97.5923,391.4321 96.9988,391.1623 Q96.4053,390.8925 95.7744,390.8925 Q94.4297,390.8925 93.7449,391.9592 Q93.0601,393.0258 93.0601,395.1259 Q93.0601,397.2177 93.7449,398.2844 Q94.4297,399.351 95.7744,399.351 Q96.4053,399.351 96.9988,399.0812 Q97.5923,398.8115 98.2231,398.2304 Z " fill="#000000"/><text fill="#000000" font-family="sans-serif" font-size="14" font-weight="bold" lengthAdjust="spacing" textLength="165" x="116.25" y="400.101">TelosAccountVoterInfo</text><line style="stroke:#5A0000;stroke-width:2.0;" x1="8" x2="357" y1="410.81" y2="410.81"/><ellipse cx="18" cy="424.5541" fill="none" rx="3" ry="3" style="stroke:#038048;stroke-width:1.0;"/><text fill="#000000" font-family="sans-serif" font-size="14" font-weight="bold" lengthAdjust="spacing" text-decoration="underline" textLength="55" x="27" y="428.3452">abiBase</text><text fill="#000000" font-family="sans-serif" font-size="14" lengthAdjust="spacing" text-decoration="underline" textLength="191" x="86" y="428.3452">: ABISerializableConstructor</text><ellipse cx="18" cy="441.0424" fill="none" rx="3" ry="3" style="stroke:#038048;stroke-width:1.0;"/><text fill="#000000" font-family="sans-serif" font-size="14" font-weight="bold" lengthAdjust="spacing" text-decoration="underline" textLength="65" x="27" y="444.8334">abiFields</text><text fill="#000000" font-family="sans-serif" font-size="14" lengthAdjust="spacing" text-decoration="underline" textLength="73" x="96" y="444.8334">: ABIField[]</text><ellipse cx="18" cy="457.5307" fill="none" rx="3" ry="3" style="stroke:#038048;stroke-width:1.0;"/><text fill="#000000" font-family="sans-serif" font-size="14" font-weight="bold" lengthAdjust="spacing" text-decoration="underline" textLength="63" x="27" y="461.3217">abiName</text><text fill="#000000" font-family="sans-serif" font-size="14" lengthAdjust="spacing" text-decoration="underline" textLength="48" x="94" y="461.3217">: string</text><ellipse cx="18" cy="474.019" fill="none" rx="3" ry="3" style="stroke:#038048;stroke-width:1.0;"/><text fill="#000000" font-family="sans-serif" font-size="14" font-weight="bold" lengthAdjust="spacing" textLength="45" x="27" y="477.81">flags1</text><text fill="#000000" font-family="sans-serif" font-size="14" lengthAdjust="spacing" textLength="54" x="76" y="477.81">: UInt32</text><ellipse cx="18" cy="490.5073" fill="none" rx="3" ry="3" style="stroke:#038048;stroke-width:1.0;"/><text fill="#000000" font-family="sans-serif" font-size="14" font-weight="bold" lengthAdjust="spacing" textLength="60" x="27" y="494.2983">is_proxy</text><text fill="#000000" font-family="sans-serif" font-size="14" lengthAdjust="spacing" textLength="64" x="91" y="494.2983">: boolean</text><ellipse cx="18" cy="506.9955" fill="none" rx="3" ry="3" style="stroke:#038048;stroke-width:1.0;"/><text fill="#000000" font-family="sans-serif" font-size="14" font-weight="bold" lengthAdjust="spacing" textLength="73" x="27" y="510.7866">last_stake</text><text fill="#000000" font-family="sans-serif" font-size="14" lengthAdjust="spacing" textLength="44" x="104" y="510.7866">: Int64</text><ellipse cx="18" cy="523.4838" fill="none" rx="3" ry="3" style="stroke:#038048;stroke-width:1.0;"/><text fill="#000000" font-family="sans-serif" font-size="14" font-weight="bold" lengthAdjust="spacing" textLength="121" x="27" y="527.2748">last_vote_weight</text><text fill="#000000" font-family="sans-serif" font-size="14" lengthAdjust="spacing" textLength="60" x="152" y="527.2748">: Float64</text><ellipse cx="18" cy="539.9721" fill="none" rx="3" ry="3" style="stroke:#038048;stroke-width:1.0;"/><text fill="#000000" font-family="sans-serif" font-size="14" font-weight="bold" lengthAdjust="spacing" textLength="44" x="27" y="543.7631">owner</text><text fill="#000000" font-family="sans-serif" font-size="14" lengthAdjust="spacing" textLength="47" x="75" y="543.7631">: Name</text><ellipse cx="18" cy="556.4604" fill="none" rx="3" ry="3" style="stroke:#038048;stroke-width:1.0;"/><text fill="#000000" font-family="sans-serif" font-size="14" font-weight="bold" lengthAdjust="spacing" textLength="71" x="27" y="560.2514">producers</text><text fill="#000000" font-family="sans-serif" font-size="14" lengthAdjust="spacing" textLength="57" x="102" y="560.2514">: Name[]</text><ellipse cx="18" cy="572.9487" fill="none" rx="3" ry="3" style="stroke:#038048;stroke-width:1.0;"/><text fill="#000000" font-family="sans-serif" font-size="14" font-weight="bold" lengthAdjust="spacing" textLength="148" x="27" y="576.7397">proxied_vote_weight</text><text fill="#000000" font-family="sans-serif" font-size="14" lengthAdjust="spacing" textLength="60" x="179" y="576.7397">: Float64</text><ellipse cx="18" cy="589.437" fill="none" rx="3" ry="3" style="stroke:#038048;stroke-width:1.0;"/><text fill="#000000" font-family="sans-serif" font-size="14" font-weight="bold" lengthAdjust="spacing" textLength="40" x="27" y="593.228">proxy</text><text fill="#000000" font-family="sans-serif" font-size="14" lengthAdjust="spacing" textLength="47" x="71" y="593.228">: Name</text><ellipse cx="18" cy="605.9252" fill="none" rx="3" ry="3" style="stroke:#038048;stroke-width:1.0;"/><text fill="#000000" font-family="sans-serif" font-size="14" font-weight="bold" lengthAdjust="spacing" textLength="70" x="27" y="609.7163">reserved2</text><text fill="#000000" font-family="sans-serif" font-size="14" lengthAdjust="spacing" textLength="54" x="101" y="609.7163">: UInt32</text><ellipse cx="18" cy="622.4135" fill="none" rx="3" ry="3" style="stroke:#038048;stroke-width:1.0;"/><text fill="#000000" font-family="sans-serif" font-size="14" font-weight="bold" lengthAdjust="spacing" textLength="70" x="27" y="626.2045">reserved3</text><text fill="#000000" font-family="sans-serif" font-size="14" lengthAdjust="spacing" textLength="48" x="101" y="626.2045">: string</text><ellipse cx="18" cy="638.9018" fill="none" rx="3" ry="3" style="stroke:#038048;stroke-width:1.0;"/><text fill="#000000" font-family="sans-serif" font-size="14" font-weight="bold" lengthAdjust="spacing" textLength="48" x="27" y="642.6928">staked</text><text fill="#000000" font-family="sans-serif" font-size="14" lengthAdjust="spacing" textLength="44" x="79" y="642.6928">: Int64</text><line style="stroke:#5A0000;stroke-width:2.0;" x1="8" x2="357" y1="649.6459" y2="649.6459"/><ellipse cx="18" cy="663.3901" fill="#84BE84" rx="3" ry="3" style="stroke:#038048;stroke-width:1.0;"/><text fill="#000000" font-family="sans-serif" font-size="14" lengthAdjust="spacing" textLength="192" x="27" y="667.1811">equals(other: any) : boolean</text><ellipse cx="18" cy="679.8784" fill="#84BE84" rx="3" ry="3" style="stroke:#038048;stroke-width:1.0;"/><text fill="#000000" font-family="sans-serif" font-size="14" lengthAdjust="spacing" text-decoration="underline" textLength="325" x="27" y="683.6694">from&lt;T&gt;(this: T, value: any) : InstanceType&lt;T&gt;</text><ellipse cx="18" cy="696.3666" fill="#84BE84" rx="3" ry="3" style="stroke:#038048;stroke-width:1.0;"/><text fill="#000000" font-family="sans-serif" font-size="14" lengthAdjust="spacing" text-decoration="underline" textLength="187" x="27" y="700.1577">from(value: any) : unknown</text></g><!--class AccountVoterInfo--><g id="elem_AccountVoterInfo"><rect codeLine="29" fill="#FCF2CC" filter="url(#f1xawievdlzjit)" height="311.8125" id="AccountVoterInfo" style="stroke:#5A0000;stroke-width:2.0;" width="351" x="7" y="7"/><ellipse cx="115.75" cy="23" fill="#ADD1B2" rx="11" ry="11" style="stroke:#181818;stroke-width:1.0;"/><path d="M118.2231,29.1431 Q117.6421,29.4419 117.0029,29.5913 Q116.3638,29.7407 115.6582,29.7407 Q113.1514,29.7407 111.8315,28.0889 Q110.5117,26.437 110.5117,23.3159 Q110.5117,20.1865 111.8315,18.5347 Q113.1514,16.8828 115.6582,16.8828 Q116.3638,16.8828 117.0112,17.0322 Q117.6587,17.1816 118.2231,17.4805 L118.2231,20.2031 Q117.5923,19.6221 116.9988,19.3523 Q116.4053,19.0825 115.7744,19.0825 Q114.4297,19.0825 113.7449,20.1492 Q113.0601,21.2158 113.0601,23.3159 Q113.0601,25.4077 113.7449,26.4744 Q114.4297,27.541 115.7744,27.541 Q116.4053,27.541 116.9988,27.2712 Q117.5923,27.0015 118.2231,26.4204 Z " fill="#000000"/><text fill="#000000" font-family="sans-serif" font-size="14" font-weight="bold" lengthAdjust="spacing" textLength="125" x="136.25" y="28.291">AccountVoterInfo</text><line style="stroke:#5A0000;stroke-width:2.0;" x1="8" x2="357" y1="39" y2="39"/><ellipse cx="18" cy="52.7441" fill="none" rx="3" ry="3" style="stroke:#038048;stroke-width:1.0;"/><text fill="#000000" font-family="sans-serif" font-size="14" font-weight="bold" lengthAdjust="spacing" text-decoration="underline" textLength="55" x="27" y="56.5352">abiBase</text><text fill="#000000" font-family="sans-serif" font-size="14" lengthAdjust="spacing" text-decoration="underline" textLength="191" x="86" y="56.5352">: ABISerializableConstructor</text><ellipse cx="18" cy="69.2324" fill="none" rx="3" ry="3" style="stroke:#038048;stroke-width:1.0;"/><text fill="#000000" font-family="sans-serif" font-size="14" font-weight="bold" lengthAdjust="spacing" text-decoration="underline" textLength="65" x="27" y="73.0234">abiFields</text><text fill="#000000" font-family="sans-serif" font-size="14" lengthAdjust="spacing" text-decoration="underline" textLength="73" x="96" y="73.0234">: ABIField[]</text><ellipse cx="18" cy="85.7207" fill="none" rx="3" ry="3" style="stroke:#038048;stroke-width:1.0;"/><text fill="#000000" font-family="sans-serif" font-size="14" font-weight="bold" lengthAdjust="spacing" text-decoration="underline" textLength="63" x="27" y="89.5117">abiName</text><text fill="#000000" font-family="sans-serif" font-size="14" lengthAdjust="spacing" text-decoration="underline" textLength="48" x="94" y="89.5117">: string</text><ellipse cx="18" cy="102.209" fill="none" rx="3" ry="3" style="stroke:#038048;stroke-width:1.0;"/><text fill="#000000" font-family="sans-serif" font-size="14" font-weight="bold" lengthAdjust="spacing" textLength="45" x="27" y="106">flags1</text><text fill="#000000" font-family="sans-serif" font-size="14" lengthAdjust="spacing" textLength="54" x="76" y="106">: UInt32</text><ellipse cx="18" cy="118.6973" fill="none" rx="3" ry="3" style="stroke:#038048;stroke-width:1.0;"/><text fill="#000000" font-family="sans-serif" font-size="14" font-weight="bold" lengthAdjust="spacing" textLength="60" x="27" y="122.4883">is_proxy</text><text fill="#000000" font-family="sans-serif" font-size="14" lengthAdjust="spacing" textLength="64" x="91" y="122.4883">: boolean</text><ellipse cx="18" cy="135.1855" fill="none" rx="3" ry="3" style="stroke:#038048;stroke-width:1.0;"/><text fill="#000000" font-family="sans-serif" font-size="14" font-weight="bold" lengthAdjust="spacing" textLength="121" x="27" y="138.9766">last_vote_weight</text><text fill="#000000" font-family="sans-serif" font-size="14" lengthAdjust="spacing" textLength="60" x="152" y="138.9766">: Float64</text><ellipse cx="18" cy="151.6738" fill="none" rx="3" ry="3" style="stroke:#038048;stroke-width:1.0;"/><text fill="#000000" font-family="sans-serif" font-size="14" font-weight="bold" lengthAdjust="spacing" textLength="44" x="27" y="155.4648">owner</text><text fill="#000000" font-family="sans-serif" font-size="14" lengthAdjust="spacing" textLength="47" x="75" y="155.4648">: Name</text><ellipse cx="18" cy="168.1621" fill="none" rx="3" ry="3" style="stroke:#038048;stroke-width:1.0;"/><text fill="#000000" font-family="sans-serif" font-size="14" font-weight="bold" lengthAdjust="spacing" textLength="71" x="27" y="171.9531">producers</text><text fill="#000000" font-family="sans-serif" font-size="14" lengthAdjust="spacing" textLength="57" x="102" y="171.9531">: Name[]</text><ellipse cx="18" cy="184.6504" fill="none" rx="3" ry="3" style="stroke:#038048;stroke-width:1.0;"/><text fill="#000000" font-family="sans-serif" font-size="14" font-weight="bold" lengthAdjust="spacing" textLength="148" x="27" y="188.4414">proxied_vote_weight</text><text fill="#000000" font-family="sans-serif" font-size="14" lengthAdjust="spacing" textLength="60" x="179" y="188.4414">: Float64</text><ellipse cx="18" cy="201.1387" fill="none" rx="3" ry="3" style="stroke:#038048;stroke-width:1.0;"/><text fill="#000000" font-family="sans-serif" font-size="14" font-weight="bold" lengthAdjust="spacing" textLength="40" x="27" y="204.9297">proxy</text><text fill="#000000" font-family="sans-serif" font-size="14" lengthAdjust="spacing" textLength="47" x="71" y="204.9297">: Name</text><ellipse cx="18" cy="217.627" fill="none" rx="3" ry="3" style="stroke:#038048;stroke-width:1.0;"/><text fill="#000000" font-family="sans-serif" font-size="14" font-weight="bold" lengthAdjust="spacing" textLength="70" x="27" y="221.418">reserved2</text><text fill="#000000" font-family="sans-serif" font-size="14" lengthAdjust="spacing" textLength="54" x="101" y="221.418">: UInt32</text><ellipse cx="18" cy="234.1152" fill="none" rx="3" ry="3" style="stroke:#038048;stroke-width:1.0;"/><text fill="#000000" font-family="sans-serif" font-size="14" font-weight="bold" lengthAdjust="spacing" textLength="70" x="27" y="237.9063">reserved3</text><text fill="#000000" font-family="sans-serif" font-size="14" lengthAdjust="spacing" textLength="48" x="101" y="237.9063">: string</text><ellipse cx="18" cy="250.6035" fill="none" rx="3" ry="3" style="stroke:#038048;stroke-width:1.0;"/><text fill="#000000" font-family="sans-serif" font-size="14" font-weight="bold" lengthAdjust="spacing" textLength="48" x="27" y="254.3945">staked</text><text fill="#000000" font-family="sans-serif" font-size="14" lengthAdjust="spacing" textLength="44" x="79" y="254.3945">: Int64</text><line style="stroke:#5A0000;stroke-width:2.0;" x1="8" x2="357" y1="261.3477" y2="261.3477"/><ellipse cx="18" cy="275.0918" fill="#84BE84" rx="3" ry="3" style="stroke:#038048;stroke-width:1.0;"/><text fill="#000000" font-family="sans-serif" font-size="14" lengthAdjust="spacing" textLength="192" x="27" y="278.8828">equals(other: any) : boolean</text><ellipse cx="18" cy="291.5801" fill="#84BE84" rx="3" ry="3" style="stroke:#038048;stroke-width:1.0;"/><text fill="#000000" font-family="sans-serif" font-size="14" lengthAdjust="spacing" text-decoration="underline" textLength="325" x="27" y="295.3711">from&lt;T&gt;(this: T, value: any) : InstanceType&lt;T&gt;</text><ellipse cx="18" cy="308.0684" fill="#84BE84" rx="3" ry="3" style="stroke:#038048;stroke-width:1.0;"/><text fill="#000000" font-family="sans-serif" font-size="14" lengthAdjust="spacing" text-decoration="underline" textLength="187" x="27" y="311.8594">from(value: any) : unknown</text></g><!--reverse link AccountVoterInfo to TelosAccountVoterInfo--><g id="link_AccountVoterInfo_TelosAccountVoterInfo"><path codeLine="47" d="M182.5,337.04 C182.5,356.6 182.5,358.66 182.5,378.35 " fill="none" id="AccountVoterInfo-backto-TelosAccountVoterInfo" style="stroke:#181818;stroke-width:1.0;"/><polygon fill="none" points="182.5,319.04,176.5,337.04,188.5,337.04,182.5,319.04" style="stroke:#181818;stroke-width:1.0;"/></g><!--SRC=[xPGnRzim48Lt_meYauisQEgq7Gp3G6p0W9SEjTgb28mJUR88KJptZhAZfldlfHtPbXCLw9OXvIP-xztnaGT9OVqQ64erTI0o8nyMeNQeKdAc9-Tq0hfOCLNUJCaHgqnd0wsVgOWDygFY4rp5rL9yVNIpHrPNtSuajxhmAA86lTmQL5YkGwqoYyv8UwV4a5FSEbLPv61eQ_rA1Qwm1PwUF31uYGXzwEbTQtMHe2EvqJgAmdSAo7EVqOMwxwcuxYL0iFf1lHsbOqZj10H7xzEn6ggRoNo1RC7PNv0wd9ANs5m7uaxdR1_ZvDr__xZjr7w1yj0breonzgeTp1oiv4F3lirzk1uScPNbckckRcXAv13y4SUqOHaR5OVIqVtvupdUnFpBBTfL7XhHp16qPRIDBzYmtJ6F8BOsbKQM5cpYDVZEelc73kqCPnqO1Nc3Pj0T_u2lkszkdzmyZuu_At3Ifv0Z3nNu-isJkpizJiPKZf9nF-HMXYfvfpRWAZoQvd40m6jCwZL6MOUvVsweVE7ZVVOU3gFuMgRm_vYzp9Xr3DZez-Nbt_w1Vm00]--></g></svg>