<?xml version="1.0" encoding="us-ascii" standalone="no"?><svg xmlns="http://www.w3.org/2000/svg" xmlns:xlink="http://www.w3.org/1999/xlink" contentStyleType="text/css" height="450px" preserveAspectRatio="none" style="width:448px;height:450px;" version="1.1" viewBox="0 0 448 450" width="448px" zoomAndPan="magnify"><defs><filter height="300%" id="f5kjymlz0gxun" width="300%" x="-1" y="-1"><feGaussianBlur result="blurOut" stdDeviation="2.0"/><feColorMatrix in="blurOut" result="blurOut2" type="matrix" values="0 0 0 0 0 0 0 0 0 0 0 0 0 0 0 0 0 0 .4 0"/><feOffset dx="4.0" dy="4.0" in="blurOut2" result="blurOut3"/><feBlend in="SourceGraphic" in2="blurOut3" mode="normal"/></filter></defs><g><!--class TimePoint--><g id="elem_TimePoint"><rect codeLine="10" fill="#FCF2CC" filter="url(#f5kjymlz0gxun)" height="344.7891" id="TimePoint" style="stroke:#5A0000;stroke-width:2.0;" width="429" x="7" y="93.49"/><ellipse cx="179.75" cy="109.49" fill="#ADD1B2" rx="11" ry="11" style="stroke:#181818;stroke-width:1.0;"/><path d="M182.2231,115.6331 Q181.6421,115.9319 181.0029,116.0813 Q180.3638,116.2307 179.6582,116.2307 Q177.1514,116.2307 175.8315,114.5789 Q174.5117,112.927 174.5117,109.8059 Q174.5117,106.6765 175.8315,105.0247 Q177.1514,103.3728 179.6582,103.3728 Q180.3638,103.3728 181.0112,103.5222 Q181.6587,103.6716 182.2231,103.9705 L182.2231,106.6931 Q181.5923,106.1121 180.9988,105.8423 Q180.4053,105.5725 179.7744,105.5725 Q178.4297,105.5725 177.7449,106.6392 Q177.0601,107.7058 177.0601,109.8059 Q177.0601,111.8977 177.7449,112.9644 Q178.4297,114.031 179.7744,114.031 Q180.4053,114.031 180.9988,113.7612 Q181.5923,113.4915 182.2231,112.9104 Z " fill="#000000"/><text fill="#000000" font-family="sans-serif" font-size="14" font-weight="bold" lengthAdjust="spacing" textLength="75" x="200.25" y="114.781">TimePoint</text><line style="stroke:#5A0000;stroke-width:2.0;" x1="8" x2="435" y1="125.49" y2="125.49"/><ellipse cx="18" cy="139.2341" fill="none" rx="3" ry="3" style="stroke:#038048;stroke-width:1.0;"/><text fill="#000000" font-family="sans-serif" font-size="14" font-weight="bold" lengthAdjust="spacing" text-decoration="underline" textLength="63" x="27" y="143.0252">abiName</text><text fill="#000000" font-family="sans-serif" font-size="14" lengthAdjust="spacing" text-decoration="underline" textLength="48" x="94" y="143.0252">: string</text><ellipse cx="18" cy="155.7224" fill="none" rx="3" ry="3" style="stroke:#038048;stroke-width:1.0;"/><text fill="#000000" font-family="sans-serif" font-size="14" font-weight="bold" lengthAdjust="spacing" textLength="38" x="27" y="159.5134">value</text><text fill="#000000" font-family="sans-serif" font-size="14" lengthAdjust="spacing" textLength="44" x="69" y="159.5134">: Int64</text><line style="stroke:#5A0000;stroke-width:2.0;" x1="8" x2="435" y1="166.4666" y2="166.4666"/><ellipse cx="18" cy="180.2107" fill="#84BE84" rx="3" ry="3" style="stroke:#038048;stroke-width:1.0;"/><text fill="#000000" font-family="sans-serif" font-size="14" lengthAdjust="spacing" text-decoration="underline" textLength="286" x="27" y="184.0017">abiDefault&lt;T&gt;(this: T) : InstanceType&lt;T&gt;</text><ellipse cx="18" cy="196.699" fill="#84BE84" rx="3" ry="3" style="stroke:#038048;stroke-width:1.0;"/><text fill="#000000" font-family="sans-serif" font-size="14" lengthAdjust="spacing" textLength="270" x="27" y="200.49">equals(other: TimePointType) : boolean</text><ellipse cx="18" cy="213.1873" fill="#84BE84" rx="3" ry="3" style="stroke:#038048;stroke-width:1.0;"/><text fill="#000000" font-family="sans-serif" font-size="14" lengthAdjust="spacing" text-decoration="underline" textLength="403" x="27" y="216.9783">from&lt;T&gt;(this: T, value: TimePointType) : InstanceType&lt;T&gt;</text><ellipse cx="18" cy="229.6755" fill="#84BE84" rx="3" ry="3" style="stroke:#038048;stroke-width:1.0;"/><text fill="#000000" font-family="sans-serif" font-size="14" lengthAdjust="spacing" text-decoration="underline" textLength="265" x="27" y="233.4666">from(value: TimePointType) : unknown</text><ellipse cx="18" cy="246.1638" fill="#84BE84" rx="3" ry="3" style="stroke:#038048;stroke-width:1.0;"/><text fill="#000000" font-family="sans-serif" font-size="14" lengthAdjust="spacing" text-decoration="underline" textLength="289" x="27" y="249.9548">fromABI(decoder: ABIDecoder) : TimePoint</text><ellipse cx="18" cy="262.6521" fill="#84BE84" rx="3" ry="3" style="stroke:#038048;stroke-width:1.0;"/><text fill="#000000" font-family="sans-serif" font-size="14" lengthAdjust="spacing" text-decoration="underline" textLength="357" x="27" y="266.4431">fromDate&lt;T&gt;(this: T, date: Date) : InstanceType&lt;T&gt;</text><ellipse cx="18" cy="279.1404" fill="#84BE84" rx="3" ry="3" style="stroke:#038048;stroke-width:1.0;"/><text fill="#000000" font-family="sans-serif" font-size="14" lengthAdjust="spacing" text-decoration="underline" textLength="219" x="27" y="282.9314">fromDate(date: Date) : unknown</text><ellipse cx="18" cy="295.6287" fill="#84BE84" rx="3" ry="3" style="stroke:#038048;stroke-width:1.0;"/><text fill="#000000" font-family="sans-serif" font-size="14" lengthAdjust="spacing" text-decoration="underline" textLength="286" x="27" y="299.4197">fromInteger(value: Int64Type) : TimePoint</text><ellipse cx="18" cy="312.117" fill="#84BE84" rx="3" ry="3" style="stroke:#038048;stroke-width:1.0;"/><text fill="#000000" font-family="sans-serif" font-size="14" lengthAdjust="spacing" text-decoration="underline" textLength="290" x="27" y="315.908">fromMilliseconds(ms: number) : TimePoint</text><ellipse cx="18" cy="328.6052" fill="#84BE84" rx="3" ry="3" style="stroke:#038048;stroke-width:1.0;"/><text fill="#000000" font-family="sans-serif" font-size="14" lengthAdjust="spacing" text-decoration="underline" textLength="386" x="27" y="332.3962">fromString&lt;T&gt;(this: T, string: string) : InstanceType&lt;T&gt;</text><ellipse cx="18" cy="345.0935" fill="#84BE84" rx="3" ry="3" style="stroke:#038048;stroke-width:1.0;"/><text fill="#000000" font-family="sans-serif" font-size="14" lengthAdjust="spacing" text-decoration="underline" textLength="248" x="27" y="348.8845">fromString(string: string) : unknown</text><ellipse cx="18" cy="361.5818" fill="#84BE84" rx="3" ry="3" style="stroke:#038048;stroke-width:1.0;"/><text fill="#000000" font-family="sans-serif" font-size="14" lengthAdjust="spacing" textLength="229" x="27" y="365.3728">toABI(encoder: ABIEncoder) : void</text><ellipse cx="18" cy="378.0701" fill="#84BE84" rx="3" ry="3" style="stroke:#038048;stroke-width:1.0;"/><text fill="#000000" font-family="sans-serif" font-size="14" lengthAdjust="spacing" textLength="98" x="27" y="381.8611">toDate() : Date</text><ellipse cx="18" cy="394.5584" fill="#84BE84" rx="3" ry="3" style="stroke:#038048;stroke-width:1.0;"/><text fill="#000000" font-family="sans-serif" font-size="14" lengthAdjust="spacing" textLength="109" x="27" y="398.3494">toJSON() : string</text><ellipse cx="18" cy="411.0466" fill="#84BE84" rx="3" ry="3" style="stroke:#038048;stroke-width:1.0;"/><text fill="#000000" font-family="sans-serif" font-size="14" lengthAdjust="spacing" textLength="174" x="27" y="414.8377">toMilliseconds() : number</text><ellipse cx="18" cy="427.5349" fill="#84BE84" rx="3" ry="3" style="stroke:#038048;stroke-width:1.0;"/><text fill="#000000" font-family="sans-serif" font-size="14" lengthAdjust="spacing" textLength="117" x="27" y="431.3259">toString() : string</text></g><!--class TimePointBase--><g id="elem_TimePointBase"><rect codeLine="30" fill="#FCF2CC" filter="url(#f5kjymlz0gxun)" height="26.4883" id="TimePointBase" style="stroke:#5A0000;stroke-width:2.0;" width="114" x="164.5" y="7"/><text fill="#000000" font-family="sans-serif" font-size="14" font-weight="bold" lengthAdjust="spacing" textLength="108" x="167.5" y="25.5352">TimePointBase</text></g><!--reverse link TimePointBase to TimePoint--><g id="link_TimePointBase_TimePoint"><path codeLine="32" d="M221.5,51.66 C221.5,64.46 221.5,68.03 221.5,93 " fill="none" id="TimePointBase-backto-TimePoint" style="stroke:#181818;stroke-width:1.0;"/><polygon fill="none" points="221.5,33.66,215.5,51.66,227.5,51.66,221.5,33.66" style="stroke:#181818;stroke-width:1.0;"/></g><!--SRC=[ZLFHJjmm47pFLwpkAOYY8bJwS3gTrEEA159frSiFEFRcOfspFkmDw0JyU-saWIGNMlAKpCxipcHjlzEq5qvKS6M4zzUMUCC7Wv1Ren8_hAw4t6sThKbTMMCT5BAuaFA8PPr2rp8knNbuUepVhTeHEZYVLcQbbZj2x-4YARL2m6hF1oWq6kNxI8LSsW2zTTcKGjb7JLjWLsElC7REJf0F9IHEP1mDiqnN-CjguXay9H2U9y-2jNo1qqM-5Bc-4nKkFkTBc8Dd5uOqh5Xy4ARkIZV4Nx-Cz46ynaBKXXVPCkLI-pba9mqvS4XYTjXZABKDyRuMngUMItI1rzcAdAZ9hJKeQ3IYSBRgDVy4ZQS9-TJ8OPlqFMbDExAFKvE_hMvIXTAgw3XyhDltA7hjCY5R2yQ1QHM0EKJuOrOZCnsAtZSPDeDRT5syPb5Tj7-v_A6DqJua8kNJAXYbkih_7sxJd951lFROTCVdOn7RDkcnj1_qb6rS0TBR2hxJwmeUh5OThVbZ4Oml7NYx-NdNWFrppNOGF9RRu5tvhxEUxkNeBgs4nrbxPqSWIEsamMGCBvxFplgNyGy0]--></g></svg>