<?xml version="1.0" encoding="us-ascii" standalone="no"?><svg xmlns="http://www.w3.org/2000/svg" xmlns:xlink="http://www.w3.org/1999/xlink" contentStyleType="text/css" height="695px" preserveAspectRatio="none" style="width:370px;height:695px;" version="1.1" viewBox="0 0 370 695" width="370px" zoomAndPan="magnify"><defs><filter height="300%" id="f5xt2j2qyev7f" width="300%" x="-1" y="-1"><feGaussianBlur result="blurOut" stdDeviation="2.0"/><feColorMatrix in="blurOut" result="blurOut2" type="matrix" values="0 0 0 0 0 0 0 0 0 0 0 0 0 0 0 0 0 0 .4 0"/><feOffset dx="4.0" dy="4.0" in="blurOut2" result="blurOut3"/><feBlend in="SourceGraphic" in2="blurOut3" mode="normal"/></filter></defs><g><!--class TransactionReceipt--><g id="elem_TransactionReceipt"><rect codeLine="10" fill="#FCF2CC" filter="url(#f5xt2j2qyev7f)" height="196.3945" id="TransactionReceipt" style="stroke:#5A0000;stroke-width:2.0;" width="351" x="7" y="213.93"/><ellipse cx="109.25" cy="229.93" fill="#ADD1B2" rx="11" ry="11" style="stroke:#181818;stroke-width:1.0;"/><path d="M111.7231,236.0731 Q111.1421,236.3719 110.5029,236.5213 Q109.8638,236.6707 109.1582,236.6707 Q106.6514,236.6707 105.3315,235.0189 Q104.0117,233.367 104.0117,230.2459 Q104.0117,227.1165 105.3315,225.4647 Q106.6514,223.8128 109.1582,223.8128 Q109.8638,223.8128 110.5112,223.9622 Q111.1587,224.1116 111.7231,224.4105 L111.7231,227.1331 Q111.0923,226.5521 110.4988,226.2823 Q109.9053,226.0125 109.2744,226.0125 Q107.9297,226.0125 107.2449,227.0792 Q106.5601,228.1458 106.5601,230.2459 Q106.5601,232.3377 107.2449,233.4044 Q107.9297,234.471 109.2744,234.471 Q109.9053,234.471 110.4988,234.2012 Q111.0923,233.9315 111.7231,233.3504 Z " fill="#000000"/><text fill="#000000" font-family="sans-serif" font-size="14" font-weight="bold" lengthAdjust="spacing" textLength="138" x="129.75" y="235.221">TransactionReceipt</text><line style="stroke:#5A0000;stroke-width:2.0;" x1="8" x2="357" y1="245.93" y2="245.93"/><ellipse cx="18" cy="259.6741" fill="none" rx="3" ry="3" style="stroke:#038048;stroke-width:1.0;"/><text fill="#000000" font-family="sans-serif" font-size="14" font-weight="bold" lengthAdjust="spacing" text-decoration="underline" textLength="55" x="27" y="263.4652">abiBase</text><text fill="#000000" font-family="sans-serif" font-size="14" lengthAdjust="spacing" text-decoration="underline" textLength="191" x="86" y="263.4652">: ABISerializableConstructor</text><ellipse cx="18" cy="276.1624" fill="none" rx="3" ry="3" style="stroke:#038048;stroke-width:1.0;"/><text fill="#000000" font-family="sans-serif" font-size="14" font-weight="bold" lengthAdjust="spacing" text-decoration="underline" textLength="65" x="27" y="279.9534">abiFields</text><text fill="#000000" font-family="sans-serif" font-size="14" lengthAdjust="spacing" text-decoration="underline" textLength="73" x="96" y="279.9534">: ABIField[]</text><ellipse cx="18" cy="292.6507" fill="none" rx="3" ry="3" style="stroke:#038048;stroke-width:1.0;"/><text fill="#000000" font-family="sans-serif" font-size="14" font-weight="bold" lengthAdjust="spacing" text-decoration="underline" textLength="63" x="27" y="296.4417">abiName</text><text fill="#000000" font-family="sans-serif" font-size="14" lengthAdjust="spacing" text-decoration="underline" textLength="48" x="94" y="296.4417">: string</text><ellipse cx="18" cy="309.139" fill="none" rx="3" ry="3" style="stroke:#038048;stroke-width:1.0;"/><text fill="#000000" font-family="sans-serif" font-size="14" font-weight="bold" lengthAdjust="spacing" textLength="98" x="27" y="312.93">cpu_usage_us</text><text fill="#000000" font-family="sans-serif" font-size="14" lengthAdjust="spacing" textLength="54" x="129" y="312.93">: UInt32</text><ellipse cx="18" cy="325.6273" fill="none" rx="3" ry="3" style="stroke:#038048;stroke-width:1.0;"/><text fill="#000000" font-family="sans-serif" font-size="14" font-weight="bold" lengthAdjust="spacing" textLength="123" x="27" y="329.4183">net_usage_words</text><text fill="#000000" font-family="sans-serif" font-size="14" lengthAdjust="spacing" textLength="54" x="154" y="329.4183">: UInt32</text><ellipse cx="18" cy="342.1155" fill="none" rx="3" ry="3" style="stroke:#038048;stroke-width:1.0;"/><text fill="#000000" font-family="sans-serif" font-size="14" font-weight="bold" lengthAdjust="spacing" textLength="45" x="27" y="345.9066">status</text><text fill="#000000" font-family="sans-serif" font-size="14" lengthAdjust="spacing" textLength="48" x="76" y="345.9066">: string</text><line style="stroke:#5A0000;stroke-width:2.0;" x1="8" x2="357" y1="352.8597" y2="352.8597"/><ellipse cx="18" cy="366.6038" fill="#84BE84" rx="3" ry="3" style="stroke:#038048;stroke-width:1.0;"/><text fill="#000000" font-family="sans-serif" font-size="14" lengthAdjust="spacing" textLength="192" x="27" y="370.3948">equals(other: any) : boolean</text><ellipse cx="18" cy="383.0921" fill="#84BE84" rx="3" ry="3" style="stroke:#038048;stroke-width:1.0;"/><text fill="#000000" font-family="sans-serif" font-size="14" lengthAdjust="spacing" text-decoration="underline" textLength="325" x="27" y="386.8831">from&lt;T&gt;(this: T, value: any) : InstanceType&lt;T&gt;</text><ellipse cx="18" cy="399.5804" fill="#84BE84" rx="3" ry="3" style="stroke:#038048;stroke-width:1.0;"/><text fill="#000000" font-family="sans-serif" font-size="14" lengthAdjust="spacing" text-decoration="underline" textLength="187" x="27" y="403.3714">from(value: any) : unknown</text></g><!--class Struct--><g id="elem_Struct"><rect codeLine="21" fill="#FCF2CC" filter="url(#f5xt2j2qyev7f)" height="146.9297" id="Struct" style="stroke:#5A0000;stroke-width:2.0;" width="351" x="7" y="7"/><ellipse cx="157.25" cy="23" fill="#ADD1B2" rx="11" ry="11" style="stroke:#181818;stroke-width:1.0;"/><path d="M159.7231,29.1431 Q159.1421,29.4419 158.5029,29.5913 Q157.8638,29.7407 157.1582,29.7407 Q154.6514,29.7407 153.3315,28.0889 Q152.0117,26.437 152.0117,23.3159 Q152.0117,20.1865 153.3315,18.5347 Q154.6514,16.8828 157.1582,16.8828 Q157.8638,16.8828 158.5112,17.0322 Q159.1587,17.1816 159.7231,17.4805 L159.7231,20.2031 Q159.0923,19.6221 158.4988,19.3523 Q157.9053,19.0825 157.2744,19.0825 Q155.9297,19.0825 155.2449,20.1492 Q154.5601,21.2158 154.5601,23.3159 Q154.5601,25.4077 155.2449,26.4744 Q155.9297,27.541 157.2744,27.541 Q157.9053,27.541 158.4988,27.2712 Q159.0923,27.0015 159.7231,26.4204 Z " fill="#000000"/><text fill="#000000" font-family="sans-serif" font-size="14" font-weight="bold" lengthAdjust="spacing" textLength="42" x="177.75" y="28.291">Struct</text><line style="stroke:#5A0000;stroke-width:2.0;" x1="8" x2="357" y1="39" y2="39"/><ellipse cx="18" cy="52.7441" fill="none" rx="3" ry="3" style="stroke:#038048;stroke-width:1.0;"/><text fill="#000000" font-family="sans-serif" font-size="14" font-weight="bold" lengthAdjust="spacing" text-decoration="underline" textLength="55" x="27" y="56.5352">abiBase</text><text fill="#000000" font-family="sans-serif" font-size="14" lengthAdjust="spacing" text-decoration="underline" textLength="191" x="86" y="56.5352">: ABISerializableConstructor</text><ellipse cx="18" cy="69.2324" fill="none" rx="3" ry="3" style="stroke:#038048;stroke-width:1.0;"/><text fill="#000000" font-family="sans-serif" font-size="14" font-weight="bold" lengthAdjust="spacing" text-decoration="underline" textLength="65" x="27" y="73.0234">abiFields</text><text fill="#000000" font-family="sans-serif" font-size="14" lengthAdjust="spacing" text-decoration="underline" textLength="73" x="96" y="73.0234">: ABIField[]</text><ellipse cx="18" cy="85.7207" fill="none" rx="3" ry="3" style="stroke:#038048;stroke-width:1.0;"/><text fill="#000000" font-family="sans-serif" font-size="14" font-weight="bold" lengthAdjust="spacing" text-decoration="underline" textLength="63" x="27" y="89.5117">abiName</text><text fill="#000000" font-family="sans-serif" font-size="14" lengthAdjust="spacing" text-decoration="underline" textLength="48" x="94" y="89.5117">: string</text><line style="stroke:#5A0000;stroke-width:2.0;" x1="8" x2="357" y1="96.4648" y2="96.4648"/><ellipse cx="18" cy="110.209" fill="#84BE84" rx="3" ry="3" style="stroke:#038048;stroke-width:1.0;"/><text fill="#000000" font-family="sans-serif" font-size="14" lengthAdjust="spacing" textLength="192" x="27" y="114">equals(other: any) : boolean</text><ellipse cx="18" cy="126.6973" fill="#84BE84" rx="3" ry="3" style="stroke:#038048;stroke-width:1.0;"/><text fill="#000000" font-family="sans-serif" font-size="14" lengthAdjust="spacing" text-decoration="underline" textLength="325" x="27" y="130.4883">from&lt;T&gt;(this: T, value: any) : InstanceType&lt;T&gt;</text><ellipse cx="18" cy="143.1855" fill="#84BE84" rx="3" ry="3" style="stroke:#038048;stroke-width:1.0;"/><text fill="#000000" font-family="sans-serif" font-size="14" lengthAdjust="spacing" text-decoration="underline" textLength="187" x="27" y="146.9766">from(value: any) : unknown</text></g><!--class GetBlockResponseTransactionReceipt--><g id="elem_GetBlockResponseTransactionReceipt"><rect codeLine="30" fill="#FCF2CC" filter="url(#f5xt2j2qyev7f)" height="212.8828" id="GetBlockResponseTransactionReceipt" style="stroke:#5A0000;stroke-width:2.0;" width="351" x="7" y="470.33"/><ellipse cx="44.05" cy="486.33" fill="#ADD1B2" rx="11" ry="11" style="stroke:#181818;stroke-width:1.0;"/><path d="M46.5231,492.4731 Q45.9421,492.7719 45.3029,492.9213 Q44.6638,493.0707 43.9582,493.0707 Q41.4514,493.0707 40.1315,491.4189 Q38.8117,489.767 38.8117,486.6459 Q38.8117,483.5165 40.1315,481.8647 Q41.4514,480.2128 43.9582,480.2128 Q44.6638,480.2128 45.3112,480.3622 Q45.9587,480.5116 46.5231,480.8105 L46.5231,483.5331 Q45.8923,482.9521 45.2988,482.6823 Q44.7053,482.4125 44.0744,482.4125 Q42.7297,482.4125 42.0449,483.4792 Q41.3601,484.5458 41.3601,486.6459 Q41.3601,488.7377 42.0449,489.8044 Q42.7297,490.871 44.0744,490.871 Q44.7053,490.871 45.2988,490.6012 Q45.8923,490.3315 46.5231,489.7504 Z " fill="#000000"/><text fill="#000000" font-family="sans-serif" font-size="14" font-weight="bold" lengthAdjust="spacing" textLength="270" x="62.95" y="491.621">GetBlockResponseTransactionReceipt</text><line style="stroke:#5A0000;stroke-width:2.0;" x1="8" x2="357" y1="502.33" y2="502.33"/><ellipse cx="18" cy="516.0741" fill="none" rx="3" ry="3" style="stroke:#038048;stroke-width:1.0;"/><text fill="#000000" font-family="sans-serif" font-size="14" font-weight="bold" lengthAdjust="spacing" text-decoration="underline" textLength="55" x="27" y="519.8652">abiBase</text><text fill="#000000" font-family="sans-serif" font-size="14" lengthAdjust="spacing" text-decoration="underline" textLength="191" x="86" y="519.8652">: ABISerializableConstructor</text><ellipse cx="18" cy="532.5624" fill="none" rx="3" ry="3" style="stroke:#038048;stroke-width:1.0;"/><text fill="#000000" font-family="sans-serif" font-size="14" font-weight="bold" lengthAdjust="spacing" text-decoration="underline" textLength="65" x="27" y="536.3534">abiFields</text><text fill="#000000" font-family="sans-serif" font-size="14" lengthAdjust="spacing" text-decoration="underline" textLength="73" x="96" y="536.3534">: ABIField[]</text><ellipse cx="18" cy="549.0507" fill="none" rx="3" ry="3" style="stroke:#038048;stroke-width:1.0;"/><text fill="#000000" font-family="sans-serif" font-size="14" font-weight="bold" lengthAdjust="spacing" text-decoration="underline" textLength="63" x="27" y="552.8417">abiName</text><text fill="#000000" font-family="sans-serif" font-size="14" lengthAdjust="spacing" text-decoration="underline" textLength="48" x="94" y="552.8417">: string</text><ellipse cx="18" cy="565.539" fill="none" rx="3" ry="3" style="stroke:#038048;stroke-width:1.0;"/><text fill="#000000" font-family="sans-serif" font-size="14" font-weight="bold" lengthAdjust="spacing" textLength="98" x="27" y="569.33">cpu_usage_us</text><text fill="#000000" font-family="sans-serif" font-size="14" lengthAdjust="spacing" textLength="54" x="129" y="569.33">: UInt32</text><ellipse cx="18" cy="582.0273" fill="none" rx="3" ry="3" style="stroke:#038048;stroke-width:1.0;"/><text fill="#000000" font-family="sans-serif" font-size="14" font-weight="bold" lengthAdjust="spacing" textLength="123" x="27" y="585.8183">net_usage_words</text><text fill="#000000" font-family="sans-serif" font-size="14" lengthAdjust="spacing" textLength="54" x="154" y="585.8183">: UInt32</text><ellipse cx="18" cy="598.5155" fill="none" rx="3" ry="3" style="stroke:#038048;stroke-width:1.0;"/><text fill="#000000" font-family="sans-serif" font-size="14" font-weight="bold" lengthAdjust="spacing" textLength="45" x="27" y="602.3066">status</text><text fill="#000000" font-family="sans-serif" font-size="14" lengthAdjust="spacing" textLength="48" x="76" y="602.3066">: string</text><ellipse cx="18" cy="615.0038" fill="none" rx="3" ry="3" style="stroke:#038048;stroke-width:1.0;"/><text fill="#000000" font-family="sans-serif" font-size="14" font-weight="bold" lengthAdjust="spacing" textLength="20" x="27" y="618.7948">trx</text><text fill="#000000" font-family="sans-serif" font-size="14" lengthAdjust="spacing" textLength="81" x="51" y="618.7948">: TrxVariant</text><line style="stroke:#5A0000;stroke-width:2.0;" x1="8" x2="357" y1="625.748" y2="625.748"/><ellipse cx="18" cy="639.4921" fill="#84BE84" rx="3" ry="3" style="stroke:#038048;stroke-width:1.0;"/><text fill="#000000" font-family="sans-serif" font-size="14" lengthAdjust="spacing" textLength="192" x="27" y="643.2831">equals(other: any) : boolean</text><ellipse cx="18" cy="655.9804" fill="#84BE84" rx="3" ry="3" style="stroke:#038048;stroke-width:1.0;"/><text fill="#000000" font-family="sans-serif" font-size="14" lengthAdjust="spacing" text-decoration="underline" textLength="325" x="27" y="659.7714">from&lt;T&gt;(this: T, value: any) : InstanceType&lt;T&gt;</text><ellipse cx="18" cy="672.4687" fill="#84BE84" rx="3" ry="3" style="stroke:#038048;stroke-width:1.0;"/><text fill="#000000" font-family="sans-serif" font-size="14" lengthAdjust="spacing" text-decoration="underline" textLength="187" x="27" y="676.2597">from(value: any) : unknown</text></g><!--reverse link Struct to TransactionReceipt--><g id="link_Struct_TransactionReceipt"><path codeLine="29" d="M182.5,172.13 C182.5,191.06 182.5,193.76 182.5,213.73 " fill="none" id="Struct-backto-TransactionReceipt" style="stroke:#181818;stroke-width:1.0;"/><polygon fill="none" points="182.5,154.13,176.5,172.13,188.5,172.13,182.5,154.13" style="stroke:#181818;stroke-width:1.0;"/></g><!--reverse link TransactionReceipt to GetBlockResponseTransactionReceipt--><g id="link_TransactionReceipt_GetBlockResponseTransactionReceipt"><path codeLine="42" d="M182.5,428.55 C182.5,447.97 182.5,450.45 182.5,470.12 " fill="none" id="TransactionReceipt-backto-GetBlockResponseTransactionReceipt" style="stroke:#181818;stroke-width:1.0;"/><polygon fill="none" points="182.5,410.55,176.5,428.55,188.5,428.55,182.5,410.55" style="stroke:#181818;stroke-width:1.0;"/></g><!--SRC=[xLHDQzj04BthLmmvkJGXmQKNOmon8S6N7cobbrB2Q3Ms5grcrDrH73VDV-_wCqgYG8y-T0yBcdbltkvxYq9fkKQF5KmSXd0Zh7DTEu9CN9w4rzqncdBffU5y8auyBCoYRymxbFYS_0xn5Q_YQY5cExPdyd3LpKmBQqgc4A2V53OdeAhMDImikJoqAnLf8R7qCcLUO2uhoqjGtr2hyVRawf53R15hOZRIS9PkIcZK2i_8aAtr39uIYEifAAerp_1vc8qmisCCDBpCHZ20w_5qJjwYixynSpGH3b7PgFXEvits3Y_SxVUFdvtORrWTLEBCUASjQjCqTNFV15nItFU8kodhb_uHmQHxn2fQ-W5eetSSq9QWNmswq1Cjo0y0UVqf0Z8HHyXlZhhmKWtJKKyB6mQGdiC3keQEf6cq0zbGkgufmZh8lTU4XakM5IVFXrJcMpjFCecJiEbeqF3FnKNd8puuUKiwTcBA6OKwcaF_ttjBGltZlf7wn-yORnX_32UKSbTOkyJ_8TQ_]--></g></svg>