<?xml version="1.0" encoding="us-ascii" standalone="no"?><svg xmlns="http://www.w3.org/2000/svg" xmlns:xlink="http://www.w3.org/1999/xlink" contentStyleType="text/css" height="1024px" preserveAspectRatio="none" style="width:621px;height:1024px;" version="1.1" viewBox="0 0 621 1024" width="621px" zoomAndPan="magnify"><defs><filter height="300%" id="f76fuq2r44k46" width="300%" x="-1" y="-1"><feGaussianBlur result="blurOut" stdDeviation="2.0"/><feColorMatrix in="blurOut" result="blurOut2" type="matrix" values="0 0 0 0 0 0 0 0 0 0 0 0 0 0 0 0 0 0 .4 0"/><feOffset dx="4.0" dy="4.0" in="blurOut2" result="blurOut3"/><feBlend in="SourceGraphic" in2="blurOut3" mode="normal"/></filter></defs><g><!--class Transaction--><g id="elem_Transaction"><rect codeLine="10" fill="#FCF2CC" filter="url(#f76fuq2r44k46)" height="311.8125" id="Transaction" style="stroke:#5A0000;stroke-width:2.0;" width="602" x="7" y="296.37"/><ellipse cx="261.25" cy="312.37" fill="#ADD1B2" rx="11" ry="11" style="stroke:#181818;stroke-width:1.0;"/><path d="M263.7231,318.5131 Q263.1421,318.8119 262.5029,318.9613 Q261.8638,319.1107 261.1582,319.1107 Q258.6514,319.1107 257.3315,317.4589 Q256.0117,315.807 256.0117,312.6859 Q256.0117,309.5565 257.3315,307.9047 Q258.6514,306.2528 261.1582,306.2528 Q261.8638,306.2528 262.5112,306.4022 Q263.1587,306.5516 263.7231,306.8505 L263.7231,309.5731 Q263.0923,308.9921 262.4988,308.7223 Q261.9053,308.4525 261.2744,308.4525 Q259.9297,308.4525 259.2449,309.5192 Q258.5601,310.5858 258.5601,312.6859 Q258.5601,314.7777 259.2449,315.8444 Q259.9297,316.911 261.2744,316.911 Q261.9053,316.911 262.4988,316.6412 Q263.0923,316.3715 263.7231,315.7904 Z " fill="#000000"/><text fill="#000000" font-family="sans-serif" font-size="14" font-weight="bold" lengthAdjust="spacing" textLength="85" x="281.75" y="317.661">Transaction</text><line style="stroke:#5A0000;stroke-width:2.0;" x1="8" x2="608" y1="328.37" y2="328.37"/><ellipse cx="18" cy="342.1141" fill="none" rx="3" ry="3" style="stroke:#038048;stroke-width:1.0;"/><text fill="#000000" font-family="sans-serif" font-size="14" font-weight="bold" lengthAdjust="spacing" text-decoration="underline" textLength="55" x="27" y="345.9052">abiBase</text><text fill="#000000" font-family="sans-serif" font-size="14" lengthAdjust="spacing" text-decoration="underline" textLength="191" x="86" y="345.9052">: ABISerializableConstructor</text><ellipse cx="18" cy="358.6024" fill="none" rx="3" ry="3" style="stroke:#038048;stroke-width:1.0;"/><text fill="#000000" font-family="sans-serif" font-size="14" font-weight="bold" lengthAdjust="spacing" text-decoration="underline" textLength="65" x="27" y="362.3934">abiFields</text><text fill="#000000" font-family="sans-serif" font-size="14" lengthAdjust="spacing" text-decoration="underline" textLength="73" x="96" y="362.3934">: ABIField[]</text><ellipse cx="18" cy="375.0907" fill="none" rx="3" ry="3" style="stroke:#038048;stroke-width:1.0;"/><text fill="#000000" font-family="sans-serif" font-size="14" font-weight="bold" lengthAdjust="spacing" text-decoration="underline" textLength="63" x="27" y="378.8817">abiName</text><text fill="#000000" font-family="sans-serif" font-size="14" lengthAdjust="spacing" text-decoration="underline" textLength="48" x="94" y="378.8817">: string</text><ellipse cx="18" cy="391.579" fill="none" rx="3" ry="3" style="stroke:#038048;stroke-width:1.0;"/><text fill="#000000" font-family="sans-serif" font-size="14" font-weight="bold" lengthAdjust="spacing" textLength="52" x="27" y="395.37">actions</text><text fill="#000000" font-family="sans-serif" font-size="14" lengthAdjust="spacing" textLength="62" x="83" y="395.37">: Action[]</text><ellipse cx="18" cy="408.0673" fill="none" rx="3" ry="3" style="stroke:#038048;stroke-width:1.0;"/><text fill="#000000" font-family="sans-serif" font-size="14" font-weight="bold" lengthAdjust="spacing" textLength="147" x="27" y="411.8583">context_free_actions</text><text fill="#000000" font-family="sans-serif" font-size="14" lengthAdjust="spacing" textLength="62" x="178" y="411.8583">: Action[]</text><ellipse cx="18" cy="424.5555" fill="none" rx="3" ry="3" style="stroke:#038048;stroke-width:1.0;"/><text fill="#000000" font-family="sans-serif" font-size="14" font-weight="bold" lengthAdjust="spacing" textLength="68" x="27" y="428.3466">delay_sec</text><text fill="#000000" font-family="sans-serif" font-size="14" lengthAdjust="spacing" textLength="59" x="99" y="428.3466">: VarUInt</text><ellipse cx="18" cy="441.0438" fill="none" rx="3" ry="3" style="stroke:#038048;stroke-width:1.0;"/><text fill="#000000" font-family="sans-serif" font-size="14" font-weight="bold" lengthAdjust="spacing" textLength="73" x="27" y="444.8348">expiration</text><text fill="#000000" font-family="sans-serif" font-size="14" lengthAdjust="spacing" textLength="100" x="104" y="444.8348">: TimePointSec</text><ellipse cx="18" cy="457.5321" fill="none" rx="3" ry="3" style="stroke:#038048;stroke-width:1.0;"/><text fill="#000000" font-family="sans-serif" font-size="14" font-weight="bold" lengthAdjust="spacing" textLength="140" x="27" y="461.3231">max_cpu_usage_ms</text><text fill="#000000" font-family="sans-serif" font-size="14" lengthAdjust="spacing" textLength="45" x="171" y="461.3231">: UInt8</text><ellipse cx="18" cy="474.0204" fill="none" rx="3" ry="3" style="stroke:#038048;stroke-width:1.0;"/><text fill="#000000" font-family="sans-serif" font-size="14" font-weight="bold" lengthAdjust="spacing" textLength="160" x="27" y="477.8114">max_net_usage_words</text><text fill="#000000" font-family="sans-serif" font-size="14" lengthAdjust="spacing" textLength="59" x="191" y="477.8114">: VarUInt</text><ellipse cx="18" cy="490.5087" fill="none" rx="3" ry="3" style="stroke:#038048;stroke-width:1.0;"/><text fill="#000000" font-family="sans-serif" font-size="14" font-weight="bold" lengthAdjust="spacing" textLength="105" x="27" y="494.2997">ref_block_num</text><text fill="#000000" font-family="sans-serif" font-size="14" lengthAdjust="spacing" textLength="54" x="136" y="494.2997">: UInt16</text><ellipse cx="18" cy="506.997" fill="none" rx="3" ry="3" style="stroke:#038048;stroke-width:1.0;"/><text fill="#000000" font-family="sans-serif" font-size="14" font-weight="bold" lengthAdjust="spacing" textLength="115" x="27" y="510.788">ref_block_prefix</text><text fill="#000000" font-family="sans-serif" font-size="14" lengthAdjust="spacing" textLength="54" x="146" y="510.788">: UInt32</text><ellipse cx="18" cy="523.4852" fill="none" rx="3" ry="3" style="stroke:#038048;stroke-width:1.0;"/><text fill="#000000" font-family="sans-serif" font-size="14" font-weight="bold" lengthAdjust="spacing" textLength="166" x="27" y="527.2763">transaction_extensions</text><text fill="#000000" font-family="sans-serif" font-size="14" lengthAdjust="spacing" textLength="167" x="197" y="527.2763">: TransactionExtension[]</text><line style="stroke:#5A0000;stroke-width:2.0;" x1="8" x2="608" y1="534.2294" y2="534.2294"/><ellipse cx="18" cy="547.9735" fill="#84BE84" rx="3" ry="3" style="stroke:#038048;stroke-width:1.0;"/><text fill="#000000" font-family="sans-serif" font-size="14" lengthAdjust="spacing" textLength="282" x="27" y="551.7645">equals(other: TransactionType) : boolean</text><ellipse cx="18" cy="564.4618" fill="#84BE84" rx="3" ry="3" style="stroke:#038048;stroke-width:1.0;"/><text fill="#000000" font-family="sans-serif" font-size="14" lengthAdjust="spacing" text-decoration="underline" textLength="576" x="27" y="568.2528">from(object: AnyTransaction | TransactionType, abis: ABIDef | Object[]) : Transaction</text><ellipse cx="18" cy="580.9501" fill="#84BE84" rx="3" ry="3" style="stroke:#038048;stroke-width:1.0;"/><text fill="#000000" font-family="sans-serif" font-size="14" lengthAdjust="spacing" textLength="328" x="27" y="584.7411">signingData(chainId: Checksum256Type) : Bytes</text><ellipse cx="18" cy="597.4384" fill="#84BE84" rx="3" ry="3" style="stroke:#038048;stroke-width:1.0;"/><text fill="#000000" font-family="sans-serif" font-size="14" lengthAdjust="spacing" textLength="403" x="27" y="601.2294">signingDigest(chainId: Checksum256Type) : Checksum256</text></g><!--class TransactionHeader--><g id="elem_TransactionHeader"><rect codeLine="28" fill="#FCF2CC" filter="url(#f76fuq2r44k46)" height="229.3711" id="TransactionHeader" style="stroke:#5A0000;stroke-width:2.0;" width="424" x="96" y="7"/><ellipse cx="236.25" cy="23" fill="#ADD1B2" rx="11" ry="11" style="stroke:#181818;stroke-width:1.0;"/><path d="M238.7231,29.1431 Q238.1421,29.4419 237.5029,29.5913 Q236.8638,29.7407 236.1582,29.7407 Q233.6514,29.7407 232.3315,28.0889 Q231.0117,26.437 231.0117,23.3159 Q231.0117,20.1865 232.3315,18.5347 Q233.6514,16.8828 236.1582,16.8828 Q236.8638,16.8828 237.5112,17.0322 Q238.1587,17.1816 238.7231,17.4805 L238.7231,20.2031 Q238.0923,19.6221 237.4988,19.3523 Q236.9053,19.0825 236.2744,19.0825 Q234.9297,19.0825 234.2449,20.1492 Q233.5601,21.2158 233.5601,23.3159 Q233.5601,25.4077 234.2449,26.4744 Q234.9297,27.541 236.2744,27.541 Q236.9053,27.541 237.4988,27.2712 Q238.0923,27.0015 238.7231,26.4204 Z " fill="#000000"/><text fill="#000000" font-family="sans-serif" font-size="14" font-weight="bold" lengthAdjust="spacing" textLength="135" x="256.75" y="28.291">TransactionHeader</text><line style="stroke:#5A0000;stroke-width:2.0;" x1="97" x2="519" y1="39" y2="39"/><ellipse cx="107" cy="52.7441" fill="none" rx="3" ry="3" style="stroke:#038048;stroke-width:1.0;"/><text fill="#000000" font-family="sans-serif" font-size="14" font-weight="bold" lengthAdjust="spacing" text-decoration="underline" textLength="55" x="116" y="56.5352">abiBase</text><text fill="#000000" font-family="sans-serif" font-size="14" lengthAdjust="spacing" text-decoration="underline" textLength="191" x="175" y="56.5352">: ABISerializableConstructor</text><ellipse cx="107" cy="69.2324" fill="none" rx="3" ry="3" style="stroke:#038048;stroke-width:1.0;"/><text fill="#000000" font-family="sans-serif" font-size="14" font-weight="bold" lengthAdjust="spacing" text-decoration="underline" textLength="65" x="116" y="73.0234">abiFields</text><text fill="#000000" font-family="sans-serif" font-size="14" lengthAdjust="spacing" text-decoration="underline" textLength="73" x="185" y="73.0234">: ABIField[]</text><ellipse cx="107" cy="85.7207" fill="none" rx="3" ry="3" style="stroke:#038048;stroke-width:1.0;"/><text fill="#000000" font-family="sans-serif" font-size="14" font-weight="bold" lengthAdjust="spacing" text-decoration="underline" textLength="63" x="116" y="89.5117">abiName</text><text fill="#000000" font-family="sans-serif" font-size="14" lengthAdjust="spacing" text-decoration="underline" textLength="48" x="183" y="89.5117">: string</text><ellipse cx="107" cy="102.209" fill="none" rx="3" ry="3" style="stroke:#038048;stroke-width:1.0;"/><text fill="#000000" font-family="sans-serif" font-size="14" font-weight="bold" lengthAdjust="spacing" textLength="68" x="116" y="106">delay_sec</text><text fill="#000000" font-family="sans-serif" font-size="14" lengthAdjust="spacing" textLength="59" x="188" y="106">: VarUInt</text><ellipse cx="107" cy="118.6973" fill="none" rx="3" ry="3" style="stroke:#038048;stroke-width:1.0;"/><text fill="#000000" font-family="sans-serif" font-size="14" font-weight="bold" lengthAdjust="spacing" textLength="73" x="116" y="122.4883">expiration</text><text fill="#000000" font-family="sans-serif" font-size="14" lengthAdjust="spacing" textLength="100" x="193" y="122.4883">: TimePointSec</text><ellipse cx="107" cy="135.1855" fill="none" rx="3" ry="3" style="stroke:#038048;stroke-width:1.0;"/><text fill="#000000" font-family="sans-serif" font-size="14" font-weight="bold" lengthAdjust="spacing" textLength="140" x="116" y="138.9766">max_cpu_usage_ms</text><text fill="#000000" font-family="sans-serif" font-size="14" lengthAdjust="spacing" textLength="45" x="260" y="138.9766">: UInt8</text><ellipse cx="107" cy="151.6738" fill="none" rx="3" ry="3" style="stroke:#038048;stroke-width:1.0;"/><text fill="#000000" font-family="sans-serif" font-size="14" font-weight="bold" lengthAdjust="spacing" textLength="160" x="116" y="155.4648">max_net_usage_words</text><text fill="#000000" font-family="sans-serif" font-size="14" lengthAdjust="spacing" textLength="59" x="280" y="155.4648">: VarUInt</text><ellipse cx="107" cy="168.1621" fill="none" rx="3" ry="3" style="stroke:#038048;stroke-width:1.0;"/><text fill="#000000" font-family="sans-serif" font-size="14" font-weight="bold" lengthAdjust="spacing" textLength="105" x="116" y="171.9531">ref_block_num</text><text fill="#000000" font-family="sans-serif" font-size="14" lengthAdjust="spacing" textLength="54" x="225" y="171.9531">: UInt16</text><ellipse cx="107" cy="184.6504" fill="none" rx="3" ry="3" style="stroke:#038048;stroke-width:1.0;"/><text fill="#000000" font-family="sans-serif" font-size="14" font-weight="bold" lengthAdjust="spacing" textLength="115" x="116" y="188.4414">ref_block_prefix</text><text fill="#000000" font-family="sans-serif" font-size="14" lengthAdjust="spacing" textLength="54" x="235" y="188.4414">: UInt32</text><line style="stroke:#5A0000;stroke-width:2.0;" x1="97" x2="519" y1="195.3945" y2="195.3945"/><ellipse cx="107" cy="209.1387" fill="#84BE84" rx="3" ry="3" style="stroke:#038048;stroke-width:1.0;"/><text fill="#000000" font-family="sans-serif" font-size="14" lengthAdjust="spacing" textLength="192" x="116" y="212.9297">equals(other: any) : boolean</text><ellipse cx="107" cy="225.627" fill="#84BE84" rx="3" ry="3" style="stroke:#038048;stroke-width:1.0;"/><text fill="#000000" font-family="sans-serif" font-size="14" lengthAdjust="spacing" text-decoration="underline" textLength="398" x="116" y="229.418">from(object: TransactionHeaderType) : TransactionHeader</text></g><!--class SignedTransaction--><g id="elem_SignedTransaction"><rect codeLine="42" fill="#FCF2CC" filter="url(#f76fuq2r44k46)" height="344.7891" id="SignedTransaction" style="stroke:#5A0000;stroke-width:2.0;" width="429" x="93.5" y="668.18"/><ellipse cx="237.25" cy="684.18" fill="#ADD1B2" rx="11" ry="11" style="stroke:#181818;stroke-width:1.0;"/><path d="M239.7231,690.3231 Q239.1421,690.6219 238.5029,690.7713 Q237.8638,690.9207 237.1582,690.9207 Q234.6514,690.9207 233.3315,689.2689 Q232.0117,687.617 232.0117,684.4959 Q232.0117,681.3665 233.3315,679.7147 Q234.6514,678.0628 237.1582,678.0628 Q237.8638,678.0628 238.5112,678.2122 Q239.1587,678.3616 239.7231,678.6605 L239.7231,681.3831 Q239.0923,680.8021 238.4988,680.5323 Q237.9053,680.2625 237.2744,680.2625 Q235.9297,680.2625 235.2449,681.3292 Q234.5601,682.3958 234.5601,684.4959 Q234.5601,686.5877 235.2449,687.6544 Q235.9297,688.721 237.2744,688.721 Q237.9053,688.721 238.4988,688.4512 Q239.0923,688.1815 239.7231,687.6004 Z " fill="#000000"/><text fill="#000000" font-family="sans-serif" font-size="14" font-weight="bold" lengthAdjust="spacing" textLength="133" x="257.75" y="689.471">SignedTransaction</text><line style="stroke:#5A0000;stroke-width:2.0;" x1="94.5" x2="521.5" y1="700.18" y2="700.18"/><ellipse cx="104.5" cy="713.9241" fill="none" rx="3" ry="3" style="stroke:#038048;stroke-width:1.0;"/><text fill="#000000" font-family="sans-serif" font-size="14" font-weight="bold" lengthAdjust="spacing" text-decoration="underline" textLength="55" x="113.5" y="717.7152">abiBase</text><text fill="#000000" font-family="sans-serif" font-size="14" lengthAdjust="spacing" text-decoration="underline" textLength="191" x="172.5" y="717.7152">: ABISerializableConstructor</text><ellipse cx="104.5" cy="730.4124" fill="none" rx="3" ry="3" style="stroke:#038048;stroke-width:1.0;"/><text fill="#000000" font-family="sans-serif" font-size="14" font-weight="bold" lengthAdjust="spacing" text-decoration="underline" textLength="65" x="113.5" y="734.2034">abiFields</text><text fill="#000000" font-family="sans-serif" font-size="14" lengthAdjust="spacing" text-decoration="underline" textLength="73" x="182.5" y="734.2034">: ABIField[]</text><ellipse cx="104.5" cy="746.9007" fill="none" rx="3" ry="3" style="stroke:#038048;stroke-width:1.0;"/><text fill="#000000" font-family="sans-serif" font-size="14" font-weight="bold" lengthAdjust="spacing" text-decoration="underline" textLength="63" x="113.5" y="750.6917">abiName</text><text fill="#000000" font-family="sans-serif" font-size="14" lengthAdjust="spacing" text-decoration="underline" textLength="48" x="180.5" y="750.6917">: string</text><ellipse cx="104.5" cy="763.389" fill="none" rx="3" ry="3" style="stroke:#038048;stroke-width:1.0;"/><text fill="#000000" font-family="sans-serif" font-size="14" font-weight="bold" lengthAdjust="spacing" textLength="52" x="113.5" y="767.18">actions</text><text fill="#000000" font-family="sans-serif" font-size="14" lengthAdjust="spacing" textLength="62" x="169.5" y="767.18">: Action[]</text><ellipse cx="104.5" cy="779.8773" fill="none" rx="3" ry="3" style="stroke:#038048;stroke-width:1.0;"/><text fill="#000000" font-family="sans-serif" font-size="14" font-weight="bold" lengthAdjust="spacing" textLength="147" x="113.5" y="783.6683">context_free_actions</text><text fill="#000000" font-family="sans-serif" font-size="14" lengthAdjust="spacing" textLength="62" x="264.5" y="783.6683">: Action[]</text><ellipse cx="104.5" cy="796.3655" fill="none" rx="3" ry="3" style="stroke:#038048;stroke-width:1.0;"/><text fill="#000000" font-family="sans-serif" font-size="14" font-weight="bold" lengthAdjust="spacing" textLength="126" x="113.5" y="800.1566">context_free_data</text><text fill="#000000" font-family="sans-serif" font-size="14" lengthAdjust="spacing" textLength="53" x="243.5" y="800.1566">: Bytes[]</text><ellipse cx="104.5" cy="812.8538" fill="none" rx="3" ry="3" style="stroke:#038048;stroke-width:1.0;"/><text fill="#000000" font-family="sans-serif" font-size="14" font-weight="bold" lengthAdjust="spacing" textLength="68" x="113.5" y="816.6448">delay_sec</text><text fill="#000000" font-family="sans-serif" font-size="14" lengthAdjust="spacing" textLength="59" x="185.5" y="816.6448">: VarUInt</text><ellipse cx="104.5" cy="829.3421" fill="none" rx="3" ry="3" style="stroke:#038048;stroke-width:1.0;"/><text fill="#000000" font-family="sans-serif" font-size="14" font-weight="bold" lengthAdjust="spacing" textLength="73" x="113.5" y="833.1331">expiration</text><text fill="#000000" font-family="sans-serif" font-size="14" lengthAdjust="spacing" textLength="100" x="190.5" y="833.1331">: TimePointSec</text><ellipse cx="104.5" cy="845.8304" fill="none" rx="3" ry="3" style="stroke:#038048;stroke-width:1.0;"/><text fill="#000000" font-family="sans-serif" font-size="14" font-weight="bold" lengthAdjust="spacing" textLength="140" x="113.5" y="849.6214">max_cpu_usage_ms</text><text fill="#000000" font-family="sans-serif" font-size="14" lengthAdjust="spacing" textLength="45" x="257.5" y="849.6214">: UInt8</text><ellipse cx="104.5" cy="862.3187" fill="none" rx="3" ry="3" style="stroke:#038048;stroke-width:1.0;"/><text fill="#000000" font-family="sans-serif" font-size="14" font-weight="bold" lengthAdjust="spacing" textLength="160" x="113.5" y="866.1097">max_net_usage_words</text><text fill="#000000" font-family="sans-serif" font-size="14" lengthAdjust="spacing" textLength="59" x="277.5" y="866.1097">: VarUInt</text><ellipse cx="104.5" cy="878.807" fill="none" rx="3" ry="3" style="stroke:#038048;stroke-width:1.0;"/><text fill="#000000" font-family="sans-serif" font-size="14" font-weight="bold" lengthAdjust="spacing" textLength="105" x="113.5" y="882.598">ref_block_num</text><text fill="#000000" font-family="sans-serif" font-size="14" lengthAdjust="spacing" textLength="54" x="222.5" y="882.598">: UInt16</text><ellipse cx="104.5" cy="895.2952" fill="none" rx="3" ry="3" style="stroke:#038048;stroke-width:1.0;"/><text fill="#000000" font-family="sans-serif" font-size="14" font-weight="bold" lengthAdjust="spacing" textLength="115" x="113.5" y="899.0863">ref_block_prefix</text><text fill="#000000" font-family="sans-serif" font-size="14" lengthAdjust="spacing" textLength="54" x="232.5" y="899.0863">: UInt32</text><ellipse cx="104.5" cy="911.7835" fill="none" rx="3" ry="3" style="stroke:#038048;stroke-width:1.0;"/><text fill="#000000" font-family="sans-serif" font-size="14" font-weight="bold" lengthAdjust="spacing" textLength="76" x="113.5" y="915.5745">signatures</text><text fill="#000000" font-family="sans-serif" font-size="14" lengthAdjust="spacing" textLength="84" x="193.5" y="915.5745">: Signature[]</text><ellipse cx="104.5" cy="928.2718" fill="none" rx="3" ry="3" style="stroke:#038048;stroke-width:1.0;"/><text fill="#000000" font-family="sans-serif" font-size="14" font-weight="bold" lengthAdjust="spacing" textLength="166" x="113.5" y="932.0628">transaction_extensions</text><text fill="#000000" font-family="sans-serif" font-size="14" lengthAdjust="spacing" textLength="167" x="283.5" y="932.0628">: TransactionExtension[]</text><line style="stroke:#5A0000;stroke-width:2.0;" x1="94.5" x2="521.5" y1="939.0159" y2="939.0159"/><ellipse cx="104.5" cy="952.7601" fill="#84BE84" rx="3" ry="3" style="stroke:#038048;stroke-width:1.0;"/><text fill="#000000" font-family="sans-serif" font-size="14" lengthAdjust="spacing" textLength="282" x="113.5" y="956.5511">equals(other: TransactionType) : boolean</text><ellipse cx="104.5" cy="969.2484" fill="#84BE84" rx="3" ry="3" style="stroke:#038048;stroke-width:1.0;"/><text fill="#000000" font-family="sans-serif" font-size="14" lengthAdjust="spacing" text-decoration="underline" textLength="394" x="113.5" y="973.0394">from(object: SignedTransactionType) : SignedTransaction</text><ellipse cx="104.5" cy="985.7366" fill="#84BE84" rx="3" ry="3" style="stroke:#038048;stroke-width:1.0;"/><text fill="#000000" font-family="sans-serif" font-size="14" lengthAdjust="spacing" textLength="328" x="113.5" y="989.5277">signingData(chainId: Checksum256Type) : Bytes</text><ellipse cx="104.5" cy="1002.2249" fill="#84BE84" rx="3" ry="3" style="stroke:#038048;stroke-width:1.0;"/><text fill="#000000" font-family="sans-serif" font-size="14" lengthAdjust="spacing" textLength="403" x="113.5" y="1006.0159">signingDigest(chainId: Checksum256Type) : Checksum256</text></g><!--reverse link TransactionHeader to Transaction--><g id="link_TransactionHeader_Transaction"><path codeLine="41" d="M308,254.69 C308,273.87 308,276.07 308,296.09 " fill="none" id="TransactionHeader-backto-Transaction" style="stroke:#181818;stroke-width:1.0;"/><polygon fill="none" points="308,236.69,302,254.69,314,254.69,308,236.69" style="stroke:#181818;stroke-width:1.0;"/></g><!--reverse link Transaction to SignedTransaction--><g id="link_Transaction_SignedTransaction"><path codeLine="62" d="M308,626.45 C308,645.96 308,648.01 308,667.75 " fill="none" id="Transaction-backto-SignedTransaction" style="stroke:#181818;stroke-width:1.0;"/><polygon fill="none" points="308,608.45,302,626.45,314,626.45,308,608.45" style="stroke:#181818;stroke-width:1.0;"/></g><!--SRC=[vLPDRzD04BtdLwnwIWKL9QWLgg9A9AKY5q0aSAagQxmUnqlMksPthSQq_UyTEzx4ZbtA2H3rAPxttinalcIx4Ye30ocRIh3sKYitTuL45ceP3MmRdG1VBOtELJJLKXiMytZ4UOUbJOHcmpY1OteQZ2yRjL5es76_Sf48lb9eBHiD4X4XmpHp1Oi5oiWsBIcwH9DfvsMUGAHlX5eoPt9i0FkPEmFA4eJA3NWPcXqiIXDm9xGwOBS3Hi-jTU04lsSlnk4vX6825iUlmdDsnjvDPdCq0gJu2Q74gLQMGdAdJQ_oiaf-fwtUhwvxkHyXzL789_sPYbM1LNPRDzLRxQI4EJKFrow83MBm13T22KLWaTU4Rs2-pgWO7iTr9WoKefgm42b-reB60_cMbS8wu5aUv1QM6AG-MkdfROkaqDMa6-gnVIIemJW8fUQhGELfmzVhqnvAHZ_5ki5wCzgotAwN0LK4bMtKej7eznxpbS4VEKWxr2v1qs8kYWmFIHngBH7KNkDYezEX3hyZTrHhLJI4x6xVpKj6JRRL65nWJFYdIdXrVTXERfEH5Kj5Ct013eOy0Q5cqHcR9iXNDaz79wS-iKdXqBObOedM_LBKC0tkUnRX0m8jvB-w3l_n3BVd45JncxFNwPtlT0UWVlTrUdntTDI-XNuivZHL63slAzdYHhI2DR5QjcTpJSjx0Yutw2FDlQ5HWhzwSZkpwRKTu8yVrVPtnMQzkglq0000]--></g></svg>