<?xml version="1.0" encoding="us-ascii" standalone="no"?><svg xmlns="http://www.w3.org/2000/svg" xmlns:xlink="http://www.w3.org/1999/xlink" contentStyleType="text/css" height="1272px" preserveAspectRatio="none" style="width:948px;height:1272px;" version="1.1" viewBox="0 0 948 1272" width="948px" zoomAndPan="magnify"><defs><filter height="300%" id="f6zxb4ljj6wue" width="300%" x="-1" y="-1"><feGaussianBlur result="blurOut" stdDeviation="2.0"/><feColorMatrix in="blurOut" result="blurOut2" type="matrix" values="0 0 0 0 0 0 0 0 0 0 0 0 0 0 0 0 0 0 .4 0"/><feOffset dx="4.0" dy="4.0" in="blurOut2" result="blurOut3"/><feBlend in="SourceGraphic" in2="blurOut3" mode="normal"/></filter></defs><g><!--class AccountObject--><g id="elem_AccountObject"><rect codeLine="10" fill="#FCF2CC" filter="url(#f6zxb4ljj6wue)" height="493.1836" id="AccountObject" style="stroke:#5A0000;stroke-width:2.0;" width="447" x="248" y="213.93"/><ellipse cx="415.25" cy="229.93" fill="#ADD1B2" rx="11" ry="11" style="stroke:#181818;stroke-width:1.0;"/><path d="M417.7231,236.0731 Q417.1421,236.3719 416.5029,236.5213 Q415.8638,236.6707 415.1582,236.6707 Q412.6514,236.6707 411.3315,235.0189 Q410.0117,233.367 410.0117,230.2459 Q410.0117,227.1165 411.3315,225.4647 Q412.6514,223.8128 415.1582,223.8128 Q415.8638,223.8128 416.5112,223.9622 Q417.1587,224.1116 417.7231,224.4105 L417.7231,227.1331 Q417.0923,226.5521 416.4988,226.2823 Q415.9053,226.0125 415.2744,226.0125 Q413.9297,226.0125 413.2449,227.0792 Q412.5601,228.1458 412.5601,230.2459 Q412.5601,232.3377 413.2449,233.4044 Q413.9297,234.471 415.2744,234.471 Q415.9053,234.471 416.4988,234.2012 Q417.0923,233.9315 417.7231,233.3504 Z " fill="#000000"/><text fill="#000000" font-family="sans-serif" font-size="14" font-weight="bold" lengthAdjust="spacing" textLength="104" x="435.75" y="235.221">AccountObject</text><line style="stroke:#5A0000;stroke-width:2.0;" x1="249" x2="694" y1="245.93" y2="245.93"/><ellipse cx="259" cy="259.6741" fill="none" rx="3" ry="3" style="stroke:#038048;stroke-width:1.0;"/><text fill="#000000" font-family="sans-serif" font-size="14" font-weight="bold" lengthAdjust="spacing" text-decoration="underline" textLength="55" x="268" y="263.4652">abiBase</text><text fill="#000000" font-family="sans-serif" font-size="14" lengthAdjust="spacing" text-decoration="underline" textLength="191" x="327" y="263.4652">: ABISerializableConstructor</text><ellipse cx="259" cy="276.1624" fill="none" rx="3" ry="3" style="stroke:#038048;stroke-width:1.0;"/><text fill="#000000" font-family="sans-serif" font-size="14" font-weight="bold" lengthAdjust="spacing" text-decoration="underline" textLength="65" x="268" y="279.9534">abiFields</text><text fill="#000000" font-family="sans-serif" font-size="14" lengthAdjust="spacing" text-decoration="underline" textLength="73" x="337" y="279.9534">: ABIField[]</text><ellipse cx="259" cy="292.6507" fill="none" rx="3" ry="3" style="stroke:#038048;stroke-width:1.0;"/><text fill="#000000" font-family="sans-serif" font-size="14" font-weight="bold" lengthAdjust="spacing" text-decoration="underline" textLength="63" x="268" y="296.4417">abiName</text><text fill="#000000" font-family="sans-serif" font-size="14" lengthAdjust="spacing" text-decoration="underline" textLength="48" x="335" y="296.4417">: string</text><ellipse cx="259" cy="309.139" fill="none" rx="3" ry="3" style="stroke:#038048;stroke-width:1.0;"/><text fill="#000000" font-family="sans-serif" font-size="14" font-weight="bold" lengthAdjust="spacing" textLength="101" x="268" y="312.93">account_name</text><text fill="#000000" font-family="sans-serif" font-size="14" lengthAdjust="spacing" textLength="47" x="373" y="312.93">: Name</text><ellipse cx="259" cy="325.6273" fill="none" rx="3" ry="3" style="stroke:#038048;stroke-width:1.0;"/><text fill="#000000" font-family="sans-serif" font-size="14" font-weight="bold" lengthAdjust="spacing" textLength="140" x="268" y="329.4183">core_liquid_balance</text><text fill="#000000" font-family="sans-serif" font-size="14" lengthAdjust="spacing" textLength="45" x="412" y="329.4183">: Asset</text><ellipse cx="259" cy="342.1155" fill="none" rx="3" ry="3" style="stroke:#038048;stroke-width:1.0;"/><text fill="#000000" font-family="sans-serif" font-size="14" font-weight="bold" lengthAdjust="spacing" textLength="67" x="268" y="345.9066">cpu_limit</text><text fill="#000000" font-family="sans-serif" font-size="14" lengthAdjust="spacing" textLength="160" x="339" y="345.9066">: AccountResourceLimit</text><ellipse cx="259" cy="358.6038" fill="none" rx="3" ry="3" style="stroke:#038048;stroke-width:1.0;"/><text fill="#000000" font-family="sans-serif" font-size="14" font-weight="bold" lengthAdjust="spacing" textLength="81" x="268" y="362.3948">cpu_weight</text><text fill="#000000" font-family="sans-serif" font-size="14" lengthAdjust="spacing" textLength="44" x="353" y="362.3948">: Int64</text><ellipse cx="259" cy="375.0921" fill="none" rx="3" ry="3" style="stroke:#038048;stroke-width:1.0;"/><text fill="#000000" font-family="sans-serif" font-size="14" font-weight="bold" lengthAdjust="spacing" textLength="52" x="268" y="378.8831">created</text><text fill="#000000" font-family="sans-serif" font-size="14" lengthAdjust="spacing" textLength="77" x="324" y="378.8831">: TimePoint</text><ellipse cx="259" cy="391.5804" fill="none" rx="3" ry="3" style="stroke:#038048;stroke-width:1.0;"/><text fill="#000000" font-family="sans-serif" font-size="14" font-weight="bold" lengthAdjust="spacing" textLength="119" x="268" y="395.3714">head_block_num</text><text fill="#000000" font-family="sans-serif" font-size="14" lengthAdjust="spacing" textLength="54" x="391" y="395.3714">: UInt32</text><ellipse cx="259" cy="408.0687" fill="none" rx="3" ry="3" style="stroke:#038048;stroke-width:1.0;"/><text fill="#000000" font-family="sans-serif" font-size="14" font-weight="bold" lengthAdjust="spacing" textLength="120" x="268" y="411.8597">head_block_time</text><text fill="#000000" font-family="sans-serif" font-size="14" lengthAdjust="spacing" textLength="77" x="392" y="411.8597">: TimePoint</text><ellipse cx="259" cy="424.557" fill="none" rx="3" ry="3" style="stroke:#038048;stroke-width:1.0;"/><text fill="#000000" font-family="sans-serif" font-size="14" font-weight="bold" lengthAdjust="spacing" textLength="123" x="268" y="428.348">last_code_update</text><text fill="#000000" font-family="sans-serif" font-size="14" lengthAdjust="spacing" textLength="77" x="395" y="428.348">: TimePoint</text><ellipse cx="259" cy="441.0452" fill="none" rx="3" ry="3" style="stroke:#038048;stroke-width:1.0;"/><text fill="#000000" font-family="sans-serif" font-size="14" font-weight="bold" lengthAdjust="spacing" textLength="65" x="268" y="444.8363">net_limit</text><text fill="#000000" font-family="sans-serif" font-size="14" lengthAdjust="spacing" textLength="160" x="337" y="444.8363">: AccountResourceLimit</text><ellipse cx="259" cy="457.5335" fill="none" rx="3" ry="3" style="stroke:#038048;stroke-width:1.0;"/><text fill="#000000" font-family="sans-serif" font-size="14" font-weight="bold" lengthAdjust="spacing" textLength="79" x="268" y="461.3245">net_weight</text><text fill="#000000" font-family="sans-serif" font-size="14" lengthAdjust="spacing" textLength="44" x="351" y="461.3245">: Int64</text><ellipse cx="259" cy="474.0218" fill="none" rx="3" ry="3" style="stroke:#038048;stroke-width:1.0;"/><text fill="#000000" font-family="sans-serif" font-size="14" font-weight="bold" lengthAdjust="spacing" textLength="89" x="268" y="477.8128">permissions</text><text fill="#000000" font-family="sans-serif" font-size="14" lengthAdjust="spacing" textLength="149" x="361" y="477.8128">: AccountPermission[]</text><ellipse cx="259" cy="490.5101" fill="none" rx="3" ry="3" style="stroke:#038048;stroke-width:1.0;"/><text fill="#000000" font-family="sans-serif" font-size="14" font-weight="bold" lengthAdjust="spacing" textLength="72" x="268" y="494.3011">privileged</text><text fill="#000000" font-family="sans-serif" font-size="14" lengthAdjust="spacing" textLength="64" x="344" y="494.3011">: boolean</text><ellipse cx="259" cy="506.9984" fill="none" rx="3" ry="3" style="stroke:#038048;stroke-width:1.0;"/><text fill="#000000" font-family="sans-serif" font-size="14" font-weight="bold" lengthAdjust="spacing" textLength="76" x="268" y="510.7894">ram_quota</text><text fill="#000000" font-family="sans-serif" font-size="14" lengthAdjust="spacing" textLength="44" x="348" y="510.7894">: Int64</text><ellipse cx="259" cy="523.4866" fill="none" rx="3" ry="3" style="stroke:#038048;stroke-width:1.0;"/><text fill="#000000" font-family="sans-serif" font-size="14" font-weight="bold" lengthAdjust="spacing" textLength="77" x="268" y="527.2777">ram_usage</text><text fill="#000000" font-family="sans-serif" font-size="14" lengthAdjust="spacing" textLength="54" x="349" y="527.2777">: UInt64</text><ellipse cx="259" cy="539.9749" fill="none" rx="3" ry="3" style="stroke:#038048;stroke-width:1.0;"/><text fill="#000000" font-family="sans-serif" font-size="14" font-weight="bold" lengthAdjust="spacing" textLength="108" x="268" y="543.7659">refund_request</text><text fill="#000000" font-family="sans-serif" font-size="14" lengthAdjust="spacing" textLength="168" x="380" y="543.7659">: AccountRefundRequest</text><ellipse cx="259" cy="556.4632" fill="none" rx="3" ry="3" style="stroke:#038048;stroke-width:1.0;"/><text fill="#000000" font-family="sans-serif" font-size="14" font-weight="bold" lengthAdjust="spacing" textLength="58" x="268" y="560.2542">rex_info</text><text fill="#000000" font-family="sans-serif" font-size="14" lengthAdjust="spacing" textLength="117" x="330" y="560.2542">: AccountRexInfo</text><ellipse cx="259" cy="572.9515" fill="none" rx="3" ry="3" style="stroke:#038048;stroke-width:1.0;"/><text fill="#000000" font-family="sans-serif" font-size="14" font-weight="bold" lengthAdjust="spacing" textLength="187" x="268" y="576.7425">self_delegated_bandwidth</text><text fill="#000000" font-family="sans-serif" font-size="14" lengthAdjust="spacing" textLength="230" x="459" y="576.7425">: AccountSelfDelegatedBandwidth</text><ellipse cx="259" cy="589.4398" fill="none" rx="3" ry="3" style="stroke:#038048;stroke-width:1.0;"/><text fill="#000000" font-family="sans-serif" font-size="14" font-weight="bold" lengthAdjust="spacing" textLength="178" x="268" y="593.2308">subjective_cpu_bill_limit</text><text fill="#000000" font-family="sans-serif" font-size="14" lengthAdjust="spacing" textLength="160" x="450" y="593.2308">: AccountResourceLimit</text><ellipse cx="259" cy="605.928" fill="none" rx="3" ry="3" style="stroke:#038048;stroke-width:1.0;"/><text fill="#000000" font-family="sans-serif" font-size="14" font-weight="bold" lengthAdjust="spacing" textLength="110" x="268" y="609.7191">total_resources</text><text fill="#000000" font-family="sans-serif" font-size="14" lengthAdjust="spacing" textLength="169" x="382" y="609.7191">: AccountTotalResources</text><ellipse cx="259" cy="622.4163" fill="none" rx="3" ry="3" style="stroke:#038048;stroke-width:1.0;"/><text fill="#000000" font-family="sans-serif" font-size="14" font-weight="bold" lengthAdjust="spacing" textLength="73" x="268" y="626.2073">voter_info</text><text fill="#000000" font-family="sans-serif" font-size="14" lengthAdjust="spacing" textLength="128" x="345" y="626.2073">: AccountVoterInfo</text><line style="stroke:#5A0000;stroke-width:2.0;" x1="249" x2="694" y1="633.1605" y2="633.1605"/><ellipse cx="259" cy="646.9046" fill="#84BE84" rx="3" ry="3" style="stroke:#038048;stroke-width:1.0;"/><text fill="#000000" font-family="sans-serif" font-size="14" lengthAdjust="spacing" textLength="192" x="268" y="650.6956">equals(other: any) : boolean</text><ellipse cx="259" cy="663.3929" fill="#84BE84" rx="3" ry="3" style="stroke:#038048;stroke-width:1.0;"/><text fill="#000000" font-family="sans-serif" font-size="14" lengthAdjust="spacing" text-decoration="underline" textLength="325" x="268" y="667.1839">from&lt;T&gt;(this: T, value: any) : InstanceType&lt;T&gt;</text><ellipse cx="259" cy="679.8812" fill="#84BE84" rx="3" ry="3" style="stroke:#038048;stroke-width:1.0;"/><text fill="#000000" font-family="sans-serif" font-size="14" lengthAdjust="spacing" text-decoration="underline" textLength="187" x="268" y="683.6722">from(value: any) : unknown</text><ellipse cx="259" cy="696.3695" fill="#84BE84" rx="3" ry="3" style="stroke:#038048;stroke-width:1.0;"/><text fill="#000000" font-family="sans-serif" font-size="14" lengthAdjust="spacing" textLength="406" x="268" y="700.1605">getPermission(permission: NameType) : AccountPermission</text></g><!--class Struct--><g id="elem_Struct"><rect codeLine="39" fill="#FCF2CC" filter="url(#f6zxb4ljj6wue)" height="146.9297" id="Struct" style="stroke:#5A0000;stroke-width:2.0;" width="351" x="296" y="7"/><ellipse cx="446.25" cy="23" fill="#ADD1B2" rx="11" ry="11" style="stroke:#181818;stroke-width:1.0;"/><path d="M448.7231,29.1431 Q448.1421,29.4419 447.5029,29.5913 Q446.8638,29.7407 446.1582,29.7407 Q443.6514,29.7407 442.3315,28.0889 Q441.0117,26.437 441.0117,23.3159 Q441.0117,20.1865 442.3315,18.5347 Q443.6514,16.8828 446.1582,16.8828 Q446.8638,16.8828 447.5112,17.0322 Q448.1587,17.1816 448.7231,17.4805 L448.7231,20.2031 Q448.0923,19.6221 447.4988,19.3523 Q446.9053,19.0825 446.2744,19.0825 Q444.9297,19.0825 444.2449,20.1492 Q443.5601,21.2158 443.5601,23.3159 Q443.5601,25.4077 444.2449,26.4744 Q444.9297,27.541 446.2744,27.541 Q446.9053,27.541 447.4988,27.2712 Q448.0923,27.0015 448.7231,26.4204 Z " fill="#000000"/><text fill="#000000" font-family="sans-serif" font-size="14" font-weight="bold" lengthAdjust="spacing" textLength="42" x="466.75" y="28.291">Struct</text><line style="stroke:#5A0000;stroke-width:2.0;" x1="297" x2="646" y1="39" y2="39"/><ellipse cx="307" cy="52.7441" fill="none" rx="3" ry="3" style="stroke:#038048;stroke-width:1.0;"/><text fill="#000000" font-family="sans-serif" font-size="14" font-weight="bold" lengthAdjust="spacing" text-decoration="underline" textLength="55" x="316" y="56.5352">abiBase</text><text fill="#000000" font-family="sans-serif" font-size="14" lengthAdjust="spacing" text-decoration="underline" textLength="191" x="375" y="56.5352">: ABISerializableConstructor</text><ellipse cx="307" cy="69.2324" fill="none" rx="3" ry="3" style="stroke:#038048;stroke-width:1.0;"/><text fill="#000000" font-family="sans-serif" font-size="14" font-weight="bold" lengthAdjust="spacing" text-decoration="underline" textLength="65" x="316" y="73.0234">abiFields</text><text fill="#000000" font-family="sans-serif" font-size="14" lengthAdjust="spacing" text-decoration="underline" textLength="73" x="385" y="73.0234">: ABIField[]</text><ellipse cx="307" cy="85.7207" fill="none" rx="3" ry="3" style="stroke:#038048;stroke-width:1.0;"/><text fill="#000000" font-family="sans-serif" font-size="14" font-weight="bold" lengthAdjust="spacing" text-decoration="underline" textLength="63" x="316" y="89.5117">abiName</text><text fill="#000000" font-family="sans-serif" font-size="14" lengthAdjust="spacing" text-decoration="underline" textLength="48" x="383" y="89.5117">: string</text><line style="stroke:#5A0000;stroke-width:2.0;" x1="297" x2="646" y1="96.4648" y2="96.4648"/><ellipse cx="307" cy="110.209" fill="#84BE84" rx="3" ry="3" style="stroke:#038048;stroke-width:1.0;"/><text fill="#000000" font-family="sans-serif" font-size="14" lengthAdjust="spacing" textLength="192" x="316" y="114">equals(other: any) : boolean</text><ellipse cx="307" cy="126.6973" fill="#84BE84" rx="3" ry="3" style="stroke:#038048;stroke-width:1.0;"/><text fill="#000000" font-family="sans-serif" font-size="14" lengthAdjust="spacing" text-decoration="underline" textLength="325" x="316" y="130.4883">from&lt;T&gt;(this: T, value: any) : InstanceType&lt;T&gt;</text><ellipse cx="307" cy="143.1855" fill="#84BE84" rx="3" ry="3" style="stroke:#038048;stroke-width:1.0;"/><text fill="#000000" font-family="sans-serif" font-size="14" lengthAdjust="spacing" text-decoration="underline" textLength="187" x="316" y="146.9766">from(value: any) : unknown</text></g><!--class TelosAccountObject--><g id="elem_TelosAccountObject"><rect codeLine="48" fill="#FCF2CC" filter="url(#f6zxb4ljj6wue)" height="493.1836" id="TelosAccountObject" style="stroke:#5A0000;stroke-width:2.0;" width="447" x="7" y="767.12"/><ellipse cx="154.25" cy="783.12" fill="#ADD1B2" rx="11" ry="11" style="stroke:#181818;stroke-width:1.0;"/><path d="M156.7231,789.2631 Q156.1421,789.5619 155.5029,789.7113 Q154.8638,789.8607 154.1582,789.8607 Q151.6514,789.8607 150.3315,788.2089 Q149.0117,786.557 149.0117,783.4359 Q149.0117,780.3065 150.3315,778.6547 Q151.6514,777.0028 154.1582,777.0028 Q154.8638,777.0028 155.5112,777.1522 Q156.1587,777.3016 156.7231,777.6005 L156.7231,780.3231 Q156.0923,779.7421 155.4988,779.4723 Q154.9053,779.2025 154.2744,779.2025 Q152.9297,779.2025 152.2449,780.2692 Q151.5601,781.3358 151.5601,783.4359 Q151.5601,785.5277 152.2449,786.5944 Q152.9297,787.661 154.2744,787.661 Q154.9053,787.661 155.4988,787.3912 Q156.0923,787.1215 156.7231,786.5404 Z " fill="#000000"/><text fill="#000000" font-family="sans-serif" font-size="14" font-weight="bold" lengthAdjust="spacing" textLength="144" x="174.75" y="788.411">TelosAccountObject</text><line style="stroke:#5A0000;stroke-width:2.0;" x1="8" x2="453" y1="799.12" y2="799.12"/><ellipse cx="18" cy="812.8641" fill="none" rx="3" ry="3" style="stroke:#038048;stroke-width:1.0;"/><text fill="#000000" font-family="sans-serif" font-size="14" font-weight="bold" lengthAdjust="spacing" text-decoration="underline" textLength="55" x="27" y="816.6552">abiBase</text><text fill="#000000" font-family="sans-serif" font-size="14" lengthAdjust="spacing" text-decoration="underline" textLength="191" x="86" y="816.6552">: ABISerializableConstructor</text><ellipse cx="18" cy="829.3524" fill="none" rx="3" ry="3" style="stroke:#038048;stroke-width:1.0;"/><text fill="#000000" font-family="sans-serif" font-size="14" font-weight="bold" lengthAdjust="spacing" text-decoration="underline" textLength="65" x="27" y="833.1434">abiFields</text><text fill="#000000" font-family="sans-serif" font-size="14" lengthAdjust="spacing" text-decoration="underline" textLength="73" x="96" y="833.1434">: ABIField[]</text><ellipse cx="18" cy="845.8407" fill="none" rx="3" ry="3" style="stroke:#038048;stroke-width:1.0;"/><text fill="#000000" font-family="sans-serif" font-size="14" font-weight="bold" lengthAdjust="spacing" text-decoration="underline" textLength="63" x="27" y="849.6317">abiName</text><text fill="#000000" font-family="sans-serif" font-size="14" lengthAdjust="spacing" text-decoration="underline" textLength="48" x="94" y="849.6317">: string</text><ellipse cx="18" cy="862.329" fill="none" rx="3" ry="3" style="stroke:#038048;stroke-width:1.0;"/><text fill="#000000" font-family="sans-serif" font-size="14" font-weight="bold" lengthAdjust="spacing" textLength="101" x="27" y="866.12">account_name</text><text fill="#000000" font-family="sans-serif" font-size="14" lengthAdjust="spacing" textLength="47" x="132" y="866.12">: Name</text><ellipse cx="18" cy="878.8173" fill="none" rx="3" ry="3" style="stroke:#038048;stroke-width:1.0;"/><text fill="#000000" font-family="sans-serif" font-size="14" font-weight="bold" lengthAdjust="spacing" textLength="140" x="27" y="882.6083">core_liquid_balance</text><text fill="#000000" font-family="sans-serif" font-size="14" lengthAdjust="spacing" textLength="45" x="171" y="882.6083">: Asset</text><ellipse cx="18" cy="895.3055" fill="none" rx="3" ry="3" style="stroke:#038048;stroke-width:1.0;"/><text fill="#000000" font-family="sans-serif" font-size="14" font-weight="bold" lengthAdjust="spacing" textLength="67" x="27" y="899.0966">cpu_limit</text><text fill="#000000" font-family="sans-serif" font-size="14" lengthAdjust="spacing" textLength="160" x="98" y="899.0966">: AccountResourceLimit</text><ellipse cx="18" cy="911.7938" fill="none" rx="3" ry="3" style="stroke:#038048;stroke-width:1.0;"/><text fill="#000000" font-family="sans-serif" font-size="14" font-weight="bold" lengthAdjust="spacing" textLength="81" x="27" y="915.5848">cpu_weight</text><text fill="#000000" font-family="sans-serif" font-size="14" lengthAdjust="spacing" textLength="44" x="112" y="915.5848">: Int64</text><ellipse cx="18" cy="928.2821" fill="none" rx="3" ry="3" style="stroke:#038048;stroke-width:1.0;"/><text fill="#000000" font-family="sans-serif" font-size="14" font-weight="bold" lengthAdjust="spacing" textLength="52" x="27" y="932.0731">created</text><text fill="#000000" font-family="sans-serif" font-size="14" lengthAdjust="spacing" textLength="77" x="83" y="932.0731">: TimePoint</text><ellipse cx="18" cy="944.7704" fill="none" rx="3" ry="3" style="stroke:#038048;stroke-width:1.0;"/><text fill="#000000" font-family="sans-serif" font-size="14" font-weight="bold" lengthAdjust="spacing" textLength="119" x="27" y="948.5614">head_block_num</text><text fill="#000000" font-family="sans-serif" font-size="14" lengthAdjust="spacing" textLength="54" x="150" y="948.5614">: UInt32</text><ellipse cx="18" cy="961.2587" fill="none" rx="3" ry="3" style="stroke:#038048;stroke-width:1.0;"/><text fill="#000000" font-family="sans-serif" font-size="14" font-weight="bold" lengthAdjust="spacing" textLength="120" x="27" y="965.0497">head_block_time</text><text fill="#000000" font-family="sans-serif" font-size="14" lengthAdjust="spacing" textLength="77" x="151" y="965.0497">: TimePoint</text><ellipse cx="18" cy="977.747" fill="none" rx="3" ry="3" style="stroke:#038048;stroke-width:1.0;"/><text fill="#000000" font-family="sans-serif" font-size="14" font-weight="bold" lengthAdjust="spacing" textLength="123" x="27" y="981.538">last_code_update</text><text fill="#000000" font-family="sans-serif" font-size="14" lengthAdjust="spacing" textLength="77" x="154" y="981.538">: TimePoint</text><ellipse cx="18" cy="994.2352" fill="none" rx="3" ry="3" style="stroke:#038048;stroke-width:1.0;"/><text fill="#000000" font-family="sans-serif" font-size="14" font-weight="bold" lengthAdjust="spacing" textLength="65" x="27" y="998.0262">net_limit</text><text fill="#000000" font-family="sans-serif" font-size="14" lengthAdjust="spacing" textLength="160" x="96" y="998.0262">: AccountResourceLimit</text><ellipse cx="18" cy="1010.7235" fill="none" rx="3" ry="3" style="stroke:#038048;stroke-width:1.0;"/><text fill="#000000" font-family="sans-serif" font-size="14" font-weight="bold" lengthAdjust="spacing" textLength="79" x="27" y="1014.5145">net_weight</text><text fill="#000000" font-family="sans-serif" font-size="14" lengthAdjust="spacing" textLength="44" x="110" y="1014.5145">: Int64</text><ellipse cx="18" cy="1027.2118" fill="none" rx="3" ry="3" style="stroke:#038048;stroke-width:1.0;"/><text fill="#000000" font-family="sans-serif" font-size="14" font-weight="bold" lengthAdjust="spacing" textLength="89" x="27" y="1031.0028">permissions</text><text fill="#000000" font-family="sans-serif" font-size="14" lengthAdjust="spacing" textLength="149" x="120" y="1031.0028">: AccountPermission[]</text><ellipse cx="18" cy="1043.7001" fill="none" rx="3" ry="3" style="stroke:#038048;stroke-width:1.0;"/><text fill="#000000" font-family="sans-serif" font-size="14" font-weight="bold" lengthAdjust="spacing" textLength="72" x="27" y="1047.4911">privileged</text><text fill="#000000" font-family="sans-serif" font-size="14" lengthAdjust="spacing" textLength="64" x="103" y="1047.4911">: boolean</text><ellipse cx="18" cy="1060.1884" fill="none" rx="3" ry="3" style="stroke:#038048;stroke-width:1.0;"/><text fill="#000000" font-family="sans-serif" font-size="14" font-weight="bold" lengthAdjust="spacing" textLength="76" x="27" y="1063.9794">ram_quota</text><text fill="#000000" font-family="sans-serif" font-size="14" lengthAdjust="spacing" textLength="44" x="107" y="1063.9794">: Int64</text><ellipse cx="18" cy="1076.6766" fill="none" rx="3" ry="3" style="stroke:#038048;stroke-width:1.0;"/><text fill="#000000" font-family="sans-serif" font-size="14" font-weight="bold" lengthAdjust="spacing" textLength="77" x="27" y="1080.4677">ram_usage</text><text fill="#000000" font-family="sans-serif" font-size="14" lengthAdjust="spacing" textLength="54" x="108" y="1080.4677">: UInt64</text><ellipse cx="18" cy="1093.1649" fill="none" rx="3" ry="3" style="stroke:#038048;stroke-width:1.0;"/><text fill="#000000" font-family="sans-serif" font-size="14" font-weight="bold" lengthAdjust="spacing" textLength="108" x="27" y="1096.9559">refund_request</text><text fill="#000000" font-family="sans-serif" font-size="14" lengthAdjust="spacing" textLength="168" x="139" y="1096.9559">: AccountRefundRequest</text><ellipse cx="18" cy="1109.6532" fill="none" rx="3" ry="3" style="stroke:#038048;stroke-width:1.0;"/><text fill="#000000" font-family="sans-serif" font-size="14" font-weight="bold" lengthAdjust="spacing" textLength="58" x="27" y="1113.4442">rex_info</text><text fill="#000000" font-family="sans-serif" font-size="14" lengthAdjust="spacing" textLength="117" x="89" y="1113.4442">: AccountRexInfo</text><ellipse cx="18" cy="1126.1415" fill="none" rx="3" ry="3" style="stroke:#038048;stroke-width:1.0;"/><text fill="#000000" font-family="sans-serif" font-size="14" font-weight="bold" lengthAdjust="spacing" textLength="187" x="27" y="1129.9325">self_delegated_bandwidth</text><text fill="#000000" font-family="sans-serif" font-size="14" lengthAdjust="spacing" textLength="230" x="218" y="1129.9325">: AccountSelfDelegatedBandwidth</text><ellipse cx="18" cy="1142.6298" fill="none" rx="3" ry="3" style="stroke:#038048;stroke-width:1.0;"/><text fill="#000000" font-family="sans-serif" font-size="14" font-weight="bold" lengthAdjust="spacing" textLength="178" x="27" y="1146.4208">subjective_cpu_bill_limit</text><text fill="#000000" font-family="sans-serif" font-size="14" lengthAdjust="spacing" textLength="160" x="209" y="1146.4208">: AccountResourceLimit</text><ellipse cx="18" cy="1159.118" fill="none" rx="3" ry="3" style="stroke:#038048;stroke-width:1.0;"/><text fill="#000000" font-family="sans-serif" font-size="14" font-weight="bold" lengthAdjust="spacing" textLength="110" x="27" y="1162.9091">total_resources</text><text fill="#000000" font-family="sans-serif" font-size="14" lengthAdjust="spacing" textLength="169" x="141" y="1162.9091">: AccountTotalResources</text><ellipse cx="18" cy="1175.6063" fill="none" rx="3" ry="3" style="stroke:#038048;stroke-width:1.0;"/><text fill="#000000" font-family="sans-serif" font-size="14" font-weight="bold" lengthAdjust="spacing" textLength="73" x="27" y="1179.3973">voter_info</text><text fill="#000000" font-family="sans-serif" font-size="14" lengthAdjust="spacing" textLength="165" x="104" y="1179.3973">: TelosAccountVoterInfo</text><line style="stroke:#5A0000;stroke-width:2.0;" x1="8" x2="453" y1="1186.3505" y2="1186.3505"/><ellipse cx="18" cy="1200.0946" fill="#84BE84" rx="3" ry="3" style="stroke:#038048;stroke-width:1.0;"/><text fill="#000000" font-family="sans-serif" font-size="14" lengthAdjust="spacing" textLength="192" x="27" y="1203.8856">equals(other: any) : boolean</text><ellipse cx="18" cy="1216.5829" fill="#84BE84" rx="3" ry="3" style="stroke:#038048;stroke-width:1.0;"/><text fill="#000000" font-family="sans-serif" font-size="14" lengthAdjust="spacing" text-decoration="underline" textLength="325" x="27" y="1220.3739">from&lt;T&gt;(this: T, value: any) : InstanceType&lt;T&gt;</text><ellipse cx="18" cy="1233.0712" fill="#84BE84" rx="3" ry="3" style="stroke:#038048;stroke-width:1.0;"/><text fill="#000000" font-family="sans-serif" font-size="14" lengthAdjust="spacing" text-decoration="underline" textLength="187" x="27" y="1236.8622">from(value: any) : unknown</text><ellipse cx="18" cy="1249.5595" fill="#84BE84" rx="3" ry="3" style="stroke:#038048;stroke-width:1.0;"/><text fill="#000000" font-family="sans-serif" font-size="14" lengthAdjust="spacing" textLength="406" x="27" y="1253.3505">getPermission(permission: NameType) : AccountPermission</text></g><!--class WAXAccountObject--><g id="elem_WAXAccountObject"><rect codeLine="78" fill="#FCF2CC" filter="url(#f6zxb4ljj6wue)" height="493.1836" id="WAXAccountObject" style="stroke:#5A0000;stroke-width:2.0;" width="447" x="489" y="767.12"/><ellipse cx="640.25" cy="783.12" fill="#ADD1B2" rx="11" ry="11" style="stroke:#181818;stroke-width:1.0;"/><path d="M642.7231,789.2631 Q642.1421,789.5619 641.5029,789.7113 Q640.8638,789.8607 640.1582,789.8607 Q637.6514,789.8607 636.3315,788.2089 Q635.0117,786.557 635.0117,783.4359 Q635.0117,780.3065 636.3315,778.6547 Q637.6514,777.0028 640.1582,777.0028 Q640.8638,777.0028 641.5112,777.1522 Q642.1587,777.3016 642.7231,777.6005 L642.7231,780.3231 Q642.0923,779.7421 641.4988,779.4723 Q640.9053,779.2025 640.2744,779.2025 Q638.9297,779.2025 638.2449,780.2692 Q637.5601,781.3358 637.5601,783.4359 Q637.5601,785.5277 638.2449,786.5944 Q638.9297,787.661 640.2744,787.661 Q640.9053,787.661 641.4988,787.3912 Q642.0923,787.1215 642.7231,786.5404 Z " fill="#000000"/><text fill="#000000" font-family="sans-serif" font-size="14" font-weight="bold" lengthAdjust="spacing" textLength="136" x="660.75" y="788.411">WAXAccountObject</text><line style="stroke:#5A0000;stroke-width:2.0;" x1="490" x2="935" y1="799.12" y2="799.12"/><ellipse cx="500" cy="812.8641" fill="none" rx="3" ry="3" style="stroke:#038048;stroke-width:1.0;"/><text fill="#000000" font-family="sans-serif" font-size="14" font-weight="bold" lengthAdjust="spacing" text-decoration="underline" textLength="55" x="509" y="816.6552">abiBase</text><text fill="#000000" font-family="sans-serif" font-size="14" lengthAdjust="spacing" text-decoration="underline" textLength="191" x="568" y="816.6552">: ABISerializableConstructor</text><ellipse cx="500" cy="829.3524" fill="none" rx="3" ry="3" style="stroke:#038048;stroke-width:1.0;"/><text fill="#000000" font-family="sans-serif" font-size="14" font-weight="bold" lengthAdjust="spacing" text-decoration="underline" textLength="65" x="509" y="833.1434">abiFields</text><text fill="#000000" font-family="sans-serif" font-size="14" lengthAdjust="spacing" text-decoration="underline" textLength="73" x="578" y="833.1434">: ABIField[]</text><ellipse cx="500" cy="845.8407" fill="none" rx="3" ry="3" style="stroke:#038048;stroke-width:1.0;"/><text fill="#000000" font-family="sans-serif" font-size="14" font-weight="bold" lengthAdjust="spacing" text-decoration="underline" textLength="63" x="509" y="849.6317">abiName</text><text fill="#000000" font-family="sans-serif" font-size="14" lengthAdjust="spacing" text-decoration="underline" textLength="48" x="576" y="849.6317">: string</text><ellipse cx="500" cy="862.329" fill="none" rx="3" ry="3" style="stroke:#038048;stroke-width:1.0;"/><text fill="#000000" font-family="sans-serif" font-size="14" font-weight="bold" lengthAdjust="spacing" textLength="101" x="509" y="866.12">account_name</text><text fill="#000000" font-family="sans-serif" font-size="14" lengthAdjust="spacing" textLength="47" x="614" y="866.12">: Name</text><ellipse cx="500" cy="878.8173" fill="none" rx="3" ry="3" style="stroke:#038048;stroke-width:1.0;"/><text fill="#000000" font-family="sans-serif" font-size="14" font-weight="bold" lengthAdjust="spacing" textLength="140" x="509" y="882.6083">core_liquid_balance</text><text fill="#000000" font-family="sans-serif" font-size="14" lengthAdjust="spacing" textLength="45" x="653" y="882.6083">: Asset</text><ellipse cx="500" cy="895.3055" fill="none" rx="3" ry="3" style="stroke:#038048;stroke-width:1.0;"/><text fill="#000000" font-family="sans-serif" font-size="14" font-weight="bold" lengthAdjust="spacing" textLength="67" x="509" y="899.0966">cpu_limit</text><text fill="#000000" font-family="sans-serif" font-size="14" lengthAdjust="spacing" textLength="160" x="580" y="899.0966">: AccountResourceLimit</text><ellipse cx="500" cy="911.7938" fill="none" rx="3" ry="3" style="stroke:#038048;stroke-width:1.0;"/><text fill="#000000" font-family="sans-serif" font-size="14" font-weight="bold" lengthAdjust="spacing" textLength="81" x="509" y="915.5848">cpu_weight</text><text fill="#000000" font-family="sans-serif" font-size="14" lengthAdjust="spacing" textLength="44" x="594" y="915.5848">: Int64</text><ellipse cx="500" cy="928.2821" fill="none" rx="3" ry="3" style="stroke:#038048;stroke-width:1.0;"/><text fill="#000000" font-family="sans-serif" font-size="14" font-weight="bold" lengthAdjust="spacing" textLength="52" x="509" y="932.0731">created</text><text fill="#000000" font-family="sans-serif" font-size="14" lengthAdjust="spacing" textLength="77" x="565" y="932.0731">: TimePoint</text><ellipse cx="500" cy="944.7704" fill="none" rx="3" ry="3" style="stroke:#038048;stroke-width:1.0;"/><text fill="#000000" font-family="sans-serif" font-size="14" font-weight="bold" lengthAdjust="spacing" textLength="119" x="509" y="948.5614">head_block_num</text><text fill="#000000" font-family="sans-serif" font-size="14" lengthAdjust="spacing" textLength="54" x="632" y="948.5614">: UInt32</text><ellipse cx="500" cy="961.2587" fill="none" rx="3" ry="3" style="stroke:#038048;stroke-width:1.0;"/><text fill="#000000" font-family="sans-serif" font-size="14" font-weight="bold" lengthAdjust="spacing" textLength="120" x="509" y="965.0497">head_block_time</text><text fill="#000000" font-family="sans-serif" font-size="14" lengthAdjust="spacing" textLength="77" x="633" y="965.0497">: TimePoint</text><ellipse cx="500" cy="977.747" fill="none" rx="3" ry="3" style="stroke:#038048;stroke-width:1.0;"/><text fill="#000000" font-family="sans-serif" font-size="14" font-weight="bold" lengthAdjust="spacing" textLength="123" x="509" y="981.538">last_code_update</text><text fill="#000000" font-family="sans-serif" font-size="14" lengthAdjust="spacing" textLength="77" x="636" y="981.538">: TimePoint</text><ellipse cx="500" cy="994.2352" fill="none" rx="3" ry="3" style="stroke:#038048;stroke-width:1.0;"/><text fill="#000000" font-family="sans-serif" font-size="14" font-weight="bold" lengthAdjust="spacing" textLength="65" x="509" y="998.0262">net_limit</text><text fill="#000000" font-family="sans-serif" font-size="14" lengthAdjust="spacing" textLength="160" x="578" y="998.0262">: AccountResourceLimit</text><ellipse cx="500" cy="1010.7235" fill="none" rx="3" ry="3" style="stroke:#038048;stroke-width:1.0;"/><text fill="#000000" font-family="sans-serif" font-size="14" font-weight="bold" lengthAdjust="spacing" textLength="79" x="509" y="1014.5145">net_weight</text><text fill="#000000" font-family="sans-serif" font-size="14" lengthAdjust="spacing" textLength="44" x="592" y="1014.5145">: Int64</text><ellipse cx="500" cy="1027.2118" fill="none" rx="3" ry="3" style="stroke:#038048;stroke-width:1.0;"/><text fill="#000000" font-family="sans-serif" font-size="14" font-weight="bold" lengthAdjust="spacing" textLength="89" x="509" y="1031.0028">permissions</text><text fill="#000000" font-family="sans-serif" font-size="14" lengthAdjust="spacing" textLength="149" x="602" y="1031.0028">: AccountPermission[]</text><ellipse cx="500" cy="1043.7001" fill="none" rx="3" ry="3" style="stroke:#038048;stroke-width:1.0;"/><text fill="#000000" font-family="sans-serif" font-size="14" font-weight="bold" lengthAdjust="spacing" textLength="72" x="509" y="1047.4911">privileged</text><text fill="#000000" font-family="sans-serif" font-size="14" lengthAdjust="spacing" textLength="64" x="585" y="1047.4911">: boolean</text><ellipse cx="500" cy="1060.1884" fill="none" rx="3" ry="3" style="stroke:#038048;stroke-width:1.0;"/><text fill="#000000" font-family="sans-serif" font-size="14" font-weight="bold" lengthAdjust="spacing" textLength="76" x="509" y="1063.9794">ram_quota</text><text fill="#000000" font-family="sans-serif" font-size="14" lengthAdjust="spacing" textLength="44" x="589" y="1063.9794">: Int64</text><ellipse cx="500" cy="1076.6766" fill="none" rx="3" ry="3" style="stroke:#038048;stroke-width:1.0;"/><text fill="#000000" font-family="sans-serif" font-size="14" font-weight="bold" lengthAdjust="spacing" textLength="77" x="509" y="1080.4677">ram_usage</text><text fill="#000000" font-family="sans-serif" font-size="14" lengthAdjust="spacing" textLength="54" x="590" y="1080.4677">: UInt64</text><ellipse cx="500" cy="1093.1649" fill="none" rx="3" ry="3" style="stroke:#038048;stroke-width:1.0;"/><text fill="#000000" font-family="sans-serif" font-size="14" font-weight="bold" lengthAdjust="spacing" textLength="108" x="509" y="1096.9559">refund_request</text><text fill="#000000" font-family="sans-serif" font-size="14" lengthAdjust="spacing" textLength="168" x="621" y="1096.9559">: AccountRefundRequest</text><ellipse cx="500" cy="1109.6532" fill="none" rx="3" ry="3" style="stroke:#038048;stroke-width:1.0;"/><text fill="#000000" font-family="sans-serif" font-size="14" font-weight="bold" lengthAdjust="spacing" textLength="58" x="509" y="1113.4442">rex_info</text><text fill="#000000" font-family="sans-serif" font-size="14" lengthAdjust="spacing" textLength="117" x="571" y="1113.4442">: AccountRexInfo</text><ellipse cx="500" cy="1126.1415" fill="none" rx="3" ry="3" style="stroke:#038048;stroke-width:1.0;"/><text fill="#000000" font-family="sans-serif" font-size="14" font-weight="bold" lengthAdjust="spacing" textLength="187" x="509" y="1129.9325">self_delegated_bandwidth</text><text fill="#000000" font-family="sans-serif" font-size="14" lengthAdjust="spacing" textLength="230" x="700" y="1129.9325">: AccountSelfDelegatedBandwidth</text><ellipse cx="500" cy="1142.6298" fill="none" rx="3" ry="3" style="stroke:#038048;stroke-width:1.0;"/><text fill="#000000" font-family="sans-serif" font-size="14" font-weight="bold" lengthAdjust="spacing" textLength="178" x="509" y="1146.4208">subjective_cpu_bill_limit</text><text fill="#000000" font-family="sans-serif" font-size="14" lengthAdjust="spacing" textLength="160" x="691" y="1146.4208">: AccountResourceLimit</text><ellipse cx="500" cy="1159.118" fill="none" rx="3" ry="3" style="stroke:#038048;stroke-width:1.0;"/><text fill="#000000" font-family="sans-serif" font-size="14" font-weight="bold" lengthAdjust="spacing" textLength="110" x="509" y="1162.9091">total_resources</text><text fill="#000000" font-family="sans-serif" font-size="14" lengthAdjust="spacing" textLength="169" x="623" y="1162.9091">: AccountTotalResources</text><ellipse cx="500" cy="1175.6063" fill="none" rx="3" ry="3" style="stroke:#038048;stroke-width:1.0;"/><text fill="#000000" font-family="sans-serif" font-size="14" font-weight="bold" lengthAdjust="spacing" textLength="73" x="509" y="1179.3973">voter_info</text><text fill="#000000" font-family="sans-serif" font-size="14" lengthAdjust="spacing" textLength="159" x="586" y="1179.3973">: WAXAccountVoterInfo</text><line style="stroke:#5A0000;stroke-width:2.0;" x1="490" x2="935" y1="1186.3505" y2="1186.3505"/><ellipse cx="500" cy="1200.0946" fill="#84BE84" rx="3" ry="3" style="stroke:#038048;stroke-width:1.0;"/><text fill="#000000" font-family="sans-serif" font-size="14" lengthAdjust="spacing" textLength="192" x="509" y="1203.8856">equals(other: any) : boolean</text><ellipse cx="500" cy="1216.5829" fill="#84BE84" rx="3" ry="3" style="stroke:#038048;stroke-width:1.0;"/><text fill="#000000" font-family="sans-serif" font-size="14" lengthAdjust="spacing" text-decoration="underline" textLength="325" x="509" y="1220.3739">from&lt;T&gt;(this: T, value: any) : InstanceType&lt;T&gt;</text><ellipse cx="500" cy="1233.0712" fill="#84BE84" rx="3" ry="3" style="stroke:#038048;stroke-width:1.0;"/><text fill="#000000" font-family="sans-serif" font-size="14" lengthAdjust="spacing" text-decoration="underline" textLength="187" x="509" y="1236.8622">from(value: any) : unknown</text><ellipse cx="500" cy="1249.5595" fill="#84BE84" rx="3" ry="3" style="stroke:#038048;stroke-width:1.0;"/><text fill="#000000" font-family="sans-serif" font-size="14" lengthAdjust="spacing" textLength="406" x="509" y="1253.3505">getPermission(permission: NameType) : AccountPermission</text></g><!--reverse link Struct to AccountObject--><g id="link_Struct_AccountObject"><path codeLine="47" d="M471.5,172.36 C471.5,190.28 471.5,192.47 471.5,213.71 " fill="none" id="Struct-backto-AccountObject" style="stroke:#181818;stroke-width:1.0;"/><polygon fill="none" points="471.5,154.36,465.5,172.36,477.5,172.36,471.5,154.36" style="stroke:#181818;stroke-width:1.0;"/></g><!--reverse link AccountObject to TelosAccountObject--><g id="link_AccountObject_TelosAccountObject"><path codeLine="77" d="M356.8301,723.7829 C348.1701,743.5929 346.63,747.12 337.97,766.93 " fill="none" id="AccountObject-backto-TelosAccountObject" style="stroke:#181818;stroke-width:1.0;"/><polygon fill="none" points="364.04,707.29,351.3324,721.3796,362.3277,726.1862,364.04,707.29" style="stroke:#181818;stroke-width:1.0;"/></g><!--reverse link AccountObject to WAXAccountObject--><g id="link_AccountObject_WAXAccountObject"><path codeLine="107" d="M586.1699,723.7829 C594.8299,743.5929 596.37,747.12 605.03,766.93 " fill="none" id="AccountObject-backto-WAXAccountObject" style="stroke:#181818;stroke-width:1.0;"/><polygon fill="none" points="578.96,707.29,580.6723,726.1862,591.6676,721.3796,578.96,707.29" style="stroke:#181818;stroke-width:1.0;"/></g><!--SRC=[xLRBQXin5DtxAqHM3creI1-BO09nIi1GsX2x3oXbq4XtFAeraYDTsN7I_7llp7WUjgSbowJrxAnppfNkws0_KsRE7S_OXURUNrg3OrnfOB7LikStqI4NiwcpmSWBgwrZYKXEXDXXMIV1bOot_9Y-5kEwL3i3ZXrtAoUf4ZC3thEJNgeaCCZck6A90Yrz-oG3J2qTDL76APTsgSoKeGlG0hPVZeuRJn0Ox8dyQdPmBWJX-2d-2G8Fs7sFqNVlaQCI3-p583xZiHfo3uDNyHaxPUV3qHYSubhTyLZ3XJMUBXLeNQVoidX-eor-V__HoVt8i-eMYadf5Am2B1yPcOQHasjSM0UHLZT1oIZccXjHFzTxm8Ot3qJB55Pe6VSQl0rEm8SSsY0lGKtJYZqo-EvD0plW27ADJLG6LrQPHfu2fyTeAsQH2TcQzfbYl3xfug2gKzkDHQt2I5W9KPXBklMFH0Fu-0HpybyId8FBbFUAEhmPxQe6reqis4ujb8PfNP7OMWtSr0IQn-WcMEITb-Ley7mAhKArOKXeY2C7Dm7yJd8vTbr2BSLjf4nYjxct8pgiMHvq4acWT-UzfDanSgaaffkgCR7ULwHXnMc2X69vr0AYV6PYfVNZcu1K4Ks9bTXMfISvMEbyhLbO1DUHtPVylCcFAiArxrjCmPqoRbQ7Msrf5Z1nDXjCplgOAazpzP8jk0vGYqQqvFbIJLPp85g7kByf26Pcx7BT_2cqHgRVZ5Mvn7dCmwxXwZrK7ZKk7EP9cjCJgF53hoxGuDVHqRQbLqMSWBP-x_Pxjz-x_JDt-_Oc_tEMl_s7jBIq3lEgVEth-RUzg-rTRUzgpzpLcZt-JpnjnxX-0m00]--></g></svg>