<?xml version="1.0" encoding="us-ascii" standalone="no"?><svg xmlns="http://www.w3.org/2000/svg" xmlns:xlink="http://www.w3.org/1999/xlink" contentStyleType="text/css" height="471px" preserveAspectRatio="none" style="width:559px;height:471px;" version="1.1" viewBox="0 0 559 471" width="559px" zoomAndPan="magnify"><defs><filter height="300%" id="f1mse3r2v6m05c" width="300%" x="-1" y="-1"><feGaussianBlur result="blurOut" stdDeviation="2.0"/><feColorMatrix in="blurOut" result="blurOut2" type="matrix" values="0 0 0 0 0 0 0 0 0 0 0 0 0 0 0 0 0 0 .4 0"/><feOffset dx="4.0" dy="4.0" in="blurOut2" result="blurOut3"/><feBlend in="SourceGraphic" in2="blurOut3" mode="normal"/></filter></defs><g><!--class Authority--><g id="elem_Authority"><rect codeLine="10" fill="#FCF2CC" filter="url(#f1mse3r2v6m05c)" height="245.8594" id="Authority" style="stroke:#5A0000;stroke-width:2.0;" width="540" x="7" y="213.93"/><ellipse cx="238.75" cy="229.93" fill="#ADD1B2" rx="11" ry="11" style="stroke:#181818;stroke-width:1.0;"/><path d="M241.2231,236.0731 Q240.6421,236.3719 240.0029,236.5213 Q239.3638,236.6707 238.6582,236.6707 Q236.1514,236.6707 234.8315,235.0189 Q233.5117,233.367 233.5117,230.2459 Q233.5117,227.1165 234.8315,225.4647 Q236.1514,223.8128 238.6582,223.8128 Q239.3638,223.8128 240.0112,223.9622 Q240.6587,224.1116 241.2231,224.4105 L241.2231,227.1331 Q240.5923,226.5521 239.9988,226.2823 Q239.4053,226.0125 238.7744,226.0125 Q237.4297,226.0125 236.7449,227.0792 Q236.0601,228.1458 236.0601,230.2459 Q236.0601,232.3377 236.7449,233.4044 Q237.4297,234.471 238.7744,234.471 Q239.4053,234.471 239.9988,234.2012 Q240.5923,233.9315 241.2231,233.3504 Z " fill="#000000"/><text fill="#000000" font-family="sans-serif" font-size="14" font-weight="bold" lengthAdjust="spacing" textLength="68" x="259.25" y="235.221">Authority</text><line style="stroke:#5A0000;stroke-width:2.0;" x1="8" x2="546" y1="245.93" y2="245.93"/><ellipse cx="18" cy="259.6741" fill="none" rx="3" ry="3" style="stroke:#038048;stroke-width:1.0;"/><text fill="#000000" font-family="sans-serif" font-size="14" font-weight="bold" lengthAdjust="spacing" text-decoration="underline" textLength="55" x="27" y="263.4652">abiBase</text><text fill="#000000" font-family="sans-serif" font-size="14" lengthAdjust="spacing" text-decoration="underline" textLength="191" x="86" y="263.4652">: ABISerializableConstructor</text><ellipse cx="18" cy="276.1624" fill="none" rx="3" ry="3" style="stroke:#038048;stroke-width:1.0;"/><text fill="#000000" font-family="sans-serif" font-size="14" font-weight="bold" lengthAdjust="spacing" text-decoration="underline" textLength="65" x="27" y="279.9534">abiFields</text><text fill="#000000" font-family="sans-serif" font-size="14" lengthAdjust="spacing" text-decoration="underline" textLength="73" x="96" y="279.9534">: ABIField[]</text><ellipse cx="18" cy="292.6507" fill="none" rx="3" ry="3" style="stroke:#038048;stroke-width:1.0;"/><text fill="#000000" font-family="sans-serif" font-size="14" font-weight="bold" lengthAdjust="spacing" text-decoration="underline" textLength="63" x="27" y="296.4417">abiName</text><text fill="#000000" font-family="sans-serif" font-size="14" lengthAdjust="spacing" text-decoration="underline" textLength="48" x="94" y="296.4417">: string</text><ellipse cx="18" cy="309.139" fill="none" rx="3" ry="3" style="stroke:#038048;stroke-width:1.0;"/><text fill="#000000" font-family="sans-serif" font-size="14" font-weight="bold" lengthAdjust="spacing" textLength="63" x="27" y="312.93">accounts</text><text fill="#000000" font-family="sans-serif" font-size="14" lengthAdjust="spacing" textLength="174" x="94" y="312.93">: PermissionLevelWeight[]</text><ellipse cx="18" cy="325.6273" fill="none" rx="3" ry="3" style="stroke:#038048;stroke-width:1.0;"/><text fill="#000000" font-family="sans-serif" font-size="14" font-weight="bold" lengthAdjust="spacing" textLength="33" x="27" y="329.4183">keys</text><text fill="#000000" font-family="sans-serif" font-size="14" lengthAdjust="spacing" textLength="89" x="64" y="329.4183">: KeyWeight[]</text><ellipse cx="18" cy="342.1155" fill="none" rx="3" ry="3" style="stroke:#038048;stroke-width:1.0;"/><text fill="#000000" font-family="sans-serif" font-size="14" font-weight="bold" lengthAdjust="spacing" textLength="69" x="27" y="345.9066">threshold</text><text fill="#000000" font-family="sans-serif" font-size="14" lengthAdjust="spacing" textLength="54" x="100" y="345.9066">: UInt32</text><ellipse cx="18" cy="358.6038" fill="none" rx="3" ry="3" style="stroke:#038048;stroke-width:1.0;"/><text fill="#000000" font-family="sans-serif" font-size="14" font-weight="bold" lengthAdjust="spacing" textLength="39" x="27" y="362.3948">waits</text><text fill="#000000" font-family="sans-serif" font-size="14" lengthAdjust="spacing" textLength="94" x="70" y="362.3948">: WaitWeight[]</text><line style="stroke:#5A0000;stroke-width:2.0;" x1="8" x2="546" y1="369.348" y2="369.348"/><ellipse cx="18" cy="383.0921" fill="#84BE84" rx="3" ry="3" style="stroke:#038048;stroke-width:1.0;"/><text fill="#000000" font-family="sans-serif" font-size="14" lengthAdjust="spacing" textLength="192" x="27" y="386.8831">equals(other: any) : boolean</text><ellipse cx="18" cy="399.5804" fill="#84BE84" rx="3" ry="3" style="stroke:#038048;stroke-width:1.0;"/><text fill="#000000" font-family="sans-serif" font-size="14" lengthAdjust="spacing" text-decoration="underline" textLength="260" x="27" y="403.3714">from(value: AuthorityType) : Authority</text><ellipse cx="18" cy="416.0687" fill="#84BE84" rx="3" ry="3" style="stroke:#038048;stroke-width:1.0;"/><text fill="#000000" font-family="sans-serif" font-size="14" lengthAdjust="spacing" textLength="514" x="27" y="419.8597">hasPermission(publicKey: PublicKeyType, includePartial: boolean) : boolean</text><ellipse cx="18" cy="432.557" fill="#84BE84" rx="3" ry="3" style="stroke:#038048;stroke-width:1.0;"/><text fill="#000000" font-family="sans-serif" font-size="14" lengthAdjust="spacing" textLength="318" x="27" y="436.348">keyWeight(publicKey: PublicKeyType) : number</text><ellipse cx="18" cy="449.0452" fill="#84BE84" rx="3" ry="3" style="stroke:#038048;stroke-width:1.0;"/><text fill="#000000" font-family="sans-serif" font-size="14" lengthAdjust="spacing" textLength="78" x="27" y="452.8363">sort() : void</text></g><!--class Struct--><g id="elem_Struct"><rect codeLine="24" fill="#FCF2CC" filter="url(#f1mse3r2v6m05c)" height="146.9297" id="Struct" style="stroke:#5A0000;stroke-width:2.0;" width="351" x="101.5" y="7"/><ellipse cx="251.75" cy="23" fill="#ADD1B2" rx="11" ry="11" style="stroke:#181818;stroke-width:1.0;"/><path d="M254.2231,29.1431 Q253.6421,29.4419 253.0029,29.5913 Q252.3638,29.7407 251.6582,29.7407 Q249.1514,29.7407 247.8315,28.0889 Q246.5117,26.437 246.5117,23.3159 Q246.5117,20.1865 247.8315,18.5347 Q249.1514,16.8828 251.6582,16.8828 Q252.3638,16.8828 253.0112,17.0322 Q253.6587,17.1816 254.2231,17.4805 L254.2231,20.2031 Q253.5923,19.6221 252.9988,19.3523 Q252.4053,19.0825 251.7744,19.0825 Q250.4297,19.0825 249.7449,20.1492 Q249.0601,21.2158 249.0601,23.3159 Q249.0601,25.4077 249.7449,26.4744 Q250.4297,27.541 251.7744,27.541 Q252.4053,27.541 252.9988,27.2712 Q253.5923,27.0015 254.2231,26.4204 Z " fill="#000000"/><text fill="#000000" font-family="sans-serif" font-size="14" font-weight="bold" lengthAdjust="spacing" textLength="42" x="272.25" y="28.291">Struct</text><line style="stroke:#5A0000;stroke-width:2.0;" x1="102.5" x2="451.5" y1="39" y2="39"/><ellipse cx="112.5" cy="52.7441" fill="none" rx="3" ry="3" style="stroke:#038048;stroke-width:1.0;"/><text fill="#000000" font-family="sans-serif" font-size="14" font-weight="bold" lengthAdjust="spacing" text-decoration="underline" textLength="55" x="121.5" y="56.5352">abiBase</text><text fill="#000000" font-family="sans-serif" font-size="14" lengthAdjust="spacing" text-decoration="underline" textLength="191" x="180.5" y="56.5352">: ABISerializableConstructor</text><ellipse cx="112.5" cy="69.2324" fill="none" rx="3" ry="3" style="stroke:#038048;stroke-width:1.0;"/><text fill="#000000" font-family="sans-serif" font-size="14" font-weight="bold" lengthAdjust="spacing" text-decoration="underline" textLength="65" x="121.5" y="73.0234">abiFields</text><text fill="#000000" font-family="sans-serif" font-size="14" lengthAdjust="spacing" text-decoration="underline" textLength="73" x="190.5" y="73.0234">: ABIField[]</text><ellipse cx="112.5" cy="85.7207" fill="none" rx="3" ry="3" style="stroke:#038048;stroke-width:1.0;"/><text fill="#000000" font-family="sans-serif" font-size="14" font-weight="bold" lengthAdjust="spacing" text-decoration="underline" textLength="63" x="121.5" y="89.5117">abiName</text><text fill="#000000" font-family="sans-serif" font-size="14" lengthAdjust="spacing" text-decoration="underline" textLength="48" x="188.5" y="89.5117">: string</text><line style="stroke:#5A0000;stroke-width:2.0;" x1="102.5" x2="451.5" y1="96.4648" y2="96.4648"/><ellipse cx="112.5" cy="110.209" fill="#84BE84" rx="3" ry="3" style="stroke:#038048;stroke-width:1.0;"/><text fill="#000000" font-family="sans-serif" font-size="14" lengthAdjust="spacing" textLength="192" x="121.5" y="114">equals(other: any) : boolean</text><ellipse cx="112.5" cy="126.6973" fill="#84BE84" rx="3" ry="3" style="stroke:#038048;stroke-width:1.0;"/><text fill="#000000" font-family="sans-serif" font-size="14" lengthAdjust="spacing" text-decoration="underline" textLength="325" x="121.5" y="130.4883">from&lt;T&gt;(this: T, value: any) : InstanceType&lt;T&gt;</text><ellipse cx="112.5" cy="143.1855" fill="#84BE84" rx="3" ry="3" style="stroke:#038048;stroke-width:1.0;"/><text fill="#000000" font-family="sans-serif" font-size="14" lengthAdjust="spacing" text-decoration="underline" textLength="187" x="121.5" y="146.9766">from(value: any) : unknown</text></g><!--reverse link Struct to Authority--><g id="link_Struct_Authority"><path codeLine="32" d="M277,172.37 C277,190.86 277,193.25 277,213.47 " fill="none" id="Struct-backto-Authority" style="stroke:#181818;stroke-width:1.0;"/><polygon fill="none" points="277,154.37,271,172.37,283,172.37,277,154.37" style="stroke:#181818;stroke-width:1.0;"/></g><!--SRC=[pLDDQzj04BthLomvkJYXmQKNOmon8M1QIgXTSYWvZ5PZxwBLhBixib7J_FUEP4bs7BVGM_UqcddlpSTRnTpI5W8KQkuWndjFlEJAeKgzovBuEZi3dM-2BocRU-U3MklrIEitA1yo30V4HxYLSuBuUc07mg1kBpDNnkgSC4OrIepDK66nvKgjBReidaOAPECbT5HP6iZytj96SIZn977UEGUWA2aaJdHTMbtTbQ8MB5TNwZbHSfuZ0rlzeeQJT0gfdK74oVjqgiRgRhPOOh3Wx4z87SuzHIcesOUBpFkczIEt-Vx-T17x1OgkYcZAA0sgIMej0t2dyu2Xi35QJvznX-uHxSPmArh3Swmww2UitgJP18n6J6untnR47qPzUW-sh_GezzTy_562YmFF1iDO0LNl19Pwxn3eRAfryCLW1wv46RrRyQhQOatf0mTP0_4urM1RfivgwLrcxQuryLfPqgxCy042YmTzvVCcXdatzn-rQWgLHOe7uuRH1nxKmPstMVBIlOrbu-v_-J3-qOh9QZfWO-DOhQvLQqjBMaYlG1hhlGZiBpwsX99oydkIDVKBclowkJdzbNu3]--></g></svg>