<?xml version="1.0" encoding="us-ascii" standalone="no"?><svg xmlns="http://www.w3.org/2000/svg" xmlns:xlink="http://www.w3.org/1999/xlink" contentStyleType="text/css" height="488px" preserveAspectRatio="none" style="width:370px;height:488px;" version="1.1" viewBox="0 0 370 488" width="370px" zoomAndPan="magnify"><defs><filter height="300%" id="f1ood5ds7ald1i" width="300%" x="-1" y="-1"><feGaussianBlur result="blurOut" stdDeviation="2.0"/><feColorMatrix in="blurOut" result="blurOut2" type="matrix" values="0 0 0 0 0 0 0 0 0 0 0 0 0 0 0 0 0 0 .4 0"/><feOffset dx="4.0" dy="4.0" in="blurOut2" result="blurOut3"/><feBlend in="SourceGraphic" in2="blurOut3" mode="normal"/></filter></defs><g><!--class GetBlockResponseTransactionReceipt--><g id="elem_GetBlockResponseTransactionReceipt"><rect codeLine="10" fill="#FCF2CC" filter="url(#f1ood5ds7ald1i)" height="212.8828" id="GetBlockResponseTransactionReceipt" style="stroke:#5A0000;stroke-width:2.0;" width="351" x="7" y="263.4"/><ellipse cx="44.05" cy="279.4" fill="#ADD1B2" rx="11" ry="11" style="stroke:#181818;stroke-width:1.0;"/><path d="M46.5231,285.5431 Q45.9421,285.8419 45.3029,285.9913 Q44.6638,286.1407 43.9582,286.1407 Q41.4514,286.1407 40.1315,284.4889 Q38.8117,282.837 38.8117,279.7159 Q38.8117,276.5865 40.1315,274.9347 Q41.4514,273.2828 43.9582,273.2828 Q44.6638,273.2828 45.3112,273.4322 Q45.9587,273.5816 46.5231,273.8805 L46.5231,276.6031 Q45.8923,276.0221 45.2988,275.7523 Q44.7053,275.4825 44.0744,275.4825 Q42.7297,275.4825 42.0449,276.5492 Q41.3601,277.6158 41.3601,279.7159 Q41.3601,281.8077 42.0449,282.8744 Q42.7297,283.941 44.0744,283.941 Q44.7053,283.941 45.2988,283.6712 Q45.8923,283.4015 46.5231,282.8204 Z " fill="#000000"/><text fill="#000000" font-family="sans-serif" font-size="14" font-weight="bold" lengthAdjust="spacing" textLength="270" x="62.95" y="284.691">GetBlockResponseTransactionReceipt</text><line style="stroke:#5A0000;stroke-width:2.0;" x1="8" x2="357" y1="295.4" y2="295.4"/><ellipse cx="18" cy="309.1441" fill="none" rx="3" ry="3" style="stroke:#038048;stroke-width:1.0;"/><text fill="#000000" font-family="sans-serif" font-size="14" font-weight="bold" lengthAdjust="spacing" text-decoration="underline" textLength="55" x="27" y="312.9352">abiBase</text><text fill="#000000" font-family="sans-serif" font-size="14" lengthAdjust="spacing" text-decoration="underline" textLength="191" x="86" y="312.9352">: ABISerializableConstructor</text><ellipse cx="18" cy="325.6324" fill="none" rx="3" ry="3" style="stroke:#038048;stroke-width:1.0;"/><text fill="#000000" font-family="sans-serif" font-size="14" font-weight="bold" lengthAdjust="spacing" text-decoration="underline" textLength="65" x="27" y="329.4234">abiFields</text><text fill="#000000" font-family="sans-serif" font-size="14" lengthAdjust="spacing" text-decoration="underline" textLength="73" x="96" y="329.4234">: ABIField[]</text><ellipse cx="18" cy="342.1207" fill="none" rx="3" ry="3" style="stroke:#038048;stroke-width:1.0;"/><text fill="#000000" font-family="sans-serif" font-size="14" font-weight="bold" lengthAdjust="spacing" text-decoration="underline" textLength="63" x="27" y="345.9117">abiName</text><text fill="#000000" font-family="sans-serif" font-size="14" lengthAdjust="spacing" text-decoration="underline" textLength="48" x="94" y="345.9117">: string</text><ellipse cx="18" cy="358.609" fill="none" rx="3" ry="3" style="stroke:#038048;stroke-width:1.0;"/><text fill="#000000" font-family="sans-serif" font-size="14" font-weight="bold" lengthAdjust="spacing" textLength="98" x="27" y="362.4">cpu_usage_us</text><text fill="#000000" font-family="sans-serif" font-size="14" lengthAdjust="spacing" textLength="54" x="129" y="362.4">: UInt32</text><ellipse cx="18" cy="375.0973" fill="none" rx="3" ry="3" style="stroke:#038048;stroke-width:1.0;"/><text fill="#000000" font-family="sans-serif" font-size="14" font-weight="bold" lengthAdjust="spacing" textLength="123" x="27" y="378.8883">net_usage_words</text><text fill="#000000" font-family="sans-serif" font-size="14" lengthAdjust="spacing" textLength="54" x="154" y="378.8883">: UInt32</text><ellipse cx="18" cy="391.5855" fill="none" rx="3" ry="3" style="stroke:#038048;stroke-width:1.0;"/><text fill="#000000" font-family="sans-serif" font-size="14" font-weight="bold" lengthAdjust="spacing" textLength="45" x="27" y="395.3766">status</text><text fill="#000000" font-family="sans-serif" font-size="14" lengthAdjust="spacing" textLength="48" x="76" y="395.3766">: string</text><ellipse cx="18" cy="408.0738" fill="none" rx="3" ry="3" style="stroke:#038048;stroke-width:1.0;"/><text fill="#000000" font-family="sans-serif" font-size="14" font-weight="bold" lengthAdjust="spacing" textLength="20" x="27" y="411.8648">trx</text><text fill="#000000" font-family="sans-serif" font-size="14" lengthAdjust="spacing" textLength="81" x="51" y="411.8648">: TrxVariant</text><line style="stroke:#5A0000;stroke-width:2.0;" x1="8" x2="357" y1="418.818" y2="418.818"/><ellipse cx="18" cy="432.5621" fill="#84BE84" rx="3" ry="3" style="stroke:#038048;stroke-width:1.0;"/><text fill="#000000" font-family="sans-serif" font-size="14" lengthAdjust="spacing" textLength="192" x="27" y="436.3531">equals(other: any) : boolean</text><ellipse cx="18" cy="449.0504" fill="#84BE84" rx="3" ry="3" style="stroke:#038048;stroke-width:1.0;"/><text fill="#000000" font-family="sans-serif" font-size="14" lengthAdjust="spacing" text-decoration="underline" textLength="325" x="27" y="452.8414">from&lt;T&gt;(this: T, value: any) : InstanceType&lt;T&gt;</text><ellipse cx="18" cy="465.5387" fill="#84BE84" rx="3" ry="3" style="stroke:#038048;stroke-width:1.0;"/><text fill="#000000" font-family="sans-serif" font-size="14" lengthAdjust="spacing" text-decoration="underline" textLength="187" x="27" y="469.3297">from(value: any) : unknown</text></g><!--class TransactionReceipt--><g id="elem_TransactionReceipt"><rect codeLine="22" fill="#FCF2CC" filter="url(#f1ood5ds7ald1i)" height="196.3945" id="TransactionReceipt" style="stroke:#5A0000;stroke-width:2.0;" width="351" x="7" y="7"/><ellipse cx="109.25" cy="23" fill="#ADD1B2" rx="11" ry="11" style="stroke:#181818;stroke-width:1.0;"/><path d="M111.7231,29.1431 Q111.1421,29.4419 110.5029,29.5913 Q109.8638,29.7407 109.1582,29.7407 Q106.6514,29.7407 105.3315,28.0889 Q104.0117,26.437 104.0117,23.3159 Q104.0117,20.1865 105.3315,18.5347 Q106.6514,16.8828 109.1582,16.8828 Q109.8638,16.8828 110.5112,17.0322 Q111.1587,17.1816 111.7231,17.4805 L111.7231,20.2031 Q111.0923,19.6221 110.4988,19.3523 Q109.9053,19.0825 109.2744,19.0825 Q107.9297,19.0825 107.2449,20.1492 Q106.5601,21.2158 106.5601,23.3159 Q106.5601,25.4077 107.2449,26.4744 Q107.9297,27.541 109.2744,27.541 Q109.9053,27.541 110.4988,27.2712 Q111.0923,27.0015 111.7231,26.4204 Z " fill="#000000"/><text fill="#000000" font-family="sans-serif" font-size="14" font-weight="bold" lengthAdjust="spacing" textLength="138" x="129.75" y="28.291">TransactionReceipt</text><line style="stroke:#5A0000;stroke-width:2.0;" x1="8" x2="357" y1="39" y2="39"/><ellipse cx="18" cy="52.7441" fill="none" rx="3" ry="3" style="stroke:#038048;stroke-width:1.0;"/><text fill="#000000" font-family="sans-serif" font-size="14" font-weight="bold" lengthAdjust="spacing" text-decoration="underline" textLength="55" x="27" y="56.5352">abiBase</text><text fill="#000000" font-family="sans-serif" font-size="14" lengthAdjust="spacing" text-decoration="underline" textLength="191" x="86" y="56.5352">: ABISerializableConstructor</text><ellipse cx="18" cy="69.2324" fill="none" rx="3" ry="3" style="stroke:#038048;stroke-width:1.0;"/><text fill="#000000" font-family="sans-serif" font-size="14" font-weight="bold" lengthAdjust="spacing" text-decoration="underline" textLength="65" x="27" y="73.0234">abiFields</text><text fill="#000000" font-family="sans-serif" font-size="14" lengthAdjust="spacing" text-decoration="underline" textLength="73" x="96" y="73.0234">: ABIField[]</text><ellipse cx="18" cy="85.7207" fill="none" rx="3" ry="3" style="stroke:#038048;stroke-width:1.0;"/><text fill="#000000" font-family="sans-serif" font-size="14" font-weight="bold" lengthAdjust="spacing" text-decoration="underline" textLength="63" x="27" y="89.5117">abiName</text><text fill="#000000" font-family="sans-serif" font-size="14" lengthAdjust="spacing" text-decoration="underline" textLength="48" x="94" y="89.5117">: string</text><ellipse cx="18" cy="102.209" fill="none" rx="3" ry="3" style="stroke:#038048;stroke-width:1.0;"/><text fill="#000000" font-family="sans-serif" font-size="14" font-weight="bold" lengthAdjust="spacing" textLength="98" x="27" y="106">cpu_usage_us</text><text fill="#000000" font-family="sans-serif" font-size="14" lengthAdjust="spacing" textLength="54" x="129" y="106">: UInt32</text><ellipse cx="18" cy="118.6973" fill="none" rx="3" ry="3" style="stroke:#038048;stroke-width:1.0;"/><text fill="#000000" font-family="sans-serif" font-size="14" font-weight="bold" lengthAdjust="spacing" textLength="123" x="27" y="122.4883">net_usage_words</text><text fill="#000000" font-family="sans-serif" font-size="14" lengthAdjust="spacing" textLength="54" x="154" y="122.4883">: UInt32</text><ellipse cx="18" cy="135.1855" fill="none" rx="3" ry="3" style="stroke:#038048;stroke-width:1.0;"/><text fill="#000000" font-family="sans-serif" font-size="14" font-weight="bold" lengthAdjust="spacing" textLength="45" x="27" y="138.9766">status</text><text fill="#000000" font-family="sans-serif" font-size="14" lengthAdjust="spacing" textLength="48" x="76" y="138.9766">: string</text><line style="stroke:#5A0000;stroke-width:2.0;" x1="8" x2="357" y1="145.9297" y2="145.9297"/><ellipse cx="18" cy="159.6738" fill="#84BE84" rx="3" ry="3" style="stroke:#038048;stroke-width:1.0;"/><text fill="#000000" font-family="sans-serif" font-size="14" lengthAdjust="spacing" textLength="192" x="27" y="163.4648">equals(other: any) : boolean</text><ellipse cx="18" cy="176.1621" fill="#84BE84" rx="3" ry="3" style="stroke:#038048;stroke-width:1.0;"/><text fill="#000000" font-family="sans-serif" font-size="14" lengthAdjust="spacing" text-decoration="underline" textLength="325" x="27" y="179.9531">from&lt;T&gt;(this: T, value: any) : InstanceType&lt;T&gt;</text><ellipse cx="18" cy="192.6504" fill="#84BE84" rx="3" ry="3" style="stroke:#038048;stroke-width:1.0;"/><text fill="#000000" font-family="sans-serif" font-size="14" lengthAdjust="spacing" text-decoration="underline" textLength="187" x="27" y="196.4414">from(value: any) : unknown</text></g><!--reverse link TransactionReceipt to GetBlockResponseTransactionReceipt--><g id="link_TransactionReceipt_GetBlockResponseTransactionReceipt"><path codeLine="33" d="M182.5,221.62 C182.5,241.04 182.5,243.52 182.5,263.19 " fill="none" id="TransactionReceipt-backto-GetBlockResponseTransactionReceipt" style="stroke:#181818;stroke-width:1.0;"/><polygon fill="none" points="182.5,203.62,176.5,221.62,188.5,221.62,182.5,203.62" style="stroke:#181818;stroke-width:1.0;"/></g><!--SRC=[xPDDImCn48Rl-ok2fugAKl5IIi4Mb5uyjAiN4PdDJhjXipDhCckjrVzk-ltX2Xuzc4CWUPzt9ZD3V6we10U5wbdm_eP9XZArg1AsQUJtrIxeVEouehJ7bfqQwL5JwsyKknJTahY2Yx1sYC7IxGYTkgXtnfdHEQ7tgXbb9aM5HIbJDJ9eKxzxKw1a7AwsKOOPf3mnD5RYAjmH3byk3iW72KaYFK-jZcvHkfPrFa1VCdcCvmXeCKm3r6XAELApI8Krym9YzASwQISTI4mNFBRFauvggUjkVuZEW3Nla5ZiXK3X9LhOrJfl5ZLjlOlpurCjUmV5Eak86MfSK7DHbzLpvM6COLyHztsIo-Q689GLCGaj_W6Qvzi4E4WXxcqbnExj0KA5eN4B4LygiBx1ag5hAQ3fSO0IPej01tMC71VjkDEGpFWGw5IzWgrmO-g7NW5fZASb1gp6tDWtL9GJJoZwN8_mVsJh57zYAhNpQ7-SdVtgitq1]--></g></svg>