<?xml version="1.0" encoding="us-ascii" standalone="no"?><svg xmlns="http://www.w3.org/2000/svg" xmlns:xlink="http://www.w3.org/1999/xlink" contentStyleType="text/css" height="636px" preserveAspectRatio="none" style="width:412px;height:636px;" version="1.1" viewBox="0 0 412 636" width="412px" zoomAndPan="magnify"><defs><filter height="300%" id="f1k9ck95iv4c3i" width="300%" x="-1" y="-1"><feGaussianBlur result="blurOut" stdDeviation="2.0"/><feColorMatrix in="blurOut" result="blurOut2" type="matrix" values="0 0 0 0 0 0 0 0 0 0 0 0 0 0 0 0 0 0 .4 0"/><feOffset dx="4.0" dy="4.0" in="blurOut2" result="blurOut3"/><feBlend in="SourceGraphic" in2="blurOut3" mode="normal"/></filter></defs><g><!--class GetBlockResponse--><g id="elem_GetBlockResponse"><rect codeLine="10" fill="#FCF2CC" filter="url(#f1k9ck95iv4c3i)" height="410.7422" id="GetBlockResponse" style="stroke:#5A0000;stroke-width:2.0;" width="393" x="7" y="213.93"/><ellipse cx="133.25" cy="229.93" fill="#ADD1B2" rx="11" ry="11" style="stroke:#181818;stroke-width:1.0;"/><path d="M135.7231,236.0731 Q135.1421,236.3719 134.5029,236.5213 Q133.8638,236.6707 133.1582,236.6707 Q130.6514,236.6707 129.3315,235.0189 Q128.0117,233.367 128.0117,230.2459 Q128.0117,227.1165 129.3315,225.4647 Q130.6514,223.8128 133.1582,223.8128 Q133.8638,223.8128 134.5112,223.9622 Q135.1587,224.1116 135.7231,224.4105 L135.7231,227.1331 Q135.0923,226.5521 134.4988,226.2823 Q133.9053,226.0125 133.2744,226.0125 Q131.9297,226.0125 131.2449,227.0792 Q130.5601,228.1458 130.5601,230.2459 Q130.5601,232.3377 131.2449,233.4044 Q131.9297,234.471 133.2744,234.471 Q133.9053,234.471 134.4988,234.2012 Q135.0923,233.9315 135.7231,233.3504 Z " fill="#000000"/><text fill="#000000" font-family="sans-serif" font-size="14" font-weight="bold" lengthAdjust="spacing" textLength="132" x="153.75" y="235.221">GetBlockResponse</text><line style="stroke:#5A0000;stroke-width:2.0;" x1="8" x2="399" y1="245.93" y2="245.93"/><ellipse cx="18" cy="259.6741" fill="none" rx="3" ry="3" style="stroke:#038048;stroke-width:1.0;"/><text fill="#000000" font-family="sans-serif" font-size="14" font-weight="bold" lengthAdjust="spacing" text-decoration="underline" textLength="55" x="27" y="263.4652">abiBase</text><text fill="#000000" font-family="sans-serif" font-size="14" lengthAdjust="spacing" text-decoration="underline" textLength="191" x="86" y="263.4652">: ABISerializableConstructor</text><ellipse cx="18" cy="276.1624" fill="none" rx="3" ry="3" style="stroke:#038048;stroke-width:1.0;"/><text fill="#000000" font-family="sans-serif" font-size="14" font-weight="bold" lengthAdjust="spacing" text-decoration="underline" textLength="65" x="27" y="279.9534">abiFields</text><text fill="#000000" font-family="sans-serif" font-size="14" lengthAdjust="spacing" text-decoration="underline" textLength="73" x="96" y="279.9534">: ABIField[]</text><ellipse cx="18" cy="292.6507" fill="none" rx="3" ry="3" style="stroke:#038048;stroke-width:1.0;"/><text fill="#000000" font-family="sans-serif" font-size="14" font-weight="bold" lengthAdjust="spacing" text-decoration="underline" textLength="63" x="27" y="296.4417">abiName</text><text fill="#000000" font-family="sans-serif" font-size="14" lengthAdjust="spacing" text-decoration="underline" textLength="48" x="94" y="296.4417">: string</text><ellipse cx="18" cy="309.139" fill="none" rx="3" ry="3" style="stroke:#038048;stroke-width:1.0;"/><text fill="#000000" font-family="sans-serif" font-size="14" font-weight="bold" lengthAdjust="spacing" textLength="95" x="27" y="312.93">action_mroot</text><text fill="#000000" font-family="sans-serif" font-size="14" lengthAdjust="spacing" textLength="106" x="126" y="312.93">: Checksum256</text><ellipse cx="18" cy="325.6273" fill="none" rx="3" ry="3" style="stroke:#038048;stroke-width:1.0;"/><text fill="#000000" font-family="sans-serif" font-size="14" font-weight="bold" lengthAdjust="spacing" textLength="124" x="27" y="329.4183">block_extensions</text><text fill="#000000" font-family="sans-serif" font-size="14" lengthAdjust="spacing" textLength="122" x="155" y="329.4183">: BlockExtension[]</text><ellipse cx="18" cy="342.1155" fill="none" rx="3" ry="3" style="stroke:#038048;stroke-width:1.0;"/><text fill="#000000" font-family="sans-serif" font-size="14" font-weight="bold" lengthAdjust="spacing" textLength="78" x="27" y="345.9066">block_num</text><text fill="#000000" font-family="sans-serif" font-size="14" lengthAdjust="spacing" textLength="54" x="109" y="345.9066">: UInt32</text><ellipse cx="18" cy="358.6038" fill="none" rx="3" ry="3" style="stroke:#038048;stroke-width:1.0;"/><text fill="#000000" font-family="sans-serif" font-size="14" font-weight="bold" lengthAdjust="spacing" textLength="73" x="27" y="362.3948">confirmed</text><text fill="#000000" font-family="sans-serif" font-size="14" lengthAdjust="spacing" textLength="54" x="104" y="362.3948">: UInt16</text><ellipse cx="18" cy="375.0921" fill="none" rx="3" ry="3" style="stroke:#038048;stroke-width:1.0;"/><text fill="#000000" font-family="sans-serif" font-size="14" font-weight="bold" lengthAdjust="spacing" textLength="133" x="27" y="378.8831">header_extensions</text><text fill="#000000" font-family="sans-serif" font-size="14" lengthAdjust="spacing" textLength="135" x="164" y="378.8831">: HeaderExtension[]</text><ellipse cx="18" cy="391.5804" fill="none" rx="3" ry="3" style="stroke:#038048;stroke-width:1.0;"/><text fill="#000000" font-family="sans-serif" font-size="14" font-weight="bold" lengthAdjust="spacing" textLength="14" x="27" y="395.3714">id</text><text fill="#000000" font-family="sans-serif" font-size="14" lengthAdjust="spacing" textLength="57" x="45" y="395.3714">: BlockId</text><ellipse cx="18" cy="408.0687" fill="none" rx="3" ry="3" style="stroke:#038048;stroke-width:1.0;"/><text fill="#000000" font-family="sans-serif" font-size="14" font-weight="bold" lengthAdjust="spacing" textLength="107" x="27" y="411.8597">new_producers</text><text fill="#000000" font-family="sans-serif" font-size="14" lengthAdjust="spacing" textLength="106" x="138" y="411.8597">: NewProducers</text><ellipse cx="18" cy="424.557" fill="none" rx="3" ry="3" style="stroke:#038048;stroke-width:1.0;"/><text fill="#000000" font-family="sans-serif" font-size="14" font-weight="bold" lengthAdjust="spacing" textLength="162" x="27" y="428.348">new_protocol_features</text><text fill="#000000" font-family="sans-serif" font-size="14" lengthAdjust="spacing" textLength="32" x="193" y="428.348">: any</text><ellipse cx="18" cy="441.0452" fill="none" rx="3" ry="3" style="stroke:#038048;stroke-width:1.0;"/><text fill="#000000" font-family="sans-serif" font-size="14" font-weight="bold" lengthAdjust="spacing" textLength="62" x="27" y="444.8362">previous</text><text fill="#000000" font-family="sans-serif" font-size="14" lengthAdjust="spacing" textLength="57" x="93" y="444.8362">: BlockId</text><ellipse cx="18" cy="457.5335" fill="none" rx="3" ry="3" style="stroke:#038048;stroke-width:1.0;"/><text fill="#000000" font-family="sans-serif" font-size="14" font-weight="bold" lengthAdjust="spacing" textLength="63" x="27" y="461.3245">producer</text><text fill="#000000" font-family="sans-serif" font-size="14" lengthAdjust="spacing" textLength="47" x="94" y="461.3245">: Name</text><ellipse cx="18" cy="474.0218" fill="none" rx="3" ry="3" style="stroke:#038048;stroke-width:1.0;"/><text fill="#000000" font-family="sans-serif" font-size="14" font-weight="bold" lengthAdjust="spacing" textLength="138" x="27" y="477.8128">producer_signature</text><text fill="#000000" font-family="sans-serif" font-size="14" lengthAdjust="spacing" textLength="74" x="169" y="477.8128">: Signature</text><ellipse cx="18" cy="490.5101" fill="none" rx="3" ry="3" style="stroke:#038048;stroke-width:1.0;"/><text fill="#000000" font-family="sans-serif" font-size="14" font-weight="bold" lengthAdjust="spacing" textLength="115" x="27" y="494.3011">ref_block_prefix</text><text fill="#000000" font-family="sans-serif" font-size="14" lengthAdjust="spacing" textLength="54" x="146" y="494.3011">: UInt32</text><ellipse cx="18" cy="506.9984" fill="none" rx="3" ry="3" style="stroke:#038048;stroke-width:1.0;"/><text fill="#000000" font-family="sans-serif" font-size="14" font-weight="bold" lengthAdjust="spacing" textLength="123" x="27" y="510.7894">schedule_version</text><text fill="#000000" font-family="sans-serif" font-size="14" lengthAdjust="spacing" textLength="54" x="154" y="510.7894">: UInt32</text><ellipse cx="18" cy="523.4866" fill="none" rx="3" ry="3" style="stroke:#038048;stroke-width:1.0;"/><text fill="#000000" font-family="sans-serif" font-size="14" font-weight="bold" lengthAdjust="spacing" textLength="78" x="27" y="527.2777">timestamp</text><text fill="#000000" font-family="sans-serif" font-size="14" lengthAdjust="spacing" textLength="77" x="109" y="527.2777">: TimePoint</text><ellipse cx="18" cy="539.9749" fill="none" rx="3" ry="3" style="stroke:#038048;stroke-width:1.0;"/><text fill="#000000" font-family="sans-serif" font-size="14" font-weight="bold" lengthAdjust="spacing" textLength="89" x="27" y="543.7659">transactions</text><text fill="#000000" font-family="sans-serif" font-size="14" lengthAdjust="spacing" textLength="274" x="120" y="543.7659">: GetBlockResponseTransactionReceipt[]</text><ellipse cx="18" cy="556.4632" fill="none" rx="3" ry="3" style="stroke:#038048;stroke-width:1.0;"/><text fill="#000000" font-family="sans-serif" font-size="14" font-weight="bold" lengthAdjust="spacing" textLength="132" x="27" y="560.2542">transaction_mroot</text><text fill="#000000" font-family="sans-serif" font-size="14" lengthAdjust="spacing" textLength="106" x="163" y="560.2542">: Checksum256</text><line style="stroke:#5A0000;stroke-width:2.0;" x1="8" x2="399" y1="567.2073" y2="567.2073"/><ellipse cx="18" cy="580.9515" fill="#84BE84" rx="3" ry="3" style="stroke:#038048;stroke-width:1.0;"/><text fill="#000000" font-family="sans-serif" font-size="14" lengthAdjust="spacing" textLength="192" x="27" y="584.7425">equals(other: any) : boolean</text><ellipse cx="18" cy="597.4398" fill="#84BE84" rx="3" ry="3" style="stroke:#038048;stroke-width:1.0;"/><text fill="#000000" font-family="sans-serif" font-size="14" lengthAdjust="spacing" text-decoration="underline" textLength="325" x="27" y="601.2308">from&lt;T&gt;(this: T, value: any) : InstanceType&lt;T&gt;</text><ellipse cx="18" cy="613.928" fill="#84BE84" rx="3" ry="3" style="stroke:#038048;stroke-width:1.0;"/><text fill="#000000" font-family="sans-serif" font-size="14" lengthAdjust="spacing" text-decoration="underline" textLength="187" x="27" y="617.7191">from(value: any) : unknown</text></g><!--class Struct--><g id="elem_Struct"><rect codeLine="34" fill="#FCF2CC" filter="url(#f1k9ck95iv4c3i)" height="146.9297" id="Struct" style="stroke:#5A0000;stroke-width:2.0;" width="351" x="28" y="7"/><ellipse cx="178.25" cy="23" fill="#ADD1B2" rx="11" ry="11" style="stroke:#181818;stroke-width:1.0;"/><path d="M180.7231,29.1431 Q180.1421,29.4419 179.5029,29.5913 Q178.8638,29.7407 178.1582,29.7407 Q175.6514,29.7407 174.3315,28.0889 Q173.0117,26.437 173.0117,23.3159 Q173.0117,20.1865 174.3315,18.5347 Q175.6514,16.8828 178.1582,16.8828 Q178.8638,16.8828 179.5112,17.0322 Q180.1587,17.1816 180.7231,17.4805 L180.7231,20.2031 Q180.0923,19.6221 179.4988,19.3523 Q178.9053,19.0825 178.2744,19.0825 Q176.9297,19.0825 176.2449,20.1492 Q175.5601,21.2158 175.5601,23.3159 Q175.5601,25.4077 176.2449,26.4744 Q176.9297,27.541 178.2744,27.541 Q178.9053,27.541 179.4988,27.2712 Q180.0923,27.0015 180.7231,26.4204 Z " fill="#000000"/><text fill="#000000" font-family="sans-serif" font-size="14" font-weight="bold" lengthAdjust="spacing" textLength="42" x="198.75" y="28.291">Struct</text><line style="stroke:#5A0000;stroke-width:2.0;" x1="29" x2="378" y1="39" y2="39"/><ellipse cx="39" cy="52.7441" fill="none" rx="3" ry="3" style="stroke:#038048;stroke-width:1.0;"/><text fill="#000000" font-family="sans-serif" font-size="14" font-weight="bold" lengthAdjust="spacing" text-decoration="underline" textLength="55" x="48" y="56.5352">abiBase</text><text fill="#000000" font-family="sans-serif" font-size="14" lengthAdjust="spacing" text-decoration="underline" textLength="191" x="107" y="56.5352">: ABISerializableConstructor</text><ellipse cx="39" cy="69.2324" fill="none" rx="3" ry="3" style="stroke:#038048;stroke-width:1.0;"/><text fill="#000000" font-family="sans-serif" font-size="14" font-weight="bold" lengthAdjust="spacing" text-decoration="underline" textLength="65" x="48" y="73.0234">abiFields</text><text fill="#000000" font-family="sans-serif" font-size="14" lengthAdjust="spacing" text-decoration="underline" textLength="73" x="117" y="73.0234">: ABIField[]</text><ellipse cx="39" cy="85.7207" fill="none" rx="3" ry="3" style="stroke:#038048;stroke-width:1.0;"/><text fill="#000000" font-family="sans-serif" font-size="14" font-weight="bold" lengthAdjust="spacing" text-decoration="underline" textLength="63" x="48" y="89.5117">abiName</text><text fill="#000000" font-family="sans-serif" font-size="14" lengthAdjust="spacing" text-decoration="underline" textLength="48" x="115" y="89.5117">: string</text><line style="stroke:#5A0000;stroke-width:2.0;" x1="29" x2="378" y1="96.4648" y2="96.4648"/><ellipse cx="39" cy="110.209" fill="#84BE84" rx="3" ry="3" style="stroke:#038048;stroke-width:1.0;"/><text fill="#000000" font-family="sans-serif" font-size="14" lengthAdjust="spacing" textLength="192" x="48" y="114">equals(other: any) : boolean</text><ellipse cx="39" cy="126.6973" fill="#84BE84" rx="3" ry="3" style="stroke:#038048;stroke-width:1.0;"/><text fill="#000000" font-family="sans-serif" font-size="14" lengthAdjust="spacing" text-decoration="underline" textLength="325" x="48" y="130.4883">from&lt;T&gt;(this: T, value: any) : InstanceType&lt;T&gt;</text><ellipse cx="39" cy="143.1855" fill="#84BE84" rx="3" ry="3" style="stroke:#038048;stroke-width:1.0;"/><text fill="#000000" font-family="sans-serif" font-size="14" lengthAdjust="spacing" text-decoration="underline" textLength="187" x="48" y="146.9766">from(value: any) : unknown</text></g><!--reverse link Struct to GetBlockResponse--><g id="link_Struct_GetBlockResponse"><path codeLine="42" d="M203.5,172.14 C203.5,190.22 203.5,192.51 203.5,213.59 " fill="none" id="Struct-backto-GetBlockResponse" style="stroke:#181818;stroke-width:1.0;"/><polygon fill="none" points="203.5,154.14,197.5,172.14,209.5,172.14,203.5,154.14" style="stroke:#181818;stroke-width:1.0;"/></g><!--SRC=[pPHDRzim38Rl-HL2JncsObs6xZ040PPWtN8fYYOx3OCXItGiM28zVIJDklxtAaxak8ctStKJ-RnwHPgognJMt7B3PfexTqFe5twhWUMavS2zp4wvg5QM0iePQRAi4CL8Y3EAh0Ix9wxvLLmTudwljWYMNVKhbwKI5O9pR3GebGG6flPRLYZGqdKZ1dn9CNGyPL5oIHk5A-PjW4xYzERUSdGn1UW7OcVDBhw1dseIrJsucj311NiSiBWUdUTUYIVsTfnFUAwctC7uVJvXdzcNwNm1Ld6j_l1SmopAeg_mP7kLDqq5Hssp__chbxtb9hd4CsD53TKaXLU4cR54_a3CIX2L2sPq_Qd5ybqj6JnuG1VvPDkK-3L53-P77eCvW3_cw3-EshGWB9Gr83lf3qUt4dZySkTstvjudv-ItHlDPPj0s6Ir9Ha4s7JCBMpkKkWKz2H8PmLm7oma0STjozKMreg2-uTVyafMiV5dkSof5JO61sgHzYrgeSZsFOn-XNheRwCJ9SYW8Ll7Ic93-Ycl3CHvCFKXlOpxEr9nLbjYDx_xIKXrdSxlyeZSWm1L-qxtE_h_JnBy3box8VaIRDFMDv7AYJHmF1dSmf8PBoT3NoeNx_oEhRaEq8hcyN5m5B3SrX2n7l7mfI1WXRJ1mLDweOlcSRtAT_agsjGsQFptyhBdX_OC]--></g></svg>