<?xml version="1.0" encoding="us-ascii" standalone="no"?><svg xmlns="http://www.w3.org/2000/svg" xmlns:xlink="http://www.w3.org/1999/xlink" contentStyleType="text/css" height="422px" preserveAspectRatio="none" style="width:411px;height:422px;" version="1.1" viewBox="0 0 411 422" width="411px" zoomAndPan="magnify"><defs><filter height="300%" id="f9ca0epzaucl6" width="300%" x="-1" y="-1"><feGaussianBlur result="blurOut" stdDeviation="2.0"/><feColorMatrix in="blurOut" result="blurOut2" type="matrix" values="0 0 0 0 0 0 0 0 0 0 0 0 0 0 0 0 0 0 .4 0"/><feOffset dx="4.0" dy="4.0" in="blurOut2" result="blurOut3"/><feBlend in="SourceGraphic" in2="blurOut3" mode="normal"/></filter></defs><g><!--class Logo--><g id="elem_Logo"><rect codeLine="10" fill="#FCF2CC" filter="url(#f9ca0epzaucl6)" height="196.3945" id="Logo" style="stroke:#5A0000;stroke-width:2.0;" width="392" x="7" y="213.93"/><ellipse cx="181.25" cy="229.93" fill="#ADD1B2" rx="11" ry="11" style="stroke:#181818;stroke-width:1.0;"/><path d="M183.7231,236.0731 Q183.1421,236.3719 182.5029,236.5213 Q181.8638,236.6707 181.1582,236.6707 Q178.6514,236.6707 177.3315,235.0189 Q176.0117,233.367 176.0117,230.2459 Q176.0117,227.1165 177.3315,225.4647 Q178.6514,223.8128 181.1582,223.8128 Q181.8638,223.8128 182.5112,223.9622 Q183.1587,224.1116 183.7231,224.4105 L183.7231,227.1331 Q183.0923,226.5521 182.4988,226.2823 Q181.9053,226.0125 181.2744,226.0125 Q179.9297,226.0125 179.2449,227.0792 Q178.5601,228.1458 178.5601,230.2459 Q178.5601,232.3377 179.2449,233.4044 Q179.9297,234.471 181.2744,234.471 Q181.9053,234.471 182.4988,234.2012 Q183.0923,233.9315 183.7231,233.3504 Z " fill="#000000"/><text fill="#000000" font-family="sans-serif" font-size="14" font-weight="bold" lengthAdjust="spacing" textLength="35" x="201.75" y="235.221">Logo</text><line style="stroke:#5A0000;stroke-width:2.0;" x1="8" x2="398" y1="245.93" y2="245.93"/><ellipse cx="18" cy="259.6741" fill="none" rx="3" ry="3" style="stroke:#038048;stroke-width:1.0;"/><text fill="#000000" font-family="sans-serif" font-size="14" font-weight="bold" lengthAdjust="spacing" text-decoration="underline" textLength="55" x="27" y="263.4652">abiBase</text><text fill="#000000" font-family="sans-serif" font-size="14" lengthAdjust="spacing" text-decoration="underline" textLength="191" x="86" y="263.4652">: ABISerializableConstructor</text><ellipse cx="18" cy="276.1624" fill="none" rx="3" ry="3" style="stroke:#038048;stroke-width:1.0;"/><text fill="#000000" font-family="sans-serif" font-size="14" font-weight="bold" lengthAdjust="spacing" text-decoration="underline" textLength="65" x="27" y="279.9534">abiFields</text><text fill="#000000" font-family="sans-serif" font-size="14" lengthAdjust="spacing" text-decoration="underline" textLength="73" x="96" y="279.9534">: ABIField[]</text><ellipse cx="18" cy="292.6507" fill="none" rx="3" ry="3" style="stroke:#038048;stroke-width:1.0;"/><text fill="#000000" font-family="sans-serif" font-size="14" font-weight="bold" lengthAdjust="spacing" text-decoration="underline" textLength="63" x="27" y="296.4417">abiName</text><text fill="#000000" font-family="sans-serif" font-size="14" lengthAdjust="spacing" text-decoration="underline" textLength="48" x="94" y="296.4417">: string</text><ellipse cx="18" cy="309.139" fill="none" rx="3" ry="3" style="stroke:#038048;stroke-width:1.0;"/><text fill="#000000" font-family="sans-serif" font-size="14" font-weight="bold" lengthAdjust="spacing" textLength="32" x="27" y="312.93">dark</text><text fill="#000000" font-family="sans-serif" font-size="14" lengthAdjust="spacing" textLength="48" x="63" y="312.93">: string</text><ellipse cx="18" cy="325.6273" fill="none" rx="3" ry="3" style="stroke:#038048;stroke-width:1.0;"/><text fill="#000000" font-family="sans-serif" font-size="14" font-weight="bold" lengthAdjust="spacing" textLength="34" x="27" y="329.4183">light</text><text fill="#000000" font-family="sans-serif" font-size="14" lengthAdjust="spacing" textLength="48" x="65" y="329.4183">: string</text><line style="stroke:#5A0000;stroke-width:2.0;" x1="8" x2="398" y1="336.3714" y2="336.3714"/><ellipse cx="18" cy="350.1155" fill="#84BE84" rx="3" ry="3" style="stroke:#038048;stroke-width:1.0;"/><text fill="#000000" font-family="sans-serif" font-size="14" lengthAdjust="spacing" textLength="192" x="27" y="353.9066">equals(other: any) : boolean</text><ellipse cx="18" cy="366.6038" fill="#84BE84" rx="3" ry="3" style="stroke:#038048;stroke-width:1.0;"/><text fill="#000000" font-family="sans-serif" font-size="14" lengthAdjust="spacing" text-decoration="underline" textLength="194" x="27" y="370.3948">from(data: LogoType) : Logo</text><ellipse cx="18" cy="383.0921" fill="#84BE84" rx="3" ry="3" style="stroke:#038048;stroke-width:1.0;"/><text fill="#000000" font-family="sans-serif" font-size="14" lengthAdjust="spacing" textLength="366" x="27" y="386.8831">getVariant(variant: "dark" | "light") : undefined | string</text><ellipse cx="18" cy="399.5804" fill="#84BE84" rx="3" ry="3" style="stroke:#038048;stroke-width:1.0;"/><text fill="#000000" font-family="sans-serif" font-size="14" lengthAdjust="spacing" textLength="117" x="27" y="403.3714">toString() : string</text></g><!--class Struct--><g id="elem_Struct"><rect codeLine="21" fill="#FCF2CC" filter="url(#f9ca0epzaucl6)" height="146.9297" id="Struct" style="stroke:#5A0000;stroke-width:2.0;" width="351" x="27.5" y="7"/><ellipse cx="177.75" cy="23" fill="#ADD1B2" rx="11" ry="11" style="stroke:#181818;stroke-width:1.0;"/><path d="M180.2231,29.1431 Q179.6421,29.4419 179.0029,29.5913 Q178.3638,29.7407 177.6582,29.7407 Q175.1514,29.7407 173.8315,28.0889 Q172.5117,26.437 172.5117,23.3159 Q172.5117,20.1865 173.8315,18.5347 Q175.1514,16.8828 177.6582,16.8828 Q178.3638,16.8828 179.0112,17.0322 Q179.6587,17.1816 180.2231,17.4805 L180.2231,20.2031 Q179.5923,19.6221 178.9988,19.3523 Q178.4053,19.0825 177.7744,19.0825 Q176.4297,19.0825 175.7449,20.1492 Q175.0601,21.2158 175.0601,23.3159 Q175.0601,25.4077 175.7449,26.4744 Q176.4297,27.541 177.7744,27.541 Q178.4053,27.541 178.9988,27.2712 Q179.5923,27.0015 180.2231,26.4204 Z " fill="#000000"/><text fill="#000000" font-family="sans-serif" font-size="14" font-weight="bold" lengthAdjust="spacing" textLength="42" x="198.25" y="28.291">Struct</text><line style="stroke:#5A0000;stroke-width:2.0;" x1="28.5" x2="377.5" y1="39" y2="39"/><ellipse cx="38.5" cy="52.7441" fill="none" rx="3" ry="3" style="stroke:#038048;stroke-width:1.0;"/><text fill="#000000" font-family="sans-serif" font-size="14" font-weight="bold" lengthAdjust="spacing" text-decoration="underline" textLength="55" x="47.5" y="56.5352">abiBase</text><text fill="#000000" font-family="sans-serif" font-size="14" lengthAdjust="spacing" text-decoration="underline" textLength="191" x="106.5" y="56.5352">: ABISerializableConstructor</text><ellipse cx="38.5" cy="69.2324" fill="none" rx="3" ry="3" style="stroke:#038048;stroke-width:1.0;"/><text fill="#000000" font-family="sans-serif" font-size="14" font-weight="bold" lengthAdjust="spacing" text-decoration="underline" textLength="65" x="47.5" y="73.0234">abiFields</text><text fill="#000000" font-family="sans-serif" font-size="14" lengthAdjust="spacing" text-decoration="underline" textLength="73" x="116.5" y="73.0234">: ABIField[]</text><ellipse cx="38.5" cy="85.7207" fill="none" rx="3" ry="3" style="stroke:#038048;stroke-width:1.0;"/><text fill="#000000" font-family="sans-serif" font-size="14" font-weight="bold" lengthAdjust="spacing" text-decoration="underline" textLength="63" x="47.5" y="89.5117">abiName</text><text fill="#000000" font-family="sans-serif" font-size="14" lengthAdjust="spacing" text-decoration="underline" textLength="48" x="114.5" y="89.5117">: string</text><line style="stroke:#5A0000;stroke-width:2.0;" x1="28.5" x2="377.5" y1="96.4648" y2="96.4648"/><ellipse cx="38.5" cy="110.209" fill="#84BE84" rx="3" ry="3" style="stroke:#038048;stroke-width:1.0;"/><text fill="#000000" font-family="sans-serif" font-size="14" lengthAdjust="spacing" textLength="192" x="47.5" y="114">equals(other: any) : boolean</text><ellipse cx="38.5" cy="126.6973" fill="#84BE84" rx="3" ry="3" style="stroke:#038048;stroke-width:1.0;"/><text fill="#000000" font-family="sans-serif" font-size="14" lengthAdjust="spacing" text-decoration="underline" textLength="325" x="47.5" y="130.4883">from&lt;T&gt;(this: T, value: any) : InstanceType&lt;T&gt;</text><ellipse cx="38.5" cy="143.1855" fill="#84BE84" rx="3" ry="3" style="stroke:#038048;stroke-width:1.0;"/><text fill="#000000" font-family="sans-serif" font-size="14" lengthAdjust="spacing" text-decoration="underline" textLength="187" x="47.5" y="146.9766">from(value: any) : unknown</text></g><!--reverse link Struct to Logo--><g id="link_Struct_Logo"><path codeLine="29" d="M203,172.13 C203,191.05 203,193.75 203,213.73 " fill="none" id="Struct-backto-Logo" style="stroke:#181818;stroke-width:1.0;"/><polygon fill="none" points="203,154.13,197,172.13,209,172.13,203,154.13" style="stroke:#181818;stroke-width:1.0;"/></g><!--SRC=[pLB1Qjmm4BtlLmm-EQIX8T2BMHQw2u50wQ5UUWavZAMnBIpFRALnmZR9lqVsDjbDwajlrKNMlFTcdfuSEySx3DZ3ncECry9QwjuJLEBj8hv7rsYw9iZ0TYDU0jIclZBcBvO4I-70-8ANQPqmVXpKWId0vRnosphJCSK8LulMMGBgTxg7sf6tyRJIaxQIIiSkPOjM7Xmte66W4-2ZSmt8CK74kZ3ZQCY-IICPF2uWhSUegCuym_coMc7brXXf-RbQGG5VrpSb1OVU_SRAqqOufbb69SmghoVNH-rqlhsRvNx7_dLAwfbkCR56q6BevX7lcbPd8Fere8-vQ4kX0EJzMI9K8fwGFmolW_IvHSK2nWos-nsDvF7xqAiX_Odfogpv_M4l81ijPV04sUGW6nKfNQeTaqtbKoygvNJApuucdrzZBwVq_ilW_p73vNQLQ-jY0TjFS8z-e3VHJVAAR6ZCDj7c7k2zOE2EvO5JJ6y1BPykBlxyfIy0]--></g></svg>