<?xml version="1.0" encoding="us-ascii" standalone="no"?><svg xmlns="http://www.w3.org/2000/svg" xmlns:xlink="http://www.w3.org/1999/xlink" contentStyleType="text/css" height="621px" preserveAspectRatio="none" style="width:624px;height:621px;" version="1.1" viewBox="0 0 624 621" width="624px" zoomAndPan="magnify"><defs><filter height="300%" id="f12dacyu3jarb1" width="300%" x="-1" y="-1"><feGaussianBlur result="blurOut" stdDeviation="2.0"/><feColorMatrix in="blurOut" result="blurOut2" type="matrix" values="0 0 0 0 0 0 0 0 0 0 0 0 0 0 0 0 0 0 .4 0"/><feOffset dx="4.0" dy="4.0" in="blurOut2" result="blurOut3"/><feBlend in="SourceGraphic" in2="blurOut3" mode="normal"/></filter></defs><g><!--class Name--><g id="elem_Name"><rect codeLine="10" fill="#FCF2CC" filter="url(#f12dacyu3jarb1)" height="196.3945" id="Name" style="stroke:#5A0000;stroke-width:2.0;" width="285" x="167" y="156.46"/><ellipse cx="284.75" cy="172.46" fill="#ADD1B2" rx="11" ry="11" style="stroke:#181818;stroke-width:1.0;"/><path d="M287.2231,178.6031 Q286.6421,178.9019 286.0029,179.0513 Q285.3638,179.2007 284.6582,179.2007 Q282.1514,179.2007 280.8315,177.5489 Q279.5117,175.897 279.5117,172.7759 Q279.5117,169.6465 280.8315,167.9947 Q282.1514,166.3428 284.6582,166.3428 Q285.3638,166.3428 286.0112,166.4922 Q286.6587,166.6416 287.2231,166.9405 L287.2231,169.6631 Q286.5923,169.0821 285.9988,168.8123 Q285.4053,168.5425 284.7744,168.5425 Q283.4297,168.5425 282.7449,169.6092 Q282.0601,170.6758 282.0601,172.7759 Q282.0601,174.8677 282.7449,175.9344 Q283.4297,177.001 284.7744,177.001 Q285.4053,177.001 285.9988,176.7312 Q286.5923,176.4615 287.2231,175.8804 Z " fill="#000000"/><text fill="#000000" font-family="sans-serif" font-size="14" font-weight="bold" lengthAdjust="spacing" textLength="41" x="305.25" y="177.751">Name</text><line style="stroke:#5A0000;stroke-width:2.0;" x1="168" x2="451" y1="188.46" y2="188.46"/><ellipse cx="178" cy="202.2041" fill="none" rx="3" ry="3" style="stroke:#038048;stroke-width:1.0;"/><text fill="#000000" font-family="sans-serif" font-size="14" font-weight="bold" lengthAdjust="spacing" text-decoration="underline" textLength="63" x="187" y="205.9952">abiName</text><text fill="#000000" font-family="sans-serif" font-size="14" lengthAdjust="spacing" text-decoration="underline" textLength="48" x="254" y="205.9952">: string</text><ellipse cx="178" cy="218.6924" fill="none" rx="3" ry="3" style="stroke:#038048;stroke-width:1.0;"/><text fill="#000000" font-family="sans-serif" font-size="14" font-weight="bold" lengthAdjust="spacing" text-decoration="underline" textLength="52" x="187" y="222.4834">pattern</text><text fill="#000000" font-family="sans-serif" font-size="14" lengthAdjust="spacing" text-decoration="underline" textLength="60" x="243" y="222.4834">: RegExp</text><ellipse cx="178" cy="235.1807" fill="none" rx="3" ry="3" style="stroke:#038048;stroke-width:1.0;"/><text fill="#000000" font-family="sans-serif" font-size="14" font-weight="bold" lengthAdjust="spacing" textLength="38" x="187" y="238.9717">value</text><text fill="#000000" font-family="sans-serif" font-size="14" lengthAdjust="spacing" textLength="54" x="229" y="238.9717">: UInt64</text><line style="stroke:#5A0000;stroke-width:2.0;" x1="168" x2="451" y1="245.9248" y2="245.9248"/><ellipse cx="178" cy="259.669" fill="#84BE84" rx="3" ry="3" style="stroke:#038048;stroke-width:1.0;"/><text fill="#000000" font-family="sans-serif" font-size="14" lengthAdjust="spacing" text-decoration="underline" textLength="131" x="187" y="263.46">abiDefault() : Name</text><ellipse cx="178" cy="276.1573" fill="#84BE84" rx="3" ry="3" style="stroke:#038048;stroke-width:1.0;"/><text fill="#000000" font-family="sans-serif" font-size="14" lengthAdjust="spacing" textLength="240" x="187" y="279.9483">equals(other: NameType) : boolean</text><ellipse cx="178" cy="292.6455" fill="#84BE84" rx="3" ry="3" style="stroke:#038048;stroke-width:1.0;"/><text fill="#000000" font-family="sans-serif" font-size="14" lengthAdjust="spacing" text-decoration="underline" textLength="210" x="187" y="296.4366">from(value: NameType) : Name</text><ellipse cx="178" cy="309.1338" fill="#84BE84" rx="3" ry="3" style="stroke:#038048;stroke-width:1.0;"/><text fill="#000000" font-family="sans-serif" font-size="14" lengthAdjust="spacing" text-decoration="underline" textLength="259" x="187" y="312.9248">fromABI(decoder: ABIDecoder) : Name</text><ellipse cx="178" cy="325.6221" fill="#84BE84" rx="3" ry="3" style="stroke:#038048;stroke-width:1.0;"/><text fill="#000000" font-family="sans-serif" font-size="14" lengthAdjust="spacing" textLength="229" x="187" y="329.4131">toABI(encoder: ABIEncoder) : void</text><ellipse cx="178" cy="342.1104" fill="#84BE84" rx="3" ry="3" style="stroke:#038048;stroke-width:1.0;"/><text fill="#000000" font-family="sans-serif" font-size="14" lengthAdjust="spacing" textLength="117" x="187" y="345.9014">toString() : string</text></g><!--class ABISerializableObject--><g id="elem_ABISerializableObject"><rect codeLine="21" fill="#FCF2CC" filter="url(#f12dacyu3jarb1)" height="89.4648" id="ABISerializableObject" style="stroke:#5A0000;stroke-width:2.0;" width="255" x="182" y="7"/><ellipse cx="228.25" cy="23" fill="#B4A7E5" rx="11" ry="11" style="stroke:#181818;stroke-width:1.0;"/><path d="M224.6777,19.2651 L224.6777,17.1069 L232.0571,17.1069 L232.0571,19.2651 L229.5918,19.2651 L229.5918,27.3418 L232.0571,27.3418 L232.0571,29.5 L224.6777,29.5 L224.6777,27.3418 L227.1431,27.3418 L227.1431,19.2651 Z " fill="#000000"/><text fill="#000000" font-family="sans-serif" font-size="14" font-style="italic" font-weight="bold" lengthAdjust="spacing" textLength="154" x="248.75" y="28.291">ABISerializableObject</text><line style="stroke:#5A0000;stroke-width:2.0;" x1="183" x2="436" y1="39" y2="39"/><ellipse cx="193" cy="52.7441" fill="#84BE84" rx="3" ry="3" style="stroke:#038048;stroke-width:1.0;"/><text fill="#000000" font-family="sans-serif" font-size="14" lengthAdjust="spacing" textLength="192" x="202" y="56.5352">equals(other: any) : boolean</text><ellipse cx="193" cy="69.2324" fill="#84BE84" rx="3" ry="3" style="stroke:#038048;stroke-width:1.0;"/><text fill="#000000" font-family="sans-serif" font-size="14" lengthAdjust="spacing" textLength="229" x="202" y="73.0234">toABI(encoder: ABIEncoder) : void</text><ellipse cx="193" cy="85.7207" fill="#84BE84" rx="3" ry="3" style="stroke:#038048;stroke-width:1.0;"/><text fill="#000000" font-family="sans-serif" font-size="14" lengthAdjust="spacing" textLength="93" x="202" y="89.5117">toJSON() : any</text></g><!--class AccountName--><g id="elem_AccountName"><rect codeLine="27" fill="#FCF2CC" filter="url(#f12dacyu3jarb1)" height="196.3945" id="AccountName" style="stroke:#5A0000;stroke-width:2.0;" width="285" x="7" y="412.86"/><ellipse cx="96.25" cy="428.86" fill="#ADD1B2" rx="11" ry="11" style="stroke:#181818;stroke-width:1.0;"/><path d="M98.7231,435.0031 Q98.1421,435.3019 97.5029,435.4513 Q96.8638,435.6007 96.1582,435.6007 Q93.6514,435.6007 92.3315,433.9489 Q91.0117,432.297 91.0117,429.1759 Q91.0117,426.0465 92.3315,424.3947 Q93.6514,422.7428 96.1582,422.7428 Q96.8638,422.7428 97.5112,422.8922 Q98.1587,423.0416 98.7231,423.3405 L98.7231,426.0631 Q98.0923,425.4821 97.4988,425.2123 Q96.9053,424.9425 96.2744,424.9425 Q94.9297,424.9425 94.2449,426.0092 Q93.5601,427.0758 93.5601,429.1759 Q93.5601,431.2677 94.2449,432.3344 Q94.9297,433.401 96.2744,433.401 Q96.9053,433.401 97.4988,433.1312 Q98.0923,432.8615 98.7231,432.2804 Z " fill="#000000"/><text fill="#000000" font-family="sans-serif" font-size="14" font-weight="bold" lengthAdjust="spacing" textLength="98" x="116.75" y="434.151">AccountName</text><line style="stroke:#5A0000;stroke-width:2.0;" x1="8" x2="291" y1="444.86" y2="444.86"/><ellipse cx="18" cy="458.6041" fill="none" rx="3" ry="3" style="stroke:#038048;stroke-width:1.0;"/><text fill="#000000" font-family="sans-serif" font-size="14" font-weight="bold" lengthAdjust="spacing" text-decoration="underline" textLength="63" x="27" y="462.3952">abiName</text><text fill="#000000" font-family="sans-serif" font-size="14" lengthAdjust="spacing" text-decoration="underline" textLength="48" x="94" y="462.3952">: string</text><ellipse cx="18" cy="475.0924" fill="none" rx="3" ry="3" style="stroke:#038048;stroke-width:1.0;"/><text fill="#000000" font-family="sans-serif" font-size="14" font-weight="bold" lengthAdjust="spacing" text-decoration="underline" textLength="52" x="27" y="478.8834">pattern</text><text fill="#000000" font-family="sans-serif" font-size="14" lengthAdjust="spacing" text-decoration="underline" textLength="60" x="83" y="478.8834">: RegExp</text><ellipse cx="18" cy="491.5807" fill="none" rx="3" ry="3" style="stroke:#038048;stroke-width:1.0;"/><text fill="#000000" font-family="sans-serif" font-size="14" font-weight="bold" lengthAdjust="spacing" textLength="38" x="27" y="495.3717">value</text><text fill="#000000" font-family="sans-serif" font-size="14" lengthAdjust="spacing" textLength="54" x="69" y="495.3717">: UInt64</text><line style="stroke:#5A0000;stroke-width:2.0;" x1="8" x2="291" y1="502.3248" y2="502.3248"/><ellipse cx="18" cy="516.069" fill="#84BE84" rx="3" ry="3" style="stroke:#038048;stroke-width:1.0;"/><text fill="#000000" font-family="sans-serif" font-size="14" lengthAdjust="spacing" text-decoration="underline" textLength="131" x="27" y="519.86">abiDefault() : Name</text><ellipse cx="18" cy="532.5573" fill="#84BE84" rx="3" ry="3" style="stroke:#038048;stroke-width:1.0;"/><text fill="#000000" font-family="sans-serif" font-size="14" lengthAdjust="spacing" textLength="240" x="27" y="536.3483">equals(other: NameType) : boolean</text><ellipse cx="18" cy="549.0455" fill="#84BE84" rx="3" ry="3" style="stroke:#038048;stroke-width:1.0;"/><text fill="#000000" font-family="sans-serif" font-size="14" lengthAdjust="spacing" text-decoration="underline" textLength="210" x="27" y="552.8366">from(value: NameType) : Name</text><ellipse cx="18" cy="565.5338" fill="#84BE84" rx="3" ry="3" style="stroke:#038048;stroke-width:1.0;"/><text fill="#000000" font-family="sans-serif" font-size="14" lengthAdjust="spacing" text-decoration="underline" textLength="259" x="27" y="569.3248">fromABI(decoder: ABIDecoder) : Name</text><ellipse cx="18" cy="582.0221" fill="#84BE84" rx="3" ry="3" style="stroke:#038048;stroke-width:1.0;"/><text fill="#000000" font-family="sans-serif" font-size="14" lengthAdjust="spacing" textLength="229" x="27" y="585.8131">toABI(encoder: ABIEncoder) : void</text><ellipse cx="18" cy="598.5104" fill="#84BE84" rx="3" ry="3" style="stroke:#038048;stroke-width:1.0;"/><text fill="#000000" font-family="sans-serif" font-size="14" lengthAdjust="spacing" textLength="117" x="27" y="602.3014">toString() : string</text></g><!--class PermissionName--><g id="elem_PermissionName"><rect codeLine="39" fill="#FCF2CC" filter="url(#f12dacyu3jarb1)" height="196.3945" id="PermissionName" style="stroke:#5A0000;stroke-width:2.0;" width="285" x="327" y="412.86"/><ellipse cx="404.25" cy="428.86" fill="#ADD1B2" rx="11" ry="11" style="stroke:#181818;stroke-width:1.0;"/><path d="M406.7231,435.0031 Q406.1421,435.3019 405.5029,435.4513 Q404.8638,435.6007 404.1582,435.6007 Q401.6514,435.6007 400.3315,433.9489 Q399.0117,432.297 399.0117,429.1759 Q399.0117,426.0465 400.3315,424.3947 Q401.6514,422.7428 404.1582,422.7428 Q404.8638,422.7428 405.5112,422.8922 Q406.1587,423.0416 406.7231,423.3405 L406.7231,426.0631 Q406.0923,425.4821 405.4988,425.2123 Q404.9053,424.9425 404.2744,424.9425 Q402.9297,424.9425 402.2449,426.0092 Q401.5601,427.0758 401.5601,429.1759 Q401.5601,431.2677 402.2449,432.3344 Q402.9297,433.401 404.2744,433.401 Q404.9053,433.401 405.4988,433.1312 Q406.0923,432.8615 406.7231,432.2804 Z " fill="#000000"/><text fill="#000000" font-family="sans-serif" font-size="14" font-weight="bold" lengthAdjust="spacing" textLength="122" x="424.75" y="434.151">PermissionName</text><line style="stroke:#5A0000;stroke-width:2.0;" x1="328" x2="611" y1="444.86" y2="444.86"/><ellipse cx="338" cy="458.6041" fill="none" rx="3" ry="3" style="stroke:#038048;stroke-width:1.0;"/><text fill="#000000" font-family="sans-serif" font-size="14" font-weight="bold" lengthAdjust="spacing" text-decoration="underline" textLength="63" x="347" y="462.3952">abiName</text><text fill="#000000" font-family="sans-serif" font-size="14" lengthAdjust="spacing" text-decoration="underline" textLength="48" x="414" y="462.3952">: string</text><ellipse cx="338" cy="475.0924" fill="none" rx="3" ry="3" style="stroke:#038048;stroke-width:1.0;"/><text fill="#000000" font-family="sans-serif" font-size="14" font-weight="bold" lengthAdjust="spacing" text-decoration="underline" textLength="52" x="347" y="478.8834">pattern</text><text fill="#000000" font-family="sans-serif" font-size="14" lengthAdjust="spacing" text-decoration="underline" textLength="60" x="403" y="478.8834">: RegExp</text><ellipse cx="338" cy="491.5807" fill="none" rx="3" ry="3" style="stroke:#038048;stroke-width:1.0;"/><text fill="#000000" font-family="sans-serif" font-size="14" font-weight="bold" lengthAdjust="spacing" textLength="38" x="347" y="495.3717">value</text><text fill="#000000" font-family="sans-serif" font-size="14" lengthAdjust="spacing" textLength="54" x="389" y="495.3717">: UInt64</text><line style="stroke:#5A0000;stroke-width:2.0;" x1="328" x2="611" y1="502.3248" y2="502.3248"/><ellipse cx="338" cy="516.069" fill="#84BE84" rx="3" ry="3" style="stroke:#038048;stroke-width:1.0;"/><text fill="#000000" font-family="sans-serif" font-size="14" lengthAdjust="spacing" text-decoration="underline" textLength="131" x="347" y="519.86">abiDefault() : Name</text><ellipse cx="338" cy="532.5573" fill="#84BE84" rx="3" ry="3" style="stroke:#038048;stroke-width:1.0;"/><text fill="#000000" font-family="sans-serif" font-size="14" lengthAdjust="spacing" textLength="240" x="347" y="536.3483">equals(other: NameType) : boolean</text><ellipse cx="338" cy="549.0455" fill="#84BE84" rx="3" ry="3" style="stroke:#038048;stroke-width:1.0;"/><text fill="#000000" font-family="sans-serif" font-size="14" lengthAdjust="spacing" text-decoration="underline" textLength="210" x="347" y="552.8366">from(value: NameType) : Name</text><ellipse cx="338" cy="565.5338" fill="#84BE84" rx="3" ry="3" style="stroke:#038048;stroke-width:1.0;"/><text fill="#000000" font-family="sans-serif" font-size="14" lengthAdjust="spacing" text-decoration="underline" textLength="259" x="347" y="569.3248">fromABI(decoder: ABIDecoder) : Name</text><ellipse cx="338" cy="582.0221" fill="#84BE84" rx="3" ry="3" style="stroke:#038048;stroke-width:1.0;"/><text fill="#000000" font-family="sans-serif" font-size="14" lengthAdjust="spacing" textLength="229" x="347" y="585.8131">toABI(encoder: ABIEncoder) : void</text><ellipse cx="338" cy="598.5104" fill="#84BE84" rx="3" ry="3" style="stroke:#038048;stroke-width:1.0;"/><text fill="#000000" font-family="sans-serif" font-size="14" lengthAdjust="spacing" textLength="117" x="347" y="602.3014">toString() : string</text></g><!--reverse link ABISerializableObject to Name--><g id="link_ABISerializableObject_Name"><path codeLine="26" d="M309.5,114.82 C309.5,132.38 309.5,135.34 309.5,156.13 " fill="none" id="ABISerializableObject-backto-Name" style="stroke:#181818;stroke-width:1.0;stroke-dasharray:7.0,7.0;"/><polygon fill="none" points="309.5,96.82,303.5,114.82,315.5,114.82,309.5,96.82" style="stroke:#181818;stroke-width:1.0;"/></g><!--reverse link Name to AccountName--><g id="link_Name_AccountName"><path codeLine="38" d="M238.5143,368.5253 C226.2643,387.9953 222.98,393.22 210.74,412.69 " fill="none" id="Name-backto-AccountName" style="stroke:#181818;stroke-width:1.0;"/><polygon fill="none" points="248.1,353.29,233.4359,365.3301,243.5928,371.7205,248.1,353.29" style="stroke:#181818;stroke-width:1.0;"/></g><!--reverse link Name to PermissionName--><g id="link_Name_PermissionName"><path codeLine="50" d="M380.4857,368.5253 C392.7357,387.9953 396.02,393.22 408.26,412.69 " fill="none" id="Name-backto-PermissionName" style="stroke:#181818;stroke-width:1.0;"/><polygon fill="none" points="370.9,353.29,375.4072,371.7205,385.5641,365.3301,370.9,353.29" style="stroke:#181818;stroke-width:1.0;"/></g><!--SRC=[xPFFJiCm3CRlVOfefo84J1DmGDCaO4CQXu4eF82Rk6jOcfJ41SgVToTjLxOMaBXm8wSq_lcpyyLrAwbpi92nSmNENHXD4PKAMMoK25mtUWPyjRIcqEBSA6DPmfCHvryeOmNQXZY2eLzRn4sJRJLQDlm-ypQLVANHEJOAKYcGOPPJoHA9IhZjammfDVveenAb8CoJr4j6ji2jGBzpig2T3w6cW5UbsM016GxOQy3yUdK49Faxsnt74uXb5HiVn1DsmXnPh_-Loe48hLvJDxYSFUSrLGKVGHMjmDrSq_5XJy3Nc682XQ9mnpDLlIOP7mfGBZIKectERyiSAoOsHY7edb1YJHRMvRhqfs8NFJsRXmAv4PMw_vWs-suFP2eCzGQRwK_iqKZHOb7jJNs3jKtlWTJUbWGuie5FZD1AKF85OeLNyJroQYtltHHqsR_ax_kuZAuMTHTUnRVmK-7ns_x- -jtR8JZbt0y9_S_2dyp2-XyRl-tjTQrkxRz6cqddfD7_B_3tBz1p-mC0]--></g></svg>