<?xml version="1.0" encoding="us-ascii" standalone="no"?><svg xmlns="http://www.w3.org/2000/svg" xmlns:xlink="http://www.w3.org/1999/xlink" contentStyleType="text/css" height="405px" preserveAspectRatio="none" style="width:1241px;height:405px;" version="1.1" viewBox="0 0 1241 405" width="1241px" zoomAndPan="magnify"><defs><filter height="300%" id="f17k3xl3mvr7st" width="300%" x="-1" y="-1"><feGaussianBlur result="blurOut" stdDeviation="2.0"/><feColorMatrix in="blurOut" result="blurOut2" type="matrix" values="0 0 0 0 0 0 0 0 0 0 0 0 0 0 0 0 0 0 .4 0"/><feOffset dx="4.0" dy="4.0" in="blurOut2" result="blurOut3"/><feBlend in="SourceGraphic" in2="blurOut3" mode="normal"/></filter></defs><g><!--class NetMessage--><g id="elem_NetMessage"><rect codeLine="10" fill="#FCF2CC" filter="url(#f17k3xl3mvr7st)" height="163.418" id="NetMessage" style="stroke:#5A0000;stroke-width:2.0;" width="1222" x="7" y="230.42"/><ellipse cx="570.25" cy="246.42" fill="#ADD1B2" rx="11" ry="11" style="stroke:#181818;stroke-width:1.0;"/><path d="M572.7231,252.5631 Q572.1421,252.8619 571.5029,253.0113 Q570.8638,253.1607 570.1582,253.1607 Q567.6514,253.1607 566.3315,251.5089 Q565.0117,249.857 565.0117,246.7359 Q565.0117,243.6065 566.3315,241.9547 Q567.6514,240.3028 570.1582,240.3028 Q570.8638,240.3028 571.5112,240.4522 Q572.1587,240.6016 572.7231,240.9005 L572.7231,243.6231 Q572.0923,243.0421 571.4988,242.7723 Q570.9053,242.5025 570.2744,242.5025 Q568.9297,242.5025 568.2449,243.5692 Q567.5601,244.6358 567.5601,246.7359 Q567.5601,248.8277 568.2449,249.8944 Q568.9297,250.961 570.2744,250.961 Q570.9053,250.961 571.4988,250.6912 Q572.0923,250.4215 572.7231,249.8404 Z " fill="#000000"/><text fill="#000000" font-family="sans-serif" font-size="14" font-weight="bold" lengthAdjust="spacing" textLength="87" x="590.75" y="251.711">NetMessage</text><line style="stroke:#5A0000;stroke-width:2.0;" x1="8" x2="1228" y1="262.42" y2="262.42"/><ellipse cx="18" cy="276.1641" fill="none" rx="3" ry="3" style="stroke:#038048;stroke-width:1.0;"/><text fill="#000000" font-family="sans-serif" font-size="14" font-weight="bold" lengthAdjust="spacing" text-decoration="underline" textLength="63" x="27" y="279.9552">abiName</text><text fill="#000000" font-family="sans-serif" font-size="14" lengthAdjust="spacing" text-decoration="underline" textLength="48" x="94" y="279.9552">: string</text><ellipse cx="18" cy="292.6524" fill="none" rx="3" ry="3" style="stroke:#038048;stroke-width:1.0;"/><text fill="#000000" font-family="sans-serif" font-size="14" font-weight="bold" lengthAdjust="spacing" text-decoration="underline" textLength="74" x="27" y="296.4434">abiVariant</text><text fill="#000000" font-family="sans-serif" font-size="14" lengthAdjust="spacing" text-decoration="underline" textLength="144" x="105" y="296.4434">: ABITypeDescriptor[]</text><ellipse cx="18" cy="309.1407" fill="none" rx="3" ry="3" style="stroke:#038048;stroke-width:1.0;"/><text fill="#000000" font-family="sans-serif" font-size="14" font-weight="bold" lengthAdjust="spacing" textLength="38" x="27" y="312.9317">value</text><text fill="#000000" font-family="sans-serif" font-size="14" lengthAdjust="spacing" textLength="1154" x="69" y="312.9317">: PackedTransaction | HandshakeMessage | ChainSizeMessage | GoAwayMessage | TimeMessage | NoticeMessage | RequestMessage | SyncRequestMessage | SignedBlock</text><ellipse cx="18" cy="325.629" fill="none" rx="3" ry="3" style="stroke:#038048;stroke-width:1.0;"/><text fill="#000000" font-family="sans-serif" font-size="14" font-weight="bold" lengthAdjust="spacing" textLength="72" x="27" y="329.42">variantIdx</text><text fill="#000000" font-family="sans-serif" font-size="14" lengthAdjust="spacing" textLength="62" x="103" y="329.42">: number</text><line style="stroke:#5A0000;stroke-width:2.0;" x1="8" x2="1228" y1="336.3731" y2="336.3731"/><ellipse cx="18" cy="350.1173" fill="#84BE84" rx="3" ry="3" style="stroke:#038048;stroke-width:1.0;"/><text fill="#000000" font-family="sans-serif" font-size="14" lengthAdjust="spacing" textLength="243" x="27" y="353.9083">equals(other: AnyVariant) : boolean</text><ellipse cx="18" cy="366.6055" fill="#84BE84" rx="3" ry="3" style="stroke:#038048;stroke-width:1.0;"/><text fill="#000000" font-family="sans-serif" font-size="14" lengthAdjust="spacing" text-decoration="underline" textLength="382" x="27" y="370.3966">from&lt;T&gt;(this: T, object: AnyVariant) : InstanceType&lt;T&gt;</text><ellipse cx="18" cy="383.0938" fill="#84BE84" rx="3" ry="3" style="stroke:#038048;stroke-width:1.0;"/><text fill="#000000" font-family="sans-serif" font-size="14" lengthAdjust="spacing" text-decoration="underline" textLength="244" x="27" y="386.8848">from(object: AnyVariant) : unknown</text></g><!--class Variant--><g id="elem_Variant"><rect codeLine="19" fill="#FCF2CC" filter="url(#f17k3xl3mvr7st)" height="163.418" id="Variant" style="stroke:#5A0000;stroke-width:2.0;" width="408" x="414" y="7"/><ellipse cx="587.75" cy="23" fill="#ADD1B2" rx="11" ry="11" style="stroke:#181818;stroke-width:1.0;"/><path d="M590.2231,29.1431 Q589.6421,29.4419 589.0029,29.5913 Q588.3638,29.7407 587.6582,29.7407 Q585.1514,29.7407 583.8315,28.0889 Q582.5117,26.437 582.5117,23.3159 Q582.5117,20.1865 583.8315,18.5347 Q585.1514,16.8828 587.6582,16.8828 Q588.3638,16.8828 589.0112,17.0322 Q589.6587,17.1816 590.2231,17.4805 L590.2231,20.2031 Q589.5923,19.6221 588.9988,19.3523 Q588.4053,19.0825 587.7744,19.0825 Q586.4297,19.0825 585.7449,20.1492 Q585.0601,21.2158 585.0601,23.3159 Q585.0601,25.4077 585.7449,26.4744 Q586.4297,27.541 587.7744,27.541 Q588.4053,27.541 588.9988,27.2712 Q589.5923,27.0015 590.2231,26.4204 Z " fill="#000000"/><text fill="#000000" font-family="sans-serif" font-size="14" font-weight="bold" lengthAdjust="spacing" textLength="52" x="608.25" y="28.291">Variant</text><line style="stroke:#5A0000;stroke-width:2.0;" x1="415" x2="821" y1="39" y2="39"/><ellipse cx="425" cy="52.7441" fill="none" rx="3" ry="3" style="stroke:#038048;stroke-width:1.0;"/><text fill="#000000" font-family="sans-serif" font-size="14" font-weight="bold" lengthAdjust="spacing" text-decoration="underline" textLength="63" x="434" y="56.5352">abiName</text><text fill="#000000" font-family="sans-serif" font-size="14" lengthAdjust="spacing" text-decoration="underline" textLength="48" x="501" y="56.5352">: string</text><ellipse cx="425" cy="69.2324" fill="none" rx="3" ry="3" style="stroke:#038048;stroke-width:1.0;"/><text fill="#000000" font-family="sans-serif" font-size="14" font-weight="bold" lengthAdjust="spacing" text-decoration="underline" textLength="74" x="434" y="73.0234">abiVariant</text><text fill="#000000" font-family="sans-serif" font-size="14" lengthAdjust="spacing" text-decoration="underline" textLength="144" x="512" y="73.0234">: ABITypeDescriptor[]</text><ellipse cx="425" cy="85.7207" fill="none" rx="3" ry="3" style="stroke:#038048;stroke-width:1.0;"/><text fill="#000000" font-family="sans-serif" font-size="14" font-weight="bold" lengthAdjust="spacing" textLength="38" x="434" y="89.5117">value</text><text fill="#000000" font-family="sans-serif" font-size="14" lengthAdjust="spacing" textLength="109" x="476" y="89.5117">: ABISerializable</text><ellipse cx="425" cy="102.209" fill="none" rx="3" ry="3" style="stroke:#038048;stroke-width:1.0;"/><text fill="#000000" font-family="sans-serif" font-size="14" font-weight="bold" lengthAdjust="spacing" textLength="72" x="434" y="106">variantIdx</text><text fill="#000000" font-family="sans-serif" font-size="14" lengthAdjust="spacing" textLength="62" x="510" y="106">: number</text><line style="stroke:#5A0000;stroke-width:2.0;" x1="415" x2="821" y1="112.9531" y2="112.9531"/><ellipse cx="425" cy="126.6973" fill="#84BE84" rx="3" ry="3" style="stroke:#038048;stroke-width:1.0;"/><text fill="#000000" font-family="sans-serif" font-size="14" lengthAdjust="spacing" textLength="243" x="434" y="130.4883">equals(other: AnyVariant) : boolean</text><ellipse cx="425" cy="143.1855" fill="#84BE84" rx="3" ry="3" style="stroke:#038048;stroke-width:1.0;"/><text fill="#000000" font-family="sans-serif" font-size="14" lengthAdjust="spacing" text-decoration="underline" textLength="382" x="434" y="146.9766">from&lt;T&gt;(this: T, object: AnyVariant) : InstanceType&lt;T&gt;</text><ellipse cx="425" cy="159.6738" fill="#84BE84" rx="3" ry="3" style="stroke:#038048;stroke-width:1.0;"/><text fill="#000000" font-family="sans-serif" font-size="14" lengthAdjust="spacing" text-decoration="underline" textLength="244" x="434" y="163.4648">from(object: AnyVariant) : unknown</text></g><!--reverse link Variant to NetMessage--><g id="link_Variant_NetMessage"><path codeLine="28" d="M618,188.9 C618,208.16 618,210.7 618,229.95 " fill="none" id="Variant-backto-NetMessage" style="stroke:#181818;stroke-width:1.0;"/><polygon fill="none" points="618,170.9,612,188.9,624,188.9,618,170.9" style="stroke:#181818;stroke-width:1.0;"/></g><!--SRC=[rLDBRzim3BxxLn0zfTYA5GLsAO80JOPjEImOQcENeGTQOcBDCfbAz3BtyT-dD2xYfhaNrKtVW_n8GR5slCQ03SmynlXLM7FjF44ftcRn9Jj5Kw-2j6nduYN0qYmlZ7cbac0fx1IVyJoTWU9wvmvC0SwFEulAcPefHhZ8AcS9g5bh1qj7tiOXqf1Mag1zbRn2Anl7Az3Gqe0uJAu1EIQAM3EpRGqd2z8VgIckw0JkCqZdFYggCu_mOLnEi7GBR6ZygPp09KGDgSjHrIyC3bbxuTLqNdHh-aBH1BTM2RzldbnRyL_qxNF1doaWsM8R2uqwONY0xyWsLbXJdoj1imeTv-vk07sJgmrs-tlXcW6xa9HjSB-csvQYxe6yO_CQT2icE_LYwa7QfxdczbyVcTkcfB3ZKm7qSIHQKKX3SzTluJJfIX5Fo0VBMWPfniLaf9MBbr1y12d_aD53yvoJWmrjbvZaHugCZXjRhbasd3q-ls_FlSNZ9brEoUZT7PQUtlzAzyiSFvoTlVWx_m40]--></g></svg>