<?xml version="1.0" encoding="us-ascii" standalone="no"?><svg xmlns="http://www.w3.org/2000/svg" xmlns:xlink="http://www.w3.org/1999/xlink" contentStyleType="text/css" height="389px" preserveAspectRatio="none" style="width:370px;height:389px;" version="1.1" viewBox="0 0 370 389" width="370px" zoomAndPan="magnify"><defs><filter height="300%" id="fklt9hyhq2gt5" width="300%" x="-1" y="-1"><feGaussianBlur result="blurOut" stdDeviation="2.0"/><feColorMatrix in="blurOut" result="blurOut2" type="matrix" values="0 0 0 0 0 0 0 0 0 0 0 0 0 0 0 0 0 0 .4 0"/><feOffset dx="4.0" dy="4.0" in="blurOut2" result="blurOut3"/><feBlend in="SourceGraphic" in2="blurOut3" mode="normal"/></filter></defs><g><!--class Producer--><g id="elem_Producer"><rect codeLine="10" fill="#FCF2CC" filter="url(#fklt9hyhq2gt5)" height="163.418" id="Producer" style="stroke:#5A0000;stroke-width:2.0;" width="276" x="44.5" y="213.93"/><ellipse cx="146.75" cy="229.93" fill="#ADD1B2" rx="11" ry="11" style="stroke:#181818;stroke-width:1.0;"/><path d="M149.2231,236.0731 Q148.6421,236.3719 148.0029,236.5213 Q147.3638,236.6707 146.6582,236.6707 Q144.1514,236.6707 142.8315,235.0189 Q141.5117,233.367 141.5117,230.2459 Q141.5117,227.1165 142.8315,225.4647 Q144.1514,223.8128 146.6582,223.8128 Q147.3638,223.8128 148.0112,223.9622 Q148.6587,224.1116 149.2231,224.4105 L149.2231,227.1331 Q148.5923,226.5521 147.9988,226.2823 Q147.4053,226.0125 146.7744,226.0125 Q145.4297,226.0125 144.7449,227.0792 Q144.0601,228.1458 144.0601,230.2459 Q144.0601,232.3377 144.7449,233.4044 Q145.4297,234.471 146.7744,234.471 Q147.4053,234.471 147.9988,234.2012 Q148.5923,233.9315 149.2231,233.3504 Z " fill="#000000"/><text fill="#000000" font-family="sans-serif" font-size="14" font-weight="bold" lengthAdjust="spacing" textLength="63" x="167.25" y="235.221">Producer</text><line style="stroke:#5A0000;stroke-width:2.0;" x1="45.5" x2="319.5" y1="245.93" y2="245.93"/><ellipse cx="55.5" cy="259.6741" fill="none" rx="3" ry="3" style="stroke:#038048;stroke-width:1.0;"/><text fill="#000000" font-family="sans-serif" font-size="14" font-weight="bold" lengthAdjust="spacing" text-decoration="underline" textLength="55" x="64.5" y="263.4652">abiBase</text><text fill="#000000" font-family="sans-serif" font-size="14" lengthAdjust="spacing" text-decoration="underline" textLength="191" x="123.5" y="263.4652">: ABISerializableConstructor</text><ellipse cx="55.5" cy="276.1624" fill="none" rx="3" ry="3" style="stroke:#038048;stroke-width:1.0;"/><text fill="#000000" font-family="sans-serif" font-size="14" font-weight="bold" lengthAdjust="spacing" text-decoration="underline" textLength="65" x="64.5" y="279.9534">abiFields</text><text fill="#000000" font-family="sans-serif" font-size="14" lengthAdjust="spacing" text-decoration="underline" textLength="73" x="133.5" y="279.9534">: ABIField[]</text><ellipse cx="55.5" cy="292.6507" fill="none" rx="3" ry="3" style="stroke:#038048;stroke-width:1.0;"/><text fill="#000000" font-family="sans-serif" font-size="14" font-weight="bold" lengthAdjust="spacing" text-decoration="underline" textLength="63" x="64.5" y="296.4417">abiName</text><text fill="#000000" font-family="sans-serif" font-size="14" lengthAdjust="spacing" text-decoration="underline" textLength="48" x="131.5" y="296.4417">: string</text><ellipse cx="55.5" cy="309.139" fill="none" rx="3" ry="3" style="stroke:#038048;stroke-width:1.0;"/><text fill="#000000" font-family="sans-serif" font-size="14" font-weight="bold" lengthAdjust="spacing" textLength="66" x="64.5" y="312.93">authority</text><text fill="#000000" font-family="sans-serif" font-size="14" lengthAdjust="spacing" textLength="105" x="134.5" y="312.93">: ProducerEntry</text><ellipse cx="55.5" cy="325.6273" fill="none" rx="3" ry="3" style="stroke:#038048;stroke-width:1.0;"/><text fill="#000000" font-family="sans-serif" font-size="14" font-weight="bold" lengthAdjust="spacing" textLength="109" x="64.5" y="329.4183">producer_name</text><text fill="#000000" font-family="sans-serif" font-size="14" lengthAdjust="spacing" textLength="47" x="177.5" y="329.4183">: Name</text><line style="stroke:#5A0000;stroke-width:2.0;" x1="45.5" x2="319.5" y1="336.3714" y2="336.3714"/><ellipse cx="55.5" cy="350.1155" fill="#84BE84" rx="3" ry="3" style="stroke:#038048;stroke-width:1.0;"/><text fill="#000000" font-family="sans-serif" font-size="14" lengthAdjust="spacing" textLength="192" x="64.5" y="353.9066">equals(other: any) : boolean</text><ellipse cx="55.5" cy="366.6038" fill="#84BE84" rx="3" ry="3" style="stroke:#038048;stroke-width:1.0;"/><text fill="#000000" font-family="sans-serif" font-size="14" lengthAdjust="spacing" text-decoration="underline" textLength="157" x="64.5" y="370.3948">from(data: any) : Struct</text></g><!--class Struct--><g id="elem_Struct"><rect codeLine="19" fill="#FCF2CC" filter="url(#fklt9hyhq2gt5)" height="146.9297" id="Struct" style="stroke:#5A0000;stroke-width:2.0;" width="351" x="7" y="7"/><ellipse cx="157.25" cy="23" fill="#ADD1B2" rx="11" ry="11" style="stroke:#181818;stroke-width:1.0;"/><path d="M159.7231,29.1431 Q159.1421,29.4419 158.5029,29.5913 Q157.8638,29.7407 157.1582,29.7407 Q154.6514,29.7407 153.3315,28.0889 Q152.0117,26.437 152.0117,23.3159 Q152.0117,20.1865 153.3315,18.5347 Q154.6514,16.8828 157.1582,16.8828 Q157.8638,16.8828 158.5112,17.0322 Q159.1587,17.1816 159.7231,17.4805 L159.7231,20.2031 Q159.0923,19.6221 158.4988,19.3523 Q157.9053,19.0825 157.2744,19.0825 Q155.9297,19.0825 155.2449,20.1492 Q154.5601,21.2158 154.5601,23.3159 Q154.5601,25.4077 155.2449,26.4744 Q155.9297,27.541 157.2744,27.541 Q157.9053,27.541 158.4988,27.2712 Q159.0923,27.0015 159.7231,26.4204 Z " fill="#000000"/><text fill="#000000" font-family="sans-serif" font-size="14" font-weight="bold" lengthAdjust="spacing" textLength="42" x="177.75" y="28.291">Struct</text><line style="stroke:#5A0000;stroke-width:2.0;" x1="8" x2="357" y1="39" y2="39"/><ellipse cx="18" cy="52.7441" fill="none" rx="3" ry="3" style="stroke:#038048;stroke-width:1.0;"/><text fill="#000000" font-family="sans-serif" font-size="14" font-weight="bold" lengthAdjust="spacing" text-decoration="underline" textLength="55" x="27" y="56.5352">abiBase</text><text fill="#000000" font-family="sans-serif" font-size="14" lengthAdjust="spacing" text-decoration="underline" textLength="191" x="86" y="56.5352">: ABISerializableConstructor</text><ellipse cx="18" cy="69.2324" fill="none" rx="3" ry="3" style="stroke:#038048;stroke-width:1.0;"/><text fill="#000000" font-family="sans-serif" font-size="14" font-weight="bold" lengthAdjust="spacing" text-decoration="underline" textLength="65" x="27" y="73.0234">abiFields</text><text fill="#000000" font-family="sans-serif" font-size="14" lengthAdjust="spacing" text-decoration="underline" textLength="73" x="96" y="73.0234">: ABIField[]</text><ellipse cx="18" cy="85.7207" fill="none" rx="3" ry="3" style="stroke:#038048;stroke-width:1.0;"/><text fill="#000000" font-family="sans-serif" font-size="14" font-weight="bold" lengthAdjust="spacing" text-decoration="underline" textLength="63" x="27" y="89.5117">abiName</text><text fill="#000000" font-family="sans-serif" font-size="14" lengthAdjust="spacing" text-decoration="underline" textLength="48" x="94" y="89.5117">: string</text><line style="stroke:#5A0000;stroke-width:2.0;" x1="8" x2="357" y1="96.4648" y2="96.4648"/><ellipse cx="18" cy="110.209" fill="#84BE84" rx="3" ry="3" style="stroke:#038048;stroke-width:1.0;"/><text fill="#000000" font-family="sans-serif" font-size="14" lengthAdjust="spacing" textLength="192" x="27" y="114">equals(other: any) : boolean</text><ellipse cx="18" cy="126.6973" fill="#84BE84" rx="3" ry="3" style="stroke:#038048;stroke-width:1.0;"/><text fill="#000000" font-family="sans-serif" font-size="14" lengthAdjust="spacing" text-decoration="underline" textLength="325" x="27" y="130.4883">from&lt;T&gt;(this: T, value: any) : InstanceType&lt;T&gt;</text><ellipse cx="18" cy="143.1855" fill="#84BE84" rx="3" ry="3" style="stroke:#038048;stroke-width:1.0;"/><text fill="#000000" font-family="sans-serif" font-size="14" lengthAdjust="spacing" text-decoration="underline" textLength="187" x="27" y="146.9766">from(value: any) : unknown</text></g><!--reverse link Struct to Producer--><g id="link_Struct_Producer"><path codeLine="27" d="M182.5,172.23 C182.5,191.41 182.5,194.22 182.5,213.79 " fill="none" id="Struct-backto-Producer" style="stroke:#181818;stroke-width:1.0;"/><polygon fill="none" points="182.5,154.23,176.5,172.23,188.5,172.23,182.5,154.23" style="stroke:#181818;stroke-width:1.0;"/></g><!--SRC=[pLB1Ji904BttAoQSC4ea95u88H4Y2HTZB3TZp7Gxq0tRMPpTIYhoxov5Ia4ktjpRp7jlvitBkgNc5GhcC3RetCIoZtrf219hqiYTeYDKouNOWjEnDLPWhkOzfNwnhAGaUyOTTiDhC9xtQc4Iw5vMpZAjbapEGI_AT4f0-SgNCDTaKjVivEGp6rh7AN66gLrhNe2NWXh0kNClo2v0n3vIkzNGUXAR5ega1Pi8mjiuZrwhBLmFaY4cUeIE1hV94FfmFvh691gD_iJ4qDYo2_kKjt9HEQcS7xLL_V9waVk8-M5Bc1akgLWLM8HhHVlo1pxuVM0lPSrQ_NJV-3XeDtDFeFS2ZMjRdv7q0Rcy2d1YhI7aCpjpiNaxHOyrBwvkZBQ7mFRrluphZtSEPiEspxJhm-m6Fj0KL8kcmIkoebcvea2x5DAfeE0bspM7cEg01b-TJkD_VGC0]--></g></svg>