<?xml version="1.0" encoding="us-ascii" standalone="no"?><svg xmlns="http://www.w3.org/2000/svg" xmlns:xlink="http://www.w3.org/1999/xlink" contentStyleType="text/css" height="827px" preserveAspectRatio="none" style="width:621px;height:827px;" version="1.1" viewBox="0 0 621 827" width="621px" zoomAndPan="magnify"><defs><filter height="300%" id="f1bomcpk1t1eky" width="300%" x="-1" y="-1"><feGaussianBlur result="blurOut" stdDeviation="2.0"/><feColorMatrix in="blurOut" result="blurOut2" type="matrix" values="0 0 0 0 0 0 0 0 0 0 0 0 0 0 0 0 0 0 .4 0"/><feOffset dx="4.0" dy="4.0" in="blurOut2" result="blurOut3"/><feBlend in="SourceGraphic" in2="blurOut3" mode="normal"/></filter></defs><g><!--class TransactionHeader--><g id="elem_TransactionHeader"><rect codeLine="10" fill="#FCF2CC" filter="url(#f1bomcpk1t1eky)" height="229.3711" id="TransactionHeader" style="stroke:#5A0000;stroke-width:2.0;" width="424" x="96" y="213.93"/><ellipse cx="236.25" cy="229.93" fill="#ADD1B2" rx="11" ry="11" style="stroke:#181818;stroke-width:1.0;"/><path d="M238.7231,236.0731 Q238.1421,236.3719 237.5029,236.5213 Q236.8638,236.6707 236.1582,236.6707 Q233.6514,236.6707 232.3315,235.0189 Q231.0117,233.367 231.0117,230.2459 Q231.0117,227.1165 232.3315,225.4647 Q233.6514,223.8128 236.1582,223.8128 Q236.8638,223.8128 237.5112,223.9622 Q238.1587,224.1116 238.7231,224.4105 L238.7231,227.1331 Q238.0923,226.5521 237.4988,226.2823 Q236.9053,226.0125 236.2744,226.0125 Q234.9297,226.0125 234.2449,227.0792 Q233.5601,228.1458 233.5601,230.2459 Q233.5601,232.3377 234.2449,233.4044 Q234.9297,234.471 236.2744,234.471 Q236.9053,234.471 237.4988,234.2012 Q238.0923,233.9315 238.7231,233.3504 Z " fill="#000000"/><text fill="#000000" font-family="sans-serif" font-size="14" font-weight="bold" lengthAdjust="spacing" textLength="135" x="256.75" y="235.221">TransactionHeader</text><line style="stroke:#5A0000;stroke-width:2.0;" x1="97" x2="519" y1="245.93" y2="245.93"/><ellipse cx="107" cy="259.6741" fill="none" rx="3" ry="3" style="stroke:#038048;stroke-width:1.0;"/><text fill="#000000" font-family="sans-serif" font-size="14" font-weight="bold" lengthAdjust="spacing" text-decoration="underline" textLength="55" x="116" y="263.4652">abiBase</text><text fill="#000000" font-family="sans-serif" font-size="14" lengthAdjust="spacing" text-decoration="underline" textLength="191" x="175" y="263.4652">: ABISerializableConstructor</text><ellipse cx="107" cy="276.1624" fill="none" rx="3" ry="3" style="stroke:#038048;stroke-width:1.0;"/><text fill="#000000" font-family="sans-serif" font-size="14" font-weight="bold" lengthAdjust="spacing" text-decoration="underline" textLength="65" x="116" y="279.9534">abiFields</text><text fill="#000000" font-family="sans-serif" font-size="14" lengthAdjust="spacing" text-decoration="underline" textLength="73" x="185" y="279.9534">: ABIField[]</text><ellipse cx="107" cy="292.6507" fill="none" rx="3" ry="3" style="stroke:#038048;stroke-width:1.0;"/><text fill="#000000" font-family="sans-serif" font-size="14" font-weight="bold" lengthAdjust="spacing" text-decoration="underline" textLength="63" x="116" y="296.4417">abiName</text><text fill="#000000" font-family="sans-serif" font-size="14" lengthAdjust="spacing" text-decoration="underline" textLength="48" x="183" y="296.4417">: string</text><ellipse cx="107" cy="309.139" fill="none" rx="3" ry="3" style="stroke:#038048;stroke-width:1.0;"/><text fill="#000000" font-family="sans-serif" font-size="14" font-weight="bold" lengthAdjust="spacing" textLength="68" x="116" y="312.93">delay_sec</text><text fill="#000000" font-family="sans-serif" font-size="14" lengthAdjust="spacing" textLength="59" x="188" y="312.93">: VarUInt</text><ellipse cx="107" cy="325.6273" fill="none" rx="3" ry="3" style="stroke:#038048;stroke-width:1.0;"/><text fill="#000000" font-family="sans-serif" font-size="14" font-weight="bold" lengthAdjust="spacing" textLength="73" x="116" y="329.4183">expiration</text><text fill="#000000" font-family="sans-serif" font-size="14" lengthAdjust="spacing" textLength="100" x="193" y="329.4183">: TimePointSec</text><ellipse cx="107" cy="342.1155" fill="none" rx="3" ry="3" style="stroke:#038048;stroke-width:1.0;"/><text fill="#000000" font-family="sans-serif" font-size="14" font-weight="bold" lengthAdjust="spacing" textLength="140" x="116" y="345.9066">max_cpu_usage_ms</text><text fill="#000000" font-family="sans-serif" font-size="14" lengthAdjust="spacing" textLength="45" x="260" y="345.9066">: UInt8</text><ellipse cx="107" cy="358.6038" fill="none" rx="3" ry="3" style="stroke:#038048;stroke-width:1.0;"/><text fill="#000000" font-family="sans-serif" font-size="14" font-weight="bold" lengthAdjust="spacing" textLength="160" x="116" y="362.3948">max_net_usage_words</text><text fill="#000000" font-family="sans-serif" font-size="14" lengthAdjust="spacing" textLength="59" x="280" y="362.3948">: VarUInt</text><ellipse cx="107" cy="375.0921" fill="none" rx="3" ry="3" style="stroke:#038048;stroke-width:1.0;"/><text fill="#000000" font-family="sans-serif" font-size="14" font-weight="bold" lengthAdjust="spacing" textLength="105" x="116" y="378.8831">ref_block_num</text><text fill="#000000" font-family="sans-serif" font-size="14" lengthAdjust="spacing" textLength="54" x="225" y="378.8831">: UInt16</text><ellipse cx="107" cy="391.5804" fill="none" rx="3" ry="3" style="stroke:#038048;stroke-width:1.0;"/><text fill="#000000" font-family="sans-serif" font-size="14" font-weight="bold" lengthAdjust="spacing" textLength="115" x="116" y="395.3714">ref_block_prefix</text><text fill="#000000" font-family="sans-serif" font-size="14" lengthAdjust="spacing" textLength="54" x="235" y="395.3714">: UInt32</text><line style="stroke:#5A0000;stroke-width:2.0;" x1="97" x2="519" y1="402.3245" y2="402.3245"/><ellipse cx="107" cy="416.0687" fill="#84BE84" rx="3" ry="3" style="stroke:#038048;stroke-width:1.0;"/><text fill="#000000" font-family="sans-serif" font-size="14" lengthAdjust="spacing" textLength="192" x="116" y="419.8597">equals(other: any) : boolean</text><ellipse cx="107" cy="432.557" fill="#84BE84" rx="3" ry="3" style="stroke:#038048;stroke-width:1.0;"/><text fill="#000000" font-family="sans-serif" font-size="14" lengthAdjust="spacing" text-decoration="underline" textLength="398" x="116" y="436.348">from(object: TransactionHeaderType) : TransactionHeader</text></g><!--class Struct--><g id="elem_Struct"><rect codeLine="23" fill="#FCF2CC" filter="url(#f1bomcpk1t1eky)" height="146.9297" id="Struct" style="stroke:#5A0000;stroke-width:2.0;" width="351" x="132.5" y="7"/><ellipse cx="282.75" cy="23" fill="#ADD1B2" rx="11" ry="11" style="stroke:#181818;stroke-width:1.0;"/><path d="M285.2231,29.1431 Q284.6421,29.4419 284.0029,29.5913 Q283.3638,29.7407 282.6582,29.7407 Q280.1514,29.7407 278.8315,28.0889 Q277.5117,26.437 277.5117,23.3159 Q277.5117,20.1865 278.8315,18.5347 Q280.1514,16.8828 282.6582,16.8828 Q283.3638,16.8828 284.0112,17.0322 Q284.6587,17.1816 285.2231,17.4805 L285.2231,20.2031 Q284.5923,19.6221 283.9988,19.3523 Q283.4053,19.0825 282.7744,19.0825 Q281.4297,19.0825 280.7449,20.1492 Q280.0601,21.2158 280.0601,23.3159 Q280.0601,25.4077 280.7449,26.4744 Q281.4297,27.541 282.7744,27.541 Q283.4053,27.541 283.9988,27.2712 Q284.5923,27.0015 285.2231,26.4204 Z " fill="#000000"/><text fill="#000000" font-family="sans-serif" font-size="14" font-weight="bold" lengthAdjust="spacing" textLength="42" x="303.25" y="28.291">Struct</text><line style="stroke:#5A0000;stroke-width:2.0;" x1="133.5" x2="482.5" y1="39" y2="39"/><ellipse cx="143.5" cy="52.7441" fill="none" rx="3" ry="3" style="stroke:#038048;stroke-width:1.0;"/><text fill="#000000" font-family="sans-serif" font-size="14" font-weight="bold" lengthAdjust="spacing" text-decoration="underline" textLength="55" x="152.5" y="56.5352">abiBase</text><text fill="#000000" font-family="sans-serif" font-size="14" lengthAdjust="spacing" text-decoration="underline" textLength="191" x="211.5" y="56.5352">: ABISerializableConstructor</text><ellipse cx="143.5" cy="69.2324" fill="none" rx="3" ry="3" style="stroke:#038048;stroke-width:1.0;"/><text fill="#000000" font-family="sans-serif" font-size="14" font-weight="bold" lengthAdjust="spacing" text-decoration="underline" textLength="65" x="152.5" y="73.0234">abiFields</text><text fill="#000000" font-family="sans-serif" font-size="14" lengthAdjust="spacing" text-decoration="underline" textLength="73" x="221.5" y="73.0234">: ABIField[]</text><ellipse cx="143.5" cy="85.7207" fill="none" rx="3" ry="3" style="stroke:#038048;stroke-width:1.0;"/><text fill="#000000" font-family="sans-serif" font-size="14" font-weight="bold" lengthAdjust="spacing" text-decoration="underline" textLength="63" x="152.5" y="89.5117">abiName</text><text fill="#000000" font-family="sans-serif" font-size="14" lengthAdjust="spacing" text-decoration="underline" textLength="48" x="219.5" y="89.5117">: string</text><line style="stroke:#5A0000;stroke-width:2.0;" x1="133.5" x2="482.5" y1="96.4648" y2="96.4648"/><ellipse cx="143.5" cy="110.209" fill="#84BE84" rx="3" ry="3" style="stroke:#038048;stroke-width:1.0;"/><text fill="#000000" font-family="sans-serif" font-size="14" lengthAdjust="spacing" textLength="192" x="152.5" y="114">equals(other: any) : boolean</text><ellipse cx="143.5" cy="126.6973" fill="#84BE84" rx="3" ry="3" style="stroke:#038048;stroke-width:1.0;"/><text fill="#000000" font-family="sans-serif" font-size="14" lengthAdjust="spacing" text-decoration="underline" textLength="325" x="152.5" y="130.4883">from&lt;T&gt;(this: T, value: any) : InstanceType&lt;T&gt;</text><ellipse cx="143.5" cy="143.1855" fill="#84BE84" rx="3" ry="3" style="stroke:#038048;stroke-width:1.0;"/><text fill="#000000" font-family="sans-serif" font-size="14" lengthAdjust="spacing" text-decoration="underline" textLength="187" x="152.5" y="146.9766">from(value: any) : unknown</text></g><!--class Transaction--><g id="elem_Transaction"><rect codeLine="32" fill="#FCF2CC" filter="url(#f1bomcpk1t1eky)" height="311.8125" id="Transaction" style="stroke:#5A0000;stroke-width:2.0;" width="602" x="7" y="503.3"/><ellipse cx="261.25" cy="519.3" fill="#ADD1B2" rx="11" ry="11" style="stroke:#181818;stroke-width:1.0;"/><path d="M263.7231,525.4431 Q263.1421,525.7419 262.5029,525.8913 Q261.8638,526.0407 261.1582,526.0407 Q258.6514,526.0407 257.3315,524.3889 Q256.0117,522.737 256.0117,519.6159 Q256.0117,516.4865 257.3315,514.8347 Q258.6514,513.1828 261.1582,513.1828 Q261.8638,513.1828 262.5112,513.3322 Q263.1587,513.4816 263.7231,513.7805 L263.7231,516.5031 Q263.0923,515.9221 262.4988,515.6523 Q261.9053,515.3825 261.2744,515.3825 Q259.9297,515.3825 259.2449,516.4492 Q258.5601,517.5158 258.5601,519.6159 Q258.5601,521.7077 259.2449,522.7744 Q259.9297,523.841 261.2744,523.841 Q261.9053,523.841 262.4988,523.5712 Q263.0923,523.3015 263.7231,522.7204 Z " fill="#000000"/><text fill="#000000" font-family="sans-serif" font-size="14" font-weight="bold" lengthAdjust="spacing" textLength="85" x="281.75" y="524.591">Transaction</text><line style="stroke:#5A0000;stroke-width:2.0;" x1="8" x2="608" y1="535.3" y2="535.3"/><ellipse cx="18" cy="549.0441" fill="none" rx="3" ry="3" style="stroke:#038048;stroke-width:1.0;"/><text fill="#000000" font-family="sans-serif" font-size="14" font-weight="bold" lengthAdjust="spacing" text-decoration="underline" textLength="55" x="27" y="552.8352">abiBase</text><text fill="#000000" font-family="sans-serif" font-size="14" lengthAdjust="spacing" text-decoration="underline" textLength="191" x="86" y="552.8352">: ABISerializableConstructor</text><ellipse cx="18" cy="565.5324" fill="none" rx="3" ry="3" style="stroke:#038048;stroke-width:1.0;"/><text fill="#000000" font-family="sans-serif" font-size="14" font-weight="bold" lengthAdjust="spacing" text-decoration="underline" textLength="65" x="27" y="569.3234">abiFields</text><text fill="#000000" font-family="sans-serif" font-size="14" lengthAdjust="spacing" text-decoration="underline" textLength="73" x="96" y="569.3234">: ABIField[]</text><ellipse cx="18" cy="582.0207" fill="none" rx="3" ry="3" style="stroke:#038048;stroke-width:1.0;"/><text fill="#000000" font-family="sans-serif" font-size="14" font-weight="bold" lengthAdjust="spacing" text-decoration="underline" textLength="63" x="27" y="585.8117">abiName</text><text fill="#000000" font-family="sans-serif" font-size="14" lengthAdjust="spacing" text-decoration="underline" textLength="48" x="94" y="585.8117">: string</text><ellipse cx="18" cy="598.509" fill="none" rx="3" ry="3" style="stroke:#038048;stroke-width:1.0;"/><text fill="#000000" font-family="sans-serif" font-size="14" font-weight="bold" lengthAdjust="spacing" textLength="52" x="27" y="602.3">actions</text><text fill="#000000" font-family="sans-serif" font-size="14" lengthAdjust="spacing" textLength="62" x="83" y="602.3">: Action[]</text><ellipse cx="18" cy="614.9973" fill="none" rx="3" ry="3" style="stroke:#038048;stroke-width:1.0;"/><text fill="#000000" font-family="sans-serif" font-size="14" font-weight="bold" lengthAdjust="spacing" textLength="147" x="27" y="618.7883">context_free_actions</text><text fill="#000000" font-family="sans-serif" font-size="14" lengthAdjust="spacing" textLength="62" x="178" y="618.7883">: Action[]</text><ellipse cx="18" cy="631.4855" fill="none" rx="3" ry="3" style="stroke:#038048;stroke-width:1.0;"/><text fill="#000000" font-family="sans-serif" font-size="14" font-weight="bold" lengthAdjust="spacing" textLength="68" x="27" y="635.2766">delay_sec</text><text fill="#000000" font-family="sans-serif" font-size="14" lengthAdjust="spacing" textLength="59" x="99" y="635.2766">: VarUInt</text><ellipse cx="18" cy="647.9738" fill="none" rx="3" ry="3" style="stroke:#038048;stroke-width:1.0;"/><text fill="#000000" font-family="sans-serif" font-size="14" font-weight="bold" lengthAdjust="spacing" textLength="73" x="27" y="651.7648">expiration</text><text fill="#000000" font-family="sans-serif" font-size="14" lengthAdjust="spacing" textLength="100" x="104" y="651.7648">: TimePointSec</text><ellipse cx="18" cy="664.4621" fill="none" rx="3" ry="3" style="stroke:#038048;stroke-width:1.0;"/><text fill="#000000" font-family="sans-serif" font-size="14" font-weight="bold" lengthAdjust="spacing" textLength="140" x="27" y="668.2531">max_cpu_usage_ms</text><text fill="#000000" font-family="sans-serif" font-size="14" lengthAdjust="spacing" textLength="45" x="171" y="668.2531">: UInt8</text><ellipse cx="18" cy="680.9504" fill="none" rx="3" ry="3" style="stroke:#038048;stroke-width:1.0;"/><text fill="#000000" font-family="sans-serif" font-size="14" font-weight="bold" lengthAdjust="spacing" textLength="160" x="27" y="684.7414">max_net_usage_words</text><text fill="#000000" font-family="sans-serif" font-size="14" lengthAdjust="spacing" textLength="59" x="191" y="684.7414">: VarUInt</text><ellipse cx="18" cy="697.4387" fill="none" rx="3" ry="3" style="stroke:#038048;stroke-width:1.0;"/><text fill="#000000" font-family="sans-serif" font-size="14" font-weight="bold" lengthAdjust="spacing" textLength="105" x="27" y="701.2297">ref_block_num</text><text fill="#000000" font-family="sans-serif" font-size="14" lengthAdjust="spacing" textLength="54" x="136" y="701.2297">: UInt16</text><ellipse cx="18" cy="713.927" fill="none" rx="3" ry="3" style="stroke:#038048;stroke-width:1.0;"/><text fill="#000000" font-family="sans-serif" font-size="14" font-weight="bold" lengthAdjust="spacing" textLength="115" x="27" y="717.718">ref_block_prefix</text><text fill="#000000" font-family="sans-serif" font-size="14" lengthAdjust="spacing" textLength="54" x="146" y="717.718">: UInt32</text><ellipse cx="18" cy="730.4152" fill="none" rx="3" ry="3" style="stroke:#038048;stroke-width:1.0;"/><text fill="#000000" font-family="sans-serif" font-size="14" font-weight="bold" lengthAdjust="spacing" textLength="166" x="27" y="734.2063">transaction_extensions</text><text fill="#000000" font-family="sans-serif" font-size="14" lengthAdjust="spacing" textLength="167" x="197" y="734.2063">: TransactionExtension[]</text><line style="stroke:#5A0000;stroke-width:2.0;" x1="8" x2="608" y1="741.1594" y2="741.1594"/><ellipse cx="18" cy="754.9035" fill="#84BE84" rx="3" ry="3" style="stroke:#038048;stroke-width:1.0;"/><text fill="#000000" font-family="sans-serif" font-size="14" lengthAdjust="spacing" textLength="282" x="27" y="758.6945">equals(other: TransactionType) : boolean</text><ellipse cx="18" cy="771.3918" fill="#84BE84" rx="3" ry="3" style="stroke:#038048;stroke-width:1.0;"/><text fill="#000000" font-family="sans-serif" font-size="14" lengthAdjust="spacing" text-decoration="underline" textLength="576" x="27" y="775.1828">from(object: AnyTransaction | TransactionType, abis: ABIDef | Object[]) : Transaction</text><ellipse cx="18" cy="787.8801" fill="#84BE84" rx="3" ry="3" style="stroke:#038048;stroke-width:1.0;"/><text fill="#000000" font-family="sans-serif" font-size="14" lengthAdjust="spacing" textLength="328" x="27" y="791.6711">signingData(chainId: Checksum256Type) : Bytes</text><ellipse cx="18" cy="804.3684" fill="#84BE84" rx="3" ry="3" style="stroke:#038048;stroke-width:1.0;"/><text fill="#000000" font-family="sans-serif" font-size="14" lengthAdjust="spacing" textLength="403" x="27" y="808.1594">signingDigest(chainId: Checksum256Type) : Checksum256</text></g><!--reverse link Struct to TransactionHeader--><g id="link_Struct_TransactionHeader"><path codeLine="31" d="M308,172.32 C308,191.03 308,193.61 308,213.86 " fill="none" id="Struct-backto-TransactionHeader" style="stroke:#181818;stroke-width:1.0;"/><polygon fill="none" points="308,154.32,302,172.32,314,172.32,308,154.32" style="stroke:#181818;stroke-width:1.0;"/></g><!--reverse link TransactionHeader to Transaction--><g id="link_TransactionHeader_Transaction"><path codeLine="50" d="M308,461.62 C308,480.8 308,483 308,503.01 " fill="none" id="TransactionHeader-backto-Transaction" style="stroke:#181818;stroke-width:1.0;"/><polygon fill="none" points="308,443.62,302,461.62,314,461.62,308,443.62" style="stroke:#181818;stroke-width:1.0;"/></g><!--SRC=[tLLDRzf04BtpArQSg9geALMY2Y6aG1gLIriLsaiKMUFr66-zdgMxwmRduxztR30OSBzkKVTaxtjlTZxssIvLj0GBcPXeSExQa9_vGgC8ZOuwRXyTWqmNrkGKJOmsLiGoxajvn38sGhjcdCCPhmRZyrfj2QquQrVE4oLJGkT4lvEe20LcIr-8MA6EN7CdGvyOtjf5cIKGcJj52-5jZWtWC7DlWHn3IBuZowD5TrvkWVJAq7i4pgCh7Zg2ruFpu9Ly4Y-7uGX2DGQ7mrVXI0p4vNWwGwj0gti8DKuCEJvOUcDRbTTL2JjjzNvpsyhz05bz2iVaaYfM2KQeeGWSoWty5UoNATTHuxXQAWjb7Hl2N6NuoIYUBCejAuDL89Tva3jOO93LMPMHtkwH2Fs6TCVZSRyur68SXDh8DA0yQyHwVT52MVAZMZLOR_fh5dxFGRkUyGdQWG0gNZ0XD4OZq46NOckodWc_eVHSuU7iviKII-qHq7cgvpsh9lKiX_oFRHZEHpsVACVbdeWVe7FSYgQSAv34iXzCQ-lXlY2dbCmTSPks3He-dfwssQF5EC_LCklijc6gjqsG4fRyrSEL3sAB6Fo1-n-xZrb-Dyk0EuBa6hre3FfTZTMTsR-o3MRjnBzmyIKL3Q5uF0np8dZ8hhe6LnWp_h4ItjmUE7sTaLCBuZjm1HvwCW55qsWW9WdArELP__oYJcnSU7Jx4hL0vtyhQcoLLcdvTnovfliJ]--></g></svg>