<?xml version="1.0" encoding="us-ascii" standalone="no"?><svg xmlns="http://www.w3.org/2000/svg" xmlns:xlink="http://www.w3.org/1999/xlink" contentStyleType="text/css" height="537px" preserveAspectRatio="none" style="width:370px;height:537px;" version="1.1" viewBox="0 0 370 537" width="370px" zoomAndPan="magnify"><defs><filter height="300%" id="f1lgtcbmsrmrlb" width="300%" x="-1" y="-1"><feGaussianBlur result="blurOut" stdDeviation="2.0"/><feColorMatrix in="blurOut" result="blurOut2" type="matrix" values="0 0 0 0 0 0 0 0 0 0 0 0 0 0 0 0 0 0 .4 0"/><feOffset dx="4.0" dy="4.0" in="blurOut2" result="blurOut3"/><feBlend in="SourceGraphic" in2="blurOut3" mode="normal"/></filter></defs><g><!--class Trx--><g id="elem_Trx"><rect codeLine="10" fill="#FCF2CC" filter="url(#f1lgtcbmsrmrlb)" height="311.8125" id="Trx" style="stroke:#5A0000;stroke-width:2.0;" width="351" x="7" y="213.93"/><ellipse cx="166.25" cy="229.93" fill="#ADD1B2" rx="11" ry="11" style="stroke:#181818;stroke-width:1.0;"/><path d="M168.7231,236.0731 Q168.1421,236.3719 167.5029,236.5213 Q166.8638,236.6707 166.1582,236.6707 Q163.6514,236.6707 162.3315,235.0189 Q161.0117,233.367 161.0117,230.2459 Q161.0117,227.1165 162.3315,225.4647 Q163.6514,223.8128 166.1582,223.8128 Q166.8638,223.8128 167.5112,223.9622 Q168.1587,224.1116 168.7231,224.4105 L168.7231,227.1331 Q168.0923,226.5521 167.4988,226.2823 Q166.9053,226.0125 166.2744,226.0125 Q164.9297,226.0125 164.2449,227.0792 Q163.5601,228.1458 163.5601,230.2459 Q163.5601,232.3377 164.2449,233.4044 Q164.9297,234.471 166.2744,234.471 Q166.9053,234.471 167.4988,234.2012 Q168.0923,233.9315 168.7231,233.3504 Z " fill="#000000"/><text fill="#000000" font-family="sans-serif" font-size="14" font-weight="bold" lengthAdjust="spacing" textLength="24" x="186.75" y="235.221">Trx</text><line style="stroke:#5A0000;stroke-width:2.0;" x1="8" x2="357" y1="245.93" y2="245.93"/><ellipse cx="18" cy="259.6741" fill="none" rx="3" ry="3" style="stroke:#038048;stroke-width:1.0;"/><text fill="#000000" font-family="sans-serif" font-size="14" font-weight="bold" lengthAdjust="spacing" text-decoration="underline" textLength="55" x="27" y="263.4652">abiBase</text><text fill="#000000" font-family="sans-serif" font-size="14" lengthAdjust="spacing" text-decoration="underline" textLength="191" x="86" y="263.4652">: ABISerializableConstructor</text><ellipse cx="18" cy="276.1624" fill="none" rx="3" ry="3" style="stroke:#038048;stroke-width:1.0;"/><text fill="#000000" font-family="sans-serif" font-size="14" font-weight="bold" lengthAdjust="spacing" text-decoration="underline" textLength="65" x="27" y="279.9534">abiFields</text><text fill="#000000" font-family="sans-serif" font-size="14" lengthAdjust="spacing" text-decoration="underline" textLength="73" x="96" y="279.9534">: ABIField[]</text><ellipse cx="18" cy="292.6507" fill="none" rx="3" ry="3" style="stroke:#038048;stroke-width:1.0;"/><text fill="#000000" font-family="sans-serif" font-size="14" font-weight="bold" lengthAdjust="spacing" text-decoration="underline" textLength="63" x="27" y="296.4417">abiName</text><text fill="#000000" font-family="sans-serif" font-size="14" lengthAdjust="spacing" text-decoration="underline" textLength="48" x="94" y="296.4417">: string</text><ellipse cx="18" cy="309.139" fill="none" rx="3" ry="3" style="stroke:#038048;stroke-width:1.0;"/><text fill="#000000" font-family="sans-serif" font-size="14" font-weight="bold" lengthAdjust="spacing" textLength="52" x="27" y="312.93">actions</text><text fill="#000000" font-family="sans-serif" font-size="14" lengthAdjust="spacing" textLength="88" x="83" y="312.93">: AnyAction[]</text><ellipse cx="18" cy="325.6273" fill="none" rx="3" ry="3" style="stroke:#038048;stroke-width:1.0;"/><text fill="#000000" font-family="sans-serif" font-size="14" font-weight="bold" lengthAdjust="spacing" textLength="147" x="27" y="329.4183">context_free_actions</text><text fill="#000000" font-family="sans-serif" font-size="14" lengthAdjust="spacing" textLength="88" x="178" y="329.4183">: AnyAction[]</text><ellipse cx="18" cy="342.1155" fill="none" rx="3" ry="3" style="stroke:#038048;stroke-width:1.0;"/><text fill="#000000" font-family="sans-serif" font-size="14" font-weight="bold" lengthAdjust="spacing" textLength="126" x="27" y="345.9066">context_free_data</text><text fill="#000000" font-family="sans-serif" font-size="14" lengthAdjust="spacing" textLength="42" x="157" y="345.9066">: any[]</text><ellipse cx="18" cy="358.6038" fill="none" rx="3" ry="3" style="stroke:#038048;stroke-width:1.0;"/><text fill="#000000" font-family="sans-serif" font-size="14" font-weight="bold" lengthAdjust="spacing" textLength="68" x="27" y="362.3948">delay_sec</text><text fill="#000000" font-family="sans-serif" font-size="14" lengthAdjust="spacing" textLength="62" x="99" y="362.3948">: number</text><ellipse cx="18" cy="375.0921" fill="none" rx="3" ry="3" style="stroke:#038048;stroke-width:1.0;"/><text fill="#000000" font-family="sans-serif" font-size="14" font-weight="bold" lengthAdjust="spacing" textLength="73" x="27" y="378.8831">expiration</text><text fill="#000000" font-family="sans-serif" font-size="14" lengthAdjust="spacing" textLength="48" x="104" y="378.8831">: string</text><ellipse cx="18" cy="391.5804" fill="none" rx="3" ry="3" style="stroke:#038048;stroke-width:1.0;"/><text fill="#000000" font-family="sans-serif" font-size="14" font-weight="bold" lengthAdjust="spacing" textLength="140" x="27" y="395.3714">max_cpu_usage_ms</text><text fill="#000000" font-family="sans-serif" font-size="14" lengthAdjust="spacing" textLength="62" x="171" y="395.3714">: number</text><ellipse cx="18" cy="408.0687" fill="none" rx="3" ry="3" style="stroke:#038048;stroke-width:1.0;"/><text fill="#000000" font-family="sans-serif" font-size="14" font-weight="bold" lengthAdjust="spacing" textLength="160" x="27" y="411.8597">max_net_usage_words</text><text fill="#000000" font-family="sans-serif" font-size="14" lengthAdjust="spacing" textLength="62" x="191" y="411.8597">: number</text><ellipse cx="18" cy="424.557" fill="none" rx="3" ry="3" style="stroke:#038048;stroke-width:1.0;"/><text fill="#000000" font-family="sans-serif" font-size="14" font-weight="bold" lengthAdjust="spacing" textLength="105" x="27" y="428.348">ref_block_num</text><text fill="#000000" font-family="sans-serif" font-size="14" lengthAdjust="spacing" textLength="62" x="136" y="428.348">: number</text><ellipse cx="18" cy="441.0452" fill="none" rx="3" ry="3" style="stroke:#038048;stroke-width:1.0;"/><text fill="#000000" font-family="sans-serif" font-size="14" font-weight="bold" lengthAdjust="spacing" textLength="115" x="27" y="444.8363">ref_block_prefix</text><text fill="#000000" font-family="sans-serif" font-size="14" lengthAdjust="spacing" textLength="62" x="146" y="444.8363">: number</text><ellipse cx="18" cy="457.5335" fill="none" rx="3" ry="3" style="stroke:#038048;stroke-width:1.0;"/><text fill="#000000" font-family="sans-serif" font-size="14" font-weight="bold" lengthAdjust="spacing" textLength="76" x="27" y="461.3245">signatures</text><text fill="#000000" font-family="sans-serif" font-size="14" lengthAdjust="spacing" textLength="58" x="107" y="461.3245">: string[]</text><line style="stroke:#5A0000;stroke-width:2.0;" x1="8" x2="357" y1="468.2777" y2="468.2777"/><ellipse cx="18" cy="482.0218" fill="#84BE84" rx="3" ry="3" style="stroke:#038048;stroke-width:1.0;"/><text fill="#000000" font-family="sans-serif" font-size="14" lengthAdjust="spacing" textLength="192" x="27" y="485.8128">equals(other: any) : boolean</text><ellipse cx="18" cy="498.5101" fill="#84BE84" rx="3" ry="3" style="stroke:#038048;stroke-width:1.0;"/><text fill="#000000" font-family="sans-serif" font-size="14" lengthAdjust="spacing" text-decoration="underline" textLength="325" x="27" y="502.3011">from&lt;T&gt;(this: T, value: any) : InstanceType&lt;T&gt;</text><ellipse cx="18" cy="514.9984" fill="#84BE84" rx="3" ry="3" style="stroke:#038048;stroke-width:1.0;"/><text fill="#000000" font-family="sans-serif" font-size="14" lengthAdjust="spacing" text-decoration="underline" textLength="187" x="27" y="518.7894">from(value: any) : unknown</text></g><!--class Struct--><g id="elem_Struct"><rect codeLine="28" fill="#FCF2CC" filter="url(#f1lgtcbmsrmrlb)" height="146.9297" id="Struct" style="stroke:#5A0000;stroke-width:2.0;" width="351" x="7" y="7"/><ellipse cx="157.25" cy="23" fill="#ADD1B2" rx="11" ry="11" style="stroke:#181818;stroke-width:1.0;"/><path d="M159.7231,29.1431 Q159.1421,29.4419 158.5029,29.5913 Q157.8638,29.7407 157.1582,29.7407 Q154.6514,29.7407 153.3315,28.0889 Q152.0117,26.437 152.0117,23.3159 Q152.0117,20.1865 153.3315,18.5347 Q154.6514,16.8828 157.1582,16.8828 Q157.8638,16.8828 158.5112,17.0322 Q159.1587,17.1816 159.7231,17.4805 L159.7231,20.2031 Q159.0923,19.6221 158.4988,19.3523 Q157.9053,19.0825 157.2744,19.0825 Q155.9297,19.0825 155.2449,20.1492 Q154.5601,21.2158 154.5601,23.3159 Q154.5601,25.4077 155.2449,26.4744 Q155.9297,27.541 157.2744,27.541 Q157.9053,27.541 158.4988,27.2712 Q159.0923,27.0015 159.7231,26.4204 Z " fill="#000000"/><text fill="#000000" font-family="sans-serif" font-size="14" font-weight="bold" lengthAdjust="spacing" textLength="42" x="177.75" y="28.291">Struct</text><line style="stroke:#5A0000;stroke-width:2.0;" x1="8" x2="357" y1="39" y2="39"/><ellipse cx="18" cy="52.7441" fill="none" rx="3" ry="3" style="stroke:#038048;stroke-width:1.0;"/><text fill="#000000" font-family="sans-serif" font-size="14" font-weight="bold" lengthAdjust="spacing" text-decoration="underline" textLength="55" x="27" y="56.5352">abiBase</text><text fill="#000000" font-family="sans-serif" font-size="14" lengthAdjust="spacing" text-decoration="underline" textLength="191" x="86" y="56.5352">: ABISerializableConstructor</text><ellipse cx="18" cy="69.2324" fill="none" rx="3" ry="3" style="stroke:#038048;stroke-width:1.0;"/><text fill="#000000" font-family="sans-serif" font-size="14" font-weight="bold" lengthAdjust="spacing" text-decoration="underline" textLength="65" x="27" y="73.0234">abiFields</text><text fill="#000000" font-family="sans-serif" font-size="14" lengthAdjust="spacing" text-decoration="underline" textLength="73" x="96" y="73.0234">: ABIField[]</text><ellipse cx="18" cy="85.7207" fill="none" rx="3" ry="3" style="stroke:#038048;stroke-width:1.0;"/><text fill="#000000" font-family="sans-serif" font-size="14" font-weight="bold" lengthAdjust="spacing" text-decoration="underline" textLength="63" x="27" y="89.5117">abiName</text><text fill="#000000" font-family="sans-serif" font-size="14" lengthAdjust="spacing" text-decoration="underline" textLength="48" x="94" y="89.5117">: string</text><line style="stroke:#5A0000;stroke-width:2.0;" x1="8" x2="357" y1="96.4648" y2="96.4648"/><ellipse cx="18" cy="110.209" fill="#84BE84" rx="3" ry="3" style="stroke:#038048;stroke-width:1.0;"/><text fill="#000000" font-family="sans-serif" font-size="14" lengthAdjust="spacing" textLength="192" x="27" y="114">equals(other: any) : boolean</text><ellipse cx="18" cy="126.6973" fill="#84BE84" rx="3" ry="3" style="stroke:#038048;stroke-width:1.0;"/><text fill="#000000" font-family="sans-serif" font-size="14" lengthAdjust="spacing" text-decoration="underline" textLength="325" x="27" y="130.4883">from&lt;T&gt;(this: T, value: any) : InstanceType&lt;T&gt;</text><ellipse cx="18" cy="143.1855" fill="#84BE84" rx="3" ry="3" style="stroke:#038048;stroke-width:1.0;"/><text fill="#000000" font-family="sans-serif" font-size="14" lengthAdjust="spacing" text-decoration="underline" textLength="187" x="27" y="146.9766">from(value: any) : unknown</text></g><!--reverse link Struct to Trx--><g id="link_Struct_Trx"><path codeLine="36" d="M182.5,172.35 C182.5,190.64 182.5,192.97 182.5,213.62 " fill="none" id="Struct-backto-Trx" style="stroke:#181818;stroke-width:1.0;"/><polygon fill="none" points="182.5,154.35,176.5,172.35,188.5,172.35,182.5,154.35" style="stroke:#181818;stroke-width:1.0;"/></g><!--SRC=[pPDDRzim38Rl_XL2JncseaM1NOeWG1CWG2uxBBuDWq7BT2nOfbnIMknr_UzJd8ycdOUYj-eaytrUaf9egGsrmD2eXGMHfIE_zhr5bJjR97Afpa7N6tQ1YeMpZbMfopkj_w4S5yXxuYlSndL6VD-xcP3LxRWphOok2KNKNLAP0XKshUzLQT0MSXvfq5SkXbwoh2ietDRGHdaEU2Qyxjmpa4G9oITwLrfTfTnTgQT4nVKa7hpHp-hpD9z1RkOWEBt9P-fUFSnNQsG3rlo6tEB2aSHIsZiUTIw7fb-ym_UFdwFiDsYELMBEU8Y16aJjJInqJ4Fzmn0uvDaHEhuRTZuh6J5x9rw0XmCBr9zH1LheCq5zK2aqEV99ngur3BlCurqtq6Mw3LaGs63Mo7YM7KNe3zGsJi1_GCOoowtJTHQ5jv0sRaqtJedP4FZ0A1Tz7m-EZm6iJ9ola8SR-HIHt3cBGA_UhMJNJDFPn5T6xbNwHVq26_1aMiNP0DAOzYr6RCGykJG4gibjANa-pkHwcAqFEPOVuffE5pJzStsz_uN_0W00]--></g></svg>