<?xml version="1.0" encoding="us-ascii" standalone="no"?><svg xmlns="http://www.w3.org/2000/svg" xmlns:xlink="http://www.w3.org/1999/xlink" contentStyleType="text/css" height="555px" preserveAspectRatio="none" style="width:2570px;height:555px;" version="1.1" viewBox="0 0 2570 555" width="2570px" zoomAndPan="magnify"><defs><filter height="300%" id="f1a8tqmok7eqz8" width="300%" x="-1" y="-1"><feGaussianBlur result="blurOut" stdDeviation="2.0"/><feColorMatrix in="blurOut" result="blurOut2" type="matrix" values="0 0 0 0 0 0 0 0 0 0 0 0 0 0 0 0 0 0 .4 0"/><feOffset dx="4.0" dy="4.0" in="blurOut2" result="blurOut3"/><feBlend in="SourceGraphic" in2="blurOut3" mode="normal"/></filter></defs><g><!--class Variant--><g id="elem_Variant"><rect codeLine="10" fill="#FCF2CC" filter="url(#f1a8tqmok7eqz8)" height="163.418" id="Variant" style="stroke:#5A0000;stroke-width:2.0;" width="408" x="1485" y="156.46"/><ellipse cx="1658.75" cy="172.46" fill="#ADD1B2" rx="11" ry="11" style="stroke:#181818;stroke-width:1.0;"/><path d="M1661.2231,178.6031 Q1660.6421,178.9019 1660.0029,179.0513 Q1659.3638,179.2007 1658.6582,179.2007 Q1656.1514,179.2007 1654.8315,177.5489 Q1653.5117,175.897 1653.5117,172.7759 Q1653.5117,169.6465 1654.8315,167.9947 Q1656.1514,166.3428 1658.6582,166.3428 Q1659.3638,166.3428 1660.0112,166.4922 Q1660.6587,166.6416 1661.2231,166.9405 L1661.2231,169.6631 Q1660.5923,169.0821 1659.9988,168.8123 Q1659.4053,168.5425 1658.7744,168.5425 Q1657.4297,168.5425 1656.7449,169.6092 Q1656.0601,170.6758 1656.0601,172.7759 Q1656.0601,174.8677 1656.7449,175.9344 Q1657.4297,177.001 1658.7744,177.001 Q1659.4053,177.001 1659.9988,176.7312 Q1660.5923,176.4615 1661.2231,175.8804 Z " fill="#000000"/><text fill="#000000" font-family="sans-serif" font-size="14" font-weight="bold" lengthAdjust="spacing" textLength="52" x="1679.25" y="177.751">Variant</text><line style="stroke:#5A0000;stroke-width:2.0;" x1="1486" x2="1892" y1="188.46" y2="188.46"/><ellipse cx="1496" cy="202.2041" fill="none" rx="3" ry="3" style="stroke:#038048;stroke-width:1.0;"/><text fill="#000000" font-family="sans-serif" font-size="14" font-weight="bold" lengthAdjust="spacing" text-decoration="underline" textLength="63" x="1505" y="205.9952">abiName</text><text fill="#000000" font-family="sans-serif" font-size="14" lengthAdjust="spacing" text-decoration="underline" textLength="48" x="1572" y="205.9952">: string</text><ellipse cx="1496" cy="218.6924" fill="none" rx="3" ry="3" style="stroke:#038048;stroke-width:1.0;"/><text fill="#000000" font-family="sans-serif" font-size="14" font-weight="bold" lengthAdjust="spacing" text-decoration="underline" textLength="74" x="1505" y="222.4834">abiVariant</text><text fill="#000000" font-family="sans-serif" font-size="14" lengthAdjust="spacing" text-decoration="underline" textLength="144" x="1583" y="222.4834">: ABITypeDescriptor[]</text><ellipse cx="1496" cy="235.1807" fill="none" rx="3" ry="3" style="stroke:#038048;stroke-width:1.0;"/><text fill="#000000" font-family="sans-serif" font-size="14" font-weight="bold" lengthAdjust="spacing" textLength="38" x="1505" y="238.9717">value</text><text fill="#000000" font-family="sans-serif" font-size="14" lengthAdjust="spacing" textLength="109" x="1547" y="238.9717">: ABISerializable</text><ellipse cx="1496" cy="251.669" fill="none" rx="3" ry="3" style="stroke:#038048;stroke-width:1.0;"/><text fill="#000000" font-family="sans-serif" font-size="14" font-weight="bold" lengthAdjust="spacing" textLength="72" x="1505" y="255.46">variantIdx</text><text fill="#000000" font-family="sans-serif" font-size="14" lengthAdjust="spacing" textLength="62" x="1581" y="255.46">: number</text><line style="stroke:#5A0000;stroke-width:2.0;" x1="1486" x2="1892" y1="262.4131" y2="262.4131"/><ellipse cx="1496" cy="276.1573" fill="#84BE84" rx="3" ry="3" style="stroke:#038048;stroke-width:1.0;"/><text fill="#000000" font-family="sans-serif" font-size="14" lengthAdjust="spacing" textLength="243" x="1505" y="279.9483">equals(other: AnyVariant) : boolean</text><ellipse cx="1496" cy="292.6455" fill="#84BE84" rx="3" ry="3" style="stroke:#038048;stroke-width:1.0;"/><text fill="#000000" font-family="sans-serif" font-size="14" lengthAdjust="spacing" text-decoration="underline" textLength="382" x="1505" y="296.4366">from&lt;T&gt;(this: T, object: AnyVariant) : InstanceType&lt;T&gt;</text><ellipse cx="1496" cy="309.1338" fill="#84BE84" rx="3" ry="3" style="stroke:#038048;stroke-width:1.0;"/><text fill="#000000" font-family="sans-serif" font-size="14" lengthAdjust="spacing" text-decoration="underline" textLength="244" x="1505" y="312.9248">from(object: AnyVariant) : unknown</text></g><!--class ABISerializableObject--><g id="elem_ABISerializableObject"><rect codeLine="19" fill="#FCF2CC" filter="url(#f1a8tqmok7eqz8)" height="89.4648" id="ABISerializableObject" style="stroke:#5A0000;stroke-width:2.0;" width="255" x="1561.5" y="7"/><ellipse cx="1607.75" cy="23" fill="#B4A7E5" rx="11" ry="11" style="stroke:#181818;stroke-width:1.0;"/><path d="M1604.1777,19.2651 L1604.1777,17.1069 L1611.5571,17.1069 L1611.5571,19.2651 L1609.0918,19.2651 L1609.0918,27.3418 L1611.5571,27.3418 L1611.5571,29.5 L1604.1777,29.5 L1604.1777,27.3418 L1606.6431,27.3418 L1606.6431,19.2651 Z " fill="#000000"/><text fill="#000000" font-family="sans-serif" font-size="14" font-style="italic" font-weight="bold" lengthAdjust="spacing" textLength="154" x="1628.25" y="28.291">ABISerializableObject</text><line style="stroke:#5A0000;stroke-width:2.0;" x1="1562.5" x2="1815.5" y1="39" y2="39"/><ellipse cx="1572.5" cy="52.7441" fill="#84BE84" rx="3" ry="3" style="stroke:#038048;stroke-width:1.0;"/><text fill="#000000" font-family="sans-serif" font-size="14" lengthAdjust="spacing" textLength="192" x="1581.5" y="56.5352">equals(other: any) : boolean</text><ellipse cx="1572.5" cy="69.2324" fill="#84BE84" rx="3" ry="3" style="stroke:#038048;stroke-width:1.0;"/><text fill="#000000" font-family="sans-serif" font-size="14" lengthAdjust="spacing" textLength="229" x="1581.5" y="73.0234">toABI(encoder: ABIEncoder) : void</text><ellipse cx="1572.5" cy="85.7207" fill="#84BE84" rx="3" ry="3" style="stroke:#038048;stroke-width:1.0;"/><text fill="#000000" font-family="sans-serif" font-size="14" lengthAdjust="spacing" textLength="93" x="1581.5" y="89.5117">toJSON() : any</text></g><!--class NetMessage--><g id="elem_NetMessage"><rect codeLine="25" fill="#FCF2CC" filter="url(#f1a8tqmok7eqz8)" height="163.418" id="NetMessage" style="stroke:#5A0000;stroke-width:2.0;" width="1222" x="7" y="379.88"/><ellipse cx="570.25" cy="395.88" fill="#ADD1B2" rx="11" ry="11" style="stroke:#181818;stroke-width:1.0;"/><path d="M572.7231,402.0231 Q572.1421,402.3219 571.5029,402.4713 Q570.8638,402.6207 570.1582,402.6207 Q567.6514,402.6207 566.3315,400.9689 Q565.0117,399.317 565.0117,396.1959 Q565.0117,393.0665 566.3315,391.4147 Q567.6514,389.7628 570.1582,389.7628 Q570.8638,389.7628 571.5112,389.9122 Q572.1587,390.0616 572.7231,390.3605 L572.7231,393.0831 Q572.0923,392.5021 571.4988,392.2323 Q570.9053,391.9625 570.2744,391.9625 Q568.9297,391.9625 568.2449,393.0292 Q567.5601,394.0958 567.5601,396.1959 Q567.5601,398.2877 568.2449,399.3544 Q568.9297,400.421 570.2744,400.421 Q570.9053,400.421 571.4988,400.1512 Q572.0923,399.8815 572.7231,399.3004 Z " fill="#000000"/><text fill="#000000" font-family="sans-serif" font-size="14" font-weight="bold" lengthAdjust="spacing" textLength="87" x="590.75" y="401.171">NetMessage</text><line style="stroke:#5A0000;stroke-width:2.0;" x1="8" x2="1228" y1="411.88" y2="411.88"/><ellipse cx="18" cy="425.6241" fill="none" rx="3" ry="3" style="stroke:#038048;stroke-width:1.0;"/><text fill="#000000" font-family="sans-serif" font-size="14" font-weight="bold" lengthAdjust="spacing" text-decoration="underline" textLength="63" x="27" y="429.4152">abiName</text><text fill="#000000" font-family="sans-serif" font-size="14" lengthAdjust="spacing" text-decoration="underline" textLength="48" x="94" y="429.4152">: string</text><ellipse cx="18" cy="442.1124" fill="none" rx="3" ry="3" style="stroke:#038048;stroke-width:1.0;"/><text fill="#000000" font-family="sans-serif" font-size="14" font-weight="bold" lengthAdjust="spacing" text-decoration="underline" textLength="74" x="27" y="445.9034">abiVariant</text><text fill="#000000" font-family="sans-serif" font-size="14" lengthAdjust="spacing" text-decoration="underline" textLength="144" x="105" y="445.9034">: ABITypeDescriptor[]</text><ellipse cx="18" cy="458.6007" fill="none" rx="3" ry="3" style="stroke:#038048;stroke-width:1.0;"/><text fill="#000000" font-family="sans-serif" font-size="14" font-weight="bold" lengthAdjust="spacing" textLength="38" x="27" y="462.3917">value</text><text fill="#000000" font-family="sans-serif" font-size="14" lengthAdjust="spacing" textLength="1154" x="69" y="462.3917">: PackedTransaction | HandshakeMessage | ChainSizeMessage | GoAwayMessage | TimeMessage | NoticeMessage | RequestMessage | SyncRequestMessage | SignedBlock</text><ellipse cx="18" cy="475.089" fill="none" rx="3" ry="3" style="stroke:#038048;stroke-width:1.0;"/><text fill="#000000" font-family="sans-serif" font-size="14" font-weight="bold" lengthAdjust="spacing" textLength="72" x="27" y="478.88">variantIdx</text><text fill="#000000" font-family="sans-serif" font-size="14" lengthAdjust="spacing" textLength="62" x="103" y="478.88">: number</text><line style="stroke:#5A0000;stroke-width:2.0;" x1="8" x2="1228" y1="485.8331" y2="485.8331"/><ellipse cx="18" cy="499.5773" fill="#84BE84" rx="3" ry="3" style="stroke:#038048;stroke-width:1.0;"/><text fill="#000000" font-family="sans-serif" font-size="14" lengthAdjust="spacing" textLength="243" x="27" y="503.3683">equals(other: AnyVariant) : boolean</text><ellipse cx="18" cy="516.0655" fill="#84BE84" rx="3" ry="3" style="stroke:#038048;stroke-width:1.0;"/><text fill="#000000" font-family="sans-serif" font-size="14" lengthAdjust="spacing" text-decoration="underline" textLength="382" x="27" y="519.8566">from&lt;T&gt;(this: T, object: AnyVariant) : InstanceType&lt;T&gt;</text><ellipse cx="18" cy="532.5538" fill="#84BE84" rx="3" ry="3" style="stroke:#038048;stroke-width:1.0;"/><text fill="#000000" font-family="sans-serif" font-size="14" lengthAdjust="spacing" text-decoration="underline" textLength="244" x="27" y="536.3448">from(object: AnyVariant) : unknown</text></g><!--class RequestVariantV2--><g id="elem_RequestVariantV2"><rect codeLine="35" fill="#FCF2CC" filter="url(#f1a8tqmok7eqz8)" height="163.418" id="RequestVariantV2" style="stroke:#5A0000;stroke-width:2.0;" width="408" x="1264" y="379.88"/><ellipse cx="1399.25" cy="395.88" fill="#ADD1B2" rx="11" ry="11" style="stroke:#181818;stroke-width:1.0;"/><path d="M1401.7231,402.0231 Q1401.1421,402.3219 1400.5029,402.4713 Q1399.8638,402.6207 1399.1582,402.6207 Q1396.6514,402.6207 1395.3315,400.9689 Q1394.0117,399.317 1394.0117,396.1959 Q1394.0117,393.0665 1395.3315,391.4147 Q1396.6514,389.7628 1399.1582,389.7628 Q1399.8638,389.7628 1400.5112,389.9122 Q1401.1587,390.0616 1401.7231,390.3605 L1401.7231,393.0831 Q1401.0923,392.5021 1400.4988,392.2323 Q1399.9053,391.9625 1399.2744,391.9625 Q1397.9297,391.9625 1397.2449,393.0292 Q1396.5601,394.0958 1396.5601,396.1959 Q1396.5601,398.2877 1397.2449,399.3544 Q1397.9297,400.421 1399.2744,400.421 Q1399.9053,400.421 1400.4988,400.1512 Q1401.0923,399.8815 1401.7231,399.3004 Z " fill="#000000"/><text fill="#000000" font-family="sans-serif" font-size="14" font-weight="bold" lengthAdjust="spacing" textLength="129" x="1419.75" y="401.171">RequestVariantV2</text><line style="stroke:#5A0000;stroke-width:2.0;" x1="1265" x2="1671" y1="411.88" y2="411.88"/><ellipse cx="1275" cy="425.6241" fill="none" rx="3" ry="3" style="stroke:#038048;stroke-width:1.0;"/><text fill="#000000" font-family="sans-serif" font-size="14" font-weight="bold" lengthAdjust="spacing" text-decoration="underline" textLength="63" x="1284" y="429.4152">abiName</text><text fill="#000000" font-family="sans-serif" font-size="14" lengthAdjust="spacing" text-decoration="underline" textLength="48" x="1351" y="429.4152">: string</text><ellipse cx="1275" cy="442.1124" fill="none" rx="3" ry="3" style="stroke:#038048;stroke-width:1.0;"/><text fill="#000000" font-family="sans-serif" font-size="14" font-weight="bold" lengthAdjust="spacing" text-decoration="underline" textLength="74" x="1284" y="445.9034">abiVariant</text><text fill="#000000" font-family="sans-serif" font-size="14" lengthAdjust="spacing" text-decoration="underline" textLength="144" x="1362" y="445.9034">: ABITypeDescriptor[]</text><ellipse cx="1275" cy="458.6007" fill="none" rx="3" ry="3" style="stroke:#038048;stroke-width:1.0;"/><text fill="#000000" font-family="sans-serif" font-size="14" font-weight="bold" lengthAdjust="spacing" textLength="38" x="1284" y="462.3917">value</text><text fill="#000000" font-family="sans-serif" font-size="14" lengthAdjust="spacing" textLength="295" x="1326" y="462.3917">: Action | Transaction | Action[] | IdentityV2</text><ellipse cx="1275" cy="475.089" fill="none" rx="3" ry="3" style="stroke:#038048;stroke-width:1.0;"/><text fill="#000000" font-family="sans-serif" font-size="14" font-weight="bold" lengthAdjust="spacing" textLength="72" x="1284" y="478.88">variantIdx</text><text fill="#000000" font-family="sans-serif" font-size="14" lengthAdjust="spacing" textLength="62" x="1360" y="478.88">: number</text><line style="stroke:#5A0000;stroke-width:2.0;" x1="1265" x2="1671" y1="485.8331" y2="485.8331"/><ellipse cx="1275" cy="499.5773" fill="#84BE84" rx="3" ry="3" style="stroke:#038048;stroke-width:1.0;"/><text fill="#000000" font-family="sans-serif" font-size="14" lengthAdjust="spacing" textLength="243" x="1284" y="503.3683">equals(other: AnyVariant) : boolean</text><ellipse cx="1275" cy="516.0655" fill="#84BE84" rx="3" ry="3" style="stroke:#038048;stroke-width:1.0;"/><text fill="#000000" font-family="sans-serif" font-size="14" lengthAdjust="spacing" text-decoration="underline" textLength="382" x="1284" y="519.8566">from&lt;T&gt;(this: T, object: AnyVariant) : InstanceType&lt;T&gt;</text><ellipse cx="1275" cy="532.5538" fill="#84BE84" rx="3" ry="3" style="stroke:#038048;stroke-width:1.0;"/><text fill="#000000" font-family="sans-serif" font-size="14" lengthAdjust="spacing" text-decoration="underline" textLength="244" x="1284" y="536.3448">from(object: AnyVariant) : unknown</text></g><!--class RequestVariantV3--><g id="elem_RequestVariantV3"><rect codeLine="45" fill="#FCF2CC" filter="url(#f1a8tqmok7eqz8)" height="163.418" id="RequestVariantV3" style="stroke:#5A0000;stroke-width:2.0;" width="408" x="1707" y="379.88"/><ellipse cx="1842.25" cy="395.88" fill="#ADD1B2" rx="11" ry="11" style="stroke:#181818;stroke-width:1.0;"/><path d="M1844.7231,402.0231 Q1844.1421,402.3219 1843.5029,402.4713 Q1842.8638,402.6207 1842.1582,402.6207 Q1839.6514,402.6207 1838.3315,400.9689 Q1837.0117,399.317 1837.0117,396.1959 Q1837.0117,393.0665 1838.3315,391.4147 Q1839.6514,389.7628 1842.1582,389.7628 Q1842.8638,389.7628 1843.5112,389.9122 Q1844.1587,390.0616 1844.7231,390.3605 L1844.7231,393.0831 Q1844.0923,392.5021 1843.4988,392.2323 Q1842.9053,391.9625 1842.2744,391.9625 Q1840.9297,391.9625 1840.2449,393.0292 Q1839.5601,394.0958 1839.5601,396.1959 Q1839.5601,398.2877 1840.2449,399.3544 Q1840.9297,400.421 1842.2744,400.421 Q1842.9053,400.421 1843.4988,400.1512 Q1844.0923,399.8815 1844.7231,399.3004 Z " fill="#000000"/><text fill="#000000" font-family="sans-serif" font-size="14" font-weight="bold" lengthAdjust="spacing" textLength="129" x="1862.75" y="401.171">RequestVariantV3</text><line style="stroke:#5A0000;stroke-width:2.0;" x1="1708" x2="2114" y1="411.88" y2="411.88"/><ellipse cx="1718" cy="425.6241" fill="none" rx="3" ry="3" style="stroke:#038048;stroke-width:1.0;"/><text fill="#000000" font-family="sans-serif" font-size="14" font-weight="bold" lengthAdjust="spacing" text-decoration="underline" textLength="63" x="1727" y="429.4152">abiName</text><text fill="#000000" font-family="sans-serif" font-size="14" lengthAdjust="spacing" text-decoration="underline" textLength="48" x="1794" y="429.4152">: string</text><ellipse cx="1718" cy="442.1124" fill="none" rx="3" ry="3" style="stroke:#038048;stroke-width:1.0;"/><text fill="#000000" font-family="sans-serif" font-size="14" font-weight="bold" lengthAdjust="spacing" text-decoration="underline" textLength="74" x="1727" y="445.9034">abiVariant</text><text fill="#000000" font-family="sans-serif" font-size="14" lengthAdjust="spacing" text-decoration="underline" textLength="144" x="1805" y="445.9034">: ABITypeDescriptor[]</text><ellipse cx="1718" cy="458.6007" fill="none" rx="3" ry="3" style="stroke:#038048;stroke-width:1.0;"/><text fill="#000000" font-family="sans-serif" font-size="14" font-weight="bold" lengthAdjust="spacing" textLength="38" x="1727" y="462.3917">value</text><text fill="#000000" font-family="sans-serif" font-size="14" lengthAdjust="spacing" textLength="295" x="1769" y="462.3917">: Action | Transaction | Action[] | IdentityV3</text><ellipse cx="1718" cy="475.089" fill="none" rx="3" ry="3" style="stroke:#038048;stroke-width:1.0;"/><text fill="#000000" font-family="sans-serif" font-size="14" font-weight="bold" lengthAdjust="spacing" textLength="72" x="1727" y="478.88">variantIdx</text><text fill="#000000" font-family="sans-serif" font-size="14" lengthAdjust="spacing" textLength="62" x="1803" y="478.88">: number</text><line style="stroke:#5A0000;stroke-width:2.0;" x1="1708" x2="2114" y1="485.8331" y2="485.8331"/><ellipse cx="1718" cy="499.5773" fill="#84BE84" rx="3" ry="3" style="stroke:#038048;stroke-width:1.0;"/><text fill="#000000" font-family="sans-serif" font-size="14" lengthAdjust="spacing" textLength="243" x="1727" y="503.3683">equals(other: AnyVariant) : boolean</text><ellipse cx="1718" cy="516.0655" fill="#84BE84" rx="3" ry="3" style="stroke:#038048;stroke-width:1.0;"/><text fill="#000000" font-family="sans-serif" font-size="14" lengthAdjust="spacing" text-decoration="underline" textLength="382" x="1727" y="519.8566">from&lt;T&gt;(this: T, object: AnyVariant) : InstanceType&lt;T&gt;</text><ellipse cx="1718" cy="532.5538" fill="#84BE84" rx="3" ry="3" style="stroke:#038048;stroke-width:1.0;"/><text fill="#000000" font-family="sans-serif" font-size="14" lengthAdjust="spacing" text-decoration="underline" textLength="244" x="1727" y="536.3448">from(object: AnyVariant) : unknown</text></g><!--class ChainIdVariant--><g id="elem_ChainIdVariant"><rect codeLine="55" fill="#FCF2CC" filter="url(#f1a8tqmok7eqz8)" height="163.418" id="ChainIdVariant" style="stroke:#5A0000;stroke-width:2.0;" width="408" x="2150" y="379.88"/><ellipse cx="2296.25" cy="395.88" fill="#ADD1B2" rx="11" ry="11" style="stroke:#181818;stroke-width:1.0;"/><path d="M2298.7231,402.0231 Q2298.1421,402.3219 2297.5029,402.4713 Q2296.8638,402.6207 2296.1582,402.6207 Q2293.6514,402.6207 2292.3315,400.9689 Q2291.0117,399.317 2291.0117,396.1959 Q2291.0117,393.0665 2292.3315,391.4147 Q2293.6514,389.7628 2296.1582,389.7628 Q2296.8638,389.7628 2297.5112,389.9122 Q2298.1587,390.0616 2298.7231,390.3605 L2298.7231,393.0831 Q2298.0923,392.5021 2297.4988,392.2323 Q2296.9053,391.9625 2296.2744,391.9625 Q2294.9297,391.9625 2294.2449,393.0292 Q2293.5601,394.0958 2293.5601,396.1959 Q2293.5601,398.2877 2294.2449,399.3544 Q2294.9297,400.421 2296.2744,400.421 Q2296.9053,400.421 2297.4988,400.1512 Q2298.0923,399.8815 2298.7231,399.3004 Z " fill="#000000"/><text fill="#000000" font-family="sans-serif" font-size="14" font-weight="bold" lengthAdjust="spacing" textLength="107" x="2316.75" y="401.171">ChainIdVariant</text><line style="stroke:#5A0000;stroke-width:2.0;" x1="2151" x2="2557" y1="411.88" y2="411.88"/><ellipse cx="2161" cy="425.6241" fill="none" rx="3" ry="3" style="stroke:#038048;stroke-width:1.0;"/><text fill="#000000" font-family="sans-serif" font-size="14" font-weight="bold" lengthAdjust="spacing" text-decoration="underline" textLength="63" x="2170" y="429.4152">abiName</text><text fill="#000000" font-family="sans-serif" font-size="14" lengthAdjust="spacing" text-decoration="underline" textLength="48" x="2237" y="429.4152">: string</text><ellipse cx="2161" cy="442.1124" fill="none" rx="3" ry="3" style="stroke:#038048;stroke-width:1.0;"/><text fill="#000000" font-family="sans-serif" font-size="14" font-weight="bold" lengthAdjust="spacing" text-decoration="underline" textLength="74" x="2170" y="445.9034">abiVariant</text><text fill="#000000" font-family="sans-serif" font-size="14" lengthAdjust="spacing" text-decoration="underline" textLength="144" x="2248" y="445.9034">: ABITypeDescriptor[]</text><ellipse cx="2161" cy="458.6007" fill="none" rx="3" ry="3" style="stroke:#038048;stroke-width:1.0;"/><text fill="#000000" font-family="sans-serif" font-size="14" font-weight="bold" lengthAdjust="spacing" textLength="38" x="2170" y="462.3917">value</text><text fill="#000000" font-family="sans-serif" font-size="14" lengthAdjust="spacing" textLength="147" x="2212" y="462.3917">: ChainId | ChainAlias</text><ellipse cx="2161" cy="475.089" fill="none" rx="3" ry="3" style="stroke:#038048;stroke-width:1.0;"/><text fill="#000000" font-family="sans-serif" font-size="14" font-weight="bold" lengthAdjust="spacing" textLength="72" x="2170" y="478.88">variantIdx</text><text fill="#000000" font-family="sans-serif" font-size="14" lengthAdjust="spacing" textLength="62" x="2246" y="478.88">: number</text><line style="stroke:#5A0000;stroke-width:2.0;" x1="2151" x2="2557" y1="485.8331" y2="485.8331"/><ellipse cx="2161" cy="499.5773" fill="#84BE84" rx="3" ry="3" style="stroke:#038048;stroke-width:1.0;"/><text fill="#000000" font-family="sans-serif" font-size="14" lengthAdjust="spacing" textLength="243" x="2170" y="503.3683">equals(other: AnyVariant) : boolean</text><ellipse cx="2161" cy="516.0655" fill="#84BE84" rx="3" ry="3" style="stroke:#038048;stroke-width:1.0;"/><text fill="#000000" font-family="sans-serif" font-size="14" lengthAdjust="spacing" text-decoration="underline" textLength="382" x="2170" y="519.8566">from&lt;T&gt;(this: T, object: AnyVariant) : InstanceType&lt;T&gt;</text><ellipse cx="2161" cy="532.5538" fill="#84BE84" rx="3" ry="3" style="stroke:#038048;stroke-width:1.0;"/><text fill="#000000" font-family="sans-serif" font-size="14" lengthAdjust="spacing" text-decoration="underline" textLength="244" x="2170" y="536.3448">from(object: AnyVariant) : unknown</text></g><!--reverse link ABISerializableObject to Variant--><g id="link_ABISerializableObject_Variant"><path codeLine="24" d="M1689,114.91 C1689,132.71 1689,135.82 1689,156.19 " fill="none" id="ABISerializableObject-backto-Variant" style="stroke:#181818;stroke-width:1.0;stroke-dasharray:7.0,7.0;"/><polygon fill="none" points="1689,96.91,1683,114.91,1695,114.91,1689,96.91" style="stroke:#181818;stroke-width:1.0;"/></g><!--reverse link Variant to NetMessage--><g id="link_Variant_NetMessage"><path codeLine="34" d="M1467.0927,285.054 C1333.2427,312.724 1171.55,346.15 1010.76,379.39 " fill="none" id="Variant-backto-NetMessage" style="stroke:#181818;stroke-width:1.0;"/><polygon fill="none" points="1484.72,281.41,1465.878,279.1782,1468.3074,290.9297,1484.72,281.41" style="stroke:#181818;stroke-width:1.0;"/></g><!--reverse link Variant to RequestVariantV2--><g id="link_Variant_RequestVariantV2"><path codeLine="44" d="M1595.2486,333.1045 C1576.0386,352.3645 1568.24,360.16 1549.03,379.41 " fill="none" id="Variant-backto-RequestVariantV2" style="stroke:#181818;stroke-width:1.0;"/><polygon fill="none" points="1607.96,320.36,1591.0005,328.8673,1599.4968,337.3416,1607.96,320.36" style="stroke:#181818;stroke-width:1.0;"/></g><!--reverse link Variant to RequestVariantV3--><g id="link_Variant_RequestVariantV3"><path codeLine="54" d="M1783.1444,333.0714 C1802.4544,352.3314 1810.3,360.16 1829.61,379.41 " fill="none" id="Variant-backto-RequestVariantV3" style="stroke:#181818;stroke-width:1.0;"/><polygon fill="none" points="1770.4,320.36,1778.9073,337.3195,1787.3815,328.8233,1770.4,320.36" style="stroke:#181818;stroke-width:1.0;"/></g><!--reverse link Variant to ChainIdVariant--><g id="link_Variant_ChainIdVariant"><path codeLine="64" d="M1910.413,307.2633 C1985.973,330.9933 2055.03,353.3 2133,379.88 C2138.51,381.76 2144.09,383.68 2149.72,385.63 " fill="none" id="Variant-backto-ChainIdVariant" style="stroke:#181818;stroke-width:1.0;"/><polygon fill="none" points="1893.24,301.87,1908.6153,312.9876,1912.2108,301.5389,1893.24,301.87" style="stroke:#181818;stroke-width:1.0;"/></g><!--SRC=[tLLDSzem4BtpApISwAH9Cp2zP1XcW7wvCoMTsCCbayDQMh1gUqKbETG9-U-HmQwD8MTQT99st-u-wQtN9fQq0WqfcoPWp1T5rhTvWYnKYUYOVUy4UBpKAYCnLOdIRC4NVSuFK4eBr3l4HxXsgu6usqLhGiskZqS6aUGneJ6itucaG8RfokPi8J4Hfcb9qKRAcUeiVWH2hIKjcTKPDXnjvbO36UT2iXrUb6RTEMW9PBlikSFSUZOMhEGlx68OZY2KCqXn-24SiHjch7ObZgBA92LmFF62V8MVq70jLrRf-uTjL05-X2J36kUZ2qpa4uG9DZ3RR9xuKm8fIqFKEp_-pY0nFMKZr2u5vMNjTmuNAfKWK8lYGgjq68nwDfBcXWNlcGf_8RVjO8zS174ig3luaIIzuu4PnQJMr7dfIBAe5y2HTLjtkzr6Le_SkWHGtcP_OPNBq4FYIcplEV4-x_O5yb59KS6- -xUpNc5qMHo5jmeFDrTNjTYL-3EqFrp7mH9FeVzFrvqeWg8dWLkfY6tODo1X8eYnvELCqmWa-VAfOVggncl8wtCWquPtfXotnldEFJSQMnlydFYXKIu9nIHHFFx_Ex7-h8URoyizeIljomSeWVF-IIP09Vj-4-pCzmzkwmatgwJDv_tp4-L0WJUa6VpZqWpENfh1NscsmyWJ9_nhbWogmJXE99Zp4w3rpgy0]--></g></svg>