<?xml version="1.0" encoding="us-ascii" standalone="no"?><svg xmlns="http://www.w3.org/2000/svg" xmlns:xlink="http://www.w3.org/1999/xlink" contentStyleType="text/css" height="768px" preserveAspectRatio="none" style="width:370px;height:768px;" version="1.1" viewBox="0 0 370 768" width="370px" zoomAndPan="magnify"><defs><filter height="300%" id="f1v7auoch3km12" width="300%" x="-1" y="-1"><feGaussianBlur result="blurOut" stdDeviation="2.0"/><feColorMatrix in="blurOut" result="blurOut2" type="matrix" values="0 0 0 0 0 0 0 0 0 0 0 0 0 0 0 0 0 0 .4 0"/><feOffset dx="4.0" dy="4.0" in="blurOut2" result="blurOut3"/><feBlend in="SourceGraphic" in2="blurOut3" mode="normal"/></filter></defs><g><!--class WAXAccountVoterInfo--><g id="elem_WAXAccountVoterInfo"><rect codeLine="10" fill="#FCF2CC" filter="url(#f1v7auoch3km12)" height="377.7656" id="WAXAccountVoterInfo" style="stroke:#5A0000;stroke-width:2.0;" width="351" x="7" y="378.81"/><ellipse cx="99.75" cy="394.81" fill="#ADD1B2" rx="11" ry="11" style="stroke:#181818;stroke-width:1.0;"/><path d="M102.2231,400.9531 Q101.6421,401.2519 101.0029,401.4013 Q100.3638,401.5507 99.6582,401.5507 Q97.1514,401.5507 95.8315,399.8989 Q94.5117,398.247 94.5117,395.1259 Q94.5117,391.9965 95.8315,390.3447 Q97.1514,388.6928 99.6582,388.6928 Q100.3638,388.6928 101.0112,388.8422 Q101.6587,388.9916 102.2231,389.2905 L102.2231,392.0131 Q101.5923,391.4321 100.9988,391.1623 Q100.4053,390.8925 99.7744,390.8925 Q98.4297,390.8925 97.7449,391.9592 Q97.0601,393.0258 97.0601,395.1259 Q97.0601,397.2177 97.7449,398.2844 Q98.4297,399.351 99.7744,399.351 Q100.4053,399.351 100.9988,399.0812 Q101.5923,398.8115 102.2231,398.2304 Z " fill="#000000"/><text fill="#000000" font-family="sans-serif" font-size="14" font-weight="bold" lengthAdjust="spacing" textLength="157" x="120.25" y="400.101">WAXAccountVoterInfo</text><line style="stroke:#5A0000;stroke-width:2.0;" x1="8" x2="357" y1="410.81" y2="410.81"/><ellipse cx="18" cy="424.5541" fill="none" rx="3" ry="3" style="stroke:#038048;stroke-width:1.0;"/><text fill="#000000" font-family="sans-serif" font-size="14" font-weight="bold" lengthAdjust="spacing" text-decoration="underline" textLength="55" x="27" y="428.3452">abiBase</text><text fill="#000000" font-family="sans-serif" font-size="14" lengthAdjust="spacing" text-decoration="underline" textLength="191" x="86" y="428.3452">: ABISerializableConstructor</text><ellipse cx="18" cy="441.0424" fill="none" rx="3" ry="3" style="stroke:#038048;stroke-width:1.0;"/><text fill="#000000" font-family="sans-serif" font-size="14" font-weight="bold" lengthAdjust="spacing" text-decoration="underline" textLength="65" x="27" y="444.8334">abiFields</text><text fill="#000000" font-family="sans-serif" font-size="14" lengthAdjust="spacing" text-decoration="underline" textLength="73" x="96" y="444.8334">: ABIField[]</text><ellipse cx="18" cy="457.5307" fill="none" rx="3" ry="3" style="stroke:#038048;stroke-width:1.0;"/><text fill="#000000" font-family="sans-serif" font-size="14" font-weight="bold" lengthAdjust="spacing" text-decoration="underline" textLength="63" x="27" y="461.3217">abiName</text><text fill="#000000" font-family="sans-serif" font-size="14" lengthAdjust="spacing" text-decoration="underline" textLength="48" x="94" y="461.3217">: string</text><ellipse cx="18" cy="474.019" fill="none" rx="3" ry="3" style="stroke:#038048;stroke-width:1.0;"/><text fill="#000000" font-family="sans-serif" font-size="14" font-weight="bold" lengthAdjust="spacing" textLength="45" x="27" y="477.81">flags1</text><text fill="#000000" font-family="sans-serif" font-size="14" lengthAdjust="spacing" textLength="54" x="76" y="477.81">: UInt32</text><ellipse cx="18" cy="490.5073" fill="none" rx="3" ry="3" style="stroke:#038048;stroke-width:1.0;"/><text fill="#000000" font-family="sans-serif" font-size="14" font-weight="bold" lengthAdjust="spacing" textLength="60" x="27" y="494.2983">is_proxy</text><text fill="#000000" font-family="sans-serif" font-size="14" lengthAdjust="spacing" textLength="64" x="91" y="494.2983">: boolean</text><ellipse cx="18" cy="506.9955" fill="none" rx="3" ry="3" style="stroke:#038048;stroke-width:1.0;"/><text fill="#000000" font-family="sans-serif" font-size="14" font-weight="bold" lengthAdjust="spacing" textLength="113" x="27" y="510.7866">last_claim_time</text><text fill="#000000" font-family="sans-serif" font-size="14" lengthAdjust="spacing" textLength="77" x="144" y="510.7866">: TimePoint</text><ellipse cx="18" cy="523.4838" fill="none" rx="3" ry="3" style="stroke:#038048;stroke-width:1.0;"/><text fill="#000000" font-family="sans-serif" font-size="14" font-weight="bold" lengthAdjust="spacing" textLength="121" x="27" y="527.2748">last_vote_weight</text><text fill="#000000" font-family="sans-serif" font-size="14" lengthAdjust="spacing" textLength="60" x="152" y="527.2748">: Float64</text><ellipse cx="18" cy="539.9721" fill="none" rx="3" ry="3" style="stroke:#038048;stroke-width:1.0;"/><text fill="#000000" font-family="sans-serif" font-size="14" font-weight="bold" lengthAdjust="spacing" textLength="44" x="27" y="543.7631">owner</text><text fill="#000000" font-family="sans-serif" font-size="14" lengthAdjust="spacing" textLength="47" x="75" y="543.7631">: Name</text><ellipse cx="18" cy="556.4604" fill="none" rx="3" ry="3" style="stroke:#038048;stroke-width:1.0;"/><text fill="#000000" font-family="sans-serif" font-size="14" font-weight="bold" lengthAdjust="spacing" textLength="71" x="27" y="560.2514">producers</text><text fill="#000000" font-family="sans-serif" font-size="14" lengthAdjust="spacing" textLength="57" x="102" y="560.2514">: Name[]</text><ellipse cx="18" cy="572.9487" fill="none" rx="3" ry="3" style="stroke:#038048;stroke-width:1.0;"/><text fill="#000000" font-family="sans-serif" font-size="14" font-weight="bold" lengthAdjust="spacing" textLength="148" x="27" y="576.7397">proxied_vote_weight</text><text fill="#000000" font-family="sans-serif" font-size="14" lengthAdjust="spacing" textLength="60" x="179" y="576.7397">: Float64</text><ellipse cx="18" cy="589.437" fill="none" rx="3" ry="3" style="stroke:#038048;stroke-width:1.0;"/><text fill="#000000" font-family="sans-serif" font-size="14" font-weight="bold" lengthAdjust="spacing" textLength="40" x="27" y="593.228">proxy</text><text fill="#000000" font-family="sans-serif" font-size="14" lengthAdjust="spacing" textLength="47" x="71" y="593.228">: Name</text><ellipse cx="18" cy="605.9252" fill="none" rx="3" ry="3" style="stroke:#038048;stroke-width:1.0;"/><text fill="#000000" font-family="sans-serif" font-size="14" font-weight="bold" lengthAdjust="spacing" textLength="70" x="27" y="609.7163">reserved2</text><text fill="#000000" font-family="sans-serif" font-size="14" lengthAdjust="spacing" textLength="54" x="101" y="609.7163">: UInt32</text><ellipse cx="18" cy="622.4135" fill="none" rx="3" ry="3" style="stroke:#038048;stroke-width:1.0;"/><text fill="#000000" font-family="sans-serif" font-size="14" font-weight="bold" lengthAdjust="spacing" textLength="70" x="27" y="626.2045">reserved3</text><text fill="#000000" font-family="sans-serif" font-size="14" lengthAdjust="spacing" textLength="48" x="101" y="626.2045">: string</text><ellipse cx="18" cy="638.9018" fill="none" rx="3" ry="3" style="stroke:#038048;stroke-width:1.0;"/><text fill="#000000" font-family="sans-serif" font-size="14" font-weight="bold" lengthAdjust="spacing" textLength="48" x="27" y="642.6928">staked</text><text fill="#000000" font-family="sans-serif" font-size="14" lengthAdjust="spacing" textLength="44" x="79" y="642.6928">: Int64</text><ellipse cx="18" cy="655.3901" fill="none" rx="3" ry="3" style="stroke:#038048;stroke-width:1.0;"/><text fill="#000000" font-family="sans-serif" font-size="14" font-weight="bold" lengthAdjust="spacing" textLength="126" x="27" y="659.1811">unpaid_voteshare</text><text fill="#000000" font-family="sans-serif" font-size="14" lengthAdjust="spacing" textLength="60" x="157" y="659.1811">: Float64</text><ellipse cx="18" cy="671.8784" fill="none" rx="3" ry="3" style="stroke:#038048;stroke-width:1.0;"/><text fill="#000000" font-family="sans-serif" font-size="14" font-weight="bold" lengthAdjust="spacing" textLength="218" x="27" y="675.6694">unpaid_voteshare_change_rate</text><text fill="#000000" font-family="sans-serif" font-size="14" lengthAdjust="spacing" textLength="60" x="249" y="675.6694">: Float64</text><ellipse cx="18" cy="688.3666" fill="none" rx="3" ry="3" style="stroke:#038048;stroke-width:1.0;"/><text fill="#000000" font-family="sans-serif" font-size="14" font-weight="bold" lengthAdjust="spacing" textLength="225" x="27" y="692.1577">unpaid_voteshare_last_updated</text><text fill="#000000" font-family="sans-serif" font-size="14" lengthAdjust="spacing" textLength="77" x="256" y="692.1577">: TimePoint</text><line style="stroke:#5A0000;stroke-width:2.0;" x1="8" x2="357" y1="699.1108" y2="699.1108"/><ellipse cx="18" cy="712.8549" fill="#84BE84" rx="3" ry="3" style="stroke:#038048;stroke-width:1.0;"/><text fill="#000000" font-family="sans-serif" font-size="14" lengthAdjust="spacing" textLength="192" x="27" y="716.6459">equals(other: any) : boolean</text><ellipse cx="18" cy="729.3432" fill="#84BE84" rx="3" ry="3" style="stroke:#038048;stroke-width:1.0;"/><text fill="#000000" font-family="sans-serif" font-size="14" lengthAdjust="spacing" text-decoration="underline" textLength="325" x="27" y="733.1342">from&lt;T&gt;(this: T, value: any) : InstanceType&lt;T&gt;</text><ellipse cx="18" cy="745.8315" fill="#84BE84" rx="3" ry="3" style="stroke:#038048;stroke-width:1.0;"/><text fill="#000000" font-family="sans-serif" font-size="14" lengthAdjust="spacing" text-decoration="underline" textLength="187" x="27" y="749.6225">from(value: any) : unknown</text></g><!--class AccountVoterInfo--><g id="elem_AccountVoterInfo"><rect codeLine="32" fill="#FCF2CC" filter="url(#f1v7auoch3km12)" height="311.8125" id="AccountVoterInfo" style="stroke:#5A0000;stroke-width:2.0;" width="351" x="7" y="7"/><ellipse cx="115.75" cy="23" fill="#ADD1B2" rx="11" ry="11" style="stroke:#181818;stroke-width:1.0;"/><path d="M118.2231,29.1431 Q117.6421,29.4419 117.0029,29.5913 Q116.3638,29.7407 115.6582,29.7407 Q113.1514,29.7407 111.8315,28.0889 Q110.5117,26.437 110.5117,23.3159 Q110.5117,20.1865 111.8315,18.5347 Q113.1514,16.8828 115.6582,16.8828 Q116.3638,16.8828 117.0112,17.0322 Q117.6587,17.1816 118.2231,17.4805 L118.2231,20.2031 Q117.5923,19.6221 116.9988,19.3523 Q116.4053,19.0825 115.7744,19.0825 Q114.4297,19.0825 113.7449,20.1492 Q113.0601,21.2158 113.0601,23.3159 Q113.0601,25.4077 113.7449,26.4744 Q114.4297,27.541 115.7744,27.541 Q116.4053,27.541 116.9988,27.2712 Q117.5923,27.0015 118.2231,26.4204 Z " fill="#000000"/><text fill="#000000" font-family="sans-serif" font-size="14" font-weight="bold" lengthAdjust="spacing" textLength="125" x="136.25" y="28.291">AccountVoterInfo</text><line style="stroke:#5A0000;stroke-width:2.0;" x1="8" x2="357" y1="39" y2="39"/><ellipse cx="18" cy="52.7441" fill="none" rx="3" ry="3" style="stroke:#038048;stroke-width:1.0;"/><text fill="#000000" font-family="sans-serif" font-size="14" font-weight="bold" lengthAdjust="spacing" text-decoration="underline" textLength="55" x="27" y="56.5352">abiBase</text><text fill="#000000" font-family="sans-serif" font-size="14" lengthAdjust="spacing" text-decoration="underline" textLength="191" x="86" y="56.5352">: ABISerializableConstructor</text><ellipse cx="18" cy="69.2324" fill="none" rx="3" ry="3" style="stroke:#038048;stroke-width:1.0;"/><text fill="#000000" font-family="sans-serif" font-size="14" font-weight="bold" lengthAdjust="spacing" text-decoration="underline" textLength="65" x="27" y="73.0234">abiFields</text><text fill="#000000" font-family="sans-serif" font-size="14" lengthAdjust="spacing" text-decoration="underline" textLength="73" x="96" y="73.0234">: ABIField[]</text><ellipse cx="18" cy="85.7207" fill="none" rx="3" ry="3" style="stroke:#038048;stroke-width:1.0;"/><text fill="#000000" font-family="sans-serif" font-size="14" font-weight="bold" lengthAdjust="spacing" text-decoration="underline" textLength="63" x="27" y="89.5117">abiName</text><text fill="#000000" font-family="sans-serif" font-size="14" lengthAdjust="spacing" text-decoration="underline" textLength="48" x="94" y="89.5117">: string</text><ellipse cx="18" cy="102.209" fill="none" rx="3" ry="3" style="stroke:#038048;stroke-width:1.0;"/><text fill="#000000" font-family="sans-serif" font-size="14" font-weight="bold" lengthAdjust="spacing" textLength="45" x="27" y="106">flags1</text><text fill="#000000" font-family="sans-serif" font-size="14" lengthAdjust="spacing" textLength="54" x="76" y="106">: UInt32</text><ellipse cx="18" cy="118.6973" fill="none" rx="3" ry="3" style="stroke:#038048;stroke-width:1.0;"/><text fill="#000000" font-family="sans-serif" font-size="14" font-weight="bold" lengthAdjust="spacing" textLength="60" x="27" y="122.4883">is_proxy</text><text fill="#000000" font-family="sans-serif" font-size="14" lengthAdjust="spacing" textLength="64" x="91" y="122.4883">: boolean</text><ellipse cx="18" cy="135.1855" fill="none" rx="3" ry="3" style="stroke:#038048;stroke-width:1.0;"/><text fill="#000000" font-family="sans-serif" font-size="14" font-weight="bold" lengthAdjust="spacing" textLength="121" x="27" y="138.9766">last_vote_weight</text><text fill="#000000" font-family="sans-serif" font-size="14" lengthAdjust="spacing" textLength="60" x="152" y="138.9766">: Float64</text><ellipse cx="18" cy="151.6738" fill="none" rx="3" ry="3" style="stroke:#038048;stroke-width:1.0;"/><text fill="#000000" font-family="sans-serif" font-size="14" font-weight="bold" lengthAdjust="spacing" textLength="44" x="27" y="155.4648">owner</text><text fill="#000000" font-family="sans-serif" font-size="14" lengthAdjust="spacing" textLength="47" x="75" y="155.4648">: Name</text><ellipse cx="18" cy="168.1621" fill="none" rx="3" ry="3" style="stroke:#038048;stroke-width:1.0;"/><text fill="#000000" font-family="sans-serif" font-size="14" font-weight="bold" lengthAdjust="spacing" textLength="71" x="27" y="171.9531">producers</text><text fill="#000000" font-family="sans-serif" font-size="14" lengthAdjust="spacing" textLength="57" x="102" y="171.9531">: Name[]</text><ellipse cx="18" cy="184.6504" fill="none" rx="3" ry="3" style="stroke:#038048;stroke-width:1.0;"/><text fill="#000000" font-family="sans-serif" font-size="14" font-weight="bold" lengthAdjust="spacing" textLength="148" x="27" y="188.4414">proxied_vote_weight</text><text fill="#000000" font-family="sans-serif" font-size="14" lengthAdjust="spacing" textLength="60" x="179" y="188.4414">: Float64</text><ellipse cx="18" cy="201.1387" fill="none" rx="3" ry="3" style="stroke:#038048;stroke-width:1.0;"/><text fill="#000000" font-family="sans-serif" font-size="14" font-weight="bold" lengthAdjust="spacing" textLength="40" x="27" y="204.9297">proxy</text><text fill="#000000" font-family="sans-serif" font-size="14" lengthAdjust="spacing" textLength="47" x="71" y="204.9297">: Name</text><ellipse cx="18" cy="217.627" fill="none" rx="3" ry="3" style="stroke:#038048;stroke-width:1.0;"/><text fill="#000000" font-family="sans-serif" font-size="14" font-weight="bold" lengthAdjust="spacing" textLength="70" x="27" y="221.418">reserved2</text><text fill="#000000" font-family="sans-serif" font-size="14" lengthAdjust="spacing" textLength="54" x="101" y="221.418">: UInt32</text><ellipse cx="18" cy="234.1152" fill="none" rx="3" ry="3" style="stroke:#038048;stroke-width:1.0;"/><text fill="#000000" font-family="sans-serif" font-size="14" font-weight="bold" lengthAdjust="spacing" textLength="70" x="27" y="237.9063">reserved3</text><text fill="#000000" font-family="sans-serif" font-size="14" lengthAdjust="spacing" textLength="48" x="101" y="237.9063">: string</text><ellipse cx="18" cy="250.6035" fill="none" rx="3" ry="3" style="stroke:#038048;stroke-width:1.0;"/><text fill="#000000" font-family="sans-serif" font-size="14" font-weight="bold" lengthAdjust="spacing" textLength="48" x="27" y="254.3945">staked</text><text fill="#000000" font-family="sans-serif" font-size="14" lengthAdjust="spacing" textLength="44" x="79" y="254.3945">: Int64</text><line style="stroke:#5A0000;stroke-width:2.0;" x1="8" x2="357" y1="261.3477" y2="261.3477"/><ellipse cx="18" cy="275.0918" fill="#84BE84" rx="3" ry="3" style="stroke:#038048;stroke-width:1.0;"/><text fill="#000000" font-family="sans-serif" font-size="14" lengthAdjust="spacing" textLength="192" x="27" y="278.8828">equals(other: any) : boolean</text><ellipse cx="18" cy="291.5801" fill="#84BE84" rx="3" ry="3" style="stroke:#038048;stroke-width:1.0;"/><text fill="#000000" font-family="sans-serif" font-size="14" lengthAdjust="spacing" text-decoration="underline" textLength="325" x="27" y="295.3711">from&lt;T&gt;(this: T, value: any) : InstanceType&lt;T&gt;</text><ellipse cx="18" cy="308.0684" fill="#84BE84" rx="3" ry="3" style="stroke:#038048;stroke-width:1.0;"/><text fill="#000000" font-family="sans-serif" font-size="14" lengthAdjust="spacing" text-decoration="underline" textLength="187" x="27" y="311.8594">from(value: any) : unknown</text></g><!--reverse link AccountVoterInfo to WAXAccountVoterInfo--><g id="link_AccountVoterInfo_WAXAccountVoterInfo"><path codeLine="50" d="M182.5,337.06 C182.5,356.56 182.5,358.68 182.5,378.62 " fill="none" id="AccountVoterInfo-backto-WAXAccountVoterInfo" style="stroke:#181818;stroke-width:1.0;"/><polygon fill="none" points="182.5,319.06,176.5,337.06,188.5,337.06,182.5,319.06" style="stroke:#181818;stroke-width:1.0;"/></g><!--SRC=[vLHDYzim4BtdLuWzfRHBjzcsXoK4aa0WbrAQz0DACMDfR0lBaYkDatMt-zyxIHp7ILtOOs5zilNUcyydXrpR4ZmKOcuWX8MpjABQe8YTKODmZiv0vgbtbLLpPvmNYKn6Klx5SbwXFp3UmGq_7SQdWzfRzEAcNxdEjCmjXY16Wqmh55YKL8j4er6XUr8WPOwFJb5M6IYtrJOLv2li09ULamSR649B0xbBBQw-JhzDfMGAVN64VcaJToKU1eAVXq10MZwAb-Du0h6UGS3nwtWYxiHqjboXrs3qBuWDpfqDd5gIyxtAnRw9atR__Vr7B_S35CSi79ERshDsO68W3MyQxFFIqksenNI8Ik_kwmQDdJC8jeMvLuguOrr4fDluQtxzw3GFuuotuK54MzHfHWrnOHpG-xSjpMrvaGssgxS5k0PLIVIX0pPzDl2zHlM43DrcpZ9u3EWtg4RzSpZ2j_qZv5ddg1gCbPsC5Nj67qeB6Lla7uLTqYAPWKqnya1FbkodN9MA9Qf_5VYp0XE6ZZBqTm9i_U9YgIVN9DuLu_LaI9aE7EULs82fi1KjsPbW9Qxh4fdM8nwU2ogRMzxluF5uGvxBzNY6jlylRDPZiF7lw-l-N_CV]--></g></svg>